<?xml version="1.0" encoding="utf-8"?>
<!-- Generator: Adobe Illustrator 27.0.0, SVG Export Plug-In . SVG Version: 6.00 Build 0)  -->
<svg version="1.1" id="Calque_1" xmlns="http://www.w3.org/2000/svg" xmlns:xlink="http://www.w3.org/1999/xlink" x="0px" y="0px"
	 viewBox="0 0 425.2 283.46" style="enable-background:new 0 0 425.2 283.46;" xml:space="preserve">
<style type="text/css">
	.st0{fill:#FFFFFF;}
	.st1{fill:#D47FB2;}
	.st2{fill:#020203;}
</style>
<g>
	<path d="M-341,222.7c0.14-6.56,0.12-64.13,0.12-64.73c0-4.99-3.5-8.76-8.37-9.01c-0.21-0.02-0.44-0.02-0.66-0.02
		c-0.56,0-1.12,0.06-1.68,0.15c-2.48,0.37-19.67,2.38-22.76,2.63h-0.06c-3.04,0-7.14,1.82-8.63,6.94c-0.06,0.19-0.12,0.39-0.15,0.6
		c-0.08,0.35-0.66,3.07-1.49,6.94c-0.6-2.61-1.1-4.85-1.22-5.49c-0.72-4.27-4.31-7.35-8.57-7.35c-0.56,0-1.08,0.04-1.55,0.14
		c-3.21,0.15-19.42,0.54-23.09,0.54c-0.14,0-0.41,0-0.41,0c-5.3,0-9.01,3.71-8.99,9.17c0,0.35,0.56,36.22,0.56,41.77
		c0,3.38,0.12,16.09,0.35,36.72l0.02,1.08c0,1.64,0.48,3.27,1.41,4.64c1.45,2.15,3.75,3.46,6.42,3.69c0.73,0.08,1.45,0.08,2.24,0.08
		c2.05,0,8.72-0.14,11-0.25h0.99c0.85,0,2.07,0,3.38-0.37c1.84-0.5,3.58-1.62,4.8-3.35c1.51,1.76,3.89,3.13,7.19,3.13
		c0.27,0,0.58-0.02,0.95-0.04c0.75-0.04,3.15-0.23,5.67-0.41c2.51-0.19,5.16-0.41,6.38-0.52c0.83-0.06,2.67-0.33,4.43-1.49
		c0.04,2.86,0.08,5.14,0.12,6.3c0,1.01,0.06,2.36,0.62,3.83c1.28,3.35,4.39,5.49,7.95,5.49c0.39,0,0.81-0.02,1.12-0.08v-0.04
		c4.8-0.85,15.95-7.72,17.85-8.9c0.03-0.03,0.08-0.07,0.13-0.1c0.01-0.01,0.02-0.01,0.03-0.02c0,0-0.01,0.01-0.02,0.01
		c0,0,0.01-0.01,0.01-0.01c2.67-1.76,4.14-4.51,4.14-7.77c0-0.46-0.04-4.99-0.1-10.02C-340.93,230.51-341,223.65-341,222.7z
		 M-350.94,246.74c-0.58,0.46-13.54,7.5-13.89,7.39c-0.35,0.04-0.58,0.19-0.58-1.08c-0.12-1.26-0.35-32.72-0.35-33.88
		c0-1.28-0.12-31.37-0.12-32.74c-0.12-1.39-0.46-0.19-0.46-0.19s-0.93,3.46-1.16,4.64c-0.23,0.97-5.43,24.77-5.9,26.78
		c-0.46,2.24-4.27,20.09-4.51,21.25c-0.23,1.18-0.46,1.08-0.93,1.14c-0.46,0.06-10.77,0.87-11.93,0.93
		c-1.16,0.08-1.39-0.15-1.51-0.48c-0.23-0.33-3.81-18.18-5.43-24.12c-1.62-5.8-6.71-27.13-6.94-28.27c-0.35-1.04-0.35-0.7-0.35-0.23
		c-0.12,0.37-0.12,26.4-0.12,26.98c0,0.7,0.23,24.19,0.23,25.47c0,1.28-0.46,1.18-0.46,1.18c-0.12,0.12-1.74,0.06-2.44,0.08
		c-0.58,0.06-11.68,0.37-12.14,0.21c-0.58,0-0.46-0.23-0.46-0.23s-0.35-31.95-0.35-37.75c0-5.67-0.58-41.91-0.58-41.91
		c0-0.79,0.12-0.79,0.81-0.79c0.35,0.08,24.77-0.44,24.77-0.64c0,0,0.58-0.27,0.7,0.43c0.35,2.07,2.77,12.22,4.51,19.86
		c1.74,7.64,5.22,18.6,5.45,19.28c0.21,0.68,0.21-0.02,0.21-0.02c0.23-1.03,8.45-39.12,8.68-40.21c0.35-1.2,0.81-1.01,0.81-1.01
		c0.93,0.04,24.43-2.69,24.43-2.82c0.46,0.06,0.81-0.1,0.81,0.83c0,3.35,0,62.97-0.12,64.73c0,1.72,0.23,22.88,0.23,23.92
		C-350.01,246.39-350.36,246.2-350.94,246.74z"/>
	<path d="M-60.22,182.74c0.15-2.2-0.48-4.43-1.84-6.17c-1.57-1.99-3.87-3.21-6.42-3.38c-0.56-0.04-1.12-0.06-1.78-0.06
		c-2.78,0-9.22,0.19-13.9,0.35c-1.16,0.04-2.2,0.08-3.17,0.12c0.02-0.41,0.04-2.24,0.04-2.24c0-0.06-0.02-0.73-0.04-1.84
		c-0.25-20.07-0.23-24.29-0.21-24.91c0.06-0.87,0.1-3.64-0.1-25.62v-1.53c0-1.16,0-4.66-2.73-7.39c-1.59-1.59-3.67-2.48-5.9-2.55
		h-0.5c-1.04,0-11.68,0.73-15.47,1.2v-0.02c-2.53,0.23-5.16,1.59-6.73,4.06c-1.61-1.53-3.75-2.48-6.11-2.48
		c-0.5,0-1.01,0.04-1.49,0.12c-5.11,0.52-22.55,2.84-22.59,2.84c-0.21,0.02-20.79,3-27.65,4.54l-0.02-0.06
		c-1.02,0.17-2.09,0.58-3.09,1.14c-0.46-4.06-3.27-6.56-6-7.6c-1.16-0.46-2.78-0.81-10.02-2.19c-1.76-0.33-4.1-0.77-4.93-0.97
		c-0.89-0.27-1.8-0.41-2.71-0.41c-4.29,0-8.74,3.4-8.74,9.15c0,0.12,0.02,1.28,0.04,3.11c0.27,17.21,0.35,25.89,0.37,30.09
		c-1.86,1.22-4.45,2.88-7.14,4.6c0-1.72-0.04-3.19-0.1-4.25c-0.1-2.69-0.02-9.5,0-11.76v-0.37c0.27-2.63-0.41-4.89-1.99-6.75
		c-1.62-1.88-4.02-2.94-6.58-2.94c-0.97,0-1.82,0.14-2.46,0.27l0.02,0.04c-3.52,0.58-11.14,2.24-13.92,2.86v-0.04
		c-1.37,0.27-2.55,0.79-3.58,1.49c-1.35-0.85-2.94-1.35-4.64-1.35c-0.64,0-1.3,0.08-1.93,0.21c-0.29,0.06-0.64,0.14-1.08,0.25
		c-0.95,0.23-2.53,0.62-5.63,1.02c-0.5,0.06-1.06,0.1-1.7,0.15c-5.7,0.52-15.24,1.37-22.38,4.95l-0.33,0.17
		c-6.48,3.42-14.56,7.68-21.78,21.5c-0.87,1.66-5.09,10.42-5.2,24.52c0,0.02,0,0.02,0,0.04c-0.02,1.8,0,11.04,1.82,18.55
		c0.56,2.8,3.4,15.14,10.31,23.57c0.85,1.04,1.62,2.07,2.4,3.06c5.14,6.71,10.46,13.65,26.24,19.22c0.7,0.25,1.8,0.54,3.17,0.54
		c2.92,0,5.67-1.26,7.74-3.5c0.08-0.1,0.15-0.19,0.23-0.29c0.43-0.48,0.93-1.1,5.22-7.87c1.99-3.13,3.21-5.07,3.96-6.38
		c0,0,0.02-0.04,0.02-0.06h0.02l0.04,0.02c0.02-0.04,0.1-0.19,0.17-0.31c0.19-0.25,0.37-0.52,0.52-0.75
		c1.35-2.28,1.51-4.33,1.26-5.94c1.57,2.01,3.98,3.29,6.81,3.29c0.72,0,1.35-0.1,1.84-0.17c1.01-0.15,3.66-0.66,13.73-2.71
		l0.87-0.17c4.33-0.73,7.21-4.35,7.04-8.86v-26.51c1.9-1.28,4.56-3.07,6.87-4.62c-0.02,1.95-0.04,3.48-0.04,4.02
		c0,0.6,0.02,2.63,0.04,5.28c0.06,5.05,0.15,15.41,0.1,17.23c-0.19,2.4,0.52,4.66,2.07,6.44c1.62,1.86,3.96,2.9,6.46,2.9
		c1.35,0,2.48-0.31,3.27-0.58c2.57-0.52,12.09-2.34,12.86-2.48c0.08-0.02,0.15-0.04,0.23-0.04c2.34-0.44,4.91-1.97,6.29-4.8
		c1.51,1.2,3.36,1.93,5.43,1.93c0.43,0,1.02-0.06,1.43-0.12c0.14-0.02,1.04-0.17,2.44-0.39c19.01-3.09,24.1-3.85,24.95-3.95
		c0.12-0.02,0.23-0.02,0.35-0.04c0.21-0.02,19.18-2.57,22.45-3.02c2.42-0.29,4.83-1.55,6.38-3.77c1.61,1.68,3.87,2.65,6.36,2.65
		c0.25,0,0.68-0.02,0.93-0.04c0.17-0.02,0.35-0.04,0.52-0.06c2.59-0.29,20.6-1.3,23.01-1.3h0.23c0.27,0,0.54-0.02,0.81-0.04
		c1.24-0.1,12.55-0.7,15.76-0.72c0.23,0.02,0.46,0.04,0.7,0.04c0.02,0,0.02,0,0.04,0c3.62-0.02,5.78-1.68,6.98-3.09
		c1.45-1.72,2.17-3.98,2.01-6.3C-60.03,192.94-60.18,184.97-60.22,182.74z M-258.6,225.17c-0.23,0.29-0.7,1.08-0.7,1.08
		s-7.52,12.05-8.45,13.15c-1.02,1.14-2.07,0.77-2.07,0.77c-15.74-5.55-18.76-11.97-25.01-19.71c-6.27-7.64-8.68-20.17-8.68-20.17
		c-1.74-7.1-1.62-16.73-1.62-16.73c0.12-13.11,4.27-20.79,4.27-20.79c6.15-11.78,12.4-14.91,18.64-18.22
		c6.36-3.19,16.67-3.75,21.2-4.22c4.62-0.6,6.48-1.2,7.41-1.39c0.93-0.19,0.58,0.46,0.58,0.46s-0.93,4.35-1.51,6.56
		c-0.58,2.55-3.02,11.62-3.13,12.69c-0.35,1.22-0.93,0.87-0.93,0.87c-0.19-0.19-0.39-0.39-0.58-0.58
		c-10.75-5.09-18.62,0.15-18.62,0.15c-6.5,4.04-7.64,9.82-9.03,16.57c-1.39,6.4,0.35,18.22,0.35,18.22
		c0.7,8.55,6.83,15.24,11.8,20.73c4.76,5.9,15.39,9.65,15.97,9.77C-258.14,224.5-258.37,224.79-258.6,225.17z M-255.54,217.61
		c-2.53-0.81-9.24-3.89-11.72-6.96c-0.1-0.14-0.46-0.54-0.46-0.54c-4.25-4.7-9.09-10.04-9.55-15.7c0-0.17-0.02-0.35-0.06-0.52
		c-0.62-4.31-1.18-11.91-0.44-15.3c0-0.02,0.04-0.17,0.04-0.19c1.39-6.79,2.13-9.15,5.32-11.14c0.14-0.1,0.08-0.04,0.12-0.08
		c0.43-0.21,2.15-1.04,4.7-1.04c1.59,0,3.21,0.31,4.87,0.97c0.37,0.31,0.77,0.58,1.2,0.81c1.22,0.68,2.77,1.06,4.16,1.06
		c2.46,0,4.66-1.01,6.29-2.71v32.64l-0.02,3.4c-0.06,12.8-0.04,15.92,0.02,17.1c0.02,0.41,0.1,0.81,0.17,1.2
		C-252.06,219.16-253.65,218.12-255.54,217.61z M-188.9,177.12c-0.12,1.9-0.12,29.36-0.12,30.05c0,0.81-0.12,1.06-0.58,1.14
		c-0.58,0.1-13.32,2.55-13.9,2.69c-0.58,0.23-1.37,0.62-1.28-0.21c0.12-0.97-0.1-21.04-0.1-23.13c0-1.99,0.21-16.92,0.21-17.97
		v-0.31c0-0.89-0.14-0.75-0.7-0.64c-0.44,0.21-5.55,3.64-7.06,4.64c-1.49,0.87-14,9.3-14.7,9.8c-0.81,0.27-1.04,1.03-1.04,1.14
		v30.44c0,0.81,0.12,0.68-0.35,0.77c-0.46,0.08-13.42,2.75-14.35,2.82c-0.81,0.17-1.04,0.1-1.04-0.6c-0.12-0.77,0-17.83,0-20.02
		v-36.36c0-2.55-0.35-20.77-0.35-21.7c0-0.93,0.12-0.95,0.81-1.08c0.81-0.29,13.89-2.86,13.89-2.86c1.39-0.27,1.28-0.02,1.16,0.81
		c0,0.46-0.12,9.75,0,13.07c0.23,3.56,0,14.25,0,15.53c0,1.26-0.46,3.33,0.58,3c0.93-0.44,20.96-13.38,22.12-14.18
		c1.02-0.66,0.68,0.1,0.91-1.22c0.21-3.07-0.33-36.42-0.33-37.09c0-0.7,0.23-1.08,0.79-0.85c0.46,0.25,13.44,2.51,14.37,2.94
		c1.16,0.35,0.81,1.12,0.81,1.82c0,0.7,0.23,26.59,0,28.04C-189.25,148.92-188.79,175.01-188.9,177.12z M-124.91,196.49
		c0,1.16-0.35,1.32-0.81,1.37c-0.33,0.06-20.6,2.78-22.57,3.04c-2.09,0.19-27.09,4.27-27.89,4.41c-0.7,0.12-0.7-0.46-0.7-0.46
		c0-4.18-0.23-20.11-0.23-21.72c0.12-1.76,0-28.02,0-30.34c0-2.19-0.12-26.48-0.12-27.06c0-0.58,0-0.93,0.81-1.08
		c0.68-0.31,23.73-4,27.19-4.41c3.25-0.44,22.92-2.96,22.92-2.88c0.02,0,0.7-0.19,0.81,0.6v10.08c0,1.28,0.12,3.58-0.23,4.2
		c-0.44,0.5-4.51,0.62-7.41,1.1c-3,0.5-25.59,3.31-26.84,3.6c-1.39,0.35-1.04,0.64-1.04,1.1c0,0.35,0.23,3.91,0.23,5.16
		c0,1.28,0.12,12.26,0.12,14.7c-0.12,2.44,0.91,1.35,0.93,1.35c0-0.02,1.95-1.12,3.58-1.95c1.62-0.87,16.13-9.07,16.21-9.07
		c0.81-0.33,1.39-0.87,1.51-0.66c0.12,0.44,0.12,0.91,0.12,1.95c0,1.04,0.12,10.87,0.12,11.91c0,0.91-1.62,1.7-3.83,2.82
		c-2.19,1.06-17.93,10.04-18.28,10.37c-0.35,0.17-0.35,0.64-0.35,0.64c0,0.46,0.35,11.04,0.35,11.97c0.12,0.91,0,0.7,0.81,0.58
		c0.68-0.25,11.45-1.9,12.96-1.97c1.51-0.29,19.8-2.75,20.71-2.67c1.04-0.12,0.81,0.62,0.81,1.41
		C-125.03,185.28-124.79,195.33-124.91,196.49z M-147.69,144.86c-0.95,0.54-3.64,2.05-3.83,2.15c-0.02-0.64-0.02-1.2-0.02-1.64
		C-150.32,145.21-149.01,145.03-147.69,144.86z M-124.6,176.11c-0.21,0-0.44,0-0.68,0.02c-3.44,0.17-18.43,2.28-21.35,2.73
		c-0.5,0.06-1.22,0.14-2.07,0.25c4.58-2.61,10.23-5.78,11.39-6.34l0.19-0.12c3.06-1.53,8.14-4.1,8.14-10.06
		c0-0.54-0.12-11.41-0.12-11.91c0-1.37,0-2.55-0.37-4c-0.17-0.64-0.41-1.26-0.72-1.84c-0.43-0.77-0.97-1.47-1.61-2.07
		c0.43-0.06,0.77-0.12,1.03-0.15c0.95-0.15,2.07-0.27,3.07-0.37c3-0.31,5.47-0.58,7.58-2.05c0.08,7.12,0.14,13.73,0.14,15.84v0.19
		c0.04,1.82,0.08,8.59,0.1,15.74c0.02,1.99,0.02,3.81,0.04,5.51C-121.24,176.59-122.86,176.11-124.6,176.11z M-70.04,194.58
		c-0.46-0.19-15.74,0.58-17.25,0.73c-1.61-0.1-23.61,1.16-24.54,1.37c-1.04,0.1-0.58-0.64-0.58-0.64
		c-0.23-0.79-0.23-36.34-0.35-41.17c0-4.64-0.33-37.25-0.44-38.06c0-0.93,0.21-1.06,0.68-1.1c0.35-0.08,14.14-1.26,14.95-1.14
		c0.7-0.04,0.7,1.12,0.7,1.7c0,0.46,0.23,24.87,0.12,26.61c-0.12,1.62,0.23,26.96,0.23,27.31c0,0.46-0.14,9.96,0,10.19
		c0.12,0.33-0.23,0.58,0.33,0.68c0.27-0.12,5.57-0.33,11.31-0.52c6.79-0.23,14.23-0.43,14.74-0.31c0.93,0,0.7,0.93,0.7,0.93
		c0,1.39,0.23,12.73,0.23,12.73C-69.12,194.58-69.58,194.58-70.04,194.58z"/>
	<path d="M-424.76,80.62c5.46-7.93,12.21-14.33,20.46-14.69c1.39-0.06,1.93,0.03,1.93,0.84c0,0.23-0.11,0.58-0.21,1.05
		c-2.25,10.87-22.6,44.63-22.6,54.37c0,3.24,2.89,4.25,4.07,4.23c1.61-0.03,3.11-1.68,3.96-3.09c0.18-0.31,0.36-0.63,0.54-0.94
		c6.21-10.76,32.03-56.2,44.02-57.42c1.18-0.1,2.36,0.25,2.36,3.49c0,8.93-11.46,31.92-17.25,42.47c-0.54,0.96-1.29,2.17-1.29,3.33
		c0,1.97,1.72,3.24,3.43,3.12c1.18-0.08,2.57-1.58,3.11-2.66c4.61-9.06,25.82-44.36,35.35-45.53c0.75-0.09,1.71,0.27,1.71,2.35
		c0,9.17-14.25,29.02-14.25,45.89c0,2.2,0.22,4.26,0.86,5.93c1.07,3.02,2.89,4.1,5.03,3.87c7.5-0.79,19.28-17.75,21.1-19.96
		c0.57-0.69,1.14-1.38,1.71-2.07c0.75-0.91,1.07-1.76,1.07-2.57c0-1.85-1.61-3.38-3.32-3.17c-0.75,0.09-1.5,0.54-2.25,1.44
		c-0.57,0.69-1.14,1.38-1.71,2.06c-3.96,4.77-8.36,11.19-13.17,15.21c-1.07,0.93-1.82,1.47-2.25,1.52
		c-0.64,0.07-0.64-0.86-0.64-2.94c0-15.49,14.25-34.14,14.25-45.98c0-5.21-3.11-9.11-8.14-8.53c-5.46,0.63-12.21,7.02-18.64,15.04
		c1.07-3.58,1.71-6.88,1.71-9.43c0-6.37-3.32-10.32-8.78-9.84c-10.07,0.9-23.14,18.34-33.74,34.85
		c5.25-10.98,10.28-21.8,10.28-26.78c0-5.44-3.86-7.3-8.25-7.11c-11.35,0.5-19.82,9.16-25.6,17.5c-0.54,0.7-0.75,1.39-0.75,2.08
		c0,1.85,1.71,3.47,3.43,3.46C-426.37,82.02-425.51,81.67-424.76,80.62z"/>
	<path d="M-286.35,120.03c10.29-1.51,19.82-13.83,26.48-22.03c0.56-0.7,1.14-1.39,1.7-2.11c0.54-0.66,0.97-1.18,1.51-1.84
		c-1.82,7.1-3.66,13.4-5.26,17.7c-0.21,0.6-0.31,1.2-0.31,1.78c0,1.97,1.49,3.25,3.09,3c1.08-0.15,2.26-1.03,3-2.53
		c10.5-20.81,22.82-37.48,28.51-38.31c1.91-0.29,2.36,0.35,2.36,2.09c0,7.99-9.86,18-9.86,26.57c0,3.6,2.36,5.78,5.69,5.3
		c4.33-0.64,10.87-5.8,18.26-13.96c1.41,6.3,5.41,10.68,12.16,9.79c9.32-1.26,18.53-11.99,24.73-19.42
		c0.12-0.12,0.21-0.25,0.33-0.37c0.31,8.76,3.85,14.72,9.75,14.1c2.88-0.31,6.32-2.28,10.17-6c3.27-3.17,6.05-6.69,8.99-10.15
		c-0.21,1.47-0.21,2.8-0.21,3.81c0,6.03,1.61,13.98,8.78,13.44c5.51-0.41,12.2-8.24,17.17-14.33c1.2,6.25,4.95,10.38,12.09,10.17
		c2.67-0.08,5.67-0.83,8.57-2.15c2.88-1.43,5.14-3.06,5.78-3.98c0.52-0.72,0.75-1.51,0.75-2.32c0-1.86-1.39-3.48-3.23-3.46
		c-1.82,0.02-3.52,1.9-6.09,3.44c-2.05,1.2-3.96,1.82-5.69,1.88c-4.93,0.14-5.88-2.8-6.21-7.43c10.81-1.51,22.7-7.31,22.7-16.67
		c0-5.43-3.85-9.26-9.21-9.19c-8.45,0.14-17.06,8.95-19.32,19.44c-0.1,0.1-0.19,0.21-0.29,0.31c-1.82,2.03-13.29,17.04-17.04,17.35
		c-2.34,0.17-2.34-5.72-2.34-7c0-3.36,0.43-7.68,1.39-12.26c14.23-16.94,28.49-34.87,28.49-46.32c0-4.51-1.61-8.64-6.54-8.43
		c-12.11,0.5-22.7,30.59-27.31,51.23c-1.82,2.11-3.33,3.98-4.62,5.47c-0.56,0.68-1.14,1.33-1.7,2.01c0,0-0.02,0-0.02,0.02
		c-3.21,3.75-10.17,13.42-14.54,13.89c-2.26,0.23-3.87-2.03-3.87-8.86c0-1.97,0.21-4.31,0.64-6.9c3.96-5.4,7.83-11.12,11.04-16.63
		c4.27-7.14,12.11-21,12.11-29.9c0-3.36-1.51-6.71-5.26-6.38c-6.09,0.52-13.38,18.62-14.99,22.51c-3.64,8.59-7.08,18.93-8.78,27.81
		c-1.39,1.9-2.9,3.81-4.29,5.47c-0.56,0.68-1.14,1.37-1.7,2.05c-0.02,0-0.02,0.02-0.02,0.02c-4.72,5.65-13.27,15.84-20.23,16.77
		c-4.6,0.62-6.11-3.79-6.32-7.81c10.93-2.44,21.85-10.85,21.85-19.86c0-5.22-3.54-9.07-8.9-8.37c-6.98,0.89-17.48,10.87-19.15,24.17
		c-2.53,3.06-4.91,5.65-6.98,7.75c-3.11,3.23-8.26,7.91-9.86,8.16c-0.21,0.02-0.33-0.31-0.33-0.54c0-1.04,1.18-3.54,2.69-6.42
		c3-5.76,7.17-11.1,7.17-18.74c0-5.92-3.64-8.86-8.78-8.1c-6.11,0.89-13.83,9.34-21.1,20.17c0.64-2.88,1.39-5.76,2.03-8.53
		c10.81-15.99,20.13-36.11,20.13-41.21c0-2.88-1.61-5.43-4.72-4.97c-0.95,0.14-2.24,0.91-2.88,1.47
		c-3.42,2.82-13.92,26.17-18.31,42.35c-3.54,5.05-7.08,9.86-10.17,13.69c-0.58,0.7-1.16,1.41-1.72,2.11c0,0.02-0.02,0.02-0.02,0.02
		c-4.93,6.07-14.23,18.12-21.95,19.24c-4.6,0.68-6.63-2.03-6.63-7.25c0-9.15,6.32-19.9,13.29-20.92c0.54-0.08,1.06-0.06,1.39,0.14
		c-0.33,0.5-0.43,1.22-0.43,1.91c0,1.28,0.64,4.66,3.96,4.16c2.13-0.33,3.73-2.42,3.73-4.74c0-6.13-3.85-9.15-8.66-8.43
		c-12.32,1.84-19.71,18.16-19.71,28.81C-299.4,114.4-295.77,121.42-286.35,120.03z M-99.85,63.67c2.57-0.04,2.78,1.7,2.78,2.4
		c0,4.27-8.47,8.78-15.22,9.4C-110.56,69.98-105.96,64.6-99.85,63.67z M-115.59,26.64c0.02,0.12,0.06,0.23,0.1,0.35
		c0.12,0.44,0.12,1.03,0.12,1.61c0,7.17-9.22,20.05-18.22,31.35C-131.87,54.47-121.6,26.87-115.59,26.64z M-160.05,52.92
		c2.78-6.19,5.45-12.45,8.57-18.53c0.75-1.35,1.18-2.07,1.39-2.09c0.12-0.02,0.12,0.21,0.12,0.33c0,0.35-0.12,0.93-0.54,2.01
		c-2.36,6.69-5.69,13.15-8.99,19.49c-1.3,2.55-3,5.51-4.18,7.6C-162.62,58.98-161.23,55.59-160.05,52.92z M-192.4,69.4
		c1.72-0.23,2.48,0.72,2.48,2.22c0,4.27-6.73,9.75-14.43,11.85c-0.02,0-0.02-0.02-0.02-0.02C-202.44,77.06-197.64,70.08-192.4,69.4z
		"/>
	<path d="M-304.48,62.47c0,0,0.26-1.64-0.68-1.44c0,0-14.04-1.54-14.5-1.58c-0.37,0.24-0.67-0.34-0.94,2.68
		c-0.29,3.3-6.2,70.32-6.56,75.55c-0.38,5.5-9.59,109.33-9.69,110.43c-0.1,1.1-0.3,3.3,1.55,3.46c1.85,0.17,12.31,1.38,13.05,0.9
		c0.63-0.5,0.83-0.2,1.15-3.77c0.35-3.85,10.71-121.69,11.29-126.9C-309.27,115.76-304.77,64.39-304.48,62.47z"/>
	<path d="M-305.82,49.65c7.3-2.93,9.94-13.75,6.14-18.12c-3.14-3.61-10.19-2.28-14.07-0.55c-3.46,1.54-9.23,5.55-8.82,10.35
		C-322.08,47.08-312.88,52.49-305.82,49.65z"/>
</g>
<g>
	<path class="st0" d="M116.91,222.7c0.14-6.56,0.12-64.13,0.12-64.73c0-4.99-3.5-8.76-8.37-9.01c-0.21-0.02-0.44-0.02-0.66-0.02
		c-0.56,0-1.12,0.06-1.68,0.15c-2.48,0.37-19.67,2.38-22.76,2.63h-0.06c-3.04,0-7.14,1.82-8.63,6.94c-0.06,0.19-0.12,0.39-0.15,0.6
		c-0.08,0.35-0.66,3.07-1.49,6.94c-0.6-2.61-1.1-4.85-1.22-5.49c-0.72-4.27-4.31-7.35-8.57-7.35c-0.56,0-1.08,0.04-1.55,0.14
		c-3.21,0.15-19.42,0.54-23.09,0.54c-0.14,0-0.41,0-0.41,0c-5.3,0-9.01,3.71-8.99,9.17c0,0.35,0.56,36.22,0.56,41.77
		c0,3.38,0.12,16.09,0.35,36.72l0.02,1.08c0,1.64,0.48,3.27,1.41,4.64c1.45,2.15,3.75,3.46,6.42,3.69c0.73,0.08,1.45,0.08,2.24,0.08
		c2.05,0,8.72-0.14,11-0.25h0.99c0.85,0,2.07,0,3.38-0.37c1.84-0.5,3.58-1.62,4.8-3.35c1.51,1.76,3.89,3.13,7.19,3.13
		c0.27,0,0.58-0.02,0.95-0.04c0.75-0.04,3.15-0.23,5.67-0.41c2.51-0.19,5.16-0.41,6.38-0.52c0.83-0.06,2.67-0.33,4.43-1.49
		c0.04,2.86,0.08,5.14,0.12,6.3c0,1.01,0.06,2.36,0.62,3.83c1.28,3.35,4.39,5.49,7.95,5.49c0.39,0,0.81-0.02,1.12-0.08v-0.04
		c4.8-0.85,15.95-7.72,17.85-8.9c0.03-0.03,0.08-0.07,0.13-0.1c0.01-0.01,0.02-0.01,0.03-0.02c0,0-0.01,0.01-0.02,0.01
		c0,0,0.01-0.01,0.01-0.01c2.67-1.76,4.14-4.51,4.14-7.77c0-0.46-0.04-4.99-0.1-10.02C116.98,230.51,116.91,223.65,116.91,222.7z
		 M106.97,246.74c-0.58,0.46-13.54,7.5-13.89,7.39c-0.35,0.04-0.58,0.19-0.58-1.08c-0.12-1.26-0.35-32.72-0.35-33.88
		c0-1.28-0.12-31.37-0.12-32.74c-0.12-1.39-0.46-0.19-0.46-0.19s-0.93,3.46-1.16,4.64c-0.23,0.97-5.43,24.77-5.9,26.78
		c-0.46,2.24-4.27,20.09-4.51,21.25c-0.23,1.18-0.46,1.08-0.93,1.14c-0.46,0.06-10.77,0.87-11.93,0.93
		c-1.16,0.08-1.39-0.15-1.51-0.48c-0.23-0.33-3.81-18.18-5.43-24.12c-1.62-5.8-6.71-27.13-6.94-28.27c-0.35-1.04-0.35-0.7-0.35-0.23
		c-0.12,0.37-0.12,26.4-0.12,26.98c0,0.7,0.23,24.19,0.23,25.47c0,1.28-0.46,1.18-0.46,1.18c-0.12,0.12-1.74,0.06-2.44,0.08
		c-0.58,0.06-11.68,0.37-12.14,0.21c-0.58,0-0.46-0.23-0.46-0.23s-0.35-31.95-0.35-37.75c0-5.67-0.58-41.91-0.58-41.91
		c0-0.79,0.12-0.79,0.81-0.79c0.35,0.08,24.77-0.44,24.77-0.64c0,0,0.58-0.27,0.7,0.43c0.35,2.07,2.77,12.22,4.51,19.86
		c1.74,7.64,5.22,18.6,5.45,19.28c0.21,0.68,0.21-0.02,0.21-0.02c0.23-1.03,8.45-39.12,8.68-40.21c0.35-1.2,0.81-1.01,0.81-1.01
		c0.93,0.04,24.43-2.69,24.43-2.82c0.46,0.06,0.81-0.1,0.81,0.83c0,3.35,0,62.97-0.12,64.73c0,1.72,0.23,22.88,0.23,23.92
		C107.89,246.39,107.55,246.2,106.97,246.74z"/>
	<path class="st0" d="M397.69,182.74c0.15-2.2-0.48-4.43-1.84-6.17c-1.57-1.99-3.87-3.21-6.42-3.38c-0.56-0.04-1.12-0.06-1.78-0.06
		c-2.78,0-9.22,0.19-13.9,0.35c-1.16,0.04-2.2,0.08-3.17,0.12c0.02-0.41,0.04-2.24,0.04-2.24c0-0.06-0.02-0.73-0.04-1.84
		c-0.25-20.07-0.23-24.29-0.21-24.91c0.06-0.87,0.1-3.64-0.1-25.62v-1.53c0-1.16,0-4.66-2.73-7.39c-1.59-1.59-3.67-2.48-5.9-2.55
		h-0.5c-1.04,0-11.68,0.73-15.47,1.2v-0.02c-2.53,0.23-5.16,1.59-6.73,4.06c-1.61-1.53-3.75-2.48-6.11-2.48
		c-0.5,0-1.01,0.04-1.49,0.12c-5.11,0.52-22.55,2.84-22.59,2.84c-0.21,0.02-20.79,3-27.65,4.54l-0.02-0.06
		c-1.02,0.17-2.09,0.58-3.09,1.14c-0.46-4.06-3.27-6.56-6-7.6c-1.16-0.46-2.78-0.81-10.02-2.19c-1.76-0.33-4.1-0.77-4.93-0.97
		c-0.89-0.27-1.8-0.41-2.71-0.41c-4.29,0-8.74,3.4-8.74,9.15c0,0.12,0.02,1.28,0.04,3.11c0.27,17.21,0.35,25.89,0.37,30.09
		c-1.86,1.22-4.45,2.88-7.14,4.6c0-1.72-0.04-3.19-0.1-4.25c-0.1-2.69-0.02-9.5,0-11.76v-0.37c0.27-2.63-0.41-4.89-1.99-6.75
		c-1.62-1.88-4.02-2.94-6.58-2.94c-0.97,0-1.82,0.14-2.46,0.27l0.02,0.04c-3.52,0.58-11.14,2.24-13.92,2.86v-0.04
		c-1.37,0.27-2.55,0.79-3.58,1.49c-1.35-0.85-2.94-1.35-4.64-1.35c-0.64,0-1.3,0.08-1.93,0.21c-0.29,0.06-0.64,0.14-1.08,0.25
		c-0.95,0.23-2.53,0.62-5.63,1.02c-0.5,0.06-1.06,0.1-1.7,0.15c-5.71,0.52-15.24,1.37-22.38,4.95l-0.33,0.17
		c-6.48,3.42-14.56,7.68-21.78,21.5c-0.87,1.66-5.09,10.42-5.2,24.52c0,0.02,0,0.02,0,0.04c-0.02,1.8,0,11.04,1.82,18.55
		c0.56,2.8,3.4,15.14,10.31,23.57c0.85,1.04,1.62,2.07,2.4,3.06c5.14,6.71,10.46,13.65,26.24,19.22c0.7,0.25,1.8,0.54,3.17,0.54
		c2.92,0,5.67-1.26,7.74-3.5c0.08-0.1,0.15-0.19,0.23-0.29c0.43-0.48,0.93-1.1,5.22-7.87c1.99-3.13,3.21-5.07,3.96-6.38
		c0,0,0.02-0.04,0.02-0.06h0.02l0.04,0.02c0.02-0.04,0.1-0.19,0.17-0.31c0.19-0.25,0.37-0.52,0.52-0.75
		c1.35-2.28,1.51-4.33,1.26-5.94c1.57,2.01,3.98,3.29,6.81,3.29c0.72,0,1.35-0.1,1.84-0.17c1.01-0.15,3.66-0.66,13.73-2.71
		l0.87-0.17c4.33-0.73,7.21-4.35,7.04-8.86v-26.51c1.9-1.28,4.56-3.07,6.87-4.62c-0.02,1.95-0.04,3.48-0.04,4.02
		c0,0.6,0.02,2.63,0.04,5.28c0.06,5.05,0.15,15.41,0.1,17.23c-0.19,2.4,0.52,4.66,2.07,6.44c1.62,1.86,3.96,2.9,6.46,2.9
		c1.35,0,2.48-0.31,3.27-0.58c2.57-0.52,12.09-2.34,12.86-2.48c0.08-0.02,0.15-0.04,0.23-0.04c2.34-0.44,4.91-1.97,6.29-4.8
		c1.51,1.2,3.36,1.93,5.43,1.93c0.43,0,1.02-0.06,1.43-0.12c0.14-0.02,1.04-0.17,2.44-0.39c19.01-3.09,24.1-3.85,24.95-3.95
		c0.12-0.02,0.23-0.02,0.35-0.04c0.21-0.02,19.18-2.57,22.45-3.02c2.42-0.29,4.83-1.55,6.38-3.77c1.61,1.68,3.87,2.65,6.36,2.65
		c0.25,0,0.68-0.02,0.93-0.04c0.17-0.02,0.35-0.04,0.52-0.06c2.59-0.29,20.6-1.3,23.01-1.3h0.23c0.27,0,0.54-0.02,0.81-0.04
		c1.24-0.1,12.55-0.7,15.76-0.72c0.23,0.02,0.46,0.04,0.7,0.04c0.02,0,0.02,0,0.04,0c3.62-0.02,5.78-1.68,6.98-3.09
		c1.45-1.72,2.17-3.98,2.01-6.3C397.88,192.94,397.73,184.97,397.69,182.74z M199.31,225.17c-0.23,0.29-0.7,1.08-0.7,1.08
		s-7.52,12.05-8.45,13.15c-1.02,1.14-2.07,0.77-2.07,0.77c-15.74-5.55-18.76-11.97-25.01-19.71c-6.27-7.64-8.68-20.17-8.68-20.17
		c-1.74-7.1-1.62-16.73-1.62-16.73c0.12-13.11,4.27-20.79,4.27-20.79c6.15-11.78,12.4-14.91,18.64-18.22
		c6.36-3.19,16.67-3.75,21.2-4.22c4.62-0.6,6.48-1.2,7.41-1.39c0.93-0.19,0.58,0.46,0.58,0.46s-0.93,4.35-1.51,6.56
		c-0.58,2.55-3.02,11.62-3.13,12.69c-0.35,1.22-0.93,0.87-0.93,0.87c-0.19-0.19-0.39-0.39-0.58-0.58
		c-10.75-5.09-18.62,0.15-18.62,0.15c-6.5,4.04-7.64,9.82-9.03,16.57c-1.39,6.4,0.35,18.22,0.35,18.22
		c0.7,8.55,6.83,15.24,11.8,20.73c4.76,5.9,15.39,9.65,15.97,9.77C199.77,224.5,199.54,224.79,199.31,225.17z M202.36,217.61
		c-2.53-0.81-9.24-3.89-11.72-6.96c-0.1-0.14-0.46-0.54-0.46-0.54c-4.25-4.7-9.09-10.04-9.55-15.7c0-0.17-0.02-0.35-0.06-0.52
		c-0.62-4.31-1.18-11.91-0.44-15.3c0-0.02,0.04-0.17,0.04-0.19c1.39-6.79,2.13-9.15,5.32-11.14c0.14-0.1,0.08-0.04,0.12-0.08
		c0.43-0.21,2.15-1.04,4.7-1.04c1.59,0,3.21,0.31,4.87,0.97c0.37,0.31,0.77,0.58,1.2,0.81c1.22,0.68,2.77,1.06,4.16,1.06
		c2.46,0,4.66-1.01,6.29-2.71v32.64l-0.02,3.4c-0.06,12.8-0.04,15.92,0.02,17.1c0.02,0.41,0.1,0.81,0.17,1.2
		C205.85,219.16,204.26,218.12,202.36,217.61z M269.01,177.12c-0.12,1.9-0.12,29.36-0.12,30.05c0,0.81-0.12,1.06-0.58,1.14
		c-0.58,0.1-13.32,2.55-13.9,2.69c-0.58,0.23-1.37,0.62-1.28-0.21c0.12-0.97-0.1-21.04-0.1-23.13c0-1.99,0.21-16.92,0.21-17.97
		v-0.31c0-0.89-0.14-0.75-0.7-0.64c-0.44,0.21-5.55,3.64-7.06,4.64c-1.49,0.87-14,9.3-14.7,9.8c-0.81,0.27-1.04,1.03-1.04,1.14
		v30.44c0,0.81,0.12,0.68-0.35,0.77c-0.46,0.08-13.42,2.75-14.35,2.82c-0.81,0.17-1.04,0.1-1.04-0.6c-0.12-0.77,0-17.83,0-20.02
		v-36.36c0-2.55-0.35-20.77-0.35-21.7c0-0.93,0.12-0.95,0.81-1.08c0.81-0.29,13.89-2.86,13.89-2.86c1.39-0.27,1.28-0.02,1.16,0.81
		c0,0.46-0.12,9.75,0,13.07c0.23,3.56,0,14.25,0,15.53c0,1.26-0.46,3.33,0.58,3c0.93-0.44,20.96-13.38,22.12-14.18
		c1.02-0.66,0.68,0.1,0.91-1.22c0.21-3.07-0.33-36.42-0.33-37.09c0-0.7,0.23-1.08,0.79-0.85c0.46,0.25,13.44,2.51,14.37,2.94
		c1.16,0.35,0.81,1.12,0.81,1.82c0,0.7,0.23,26.59,0,28.04C268.66,148.92,269.12,175.01,269.01,177.12z M333,196.49
		c0,1.16-0.35,1.32-0.81,1.37c-0.33,0.06-20.6,2.78-22.57,3.04c-2.09,0.19-27.09,4.27-27.89,4.41c-0.7,0.12-0.7-0.46-0.7-0.46
		c0-4.18-0.23-20.11-0.23-21.72c0.12-1.76,0-28.02,0-30.34c0-2.19-0.12-26.48-0.12-27.06c0-0.58,0-0.93,0.81-1.08
		c0.68-0.31,23.73-4,27.19-4.41c3.25-0.44,22.92-2.96,22.92-2.88c0.02,0,0.7-0.19,0.81,0.6v10.08c0,1.28,0.12,3.58-0.23,4.2
		c-0.44,0.5-4.51,0.62-7.41,1.1c-3,0.5-25.59,3.31-26.84,3.6c-1.39,0.35-1.04,0.64-1.04,1.1c0,0.35,0.23,3.91,0.23,5.16
		c0,1.28,0.12,12.26,0.12,14.7c-0.12,2.44,0.91,1.35,0.93,1.35c0-0.02,1.95-1.12,3.58-1.95c1.62-0.87,16.13-9.07,16.21-9.07
		c0.81-0.33,1.39-0.87,1.51-0.66c0.12,0.44,0.12,0.91,0.12,1.95c0,1.04,0.12,10.87,0.12,11.91c0,0.91-1.62,1.7-3.83,2.82
		c-2.19,1.06-17.93,10.04-18.28,10.37c-0.35,0.17-0.35,0.64-0.35,0.64c0,0.46,0.35,11.04,0.35,11.97c0.12,0.91,0,0.7,0.81,0.58
		c0.68-0.25,11.45-1.9,12.96-1.97c1.51-0.29,19.8-2.75,20.71-2.67c1.04-0.12,0.81,0.62,0.81,1.41
		C332.88,185.28,333.12,195.33,333,196.49z M310.22,144.86c-0.95,0.54-3.64,2.05-3.83,2.15c-0.02-0.64-0.02-1.2-0.02-1.64
		C307.59,145.21,308.9,145.03,310.22,144.86z M333.31,176.11c-0.21,0-0.44,0-0.68,0.02c-3.44,0.17-18.43,2.28-21.35,2.73
		c-0.5,0.06-1.22,0.14-2.07,0.25c4.58-2.61,10.23-5.78,11.39-6.34l0.19-0.12c3.06-1.53,8.14-4.1,8.14-10.06
		c0-0.54-0.12-11.41-0.12-11.91c0-1.37,0-2.55-0.37-4c-0.17-0.64-0.41-1.26-0.72-1.84c-0.43-0.77-0.97-1.47-1.61-2.07
		c0.43-0.06,0.77-0.12,1.03-0.15c0.95-0.15,2.07-0.27,3.07-0.37c3-0.31,5.47-0.58,7.58-2.05c0.08,7.12,0.14,13.73,0.14,15.84v0.19
		c0.04,1.82,0.08,8.59,0.1,15.74c0.02,1.99,0.02,3.81,0.04,5.51C336.67,176.59,335.05,176.11,333.31,176.11z M387.86,194.58
		c-0.46-0.19-15.74,0.58-17.25,0.73c-1.61-0.1-23.61,1.16-24.54,1.37c-1.04,0.1-0.58-0.64-0.58-0.64
		c-0.23-0.79-0.23-36.34-0.35-41.17c0-4.64-0.33-37.25-0.44-38.06c0-0.93,0.21-1.06,0.68-1.1c0.35-0.08,14.14-1.26,14.95-1.14
		c0.7-0.04,0.7,1.12,0.7,1.7c0,0.46,0.23,24.87,0.12,26.61c-0.12,1.62,0.23,26.96,0.23,27.31c0,0.46-0.14,9.96,0,10.19
		c0.12,0.33-0.23,0.58,0.33,0.68c0.27-0.12,5.57-0.33,11.31-0.52c6.79-0.23,14.23-0.43,14.74-0.31c0.93,0,0.7,0.93,0.7,0.93
		c0,1.39,0.23,12.73,0.23,12.73C388.79,194.58,388.33,194.58,387.86,194.58z"/>
	<path class="st0" d="M33.15,80.62c5.46-7.93,12.21-14.33,20.46-14.69c1.39-0.06,1.93,0.03,1.93,0.84c0,0.23-0.11,0.58-0.21,1.05
		c-2.25,10.87-22.6,44.63-22.6,54.37c0,3.24,2.89,4.25,4.07,4.23c1.61-0.03,3.11-1.68,3.96-3.09c0.18-0.31,0.36-0.63,0.54-0.94
		c6.21-10.76,32.03-56.2,44.02-57.42c1.18-0.1,2.36,0.25,2.36,3.49c0,8.93-11.46,31.92-17.25,42.47c-0.54,0.96-1.29,2.17-1.29,3.33
		c0,1.97,1.72,3.24,3.43,3.12c1.18-0.08,2.57-1.58,3.11-2.66c4.61-9.06,25.82-44.36,35.35-45.53c0.75-0.09,1.71,0.27,1.71,2.35
		c0,9.17-14.25,29.02-14.25,45.89c0,2.2,0.22,4.26,0.86,5.93c1.07,3.02,2.89,4.1,5.03,3.87c7.5-0.79,19.28-17.75,21.1-19.96
		c0.57-0.69,1.14-1.38,1.71-2.07c0.75-0.91,1.07-1.76,1.07-2.57c0-1.85-1.61-3.38-3.32-3.17c-0.75,0.09-1.5,0.54-2.25,1.44
		c-0.57,0.69-1.14,1.38-1.71,2.06c-3.96,4.77-8.36,11.19-13.17,15.21c-1.07,0.93-1.82,1.47-2.25,1.52
		c-0.64,0.07-0.64-0.86-0.64-2.94c0-15.49,14.25-34.14,14.25-45.98c0-5.21-3.11-9.11-8.14-8.53c-5.46,0.63-12.21,7.02-18.64,15.04
		c1.07-3.58,1.71-6.88,1.71-9.43c0-6.37-3.32-10.32-8.78-9.84c-10.07,0.9-23.14,18.34-33.74,34.85
		c5.25-10.98,10.28-21.8,10.28-26.78c0-5.44-3.86-7.3-8.25-7.11c-11.35,0.5-19.82,9.16-25.6,17.5c-0.54,0.7-0.75,1.39-0.75,2.08
		c0,1.85,1.71,3.47,3.43,3.46C31.54,82.02,32.4,81.67,33.15,80.62z"/>
	<path class="st0" d="M171.56,120.03c10.29-1.51,19.82-13.83,26.48-22.03c0.56-0.7,1.14-1.39,1.7-2.11
		c0.54-0.66,0.97-1.18,1.51-1.84c-1.82,7.1-3.66,13.4-5.26,17.7c-0.21,0.6-0.31,1.2-0.31,1.78c0,1.97,1.49,3.25,3.09,3
		c1.08-0.15,2.26-1.03,3-2.53c10.5-20.81,22.82-37.48,28.51-38.31c1.91-0.29,2.36,0.35,2.36,2.09c0,7.99-9.86,18-9.86,26.57
		c0,3.6,2.36,5.78,5.69,5.3c4.33-0.64,10.87-5.8,18.26-13.96c1.41,6.3,5.42,10.68,12.16,9.79c9.32-1.26,18.53-11.99,24.73-19.42
		c0.12-0.12,0.21-0.25,0.33-0.37c0.31,8.76,3.85,14.72,9.75,14.1c2.88-0.31,6.32-2.28,10.17-6c3.27-3.17,6.05-6.69,8.99-10.15
		c-0.21,1.47-0.21,2.8-0.21,3.81c0,6.03,1.61,13.98,8.78,13.44c5.51-0.41,12.2-8.24,17.17-14.33c1.2,6.25,4.95,10.38,12.09,10.17
		c2.67-0.08,5.67-0.83,8.57-2.15c2.88-1.43,5.14-3.06,5.78-3.98c0.52-0.72,0.75-1.51,0.75-2.32c0-1.86-1.39-3.48-3.23-3.46
		c-1.82,0.02-3.52,1.9-6.09,3.44c-2.05,1.2-3.96,1.82-5.69,1.88c-4.93,0.14-5.88-2.8-6.21-7.43c10.81-1.51,22.7-7.31,22.7-16.67
		c0-5.43-3.85-9.26-9.21-9.19c-8.45,0.14-17.06,8.95-19.32,19.44c-0.1,0.1-0.19,0.21-0.29,0.31c-1.82,2.03-13.29,17.04-17.04,17.35
		c-2.34,0.17-2.34-5.72-2.34-7c0-3.36,0.43-7.68,1.39-12.26c14.23-16.94,28.49-34.87,28.49-46.32c0-4.51-1.61-8.64-6.54-8.43
		c-12.11,0.5-22.7,30.59-27.31,51.23c-1.82,2.11-3.33,3.98-4.62,5.47c-0.56,0.68-1.14,1.33-1.7,2.01c0,0-0.02,0-0.02,0.02
		c-3.21,3.75-10.17,13.42-14.54,13.89c-2.26,0.23-3.87-2.03-3.87-8.86c0-1.97,0.21-4.31,0.64-6.9c3.96-5.4,7.83-11.12,11.04-16.63
		c4.27-7.14,12.11-21,12.11-29.9c0-3.36-1.51-6.71-5.26-6.38c-6.09,0.52-13.38,18.62-14.99,22.51c-3.64,8.59-7.08,18.93-8.78,27.81
		c-1.39,1.9-2.9,3.81-4.29,5.47c-0.56,0.68-1.14,1.37-1.7,2.05c-0.02,0-0.02,0.02-0.02,0.02c-4.72,5.65-13.27,15.84-20.23,16.77
		c-4.6,0.62-6.11-3.79-6.32-7.81c10.93-2.44,21.85-10.85,21.85-19.86c0-5.22-3.54-9.07-8.9-8.37c-6.98,0.89-17.48,10.87-19.15,24.17
		c-2.53,3.06-4.91,5.65-6.98,7.75c-3.11,3.23-8.26,7.91-9.86,8.16c-0.21,0.02-0.33-0.31-0.33-0.54c0-1.04,1.18-3.54,2.69-6.42
		c3-5.76,7.17-11.1,7.17-18.74c0-5.92-3.64-8.86-8.78-8.1c-6.11,0.89-13.83,9.34-21.1,20.17c0.64-2.88,1.39-5.76,2.03-8.53
		c10.81-15.99,20.13-36.11,20.13-41.21c0-2.88-1.61-5.43-4.72-4.97c-0.95,0.14-2.24,0.91-2.88,1.47
		c-3.42,2.82-13.92,26.17-18.31,42.35c-3.54,5.05-7.08,9.86-10.17,13.69c-0.58,0.7-1.16,1.41-1.72,2.11c0,0.02-0.02,0.02-0.02,0.02
		c-4.93,6.07-14.23,18.12-21.95,19.24c-4.6,0.68-6.63-2.03-6.63-7.25c0-9.15,6.32-19.9,13.29-20.92c0.54-0.08,1.06-0.06,1.39,0.14
		c-0.33,0.5-0.43,1.22-0.43,1.91c0,1.28,0.64,4.66,3.96,4.16c2.13-0.33,3.73-2.42,3.73-4.74c0-6.13-3.85-9.15-8.66-8.43
		c-12.32,1.84-19.71,18.16-19.71,28.81C158.5,114.4,162.14,121.42,171.56,120.03z M358.06,63.67c2.57-0.04,2.78,1.7,2.78,2.4
		c0,4.27-8.47,8.78-15.22,9.4C347.35,69.98,351.95,64.6,358.06,63.67z M342.32,26.64c0.02,0.12,0.06,0.23,0.1,0.35
		c0.12,0.44,0.12,1.03,0.12,1.61c0,7.17-9.22,20.05-18.22,31.35C326.04,54.47,336.31,26.87,342.32,26.64z M297.86,52.92
		c2.78-6.19,5.45-12.45,8.57-18.53c0.75-1.35,1.18-2.07,1.39-2.09c0.12-0.02,0.12,0.21,0.12,0.33c0,0.35-0.12,0.93-0.54,2.01
		c-2.36,6.69-5.69,13.15-8.99,19.49c-1.3,2.55-3,5.51-4.18,7.6C295.29,58.98,296.68,55.59,297.86,52.92z M265.51,69.4
		c1.72-0.23,2.48,0.72,2.48,2.22c0,4.27-6.73,9.75-14.43,11.85c-0.02,0-0.02-0.02-0.02-0.02C255.47,77.06,260.27,70.08,265.51,69.4z
		"/>
	<path class="st0" d="M153.43,62.47c0,0,0.26-1.64-0.68-1.44c0,0-14.04-1.54-14.5-1.58c-0.37,0.24-0.67-0.34-0.94,2.68
		c-0.29,3.3-6.2,70.32-6.56,75.55c-0.38,5.5-9.59,109.33-9.69,110.43c-0.1,1.1-0.3,3.3,1.55,3.46c1.85,0.17,12.31,1.38,13.05,0.9
		c0.63-0.5,0.83-0.2,1.15-3.77c0.35-3.85,10.71-121.69,11.29-126.9C148.64,115.76,153.14,64.39,153.43,62.47z"/>
	<path class="st0" d="M152.08,49.65c7.3-2.93,9.94-13.75,6.14-18.12c-3.14-3.61-10.19-2.28-14.07-0.55
		c-3.46,1.54-9.23,5.55-8.82,10.35C135.83,47.08,145.03,52.49,152.08,49.65z"/>
</g>
<g>
	<path class="st1" d="M574.82,222.7c0.14-6.56,0.12-64.13,0.12-64.73c0-4.99-3.5-8.76-8.37-9.01c-0.21-0.02-0.44-0.02-0.66-0.02
		c-0.56,0-1.12,0.06-1.68,0.15c-2.48,0.37-19.67,2.38-22.76,2.63h-0.06c-3.04,0-7.14,1.82-8.63,6.94c-0.06,0.19-0.12,0.39-0.15,0.6
		c-0.08,0.35-0.66,3.07-1.49,6.94c-0.6-2.61-1.1-4.85-1.22-5.49c-0.72-4.27-4.31-7.35-8.57-7.35c-0.56,0-1.08,0.04-1.55,0.14
		c-3.21,0.15-19.42,0.54-23.09,0.54c-0.14,0-0.41,0-0.41,0c-5.3,0-9.01,3.71-8.99,9.17c0,0.35,0.56,36.22,0.56,41.77
		c0,3.38,0.12,16.09,0.35,36.72l0.02,1.08c0,1.64,0.48,3.27,1.41,4.64c1.45,2.15,3.75,3.46,6.42,3.69c0.73,0.08,1.45,0.08,2.24,0.08
		c2.05,0,8.72-0.14,11-0.25h0.99c0.85,0,2.07,0,3.38-0.37c1.84-0.5,3.58-1.62,4.8-3.35c1.51,1.76,3.89,3.13,7.19,3.13
		c0.27,0,0.58-0.02,0.95-0.04c0.75-0.04,3.15-0.23,5.67-0.41c2.51-0.19,5.16-0.41,6.38-0.52c0.83-0.06,2.67-0.33,4.43-1.49
		c0.04,2.86,0.08,5.14,0.12,6.3c0,1.01,0.06,2.36,0.62,3.83c1.28,3.35,4.39,5.49,7.95,5.49c0.39,0,0.81-0.02,1.12-0.08v-0.04
		c4.8-0.85,15.95-7.72,17.85-8.9c0.03-0.03,0.08-0.07,0.13-0.1c0.01-0.01,0.02-0.01,0.03-0.02c0,0-0.01,0.01-0.02,0.01
		c0,0,0.01-0.01,0.01-0.01c2.67-1.76,4.14-4.51,4.14-7.77c0-0.46-0.04-4.99-0.1-10.02C574.89,230.51,574.82,223.65,574.82,222.7z
		 M564.88,246.74c-0.58,0.46-13.54,7.5-13.89,7.39c-0.35,0.04-0.58,0.19-0.58-1.08c-0.12-1.26-0.35-32.72-0.35-33.88
		c0-1.28-0.12-31.37-0.12-32.74c-0.12-1.39-0.46-0.19-0.46-0.19s-0.93,3.46-1.16,4.64c-0.23,0.97-5.43,24.77-5.9,26.78
		c-0.46,2.24-4.27,20.09-4.51,21.25c-0.23,1.18-0.46,1.08-0.93,1.14c-0.46,0.06-10.77,0.87-11.93,0.93
		c-1.16,0.08-1.39-0.15-1.51-0.48c-0.23-0.33-3.81-18.18-5.43-24.12c-1.62-5.8-6.71-27.13-6.94-28.27c-0.35-1.04-0.35-0.7-0.35-0.23
		c-0.12,0.37-0.12,26.4-0.12,26.98c0,0.7,0.23,24.19,0.23,25.47c0,1.28-0.46,1.18-0.46,1.18c-0.12,0.12-1.74,0.06-2.44,0.08
		c-0.58,0.06-11.68,0.37-12.14,0.21c-0.58,0-0.46-0.23-0.46-0.23s-0.35-31.95-0.35-37.75c0-5.67-0.58-41.91-0.58-41.91
		c0-0.79,0.12-0.79,0.81-0.79c0.35,0.08,24.77-0.44,24.77-0.64c0,0,0.58-0.27,0.7,0.43c0.35,2.07,2.77,12.22,4.51,19.86
		c1.74,7.64,5.22,18.6,5.45,19.28c0.21,0.68,0.21-0.02,0.21-0.02c0.23-1.03,8.45-39.12,8.68-40.21c0.35-1.2,0.81-1.01,0.81-1.01
		c0.93,0.04,24.43-2.69,24.43-2.82c0.46,0.06,0.81-0.1,0.81,0.83c0,3.35,0,62.97-0.12,64.73c0,1.72,0.23,22.88,0.23,23.92
		C565.8,246.39,565.46,246.2,564.88,246.74z"/>
	<path class="st1" d="M855.6,182.74c0.15-2.2-0.48-4.43-1.84-6.17c-1.57-1.99-3.87-3.21-6.42-3.38c-0.56-0.04-1.12-0.06-1.78-0.06
		c-2.78,0-9.22,0.19-13.9,0.35c-1.16,0.04-2.2,0.08-3.17,0.12c0.02-0.41,0.04-2.24,0.04-2.24c0-0.06-0.02-0.73-0.04-1.84
		c-0.25-20.07-0.23-24.29-0.21-24.91c0.06-0.87,0.1-3.64-0.1-25.62v-1.53c0-1.16,0-4.66-2.73-7.39c-1.59-1.59-3.67-2.48-5.9-2.55
		h-0.5c-1.04,0-11.68,0.73-15.47,1.2v-0.02c-2.53,0.23-5.16,1.59-6.73,4.06c-1.61-1.53-3.75-2.48-6.11-2.48
		c-0.5,0-1.01,0.04-1.49,0.12c-5.11,0.52-22.55,2.84-22.59,2.84c-0.21,0.02-20.79,3-27.65,4.54l-0.02-0.06
		c-1.02,0.17-2.09,0.58-3.09,1.14c-0.46-4.06-3.27-6.56-6-7.6c-1.16-0.46-2.78-0.81-10.02-2.19c-1.76-0.33-4.1-0.77-4.93-0.97
		c-0.89-0.27-1.8-0.41-2.71-0.41c-4.29,0-8.74,3.4-8.74,9.15c0,0.12,0.02,1.28,0.04,3.11c0.27,17.21,0.35,25.89,0.37,30.09
		c-1.86,1.22-4.45,2.88-7.14,4.6c0-1.72-0.04-3.19-0.1-4.25c-0.1-2.69-0.02-9.5,0-11.76v-0.37c0.27-2.63-0.41-4.89-1.99-6.75
		c-1.62-1.88-4.02-2.94-6.58-2.94c-0.97,0-1.82,0.14-2.46,0.27l0.02,0.04c-3.52,0.58-11.14,2.24-13.92,2.86v-0.04
		c-1.37,0.27-2.55,0.79-3.58,1.49c-1.35-0.85-2.94-1.35-4.64-1.35c-0.64,0-1.3,0.08-1.93,0.21c-0.29,0.06-0.64,0.14-1.08,0.25
		c-0.95,0.23-2.53,0.62-5.63,1.02c-0.5,0.06-1.06,0.1-1.7,0.15c-5.7,0.52-15.24,1.37-22.38,4.95l-0.33,0.17
		c-6.48,3.42-14.56,7.68-21.78,21.5c-0.87,1.66-5.09,10.42-5.2,24.52c0,0.02,0,0.02,0,0.04c-0.02,1.8,0,11.04,1.82,18.55
		c0.56,2.8,3.4,15.14,10.31,23.57c0.85,1.04,1.62,2.07,2.4,3.06c5.14,6.71,10.46,13.65,26.24,19.22c0.7,0.25,1.8,0.54,3.17,0.54
		c2.92,0,5.67-1.26,7.74-3.5c0.08-0.1,0.15-0.19,0.23-0.29c0.43-0.48,0.93-1.1,5.22-7.87c1.99-3.13,3.21-5.07,3.96-6.38
		c0,0,0.02-0.04,0.02-0.06h0.02l0.04,0.02c0.02-0.04,0.1-0.19,0.17-0.31c0.19-0.25,0.37-0.52,0.52-0.75
		c1.35-2.28,1.51-4.33,1.26-5.94c1.57,2.01,3.98,3.29,6.81,3.29c0.72,0,1.35-0.1,1.84-0.17c1.01-0.15,3.66-0.66,13.73-2.71
		l0.87-0.17c4.33-0.73,7.21-4.35,7.04-8.86v-26.51c1.9-1.28,4.56-3.07,6.87-4.62c-0.02,1.95-0.04,3.48-0.04,4.02
		c0,0.6,0.02,2.63,0.04,5.28c0.06,5.05,0.15,15.41,0.1,17.23c-0.19,2.4,0.52,4.66,2.07,6.44c1.62,1.86,3.96,2.9,6.46,2.9
		c1.35,0,2.48-0.31,3.27-0.58c2.57-0.52,12.09-2.34,12.86-2.48c0.08-0.02,0.15-0.04,0.23-0.04c2.34-0.44,4.91-1.97,6.29-4.8
		c1.51,1.2,3.36,1.93,5.43,1.93c0.43,0,1.02-0.06,1.43-0.12c0.14-0.02,1.04-0.17,2.44-0.39c19.01-3.09,24.1-3.85,24.95-3.95
		c0.12-0.02,0.23-0.02,0.35-0.04c0.21-0.02,19.18-2.57,22.45-3.02c2.42-0.29,4.83-1.55,6.38-3.77c1.61,1.68,3.87,2.65,6.36,2.65
		c0.25,0,0.68-0.02,0.93-0.04c0.17-0.02,0.35-0.04,0.52-0.06c2.59-0.29,20.6-1.3,23.01-1.3h0.23c0.27,0,0.54-0.02,0.81-0.04
		c1.24-0.1,12.55-0.7,15.76-0.72c0.23,0.02,0.46,0.04,0.7,0.04c0.02,0,0.02,0,0.04,0c3.62-0.02,5.78-1.68,6.98-3.09
		c1.45-1.72,2.17-3.98,2.01-6.3C855.79,192.94,855.64,184.97,855.6,182.74z M657.22,225.17c-0.23,0.29-0.7,1.08-0.7,1.08
		s-7.52,12.05-8.45,13.15c-1.02,1.14-2.07,0.77-2.07,0.77c-15.74-5.55-18.76-11.97-25.01-19.71c-6.27-7.64-8.68-20.17-8.68-20.17
		c-1.74-7.1-1.62-16.73-1.62-16.73c0.12-13.11,4.27-20.79,4.27-20.79c6.15-11.78,12.4-14.91,18.64-18.22
		c6.36-3.19,16.67-3.75,21.2-4.22c4.62-0.6,6.48-1.2,7.41-1.39c0.93-0.19,0.58,0.46,0.58,0.46s-0.93,4.35-1.51,6.56
		c-0.58,2.55-3.02,11.62-3.13,12.69c-0.35,1.22-0.93,0.87-0.93,0.87c-0.19-0.19-0.39-0.39-0.58-0.58
		c-10.75-5.09-18.62,0.15-18.62,0.15c-6.5,4.04-7.64,9.82-9.03,16.57c-1.39,6.4,0.35,18.22,0.35,18.22
		c0.7,8.55,6.83,15.24,11.8,20.73c4.76,5.9,15.39,9.65,15.97,9.77C657.68,224.5,657.45,224.79,657.22,225.17z M660.27,217.61
		c-2.53-0.81-9.24-3.89-11.72-6.96c-0.1-0.14-0.46-0.54-0.46-0.54c-4.25-4.7-9.09-10.04-9.55-15.7c0-0.17-0.02-0.35-0.06-0.52
		c-0.62-4.31-1.18-11.91-0.44-15.3c0-0.02,0.04-0.17,0.04-0.19c1.39-6.79,2.13-9.15,5.32-11.14c0.14-0.1,0.08-0.04,0.12-0.08
		c0.43-0.21,2.15-1.04,4.7-1.04c1.59,0,3.21,0.31,4.87,0.97c0.37,0.31,0.77,0.58,1.2,0.81c1.22,0.68,2.77,1.06,4.16,1.06
		c2.46,0,4.66-1.01,6.29-2.71v32.64l-0.02,3.4c-0.06,12.8-0.04,15.92,0.02,17.1c0.02,0.41,0.1,0.81,0.17,1.2
		C663.76,219.16,662.17,218.12,660.27,217.61z M726.92,177.12c-0.12,1.9-0.12,29.36-0.12,30.05c0,0.81-0.12,1.06-0.58,1.14
		c-0.58,0.1-13.32,2.55-13.9,2.69c-0.58,0.23-1.37,0.62-1.28-0.21c0.12-0.97-0.1-21.04-0.1-23.13c0-1.99,0.21-16.92,0.21-17.97
		v-0.31c0-0.89-0.14-0.75-0.7-0.64c-0.44,0.21-5.55,3.64-7.06,4.64c-1.49,0.87-14,9.3-14.7,9.8c-0.81,0.27-1.04,1.03-1.04,1.14
		v30.44c0,0.81,0.12,0.68-0.35,0.77c-0.46,0.08-13.42,2.75-14.35,2.82c-0.81,0.17-1.04,0.1-1.04-0.6c-0.12-0.77,0-17.83,0-20.02
		v-36.36c0-2.55-0.35-20.77-0.35-21.7c0-0.93,0.12-0.95,0.81-1.08c0.81-0.29,13.89-2.86,13.89-2.86c1.39-0.27,1.28-0.02,1.16,0.81
		c0,0.46-0.12,9.75,0,13.07c0.23,3.56,0,14.25,0,15.53c0,1.26-0.46,3.33,0.58,3c0.93-0.44,20.96-13.38,22.12-14.18
		c1.02-0.66,0.68,0.1,0.91-1.22c0.21-3.07-0.33-36.42-0.33-37.09c0-0.7,0.23-1.08,0.79-0.85c0.46,0.25,13.44,2.51,14.37,2.94
		c1.16,0.35,0.81,1.12,0.81,1.82c0,0.7,0.23,26.59,0,28.04C726.57,148.92,727.03,175.01,726.92,177.12z M790.91,196.49
		c0,1.16-0.35,1.32-0.81,1.37c-0.33,0.06-20.6,2.78-22.57,3.04c-2.09,0.19-27.09,4.27-27.89,4.41c-0.7,0.12-0.7-0.46-0.7-0.46
		c0-4.18-0.23-20.11-0.23-21.72c0.12-1.76,0-28.02,0-30.34c0-2.19-0.12-26.48-0.12-27.06c0-0.58,0-0.93,0.81-1.08
		c0.68-0.31,23.73-4,27.19-4.41c3.25-0.44,22.92-2.96,22.92-2.88c0.02,0,0.7-0.19,0.81,0.6v10.08c0,1.28,0.12,3.58-0.23,4.2
		c-0.44,0.5-4.51,0.62-7.41,1.1c-3,0.5-25.59,3.31-26.84,3.6c-1.39,0.35-1.04,0.64-1.04,1.1c0,0.35,0.23,3.91,0.23,5.16
		c0,1.28,0.12,12.26,0.12,14.7c-0.12,2.44,0.91,1.35,0.93,1.35c0-0.02,1.95-1.12,3.58-1.95c1.62-0.87,16.13-9.07,16.21-9.07
		c0.81-0.33,1.39-0.87,1.51-0.66c0.12,0.44,0.12,0.91,0.12,1.95c0,1.04,0.12,10.87,0.12,11.91c0,0.91-1.62,1.7-3.83,2.82
		c-2.19,1.06-17.93,10.04-18.28,10.37c-0.35,0.17-0.35,0.64-0.35,0.64c0,0.46,0.35,11.04,0.35,11.97c0.12,0.91,0,0.7,0.81,0.58
		c0.68-0.25,11.45-1.9,12.96-1.97c1.51-0.29,19.8-2.75,20.71-2.67c1.04-0.12,0.81,0.62,0.81,1.41
		C790.79,185.28,791.02,195.33,790.91,196.49z M768.13,144.86c-0.95,0.54-3.64,2.05-3.83,2.15c-0.02-0.64-0.02-1.2-0.02-1.64
		C765.5,145.21,766.81,145.03,768.13,144.86z M791.22,176.11c-0.21,0-0.44,0-0.68,0.02c-3.44,0.17-18.43,2.28-21.35,2.73
		c-0.5,0.06-1.22,0.14-2.07,0.25c4.58-2.61,10.23-5.78,11.39-6.34l0.19-0.12c3.06-1.53,8.14-4.1,8.14-10.06
		c0-0.54-0.12-11.41-0.12-11.91c0-1.37,0-2.55-0.37-4c-0.17-0.64-0.41-1.26-0.72-1.84c-0.43-0.77-0.97-1.47-1.61-2.07
		c0.43-0.06,0.77-0.12,1.03-0.15c0.95-0.15,2.07-0.27,3.07-0.37c3-0.31,5.47-0.58,7.58-2.05c0.08,7.12,0.14,13.73,0.14,15.84v0.19
		c0.04,1.82,0.08,8.59,0.1,15.74c0.02,1.99,0.02,3.81,0.04,5.51C794.58,176.59,792.96,176.11,791.22,176.11z M845.77,194.58
		c-0.46-0.19-15.74,0.58-17.25,0.73c-1.61-0.1-23.61,1.16-24.54,1.37c-1.04,0.1-0.58-0.64-0.58-0.64
		c-0.23-0.79-0.23-36.34-0.35-41.17c0-4.64-0.33-37.25-0.44-38.06c0-0.93,0.21-1.06,0.68-1.1c0.35-0.08,14.14-1.26,14.95-1.14
		c0.7-0.04,0.7,1.12,0.7,1.7c0,0.46,0.23,24.87,0.12,26.61c-0.12,1.62,0.23,26.96,0.23,27.31c0,0.46-0.14,9.96,0,10.19
		c0.12,0.33-0.23,0.58,0.33,0.68c0.27-0.12,5.57-0.33,11.31-0.52c6.79-0.23,14.23-0.43,14.74-0.31c0.93,0,0.7,0.93,0.7,0.93
		c0,1.39,0.23,12.73,0.23,12.73C846.7,194.58,846.24,194.58,845.77,194.58z"/>
	<path class="st1" d="M491.06,80.62c5.46-7.93,12.21-14.33,20.46-14.69c1.39-0.06,1.93,0.03,1.93,0.84c0,0.23-0.11,0.58-0.21,1.05
		c-2.25,10.87-22.6,44.63-22.6,54.37c0,3.24,2.89,4.25,4.07,4.23c1.61-0.03,3.11-1.68,3.96-3.09c0.18-0.31,0.36-0.63,0.54-0.94
		c6.21-10.76,32.03-56.2,44.02-57.42c1.18-0.1,2.36,0.25,2.36,3.49c0,8.93-11.46,31.92-17.25,42.47c-0.54,0.96-1.29,2.17-1.29,3.33
		c0,1.97,1.72,3.24,3.43,3.12c1.18-0.08,2.57-1.58,3.11-2.66c4.61-9.06,25.82-44.36,35.35-45.53c0.75-0.09,1.71,0.27,1.71,2.35
		c0,9.17-14.25,29.02-14.25,45.89c0,2.2,0.22,4.26,0.86,5.93c1.07,3.02,2.89,4.1,5.03,3.87c7.5-0.79,19.28-17.75,21.1-19.96
		c0.57-0.69,1.14-1.38,1.71-2.07c0.75-0.91,1.07-1.76,1.07-2.57c0-1.85-1.61-3.38-3.32-3.17c-0.75,0.09-1.5,0.54-2.25,1.44
		c-0.57,0.69-1.14,1.38-1.71,2.06c-3.96,4.77-8.36,11.19-13.17,15.21c-1.07,0.93-1.82,1.47-2.25,1.52
		c-0.64,0.07-0.64-0.86-0.64-2.94c0-15.49,14.25-34.14,14.25-45.98c0-5.21-3.11-9.11-8.14-8.53c-5.46,0.63-12.21,7.02-18.64,15.04
		c1.07-3.58,1.71-6.88,1.71-9.43c0-6.37-3.32-10.32-8.78-9.84c-10.07,0.9-23.14,18.34-33.74,34.85
		c5.25-10.98,10.28-21.8,10.28-26.78c0-5.44-3.86-7.3-8.25-7.11c-11.35,0.5-19.82,9.16-25.6,17.5c-0.54,0.7-0.75,1.39-0.75,2.08
		c0,1.85,1.71,3.47,3.43,3.46C489.45,82.02,490.31,81.67,491.06,80.62z"/>
	<path class="st1" d="M629.47,120.03c10.29-1.51,19.82-13.83,26.48-22.03c0.56-0.7,1.14-1.39,1.7-2.11
		c0.54-0.66,0.97-1.18,1.51-1.84c-1.82,7.1-3.66,13.4-5.26,17.7c-0.21,0.6-0.31,1.2-0.31,1.78c0,1.97,1.49,3.25,3.09,3
		c1.08-0.15,2.26-1.03,3-2.53c10.5-20.81,22.82-37.48,28.51-38.31c1.91-0.29,2.36,0.35,2.36,2.09c0,7.99-9.86,18-9.86,26.57
		c0,3.6,2.36,5.78,5.69,5.3c4.33-0.64,10.87-5.8,18.26-13.96c1.41,6.3,5.41,10.68,12.16,9.79c9.32-1.26,18.53-11.99,24.73-19.42
		c0.12-0.12,0.21-0.25,0.33-0.37c0.31,8.76,3.85,14.72,9.75,14.1c2.88-0.31,6.32-2.28,10.17-6c3.27-3.17,6.05-6.69,8.99-10.15
		c-0.21,1.47-0.21,2.8-0.21,3.81c0,6.03,1.61,13.98,8.78,13.44c5.51-0.41,12.2-8.24,17.17-14.33c1.2,6.25,4.95,10.38,12.09,10.17
		c2.67-0.08,5.67-0.83,8.57-2.15c2.88-1.43,5.14-3.06,5.78-3.98c0.52-0.72,0.75-1.51,0.75-2.32c0-1.86-1.39-3.48-3.23-3.46
		c-1.82,0.02-3.52,1.9-6.09,3.44c-2.05,1.2-3.96,1.82-5.69,1.88c-4.93,0.14-5.88-2.8-6.21-7.43c10.81-1.51,22.7-7.31,22.7-16.67
		c0-5.43-3.85-9.26-9.21-9.19c-8.45,0.14-17.06,8.95-19.32,19.44c-0.1,0.1-0.19,0.21-0.29,0.31c-1.82,2.03-13.29,17.04-17.04,17.35
		c-2.34,0.17-2.34-5.72-2.34-7c0-3.36,0.43-7.68,1.39-12.26c14.23-16.94,28.49-34.87,28.49-46.32c0-4.51-1.61-8.64-6.54-8.43
		c-12.11,0.5-22.7,30.59-27.31,51.23c-1.82,2.11-3.33,3.98-4.62,5.47c-0.56,0.68-1.14,1.33-1.7,2.01c0,0-0.02,0-0.02,0.02
		c-3.21,3.75-10.17,13.42-14.54,13.89c-2.26,0.23-3.87-2.03-3.87-8.86c0-1.97,0.21-4.31,0.64-6.9c3.96-5.4,7.83-11.12,11.04-16.63
		c4.27-7.14,12.11-21,12.11-29.9c0-3.36-1.51-6.71-5.26-6.38c-6.09,0.52-13.38,18.62-14.99,22.51c-3.64,8.59-7.08,18.93-8.78,27.81
		c-1.39,1.9-2.9,3.81-4.29,5.47c-0.56,0.68-1.14,1.37-1.7,2.05c-0.02,0-0.02,0.02-0.02,0.02c-4.72,5.65-13.27,15.84-20.23,16.77
		c-4.6,0.62-6.11-3.79-6.32-7.81c10.93-2.44,21.85-10.85,21.85-19.86c0-5.22-3.54-9.07-8.9-8.37c-6.98,0.89-17.48,10.87-19.15,24.17
		c-2.53,3.06-4.91,5.65-6.98,7.75c-3.11,3.23-8.26,7.91-9.86,8.16c-0.21,0.02-0.33-0.31-0.33-0.54c0-1.04,1.18-3.54,2.69-6.42
		c3-5.76,7.17-11.1,7.17-18.74c0-5.92-3.64-8.86-8.78-8.1c-6.11,0.89-13.83,9.34-21.1,20.17c0.64-2.88,1.39-5.76,2.03-8.53
		c10.81-15.99,20.13-36.11,20.13-41.21c0-2.88-1.61-5.43-4.72-4.97c-0.95,0.14-2.24,0.91-2.88,1.47
		c-3.42,2.82-13.92,26.17-18.31,42.35c-3.54,5.05-7.08,9.86-10.17,13.69c-0.58,0.7-1.16,1.41-1.72,2.11c0,0.02-0.02,0.02-0.02,0.02
		c-4.93,6.07-14.23,18.12-21.95,19.24c-4.6,0.68-6.63-2.03-6.63-7.25c0-9.15,6.32-19.9,13.29-20.92c0.54-0.08,1.06-0.06,1.39,0.14
		c-0.33,0.5-0.43,1.22-0.43,1.91c0,1.28,0.64,4.66,3.96,4.16c2.13-0.33,3.73-2.42,3.73-4.74c0-6.13-3.85-9.15-8.66-8.43
		c-12.32,1.84-19.71,18.16-19.71,28.81C616.41,114.4,620.05,121.42,629.47,120.03z M815.97,63.67c2.57-0.04,2.78,1.7,2.78,2.4
		c0,4.27-8.47,8.78-15.22,9.4C805.26,69.98,809.86,64.6,815.97,63.67z M800.23,26.64c0.02,0.12,0.06,0.23,0.1,0.35
		c0.12,0.44,0.12,1.03,0.12,1.61c0,7.17-9.22,20.05-18.22,31.35C783.95,54.47,794.22,26.87,800.23,26.64z M755.77,52.92
		c2.78-6.19,5.45-12.45,8.57-18.53c0.75-1.35,1.18-2.07,1.39-2.09c0.12-0.02,0.12,0.21,0.12,0.33c0,0.35-0.12,0.93-0.54,2.01
		c-2.36,6.69-5.69,13.15-8.99,19.49c-1.3,2.55-3,5.51-4.18,7.6C753.2,58.98,754.59,55.59,755.77,52.92z M723.42,69.4
		c1.72-0.23,2.48,0.72,2.48,2.22c0,4.27-6.73,9.75-14.43,11.85c-0.02,0-0.02-0.02-0.02-0.02C713.38,77.06,718.17,70.08,723.42,69.4z
		"/>
	<path class="st1" d="M611.34,62.47c0,0,0.26-1.64-0.68-1.44c0,0-14.04-1.54-14.5-1.58c-0.37,0.24-0.67-0.34-0.94,2.68
		c-0.29,3.3-6.2,70.32-6.56,75.55c-0.38,5.5-9.59,109.33-9.69,110.43c-0.1,1.1-0.3,3.3,1.55,3.46c1.85,0.17,12.31,1.38,13.05,0.9
		c0.63-0.5,0.83-0.2,1.15-3.77c0.35-3.85,10.71-121.69,11.29-126.9C606.55,115.76,611.05,64.39,611.34,62.47z"/>
	<path class="st1" d="M609.99,49.65c7.3-2.93,9.94-13.75,6.14-18.12c-3.14-3.61-10.19-2.28-14.07-0.55
		c-3.46,1.54-9.23,5.55-8.82,10.35C593.74,47.08,602.94,52.49,609.99,49.65z"/>
</g>
<g>
	<path class="st1" d="M572.95-155.22c0-0.92-0.35-0.76-0.81-0.81c0,0.12-23.37,2.85-24.29,2.8c0,0-0.46-0.19-0.81,1
		c-0.23,1.08-8.4,38.96-8.63,39.99c0,0,0,0.69-0.23,0.02c-0.23-0.67-3.68-11.58-5.41-19.18c-1.73-7.59-4.14-17.69-4.49-19.75
		c-0.11-0.68-0.69-0.42-0.69-0.42c0,0.19-24.29,0.71-24.63,0.62c-0.69,0-0.81,0-0.81,0.81c0,0,0.58,36.03,0.58,41.67
		c0,5.75,0.34,37.52,0.34,37.52c0,0-0.11,0.23,0.46,0.23c0.46,0.16,11.51-0.15,12.09-0.21c0.69-0.02,2.3,0.04,2.42-0.08
		c0,0,0.46,0.1,0.46-1.17c0-1.27-0.23-24.62-0.23-25.31c0-0.58,0-26.47,0.11-26.82c0-0.46,0-0.81,0.35,0.22
		c0.23,1.15,5.3,22.34,6.91,28.12c1.61,5.91,5.18,23.65,5.41,23.97c0.11,0.34,0.35,0.55,1.5,0.48c1.15-0.04,11.39-0.85,11.86-0.92
		c0.46-0.04,0.69,0.05,0.92-1.12c0.23-1.17,4.03-18.91,4.49-21.14c0.46-1.99,5.64-25.67,5.87-26.62c0.23-1.18,1.15-4.61,1.15-4.61
		c0,0,0.35-1.19,0.46,0.18c0,1.38,0.11,31.3,0.11,32.56c0,1.15,0.23,32.43,0.35,33.69c0,1.27,0.23,1.13,0.57,1.09
		c0.35,0.12,13.24-6.88,13.81-7.35c0.58-0.54,0.92-0.35,0.92-1.27c0-1.04-0.23-22.07-0.23-23.8
		C572.95-92.61,572.95-151.88,572.95-155.22z"/>
	<path class="st1" d="M668.91-172.96c-0.92,0.19-2.76,0.8-7.37,1.39c-4.49,0.45-14.73,1.01-21.06,4.19
		c-6.22,3.28-12.43,6.41-18.53,18.1c0,0-4.14,7.65-4.26,20.68c0,0-0.11,9.57,1.61,16.63c0,0,2.42,12.47,8.63,20.07
		c6.22,7.69,9.21,14.07,24.86,19.59c0,0,1.04,0.37,2.07-0.76c0.92-1.1,8.4-13.09,8.4-13.09c0,0,0.46-0.78,0.69-1.06
		c0.23-0.39,0.46-0.67-0.11-0.78c-0.58-0.11-11.17-3.83-15.88-9.7c-4.95-5.46-11.05-12.12-11.74-20.62c0,0-1.73-11.76-0.35-18.12
		c1.38-6.71,2.53-12.45,8.98-16.47c0,0,7.83-5.21,18.53-0.14c0.19,0.19,0.38,0.38,0.58,0.57c0,0,0.57,0.34,0.92-0.88
		c0.12-1.06,2.53-10.07,3.11-12.61c0.58-2.19,1.5-6.52,1.5-6.52C669.49-172.5,669.83-173.15,668.91-172.96z"/>
	<path class="st1" d="M733.02-164.35c0.23-1.43,0-27.18,0-27.88c0-0.69,0.35-1.45-0.81-1.81c-0.92-0.42-13.81-2.67-14.27-2.92
		c-0.57-0.23-0.81,0.16-0.81,0.85c0,0.69,0.57,35.6,0.35,37.05l0-0.17c-0.23,1.31,0.11,0.55-0.92,1.22
		c-1.15,0.78-21.06,13.65-21.98,14.09c-1.04,0.33-0.58-1.72-0.58-2.99c0-1.27,0.23-11.9,0-15.42c-0.11-3.32,0-12.55,0-13.01
		c0.12-0.83,0.23-1.08-1.15-0.8c0,0-13.01,2.55-13.81,2.84c-0.69,0.14-0.81,0.17-0.81,1.09c0,0.92,0.34,19.04,0.34,21.57
		c0,2.65,0,33.72,0,36.14c0,2.19-0.11,19.13,0,19.91c0,0.69,0.23,0.76,1.04,0.59c0.92-0.08,13.81-2.72,14.27-2.81
		c0.46-0.09,0.35,0.04,0.35-0.76c0-0.69,0-23.02,0-25.32c0-2.65,0-4.83,0-4.95c0-0.12,0.23-0.85,1.04-1.13
		c0.69-0.49,13.12-8.88,14.62-9.75c1.5-0.99,6.56-4.41,7.02-4.61c0.56-0.11,0.68-0.23,0.69,0.63l0,0.31
		c0,1.04-0.23,15.89-0.23,17.86c0,2.08,0.23,22.05,0.11,23c-0.11,0.83,0.69,0.44,1.27,0.21c0.58-0.13,13.24-2.57,13.81-2.66
		c0.46-0.09,0.57-0.34,0.57-1.15c0-0.69,0-27.99,0.12-29.86C733.36-137.12,732.9-163.06,733.02-164.35z"/>
	<path class="st1" d="M795.97-129c-0.92-0.09-19.11,2.36-20.6,2.65c-1.5,0.08-12.2,1.71-12.89,1.95c-0.81,0.13-0.69,0.34-0.81-0.56
		c0-0.92-0.35-11.46-0.35-11.92c0,0,0-0.46,0.35-0.63c0.35-0.33,16-9.25,18.19-10.31c2.19-1.11,3.8-1.89,3.8-2.81
		c0-1.04-0.12-10.8-0.12-11.84c0-1.04,0-1.5-0.11-1.94c-0.11-0.21-0.69,0.32-1.5,0.66c0-0.04-14.5,8.14-16.11,9.01
		c-1.61,0.83-3.57,1.94-3.57,1.94c0,0-1.03,1.09-0.92-1.35c0-2.42-0.11-13.33-0.11-14.6c0-1.27-0.23-4.8-0.23-5.14
		c0-0.46-0.35-0.75,1.04-1.09c1.27-0.3,23.71-3.09,26.7-3.58c2.88-0.48,6.91-0.59,7.37-1.1c0.35-0.61,0.23-2.9,0.23-4.17
		c0-1.15,0-9.21,0-10.01c-0.11-0.79-0.81-0.6-0.81-0.6c0-0.08-19.57,2.42-22.79,2.87c-3.45,0.41-26.36,4.08-27.05,4.39
		c-0.81,0.14-0.81,0.49-0.81,1.06c0,0.58,0.11,24.73,0.11,26.91c0,2.3,0.11,28.41,0,30.16c0,1.61,0.23,17.45,0.23,21.6
		c0,0,0,0.58,0.69,0.45c0.81-0.12,25.67-4.18,27.74-4.37c1.96-0.26,22.1-2.96,22.45-3.03c0.46-0.05,0.81-0.21,0.81-1.36
		c0.11-1.16-0.12-11.15-0.12-11.84C796.77-128.4,797-129.12,795.97-129z"/>
	<path class="st1" d="M852.02-131.01c0,0,0.23-0.92-0.69-0.92c-0.5-0.11-7.9,0.07-14.66,0.3c-5.71,0.19-10.97,0.42-11.23,0.52
		c-0.57-0.08-0.23-0.33-0.34-0.67c-0.12-0.22,0-9.67,0-10.13c0-0.35-0.35-25.53-0.23-27.15c0.11-1.73-0.11-26.01-0.11-26.47
		c0-0.58,0-1.73-0.69-1.68c-0.81-0.12-14.5,1.05-14.85,1.14c-0.46,0.04-0.69,0.18-0.69,1.1c0.11,0.8,0.46,33.22,0.46,37.83
		c0.11,4.82,0.11,40.16,0.35,40.94c0,0-0.46,0.73,0.57,0.64c0.92-0.22,22.79-1.46,24.4-1.37c1.5-0.14,16.69-0.91,17.15-0.72
		c0.46,0,0.92,0,0.81-0.69C852.25-118.35,852.02-129.63,852.02-131.01z"/>
	<path class="st1" d="M592.25-202.69c0.75-0.9,1.06-1.75,1.06-2.55c0-1.84-1.6-3.36-3.3-3.15c-0.75,0.09-1.49,0.53-2.24,1.43
		c-0.57,0.68-1.14,1.37-1.7,2.05c-3.94,4.74-8.31,11.13-13.1,15.12c-1.06,0.92-1.81,1.47-2.24,1.51c-0.64,0.07-0.64-0.85-0.64-2.92
		c0-15.4,14.16-33.95,14.16-45.72c0-5.18-3.09-9.06-8.1-8.48c-5.43,0.62-12.14,6.98-18.53,14.96c1.07-3.56,1.71-6.84,1.7-9.37
		c0-6.33-3.3-10.26-8.73-9.78c-10.01,0.89-23,18.24-33.55,34.65c5.22-10.92,10.22-21.68,10.22-26.63c0-5.41-3.83-7.26-8.2-7.07
		c-11.29,0.5-19.7,9.1-25.45,17.4c-0.53,0.69-0.75,1.38-0.75,2.07c0,1.84,1.7,3.45,3.41,3.44c0.85-0.01,1.7-0.36,2.45-1.4
		c5.43-7.89,12.14-14.25,20.34-14.61c1.39-0.06,1.92,0.03,1.92,0.83c0,0.23-0.11,0.58-0.21,1.05c-2.24,10.8-22.47,44.37-22.47,54.06
		c0,3.23,2.87,4.23,4.05,4.2c1.6-0.03,3.09-1.67,3.94-3.07c0.18-0.31,0.36-0.62,0.53-0.93c6.18-10.7,31.84-55.88,43.77-57.09
		c1.17-0.1,2.34,0.25,2.34,3.48c0,8.88-11.4,31.73-17.15,42.23c-0.53,0.96-1.28,2.16-1.28,3.31c0,1.96,1.71,3.22,3.41,3.1
		c1.17-0.08,2.56-1.57,3.09-2.64c4.58-9.01,25.67-44.11,35.15-45.27c0.75-0.09,1.7,0.26,1.71,2.34c0,9.12-14.17,28.86-14.17,45.63
		c0,2.19,0.21,4.24,0.85,5.9c1.06,3,2.88,4.08,5.01,3.84c7.45-0.79,19.17-17.65,20.98-19.85C591.12-201.32,591.69-202,592.25-202.69
		z"/>
	<path class="st1" d="M814.45-211.11c2.66-0.08,5.64-0.83,8.52-2.14c2.88-1.42,5.11-3.04,5.75-3.97c0.53-0.69,0.75-1.5,0.75-2.3
		c0-1.84-1.39-3.45-3.2-3.44c-1.81,0.02-3.52,1.88-6.07,3.42c-2.02,1.19-3.94,1.81-5.64,1.86c-4.9,0.15-5.86-2.79-6.18-7.39
		c10.76-1.49,22.58-7.25,22.58-16.56c0-5.41-3.83-9.22-9.16-9.13c-8.4,0.12-16.95,8.9-19.21,19.31c-0.09,0.1-0.18,0.21-0.28,0.31
		c-1.81,2.01-13.21,16.95-16.94,17.25c-2.34,0.17-2.34-5.7-2.34-6.96c0-3.34,0.43-7.63,1.39-12.19
		c14.16-16.85,28.33-34.67,28.33-46.05c0-4.48-1.6-8.59-6.5-8.39c-12.03,0.5-22.58,30.43-27.16,50.94c-1.81,2.1-3.3,3.95-4.58,5.45
		c-0.57,0.66-1.14,1.33-1.71,1.99c-0.01,0.01-0.01,0.01-0.01,0.02c-3.2,3.74-10.11,13.34-14.47,13.8c-2.24,0.23-3.83-2.01-3.83-8.8
		c0-1.96,0.21-4.28,0.64-6.86c3.94-5.37,7.78-11.05,10.97-16.54c4.26-7.1,12.03-20.87,12.03-29.73c0-3.34-1.49-6.67-5.22-6.35
		c-6.07,0.53-13.31,18.53-14.91,22.38c-3.62,8.55-7.03,18.83-8.73,27.65c-1.39,1.88-2.88,3.78-4.26,5.44
		c-0.57,0.68-1.14,1.36-1.71,2.04c0,0.01-0.01,0.01-0.01,0.02c-4.69,5.62-13.2,15.75-20.12,16.68c-4.58,0.61-6.07-3.78-6.28-7.78
		c10.86-2.42,21.73-10.77,21.73-19.75c0-5.18-3.52-9.01-8.84-8.33c-6.95,0.88-17.39,10.81-19.03,24.04
		c-2.53,3.05-4.89,5.61-6.96,7.72c-3.09,3.2-8.2,7.86-9.8,8.1c-0.21,0.03-0.32-0.3-0.32-0.53c0-1.04,1.17-3.51,2.66-6.38
		c2.98-5.73,7.14-11.05,7.14-18.65c0-5.87-3.62-8.8-8.73-8.05c-6.07,0.89-13.74,9.29-20.98,20.06c0.64-2.86,1.39-5.74,2.02-8.48
		c10.76-15.9,20.02-35.91,20.02-40.97c0-2.88-1.6-5.41-4.69-4.95c-0.96,0.14-2.24,0.91-2.88,1.46
		c-3.41,2.81-13.85,26.02-18.21,42.11c-3.52,5.02-7.03,9.81-10.12,13.62c-0.57,0.7-1.14,1.4-1.71,2.1c0,0.01-0.01,0.01-0.01,0.02
		c-4.9,6.04-14.16,18.01-21.82,19.13c-4.58,0.67-6.6-2.03-6.6-7.21c0-9.09,6.28-19.78,13.21-20.81c0.53-0.08,1.06-0.04,1.38,0.14
		c-0.32,0.51-0.43,1.21-0.43,1.9c0,1.27,0.64,4.63,3.94,4.13c2.13-0.32,3.73-2.4,3.73-4.7c0-6.1-3.83-9.09-8.63-8.38
		c-12.25,1.82-19.6,18.05-19.6,28.64c0,7.59,3.62,14.58,12.99,13.2c10.22-1.5,19.7-13.76,26.31-21.9c0.57-0.7,1.14-1.4,1.7-2.1
		c0.53-0.66,0.96-1.18,1.49-1.84c-1.81,7.07-3.62,13.33-5.22,17.6c-0.21,0.61-0.32,1.2-0.32,1.77c0,1.96,1.49,3.23,3.09,2.99
		c1.07-0.16,2.24-1.03,2.98-2.52c10.44-20.69,22.69-37.27,28.33-38.09c1.92-0.28,2.34,0.35,2.34,2.07c0,7.94-9.8,17.9-9.8,26.43
		c0,3.57,2.34,5.75,5.64,5.26c4.31-0.64,10.81-5.76,18.16-13.88c1.4,6.27,5.39,10.62,12.09,9.73c9.27-1.24,18.43-11.91,24.6-19.29
		c0.11-0.13,0.21-0.25,0.32-0.38c0.32,8.71,3.83,14.63,9.69,14.02c2.88-0.3,6.28-2.26,10.12-5.95c3.24-3.15,6.01-6.66,8.93-10.09
		c-0.19,1.46-0.2,2.79-0.2,3.79c0,5.99,1.6,13.89,8.73,13.36c5.47-0.41,12.12-8.19,17.06-14.26
		C803.63-215.01,807.36-210.89,814.45-211.11z M806.14-280.8c0.04,0.11,0.07,0.23,0.11,0.34c0.11,0.46,0.11,1.03,0.11,1.61
		c0,7.13-9.16,19.94-18.11,31.16C789.95-253.12,800.18-280.57,806.14-280.8z M761.94-254.66c2.77-6.15,5.43-12.39,8.52-18.42
		c0.75-1.33,1.17-2.06,1.38-2.08c0.11-0.01,0.11,0.22,0.11,0.34c0,0.35-0.11,0.93-0.53,2c-2.34,6.66-5.64,13.06-8.95,19.38
		c-1.28,2.54-2.98,5.48-4.15,7.56C759.39-248.65,760.77-252.01,761.94-254.66z M729.78-238.29c1.71-0.22,2.45,0.72,2.45,2.22
		c0,4.25-6.69,9.69-14.34,11.79c-0.01-0.01-0.02-0.02-0.03-0.03C719.79-230.66,724.57-237.62,729.78-238.29z M821.8-243.96
		c2.56-0.04,2.77,1.69,2.77,2.38c0,4.25-8.41,8.74-15.12,9.35C811.15-237.71,815.73-243.06,821.8-243.96z"/>
	<path class="st1" d="M623.15-248.73c0,0-13.84-2.37-14.3-2.44c-0.38,0.2-0.64-0.35-1.06,2.4c-0.46,3-9.67,64-10.28,68.77
		c-0.65,5.02-14.98,99.52-15.14,100.51c-0.15,1-0.46,3,1.36,3.28c1.82,0.28,12.14,2.11,12.89,1.71c0.65-0.41,0.83-0.13,1.33-3.38
		c0.54-3.5,16.7-110.76,17.54-115.49c0.84-5.5,7.87-52.26,8.26-53.99C623.75-247.36,624.1-248.84,623.15-248.73z"/>
	<path class="st1" d="M624.05-266.03c7.26-2.92,9.88-13.67,6.11-18.01c-3.12-3.59-10.13-2.26-13.99-0.54
		c-3.44,1.53-9.18,5.52-8.77,10.3C607.89-268.59,617.04-263.21,624.05-266.03z"/>
</g>
<g>
	<path class="st0" d="M115.04-155.22c0-0.92-0.35-0.76-0.81-0.81c0,0.12-23.37,2.85-24.29,2.8c0,0-0.46-0.19-0.81,1
		c-0.23,1.08-8.4,38.96-8.63,39.99c0,0,0,0.69-0.23,0.02c-0.23-0.67-3.68-11.58-5.41-19.18c-1.73-7.59-4.14-17.69-4.49-19.75
		c-0.11-0.68-0.69-0.42-0.69-0.42c0,0.19-24.29,0.71-24.63,0.62c-0.69,0-0.81,0-0.81,0.81c0,0,0.58,36.03,0.58,41.67
		c0,5.75,0.34,37.52,0.34,37.52c0,0-0.11,0.23,0.46,0.23c0.46,0.16,11.51-0.15,12.09-0.21c0.69-0.02,2.3,0.04,2.42-0.08
		c0,0,0.46,0.1,0.46-1.17c0-1.27-0.23-24.62-0.23-25.31c0-0.58,0-26.47,0.11-26.82c0-0.46,0-0.81,0.35,0.22
		c0.23,1.15,5.3,22.34,6.91,28.12c1.61,5.91,5.18,23.65,5.41,23.97c0.11,0.34,0.35,0.55,1.5,0.48c1.15-0.04,11.39-0.85,11.86-0.92
		c0.46-0.04,0.69,0.05,0.92-1.12c0.23-1.17,4.03-18.91,4.49-21.14c0.46-1.99,5.64-25.67,5.87-26.62c0.23-1.18,1.15-4.61,1.15-4.61
		c0,0,0.35-1.19,0.46,0.18c0,1.38,0.11,31.3,0.11,32.56c0,1.15,0.23,32.43,0.35,33.69c0,1.27,0.23,1.13,0.57,1.09
		c0.35,0.12,13.24-6.88,13.81-7.35c0.58-0.54,0.92-0.35,0.92-1.27c0-1.04-0.23-22.07-0.23-23.8
		C115.04-92.61,115.04-151.88,115.04-155.22z"/>
	<path class="st0" d="M211-172.96c-0.92,0.19-2.76,0.8-7.37,1.39c-4.49,0.45-14.73,1.01-21.06,4.19
		c-6.22,3.28-12.43,6.41-18.53,18.1c0,0-4.14,7.65-4.26,20.68c0,0-0.11,9.57,1.61,16.63c0,0,2.42,12.47,8.63,20.07
		c6.22,7.69,9.21,14.07,24.86,19.59c0,0,1.04,0.37,2.07-0.76c0.92-1.1,8.4-13.09,8.4-13.09c0,0,0.46-0.78,0.69-1.06
		c0.23-0.39,0.46-0.67-0.11-0.78c-0.58-0.11-11.17-3.83-15.88-9.7c-4.95-5.46-11.05-12.12-11.74-20.62c0,0-1.73-11.76-0.35-18.12
		c1.38-6.71,2.53-12.45,8.98-16.47c0,0,7.83-5.21,18.53-0.14c0.19,0.19,0.38,0.38,0.58,0.57c0,0,0.57,0.34,0.92-0.88
		c0.12-1.06,2.53-10.07,3.11-12.61c0.58-2.19,1.5-6.52,1.5-6.52C211.58-172.5,211.92-173.15,211-172.96z"/>
	<path class="st0" d="M275.11-164.35c0.23-1.43,0-27.18,0-27.88c0-0.69,0.35-1.45-0.81-1.81c-0.92-0.42-13.81-2.67-14.27-2.92
		c-0.57-0.23-0.81,0.16-0.81,0.85c0,0.69,0.57,35.6,0.35,37.05l0-0.17c-0.23,1.31,0.11,0.55-0.92,1.22
		c-1.15,0.78-21.06,13.65-21.98,14.09c-1.04,0.33-0.58-1.72-0.58-2.99c0-1.27,0.23-11.9,0-15.42c-0.11-3.32,0-12.55,0-13.01
		c0.12-0.83,0.23-1.08-1.15-0.8c0,0-13.01,2.55-13.81,2.84c-0.69,0.14-0.81,0.17-0.81,1.09c0,0.92,0.34,19.04,0.34,21.57
		c0,2.65,0,33.72,0,36.14c0,2.19-0.11,19.13,0,19.91c0,0.69,0.23,0.76,1.04,0.59c0.92-0.08,13.81-2.72,14.27-2.81
		c0.46-0.09,0.35,0.04,0.35-0.76c0-0.69,0-23.02,0-25.32c0-2.65,0-4.83,0-4.95c0-0.12,0.23-0.85,1.04-1.13
		c0.69-0.49,13.12-8.88,14.62-9.75c1.5-0.99,6.56-4.41,7.02-4.61c0.56-0.11,0.68-0.23,0.69,0.63l0,0.31
		c0,1.04-0.23,15.89-0.23,17.86c0,2.08,0.23,22.05,0.11,23c-0.11,0.83,0.69,0.44,1.27,0.21c0.58-0.13,13.24-2.57,13.81-2.66
		c0.46-0.09,0.57-0.34,0.57-1.15c0-0.69,0-27.99,0.12-29.86C275.45-137.12,274.99-163.06,275.11-164.35z"/>
	<path class="st0" d="M338.06-129c-0.92-0.09-19.11,2.36-20.6,2.65c-1.5,0.08-12.2,1.71-12.89,1.95c-0.81,0.13-0.69,0.34-0.81-0.56
		c0-0.92-0.35-11.46-0.35-11.92c0,0,0-0.46,0.35-0.63c0.35-0.33,16-9.25,18.19-10.31c2.19-1.11,3.8-1.89,3.8-2.81
		c0-1.04-0.12-10.8-0.12-11.84c0-1.04,0-1.5-0.11-1.94c-0.11-0.21-0.69,0.32-1.5,0.66c0-0.04-14.5,8.14-16.11,9.01
		c-1.61,0.83-3.57,1.94-3.57,1.94c0,0-1.03,1.09-0.92-1.35c0-2.42-0.11-13.33-0.11-14.6c0-1.27-0.23-4.8-0.23-5.14
		c0-0.46-0.35-0.75,1.04-1.09c1.27-0.3,23.71-3.09,26.7-3.58c2.88-0.48,6.91-0.59,7.37-1.1c0.35-0.61,0.23-2.9,0.23-4.17
		c0-1.15,0-9.21,0-10.01c-0.11-0.79-0.81-0.6-0.81-0.6c0-0.08-19.57,2.42-22.79,2.87c-3.45,0.41-26.36,4.08-27.05,4.39
		c-0.81,0.14-0.81,0.49-0.81,1.06c0,0.58,0.11,24.73,0.11,26.91c0,2.3,0.11,28.41,0,30.16c0,1.61,0.23,17.45,0.23,21.6
		c0,0,0,0.58,0.69,0.45c0.81-0.12,25.67-4.18,27.74-4.37c1.96-0.26,22.1-2.96,22.45-3.03c0.46-0.05,0.81-0.21,0.81-1.36
		c0.11-1.16-0.12-11.15-0.12-11.84C338.86-128.4,339.09-129.12,338.06-129z"/>
	<path class="st0" d="M394.11-131.01c0,0,0.23-0.92-0.69-0.92c-0.5-0.11-7.9,0.07-14.66,0.3c-5.71,0.19-10.97,0.42-11.23,0.52
		c-0.57-0.08-0.23-0.33-0.34-0.67c-0.12-0.22,0-9.67,0-10.13c0-0.35-0.35-25.53-0.23-27.15c0.12-1.73-0.11-26.01-0.11-26.47
		c0-0.58,0-1.73-0.69-1.68c-0.81-0.12-14.5,1.05-14.85,1.14c-0.46,0.04-0.69,0.18-0.69,1.1c0.11,0.8,0.46,33.22,0.46,37.83
		c0.11,4.82,0.11,40.16,0.35,40.94c0,0-0.46,0.73,0.57,0.64c0.92-0.22,22.79-1.46,24.4-1.37c1.5-0.14,16.69-0.91,17.15-0.72
		c0.46,0,0.92,0,0.81-0.69C394.34-118.35,394.11-129.63,394.11-131.01z"/>
	<path class="st0" d="M134.35-202.69c0.75-0.9,1.06-1.75,1.06-2.55c0-1.84-1.6-3.36-3.3-3.15c-0.75,0.09-1.49,0.53-2.24,1.43
		c-0.57,0.68-1.14,1.37-1.7,2.05c-3.94,4.74-8.31,11.13-13.1,15.12c-1.06,0.92-1.81,1.47-2.24,1.51c-0.64,0.07-0.64-0.85-0.64-2.92
		c0-15.4,14.16-33.95,14.16-45.72c0-5.18-3.09-9.06-8.1-8.48c-5.43,0.62-12.14,6.98-18.53,14.96c1.07-3.56,1.71-6.84,1.7-9.37
		c0-6.33-3.3-10.26-8.73-9.78c-10.01,0.89-23,18.24-33.55,34.65c5.22-10.92,10.22-21.68,10.22-26.63c0-5.41-3.83-7.26-8.2-7.07
		c-11.29,0.5-19.7,9.1-25.45,17.4c-0.53,0.69-0.75,1.38-0.75,2.07c0,1.84,1.7,3.45,3.41,3.44c0.85-0.01,1.7-0.36,2.45-1.4
		c5.43-7.89,12.14-14.25,20.34-14.61c1.39-0.06,1.92,0.03,1.92,0.83c0,0.23-0.11,0.58-0.21,1.05c-2.24,10.8-22.47,44.37-22.47,54.06
		c0,3.23,2.87,4.23,4.05,4.2c1.6-0.03,3.09-1.67,3.94-3.07c0.18-0.31,0.36-0.62,0.53-0.93c6.18-10.7,31.84-55.88,43.77-57.09
		c1.17-0.1,2.34,0.25,2.34,3.48c0,8.88-11.4,31.73-17.15,42.23c-0.53,0.96-1.28,2.16-1.28,3.31c0,1.96,1.71,3.22,3.41,3.1
		c1.17-0.08,2.56-1.57,3.09-2.64c4.58-9.01,25.67-44.11,35.15-45.27c0.75-0.09,1.7,0.26,1.71,2.34c0,9.12-14.17,28.86-14.17,45.63
		c0,2.19,0.21,4.24,0.85,5.9c1.06,3,2.88,4.08,5.01,3.84c7.45-0.79,19.17-17.65,20.98-19.85C133.21-201.32,133.78-202,134.35-202.69
		z"/>
	<path class="st0" d="M356.54-211.11c2.66-0.08,5.64-0.83,8.52-2.14c2.88-1.42,5.11-3.04,5.75-3.97c0.53-0.69,0.75-1.5,0.75-2.3
		c0-1.84-1.39-3.45-3.2-3.44c-1.81,0.02-3.52,1.88-6.07,3.42c-2.02,1.19-3.94,1.81-5.64,1.86c-4.9,0.15-5.86-2.79-6.18-7.39
		c10.76-1.49,22.58-7.25,22.58-16.56c0-5.41-3.83-9.22-9.16-9.13c-8.4,0.12-16.95,8.9-19.21,19.31c-0.09,0.1-0.18,0.21-0.28,0.31
		c-1.81,2.01-13.21,16.95-16.94,17.25c-2.34,0.17-2.34-5.7-2.34-6.96c0-3.34,0.43-7.63,1.39-12.19
		c14.16-16.85,28.33-34.67,28.33-46.05c0-4.48-1.6-8.59-6.5-8.39c-12.03,0.5-22.58,30.43-27.16,50.94c-1.81,2.1-3.3,3.95-4.58,5.45
		c-0.57,0.66-1.14,1.33-1.71,1.99c-0.01,0.01-0.01,0.01-0.01,0.02c-3.2,3.74-10.11,13.34-14.47,13.8c-2.24,0.23-3.83-2.01-3.83-8.8
		c0-1.96,0.21-4.28,0.64-6.86c3.94-5.37,7.78-11.05,10.97-16.54c4.26-7.1,12.03-20.87,12.03-29.73c0-3.34-1.49-6.67-5.22-6.35
		c-6.07,0.53-13.31,18.53-14.91,22.38c-3.62,8.55-7.03,18.83-8.73,27.65c-1.39,1.88-2.88,3.78-4.26,5.44
		c-0.57,0.68-1.14,1.36-1.71,2.04c0,0.01-0.01,0.01-0.01,0.02c-4.69,5.62-13.2,15.75-20.12,16.68c-4.58,0.61-6.07-3.78-6.28-7.78
		c10.86-2.42,21.73-10.77,21.73-19.75c0-5.18-3.52-9.01-8.84-8.33c-6.95,0.88-17.39,10.81-19.03,24.04
		c-2.53,3.05-4.89,5.61-6.96,7.72c-3.09,3.2-8.2,7.86-9.8,8.1c-0.21,0.03-0.32-0.3-0.32-0.53c0-1.04,1.17-3.51,2.66-6.38
		c2.98-5.73,7.14-11.05,7.14-18.65c0-5.87-3.62-8.8-8.73-8.05c-6.07,0.89-13.74,9.29-20.98,20.06c0.64-2.86,1.39-5.74,2.02-8.48
		c10.76-15.9,20.02-35.91,20.02-40.97c0-2.88-1.6-5.41-4.69-4.95c-0.96,0.14-2.24,0.91-2.88,1.46
		c-3.41,2.81-13.85,26.02-18.21,42.11c-3.52,5.02-7.03,9.81-10.12,13.62c-0.57,0.7-1.14,1.4-1.71,2.1c0,0.01-0.01,0.01-0.01,0.02
		c-4.9,6.04-14.16,18.01-21.82,19.13c-4.58,0.67-6.6-2.03-6.6-7.21c0-9.09,6.28-19.78,13.21-20.81c0.53-0.08,1.06-0.04,1.38,0.14
		c-0.32,0.51-0.43,1.21-0.43,1.9c0,1.27,0.64,4.63,3.94,4.13c2.13-0.32,3.73-2.4,3.73-4.7c0-6.1-3.83-9.09-8.63-8.38
		c-12.25,1.82-19.6,18.05-19.6,28.64c0,7.59,3.62,14.58,12.99,13.2c10.22-1.5,19.7-13.76,26.31-21.9c0.57-0.7,1.14-1.4,1.7-2.1
		c0.53-0.66,0.96-1.18,1.49-1.84c-1.81,7.07-3.62,13.33-5.22,17.6c-0.21,0.61-0.32,1.2-0.32,1.77c0,1.96,1.49,3.23,3.09,2.99
		c1.07-0.16,2.24-1.03,2.98-2.52c10.44-20.69,22.69-37.27,28.33-38.09c1.92-0.28,2.34,0.35,2.34,2.07c0,7.94-9.8,17.9-9.8,26.43
		c0,3.57,2.34,5.75,5.64,5.26c4.31-0.64,10.81-5.76,18.16-13.88c1.4,6.27,5.39,10.62,12.09,9.73c9.27-1.24,18.43-11.91,24.6-19.29
		c0.11-0.13,0.21-0.25,0.32-0.38c0.32,8.71,3.83,14.63,9.69,14.02c2.88-0.3,6.28-2.26,10.12-5.95c3.24-3.15,6.01-6.66,8.93-10.09
		c-0.19,1.46-0.2,2.79-0.2,3.79c0,5.99,1.6,13.89,8.73,13.36c5.47-0.41,12.12-8.19,17.06-14.26
		C345.72-215.01,349.45-210.89,356.54-211.11z M348.23-280.8c0.04,0.11,0.07,0.23,0.11,0.34c0.11,0.46,0.11,1.03,0.11,1.61
		c0,7.13-9.16,19.94-18.11,31.16C332.04-253.12,342.27-280.57,348.23-280.8z M304.03-254.66c2.77-6.15,5.43-12.39,8.52-18.42
		c0.75-1.33,1.17-2.06,1.38-2.08c0.11-0.01,0.11,0.22,0.11,0.34c0,0.35-0.11,0.93-0.53,2c-2.34,6.66-5.64,13.06-8.95,19.38
		c-1.28,2.54-2.98,5.48-4.15,7.56C301.48-248.65,302.86-252.01,304.03-254.66z M271.87-238.29c1.71-0.22,2.45,0.72,2.45,2.22
		c0,4.25-6.69,9.69-14.34,11.79c-0.01-0.01-0.02-0.02-0.03-0.03C261.88-230.66,266.66-237.62,271.87-238.29z M363.89-243.96
		c2.56-0.04,2.77,1.69,2.77,2.38c0,4.25-8.41,8.74-15.12,9.35C353.24-237.71,357.82-243.06,363.89-243.96z"/>
	<path class="st0" d="M165.24-248.73c0,0-13.84-2.37-14.3-2.44c-0.38,0.2-0.64-0.35-1.06,2.4c-0.46,3-9.67,64-10.28,68.77
		c-0.65,5.02-14.98,99.52-15.14,100.51c-0.15,1-0.46,3,1.36,3.28c1.82,0.28,12.14,2.11,12.89,1.71c0.65-0.41,0.83-0.13,1.33-3.38
		c0.54-3.5,16.7-110.76,17.54-115.49c0.84-5.5,7.87-52.26,8.26-53.99C165.84-247.36,166.19-248.84,165.24-248.73z"/>
	<path class="st0" d="M166.14-266.03c7.26-2.92,9.88-13.67,6.11-18.01c-3.12-3.59-10.13-2.26-13.99-0.54
		c-3.44,1.53-9.18,5.52-8.77,10.3C149.98-268.59,159.13-263.21,166.14-266.03z"/>
</g>
<g>
	<path class="st2" d="M-342.87-155.22c0-0.92-0.35-0.76-0.81-0.81c0,0.12-23.37,2.85-24.29,2.8c0,0-0.46-0.19-0.81,1
		c-0.23,1.08-8.4,38.96-8.63,39.99c0,0,0,0.69-0.23,0.02c-0.23-0.67-3.68-11.58-5.41-19.18c-1.73-7.59-4.14-17.69-4.49-19.75
		c-0.11-0.68-0.69-0.42-0.69-0.42c0,0.19-24.29,0.71-24.63,0.62c-0.69,0-0.81,0-0.81,0.81c0,0,0.58,36.03,0.58,41.67
		c0,5.75,0.34,37.52,0.34,37.52c0,0-0.11,0.23,0.46,0.23c0.46,0.16,11.51-0.15,12.09-0.21c0.69-0.02,2.3,0.04,2.42-0.08
		c0,0,0.46,0.1,0.46-1.17c0-1.27-0.23-24.62-0.23-25.31c0-0.58,0-26.47,0.11-26.82c0-0.46,0-0.81,0.35,0.22
		c0.23,1.15,5.3,22.34,6.91,28.12c1.61,5.91,5.18,23.65,5.41,23.97c0.11,0.34,0.35,0.55,1.5,0.48c1.15-0.04,11.39-0.85,11.86-0.92
		c0.46-0.04,0.69,0.05,0.92-1.12c0.23-1.17,4.03-18.91,4.49-21.14c0.46-1.99,5.64-25.67,5.87-26.62c0.23-1.18,1.15-4.61,1.15-4.61
		c0,0,0.35-1.19,0.46,0.18c0,1.38,0.11,31.3,0.11,32.56c0,1.15,0.23,32.43,0.35,33.69c0,1.27,0.23,1.13,0.57,1.09
		c0.35,0.12,13.24-6.88,13.81-7.35c0.58-0.54,0.92-0.35,0.92-1.27c0-1.04-0.23-22.07-0.23-23.8
		C-342.87-92.61-342.87-151.88-342.87-155.22z"/>
	<path class="st2" d="M-246.9-172.96c-0.92,0.19-2.76,0.8-7.37,1.39c-4.49,0.45-14.73,1.01-21.06,4.19
		c-6.22,3.28-12.43,6.41-18.53,18.1c0,0-4.14,7.65-4.26,20.68c0,0-0.11,9.57,1.61,16.63c0,0,2.42,12.47,8.63,20.07
		c6.22,7.69,9.21,14.07,24.86,19.59c0,0,1.04,0.37,2.07-0.76c0.92-1.1,8.4-13.09,8.4-13.09c0,0,0.46-0.78,0.69-1.06
		c0.23-0.39,0.46-0.67-0.11-0.78c-0.58-0.11-11.17-3.83-15.88-9.7c-4.95-5.46-11.05-12.12-11.74-20.62c0,0-1.73-11.76-0.35-18.12
		c1.38-6.71,2.53-12.45,8.98-16.47c0,0,7.83-5.21,18.53-0.14c0.19,0.19,0.38,0.38,0.58,0.57c0,0,0.57,0.34,0.92-0.88
		c0.12-1.06,2.53-10.07,3.11-12.61c0.58-2.19,1.5-6.52,1.5-6.52C-246.33-172.5-245.98-173.15-246.9-172.96z"/>
	<path class="st2" d="M-182.8-164.35c0.23-1.43,0-27.18,0-27.88c0-0.69,0.35-1.45-0.81-1.81c-0.92-0.42-13.81-2.67-14.27-2.92
		c-0.57-0.23-0.81,0.16-0.81,0.85c0,0.69,0.57,35.6,0.35,37.05l0-0.17c-0.23,1.31,0.11,0.55-0.92,1.22
		c-1.15,0.78-21.06,13.65-21.98,14.09c-1.04,0.33-0.58-1.72-0.58-2.99c0-1.27,0.23-11.9,0-15.42c-0.11-3.32,0-12.55,0-13.01
		c0.12-0.83,0.23-1.08-1.15-0.8c0,0-13.01,2.55-13.81,2.84c-0.69,0.14-0.81,0.17-0.81,1.09c0,0.92,0.34,19.04,0.34,21.57
		c0,2.65,0,33.72,0,36.14c0,2.19-0.11,19.13,0,19.91c0,0.69,0.23,0.76,1.04,0.59c0.92-0.08,13.81-2.72,14.27-2.81
		c0.46-0.09,0.35,0.04,0.35-0.76c0-0.69,0-23.02,0-25.32c0-2.65,0-4.83,0-4.95c0-0.12,0.23-0.85,1.04-1.13
		c0.69-0.49,13.12-8.88,14.62-9.75c1.5-0.99,6.56-4.41,7.02-4.61c0.56-0.11,0.68-0.23,0.69,0.63l0,0.31
		c0,1.04-0.23,15.89-0.23,17.86c0,2.08,0.23,22.05,0.11,23c-0.11,0.83,0.69,0.44,1.27,0.21c0.58-0.13,13.24-2.57,13.81-2.66
		c0.46-0.09,0.57-0.34,0.57-1.15c0-0.69,0-27.99,0.12-29.86C-182.46-137.12-182.92-163.06-182.8-164.35z"/>
	<path class="st2" d="M-119.85-129c-0.92-0.09-19.11,2.36-20.6,2.65c-1.5,0.08-12.2,1.71-12.89,1.95c-0.81,0.13-0.69,0.34-0.81-0.56
		c0-0.92-0.35-11.46-0.35-11.92c0,0,0-0.46,0.35-0.63c0.35-0.33,16-9.25,18.19-10.31c2.19-1.11,3.8-1.89,3.8-2.81
		c0-1.04-0.12-10.8-0.12-11.84c0-1.04,0-1.5-0.11-1.94c-0.11-0.21-0.69,0.32-1.5,0.66c0-0.04-14.5,8.14-16.11,9.01
		c-1.61,0.83-3.57,1.94-3.57,1.94c0,0-1.03,1.09-0.92-1.35c0-2.42-0.11-13.33-0.11-14.6c0-1.27-0.23-4.8-0.23-5.14
		c0-0.46-0.35-0.75,1.04-1.09c1.27-0.3,23.71-3.09,26.7-3.58c2.88-0.48,6.91-0.59,7.37-1.1c0.35-0.61,0.23-2.9,0.23-4.17
		c0-1.15,0-9.21,0-10.01c-0.11-0.79-0.81-0.6-0.81-0.6c0-0.08-19.57,2.42-22.79,2.87c-3.45,0.41-26.36,4.08-27.05,4.39
		c-0.81,0.14-0.81,0.49-0.81,1.06c0,0.58,0.11,24.73,0.11,26.91c0,2.3,0.11,28.41,0,30.16c0,1.61,0.23,17.45,0.23,21.6
		c0,0,0,0.58,0.69,0.45c0.81-0.12,25.67-4.18,27.74-4.37c1.96-0.26,22.1-2.96,22.45-3.03c0.46-0.05,0.81-0.21,0.81-1.36
		c0.11-1.16-0.12-11.15-0.12-11.84C-119.05-128.4-118.81-129.12-119.85-129z"/>
	<path class="st2" d="M-63.8-131.01c0,0,0.23-0.92-0.69-0.92c-0.5-0.11-7.9,0.07-14.66,0.3c-5.71,0.19-10.97,0.42-11.23,0.52
		c-0.57-0.08-0.23-0.33-0.34-0.67c-0.12-0.22,0-9.67,0-10.13c0-0.35-0.35-25.53-0.23-27.15c0.12-1.73-0.11-26.01-0.11-26.47
		c0-0.58,0-1.73-0.69-1.68c-0.81-0.12-14.5,1.05-14.85,1.14c-0.46,0.04-0.69,0.18-0.69,1.1c0.11,0.8,0.46,33.22,0.46,37.83
		c0.11,4.82,0.11,40.16,0.35,40.94c0,0-0.46,0.73,0.57,0.64c0.92-0.22,22.79-1.46,24.4-1.37c1.5-0.14,16.69-0.91,17.15-0.72
		c0.46,0,0.92,0,0.81-0.69C-63.57-118.35-63.8-129.63-63.8-131.01z"/>
	<path class="st2" d="M-323.56-202.69c0.75-0.9,1.06-1.75,1.06-2.55c0-1.84-1.6-3.36-3.3-3.15c-0.75,0.09-1.49,0.53-2.24,1.43
		c-0.57,0.68-1.14,1.37-1.7,2.05c-3.94,4.74-8.31,11.13-13.1,15.12c-1.06,0.92-1.81,1.47-2.24,1.51c-0.64,0.07-0.64-0.85-0.64-2.92
		c0-15.4,14.16-33.95,14.16-45.72c0-5.18-3.09-9.06-8.1-8.48c-5.43,0.62-12.14,6.98-18.53,14.96c1.07-3.56,1.71-6.84,1.7-9.37
		c0-6.33-3.3-10.26-8.73-9.78c-10.01,0.89-23,18.24-33.55,34.65c5.22-10.92,10.22-21.68,10.22-26.63c0-5.41-3.83-7.26-8.2-7.07
		c-11.29,0.5-19.7,9.1-25.45,17.4c-0.53,0.69-0.75,1.38-0.75,2.07c0,1.84,1.7,3.45,3.41,3.44c0.85-0.01,1.7-0.36,2.45-1.4
		c5.43-7.89,12.14-14.25,20.34-14.61c1.39-0.06,1.92,0.03,1.92,0.83c0,0.23-0.11,0.58-0.21,1.05c-2.24,10.8-22.47,44.37-22.47,54.06
		c0,3.23,2.87,4.23,4.05,4.2c1.6-0.03,3.09-1.67,3.94-3.07c0.18-0.31,0.36-0.62,0.53-0.93c6.18-10.7,31.84-55.88,43.77-57.09
		c1.17-0.1,2.34,0.25,2.34,3.48c0,8.88-11.4,31.73-17.15,42.23c-0.53,0.96-1.28,2.16-1.28,3.31c0,1.96,1.71,3.22,3.41,3.1
		c1.17-0.08,2.56-1.57,3.09-2.64c4.58-9.01,25.67-44.11,35.15-45.27c0.75-0.09,1.7,0.26,1.71,2.34c0,9.12-14.17,28.86-14.17,45.63
		c0,2.19,0.21,4.24,0.85,5.9c1.06,3,2.88,4.08,5.01,3.84c7.45-0.79,19.17-17.65,20.98-19.85C-324.7-201.32-324.13-202-323.56-202.69
		z"/>
	<path class="st2" d="M-101.37-211.11c2.66-0.08,5.64-0.83,8.52-2.14c2.88-1.42,5.11-3.04,5.75-3.97c0.53-0.69,0.75-1.5,0.75-2.3
		c0-1.84-1.39-3.45-3.2-3.44c-1.81,0.02-3.52,1.88-6.07,3.42c-2.02,1.19-3.94,1.81-5.64,1.86c-4.9,0.15-5.86-2.79-6.18-7.39
		c10.76-1.49,22.58-7.25,22.58-16.56c0-5.41-3.83-9.22-9.16-9.13c-8.4,0.12-16.95,8.9-19.21,19.31c-0.09,0.1-0.18,0.21-0.28,0.31
		c-1.81,2.01-13.21,16.95-16.94,17.25c-2.34,0.17-2.34-5.7-2.34-6.96c0-3.34,0.43-7.63,1.39-12.19
		c14.16-16.85,28.33-34.67,28.33-46.05c0-4.48-1.6-8.59-6.5-8.39c-12.03,0.5-22.58,30.43-27.16,50.94c-1.81,2.1-3.3,3.95-4.58,5.45
		c-0.57,0.66-1.14,1.33-1.71,1.99c-0.01,0.01-0.01,0.01-0.01,0.02c-3.2,3.74-10.11,13.34-14.47,13.8c-2.24,0.23-3.83-2.01-3.83-8.8
		c0-1.96,0.21-4.28,0.64-6.86c3.94-5.37,7.78-11.05,10.97-16.54c4.26-7.1,12.03-20.87,12.03-29.73c0-3.34-1.49-6.67-5.22-6.35
		c-6.07,0.53-13.31,18.53-14.91,22.38c-3.62,8.55-7.03,18.83-8.73,27.65c-1.39,1.88-2.88,3.78-4.26,5.44
		c-0.57,0.68-1.14,1.36-1.71,2.04c0,0.01-0.01,0.01-0.01,0.02c-4.69,5.62-13.2,15.75-20.12,16.68c-4.58,0.61-6.07-3.78-6.28-7.78
		c10.86-2.42,21.73-10.77,21.73-19.75c0-5.18-3.52-9.01-8.84-8.33c-6.95,0.88-17.39,10.81-19.03,24.04
		c-2.53,3.05-4.89,5.61-6.96,7.72c-3.09,3.2-8.2,7.86-9.8,8.1c-0.21,0.03-0.32-0.3-0.32-0.53c0-1.04,1.17-3.51,2.66-6.38
		c2.98-5.73,7.14-11.05,7.14-18.65c0-5.87-3.62-8.8-8.73-8.05c-6.07,0.89-13.74,9.29-20.98,20.06c0.64-2.86,1.39-5.74,2.02-8.48
		c10.76-15.9,20.02-35.91,20.02-40.97c0-2.88-1.6-5.41-4.69-4.95c-0.96,0.14-2.24,0.91-2.88,1.46
		c-3.41,2.81-13.85,26.02-18.21,42.11c-3.52,5.02-7.03,9.81-10.12,13.62c-0.57,0.7-1.14,1.4-1.71,2.1c0,0.01-0.01,0.01-0.01,0.02
		c-4.9,6.04-14.16,18.01-21.82,19.13c-4.58,0.67-6.6-2.03-6.6-7.21c0-9.09,6.28-19.78,13.21-20.81c0.53-0.08,1.06-0.04,1.38,0.14
		c-0.32,0.51-0.43,1.21-0.43,1.9c0,1.27,0.64,4.63,3.94,4.13c2.13-0.32,3.73-2.4,3.73-4.7c0-6.1-3.83-9.09-8.63-8.38
		c-12.25,1.82-19.6,18.05-19.6,28.64c0,7.59,3.62,14.58,12.99,13.2c10.22-1.5,19.7-13.76,26.31-21.9c0.57-0.7,1.14-1.4,1.7-2.1
		c0.53-0.66,0.96-1.18,1.49-1.84c-1.81,7.07-3.62,13.33-5.22,17.6c-0.21,0.61-0.32,1.2-0.32,1.77c0,1.96,1.49,3.23,3.09,2.99
		c1.07-0.16,2.24-1.03,2.98-2.52c10.44-20.69,22.69-37.27,28.33-38.09c1.92-0.28,2.34,0.35,2.34,2.07c0,7.94-9.8,17.9-9.8,26.43
		c0,3.57,2.34,5.75,5.64,5.26c4.31-0.64,10.81-5.76,18.16-13.88c1.4,6.27,5.39,10.62,12.09,9.73c9.27-1.24,18.43-11.91,24.6-19.29
		c0.11-0.13,0.21-0.25,0.32-0.38c0.32,8.71,3.83,14.63,9.69,14.02c2.88-0.3,6.28-2.26,10.12-5.95c3.24-3.15,6.01-6.66,8.93-10.09
		c-0.19,1.46-0.2,2.79-0.2,3.79c0,5.99,1.6,13.89,8.73,13.36c5.47-0.41,12.12-8.19,17.06-14.26
		C-112.19-215.01-108.46-210.89-101.37-211.11z M-109.68-280.8c0.04,0.11,0.07,0.23,0.11,0.34c0.11,0.46,0.11,1.03,0.11,1.61
		c0,7.13-9.16,19.94-18.11,31.16C-125.87-253.12-115.64-280.57-109.68-280.8z M-153.88-254.66c2.77-6.15,5.43-12.39,8.52-18.42
		c0.75-1.33,1.17-2.06,1.38-2.08c0.11-0.01,0.11,0.22,0.11,0.34c0,0.35-0.11,0.93-0.53,2c-2.34,6.66-5.64,13.06-8.95,19.38
		c-1.28,2.54-2.98,5.48-4.15,7.56C-156.43-248.65-155.05-252.01-153.88-254.66z M-186.04-238.29c1.71-0.22,2.45,0.72,2.45,2.22
		c0,4.25-6.69,9.69-14.34,11.79c-0.01-0.01-0.02-0.02-0.03-0.03C-196.03-230.66-191.25-237.62-186.04-238.29z M-94.02-243.96
		c2.56-0.04,2.77,1.69,2.77,2.38c0,4.25-8.41,8.74-15.12,9.35C-104.67-237.71-100.09-243.06-94.02-243.96z"/>
	<path class="st2" d="M-292.67-248.73c0,0-13.84-2.37-14.3-2.44c-0.38,0.2-0.64-0.35-1.06,2.4c-0.46,3-9.67,64-10.28,68.77
		c-0.65,5.02-14.98,99.52-15.14,100.51c-0.15,1-0.46,3,1.36,3.28c1.82,0.28,12.14,2.11,12.89,1.71c0.65-0.41,0.83-0.13,1.33-3.38
		c0.54-3.5,16.7-110.76,17.54-115.49c0.84-5.5,7.87-52.26,8.26-53.99C-292.06-247.36-291.72-248.84-292.67-248.73z"/>
	<path class="st2" d="M-291.77-266.03c7.26-2.92,9.88-13.67,6.11-18.01c-3.12-3.59-10.13-2.26-13.99-0.54
		c-3.44,1.53-9.18,5.52-8.77,10.3C-307.93-268.59-298.78-263.21-291.77-266.03z"/>
</g>
</svg>
