<?xml version="1.0" standalone="no"?>
<!DOCTYPE svg PUBLIC "-//W3C//DTD SVG 1.1//EN" "http://www.w3.org/Graphics/SVG/1.1/DTD/svg11.dtd" >
<svg xmlns="http://www.w3.org/2000/svg" xmlns:xlink="http://www.w3.org/1999/xlink" version="1.1">
<metadata>
Created by FontForge 20200427 at Mon Mar 17 02:03:33 2014
 By www
Copyright (c) Nick Shinn. Published by Shinn Type Foundry, 2005. All rights reserved.
</metadata>
<defs>
<font id="HandsomeW01-ExtraBold" horiz-adv-x="480" >
  <font-face 
    font-family="HandsomeW01-ExtraBold"
    font-weight="800"
    font-stretch="normal"
    units-per-em="1000"
    panose-1="3 5 10 2 4 2 7 7 12 4"
    ascent="650"
    descent="-350"
    x-height="325"
    cap-height="636"
    bbox="-198 -371 987 891"
    underline-thickness="50"
    underline-position="-183"
    unicode-range="U+0002-2122"
  />
<missing-glyph horiz-adv-x="240" 
 />
    <glyph glyph-name=".notdef" horiz-adv-x="240" 
 />
    <glyph glyph-name=".null" horiz-adv-x="0" 
 />
    <glyph glyph-name="uni000D" unicode="&#xd;" horiz-adv-x="240" 
 />
    <glyph glyph-name="uni0002" horiz-adv-x="0" 
 />
    <glyph glyph-name="uni0009" unicode="&#x9;" horiz-adv-x="240" 
 />
    <glyph glyph-name="uni000A" unicode="&#xa;" horiz-adv-x="0" 
 />
    <glyph glyph-name="space" unicode=" " horiz-adv-x="240" 
 />
    <glyph glyph-name="exclam" unicode="!" horiz-adv-x="299" 
d="M317 603q0 -8 -5 -20q-12 -26 -30 -78t-36.5 -112.5t-35.5 -121.5t-26 -105q-4 -19 -16.5 -27.5t-26.5 -8.5q-17 0 -31.5 11.5t-14.5 31.5q0 7 1 11q10 46 27 108.5t36.5 125.5t38.5 117.5t32 83.5q13 27 39 27q17 0 32.5 -11.5t15.5 -31.5zM158 41v-7.5t-2 -8.5l-7 -21
q-5 -17 -17 -24t-25 -7q-17 0 -31.5 11.5t-14.5 31.5v7.5t2 8.5l7 21q5 17 17 24t25 7q17 0 31.5 -11.5t14.5 -31.5z" />
    <glyph glyph-name="quotedbl" unicode="&#x22;" horiz-adv-x="508" 
d="M485 620q0 -14 -11 -28q-17 -21 -37 -52t-40 -65.5t-39 -68.5t-33 -61q-7 -14 -17.5 -19.5t-21.5 -5.5q-18 0 -32.5 12.5t-14.5 31.5q0 10 6 21q14 28 33.5 63.5t41 72t43.5 70t41 57.5q14 18 34 18q18 0 32.5 -13.5t14.5 -32.5zM297 608q0 -12 -8 -25q-12 -20 -28.5 -48
t-33 -58.5t-31.5 -60t-25 -51.5q-7 -14 -17.5 -20t-21.5 -6q-17 0 -32.5 12t-15.5 32q0 8 5 20q10 23 26 53.5t33.5 62.5t34.5 61.5t30 50.5q15 22 37 22q18 0 32.5 -13t14.5 -32z" />
    <glyph glyph-name="numbersign" unicode="#" horiz-adv-x="547" 
d="M553 431q0 -21 -13 -33t-34 -12q-23 1 -51.5 1.5t-61.5 1.5q-8 -14 -16.5 -29t-16.5 -30q23 -1 42.5 -1.5t36.5 -2.5q21 -2 31.5 -15.5t10.5 -29.5q0 -20 -13.5 -32.5t-34.5 -12.5q-25 2 -56 3.5t-66 2.5q-14 -27 -26.5 -51t-22.5 -42q-7 -13 -17.5 -18.5t-21.5 -5.5
q-18 0 -32.5 12.5t-14.5 31.5q0 10 6 22q6 11 13.5 24t15.5 30h-58q-14 -29 -26.5 -55t-23.5 -49q-7 -14 -17.5 -20t-21.5 -6q-17 0 -32.5 11.5t-15.5 31.5q0 9 5 21q13 30 32 67h-49q-23 0 -34 14t-11 31t11 31t34 14h94l29 56h-62q-23 0 -34 14t-11 31t11 31t34 14h110
q14 26 28 50t27 47q7 12 17 18t21 6q18 0 32.5 -13t14.5 -32q0 -12 -7 -23q-8 -13 -15 -26.5t-15 -28.5h63q22 38 39.5 67t27.5 41q14 17 34 17q18 0 32.5 -13.5t14.5 -32.5q0 -7 -2.5 -14.5t-8.5 -14.5q-5 -6 -14 -19.5t-20 -32.5q19 -1 35.5 -1t30.5 -1q22 -1 32.5 -14.5
t10.5 -30.5zM229 391l-31 -58h61q8 14 15.5 29t15.5 29h-61z" />
    <glyph glyph-name="dollar" unicode="$" horiz-adv-x="508" 
d="M472 366q0 -19 -14.5 -32t-32.5 -13q-22 0 -37 22q-5 7 -16 13.5t-31 10.5q-11 -29 -22.5 -59t-22.5 -61q22 -9 43 -20t37.5 -27t26.5 -36.5t10 -48.5q0 -43 -22 -72.5t-55 -48.5t-72 -27.5t-74 -9.5l-31 -83q-6 -16 -17 -23t-24 -7q-17 0 -31.5 11.5t-14.5 31.5
q0 8 3 17l23 64q-42 12 -76 38.5t-48 74.5q-2 10 -2 15q0 20 14.5 31.5t31.5 11.5q14 0 25.5 -7.5t16.5 -24.5q11 -40 69 -54l52 140q-20 9 -38 19.5t-32 25t-22.5 32.5t-8.5 42q0 41 18.5 69t47.5 45t64.5 25t69.5 10q9 25 17.5 47t16.5 42q6 16 17.5 22.5t23.5 6.5
q17 0 32 -11.5t15 -31.5q0 -5 -1 -9t-3 -9q-6 -15 -12 -31.5t-13 -34.5q27 -8 51 -22.5t40 -38.5q8 -14 8 -25zM245 367q-28 -5 -51.5 -17t-23.5 -38q0 -10 12.5 -18t29.5 -16zM323 115q0 16 -16.5 26.5t-41.5 20.5l-41 -111q17 3 34.5 7.5t32 12.5t23.5 18.5t9 25.5z" />
    <glyph glyph-name="percent" unicode="%" horiz-adv-x="785" 
d="M678 129q0 -43 -17.5 -81t-45.5 -66.5t-62.5 -45t-67.5 -16.5q-30 0 -51.5 11.5t-35.5 30.5t-20.5 43.5t-6.5 51.5q0 72 40.5 124.5t104.5 75.5q13 11 30 11h7q31 -5 54.5 -18t39.5 -31.5t23.5 -41.5t7.5 -48zM660 496q0 -17 -5 -26t-16 -18q-24 -19 -46 -33
q-29 -31 -68.5 -77.5t-82.5 -98.5t-86 -105.5t-78 -99t-59 -78.5t-29 -44q-7 -14 -17.5 -20t-21.5 -6q-18 0 -33 12t-15 32q0 8 5 20q5 10 21.5 34t41.5 57.5t56.5 74t66 83.5t70 86.5t68.5 82.5l-19 -1q-39 0 -73 9v-7q0 -44 -13.5 -80.5t-36 -63t-52.5 -41.5t-62 -15
q-57 0 -92 43t-35 114q0 28 8 58.5t26 57t46.5 45.5t68.5 25q3 1 8 1q12 0 21 -6q13 14 31 14q21 0 36 -18q17 -21 50.5 -33t74.5 -12q29 0 59 6.5t59 21.5q24 25 37 37q7 6 16.5 11t22.5 5q20 0 33.5 -13.5t13.5 -33.5zM588 129q0 20 -8.5 30.5t-23.5 15.5
q-42 -11 -68.5 -42t-26.5 -76q0 -6 0.5 -14t3 -15.5t7 -12.5t13.5 -5q14 0 32 9.5t33.5 25.5t26.5 37.5t11 46.5zM250 373q0 17 -6 32t-13 29q-10 -7 -21 -8q-35 -5 -53 -31.5t-18 -64.5q0 -23 4 -36.5t10 -20t12.5 -8.5t10.5 -2q9 0 21.5 6t24.5 19t20 34t8 51z" />
    <glyph glyph-name="ampersand" unicode="&#x26;" horiz-adv-x="564" 
d="M648 239q0 -17 -11 -31t-34 -14q-66 0 -132 -4.5t-132 -10.5q-18 -48 -38 -97t-41 -100q-10 -34 -24.5 -66t-32.5 -61q-16 -26 -40 -26q-17 0 -30.5 12t-13.5 32q0 5 1 11.5t4 12.5q13 28 25.5 56t24.5 56q11 39 11 72q0 26 -7 47.5t-27 36.5q-47 -3 -94 -3
q-12 0 -25 3.5t-23 10t-16.5 17.5t-6.5 26t6.5 26t17 18t23.5 10.5t26 3.5q60 0 108 -20q26 2 53 4.5t56 4.5q14 39 32.5 86t35.5 89t29 72t14 34q7 14 17.5 19.5t21.5 5.5q18 0 32.5 -12.5t14.5 -31.5q0 -11 -6 -21q-10 -21 -19.5 -43t-20 -49t-23 -61t-29.5 -79
q54 4 111 6.5t117 2.5q23 0 34 -14t11 -31z" />
    <glyph glyph-name="quotesingle" unicode="'" horiz-adv-x="351" 
d="M320 640q0 -10 -6 -22q-31 -57 -67 -119t-64 -122q-7 -14 -17.5 -20t-21.5 -6q-18 0 -33 12t-15 32q0 8 5 20q29 62 65.5 124t67.5 121q7 13 17.5 19t21.5 6q18 0 32.5 -13t14.5 -32z" />
    <glyph glyph-name="parenleft" unicode="(" horiz-adv-x="370" 
d="M431 631q0 -18 -16 -33q-115 -103 -168 -213.5t-53 -221.5q0 -123 59 -233q6 -12 6 -22q0 -19 -14.5 -31.5t-32.5 -12.5q-11 0 -21.5 5.5t-17.5 18.5q-70 132 -70 275q0 131 61.5 259.5t190.5 243.5q13 12 30 12q18 0 32 -14.5t14 -32.5z" />
    <glyph glyph-name="parenright" unicode=")" horiz-adv-x="370" 
d="M269 343q0 -64 -15.5 -131t-46.5 -131.5t-78 -123.5t-111 -107q-13 -10 -27 -10q-19 0 -32.5 14.5t-13.5 32.5q0 20 19 35q57 43 97.5 94t67 105.5t38.5 109.5t12 107q0 81 -26.5 146.5t-74.5 100.5q-19 15 -19 35q0 18 13.5 32.5t32.5 14.5q14 0 27 -10
q68 -51 102.5 -133.5t34.5 -180.5z" />
    <glyph glyph-name="asterisk" unicode="*" horiz-adv-x="397" 
d="M608 514q0 -15 -10 -28.5t-30 -15.5q-41 -5 -97.5 -12t-119.5 -16q22 -33 42 -64t36 -56q8 -12 8 -25q0 -19 -14.5 -32t-32.5 -13q-22 0 -37 22q-15 24 -34.5 53.5t-40.5 61.5q-19 -38 -31.5 -68t-23.5 -59q-6 -16 -17 -23t-24 -7q-17 0 -31.5 11.5t-14.5 31.5q0 8 3 17
q11 29 23.5 60t29.5 67q-35 -5 -67 -9.5t-58 -9.5q-3 -1 -9 -1q-21 0 -32 14.5t-11 31.5q0 15 9 27.5t29 15.5q62 11 144 23q-20 30 -34.5 50.5t-28.5 40.5q-9 13 -9 27q0 19 14.5 32t32.5 13q22 0 36 -20q13 -18 28.5 -41.5t33.5 -49.5q14 25 31 52.5t37 58.5q15 22 37 22
q18 0 32.5 -13t14.5 -32q0 -12 -8 -25q-16 -26 -29.5 -49t-26.5 -44q58 8 110 15t90 12q26 0 38 -12.5t12 -33.5z" />
    <glyph glyph-name="plus" unicode="+" 
d="M432 198q0 -17 -11 -31t-34 -14h-146q-20 -45 -37.5 -87.5l-31.5 -76.5q-6 -15 -17.5 -21.5t-23.5 -6.5q-17 0 -32 11.5t-15 31.5q0 10 4 19q11 27 25 60.5t30 69.5h-107q-23 0 -34 14t-11 31t11 31t34 14h146q19 44 37 83.5t32 69.5q7 14 17.5 20t21.5 6q18 0 33 -12
t15 -32q0 -8 -5 -20q-11 -23 -24.5 -52.5t-27.5 -62.5h106q23 0 34 -14t11 -31z" />
    <glyph glyph-name="comma" unicode="," horiz-adv-x="233" 
d="M135 -23q0 -33 -12 -62.5t-30.5 -54t-42 -43t-46.5 -30.5q-12 -6 -22 -6q-19 0 -32 14.5t-13 32.5q0 11 6 21.5t19 17.5q33 17 55.5 44.5t26.5 56.5l-4 -1q-16 0 -28.5 10.5t-12.5 36.5q0 15 6 26t14.5 18t19 10t19.5 3q19 0 33.5 -8.5t24 -22t14.5 -30t5 -33.5z" />
    <glyph glyph-name="hyphen" unicode="-" horiz-adv-x="399" 
d="M329 153q0 -14 -8.5 -26.5t-28.5 -16.5q-24 -5 -55.5 -9.5t-63 -8t-60 -6.5t-46.5 -4q-22 0 -35 12t-13 33q0 17 10 30t32 15q18 1 45 3.5t57 6.5l60 8t53 8q3 1 10 1q21 0 32 -14.5t11 -31.5z" />
    <glyph glyph-name="period" unicode="." horiz-adv-x="225" 
d="M124 -13q0 -10 -5 -20.5t-13.5 -19t-20 -14t-25.5 -5.5q-9 0 -19 5t-18.5 13.5t-13.5 18t-5 18.5q0 13 6.5 23.5t16 18.5t20.5 12.5t21 4.5q9 0 19 -5t18.5 -13.5t13.5 -18t5 -18.5z" />
    <glyph glyph-name="slash" unicode="/" horiz-adv-x="384" 
d="M460 614q0 -14 -11 -28q-31 -39 -70 -100t-80.5 -133t-83.5 -150t-79 -152t-66.5 -139t-46.5 -111q-6 -16 -17 -22.5t-24 -6.5q-17 0 -31.5 11.5t-14.5 31.5q0 9 3 18q18 47 48.5 114t68 143t81 156t86 154.5t83 137t73.5 104.5q14 18 34 18q18 0 32.5 -13.5t14.5 -32.5z
" />
    <glyph glyph-name="zero" unicode="0" horiz-adv-x="376" 
d="M329 262q0 -50 -17.5 -104.5t-49 -100t-74.5 -75.5t-93 -30q-28 0 -49 10.5t-35 29t-21 43.5t-7 54q0 39 12.5 83.5t37 87t60.5 80t83 63.5q14 7 23 7q14 0 28 -12q53 -5 77.5 -43.5t24.5 -92.5zM240 265q0 20 -6 32t-20 12q-8 0 -15 -1t-12 -5q-49 -37 -81.5 -92.5
t-32.5 -117.5q0 -18 3 -28t7 -15.5t7.5 -6.5t4.5 -1q30 0 56 24t46 59t31.5 73t11.5 67z" />
    <glyph glyph-name="one" unicode="1" horiz-adv-x="274" 
d="M254 376q0 -10 -6 -22q-9 -18 -24.5 -51t-33 -74t-36 -85t-34.5 -82.5t-27.5 -67.5t-15.5 -40q-6 -16 -17 -23t-24 -7q-17 0 -31.5 11.5t-14.5 31.5q0 8 3 17q4 12 16 41t26.5 64.5t29 71.5t25.5 62q-11 -8 -25.5 -18t-23.5 -15q-11 -7 -24 -7q-19 0 -32 14.5t-13 32.5
q0 11 5.5 21t17.5 17q14 8 37.5 24.5t49 36t50 40t39.5 38.5q15 16 33 16t34 -14t16 -33z" />
    <glyph glyph-name="two" unicode="2" horiz-adv-x="351" 
d="M311 305q0 -53 -28.5 -94.5t-69.5 -76.5q-22 -19 -45.5 -35.5t-46.5 -33.5h24q30 0 54.5 -2.5t40.5 -6.5q18 -4 26.5 -16.5t8.5 -26.5q0 -17 -11.5 -31.5t-31.5 -14.5q-8 0 -12 1q-11 2 -30 4.5t-45 2.5q-74 0 -109.5 -7t-36.5 -8q-13 -10 -27 -10q-18 0 -33 14t-15 33
q0 17 15 32q51 49 103 85.5t105 80.5q74 62 74 110q0 7 -4 12t-18 5q-28 0 -48.5 -9.5t-33.5 -20.5l1 -7q0 -20 -15.5 -32.5t-34.5 -12.5q-16 0 -26 6.5t-15.5 15t-7.5 17.5t-2 14q0 28 21.5 50t51 37.5t60 23.5t49.5 8q24 0 44.5 -7.5t35.5 -22t23.5 -34t8.5 -43.5z" />
    <glyph glyph-name="three" unicode="3" horiz-adv-x="306" 
d="M276 279q0 -40 -21.5 -85.5t-64.5 -76.5q20 -37 20 -86q0 -38 -15 -78t-45 -72t-74 -52.5t-102 -20.5q-14 0 -29.5 1.5t-31.5 5.5q-18 5 -26.5 17t-8.5 26q0 17 11.5 31.5t31.5 14.5q8 0 12 -1q23 -5 41 -5q37 0 64.5 12.5t45.5 32t27 43t9 45.5t-3.5 34t-11.5 17
q-8 -1 -16 -1.5t-16 -0.5q-38 0 -54 15.5t-16 33.5q0 15 7 25t18.5 15.5t25 7.5t25.5 2q16 0 31 -3q19 6 33 18t23.5 26.5t14.5 29.5t5 29q0 41 -35 41q-21 0 -41 -8.5t-31 -20.5q-15 -16 -33 -16t-32.5 14t-14.5 32q0 17 12 30q26 29 64.5 44t75.5 15q32 0 55.5 -11.5
t39 -30.5t23 -42t7.5 -47z" />
    <glyph glyph-name="four" unicode="4" horiz-adv-x="440" 
d="M404 414v-7.5t-2 -8.5q-20 -61 -52.5 -146t-68.5 -178q19 -1 33.5 -2t22.5 -2q20 -2 30 -15t10 -29q0 -17 -11.5 -31.5t-32.5 -14.5q-1 0 -10.5 0.5t-23 1.5t-28 2t-25.5 1q-13 -33 -25.5 -64.5t-25.5 -62.5q-6 -15 -17.5 -21.5t-23.5 -6.5q-17 0 -32 11.5t-15 31.5
q0 10 4 19q10 23 20 47.5t20 49.5q-50 2 -92.5 2.5t-69.5 0.5q-18 0 -32.5 13.5t-14.5 32.5q0 14 12 29q33 38 69.5 77.5t73 78t71 74.5t62.5 68q15 16 33 16q19 0 33 -14q6 16 10.5 30.5t9.5 28.5q5 17 17 24t25 7q17 0 31.5 -11.5t14.5 -31.5zM257 260q-38 -42 -82.5 -87
t-87.5 -92q23 -1 48 -2t51 -2q19 47 36.5 93t34.5 90z" />
    <glyph glyph-name="five" unicode="5" horiz-adv-x="324" 
d="M378 387q0 -21 -19 -35q-26 -19 -55 -31.5t-77 -12.5h-71h-12t-10 -1l-36 -61q69 -10 111.5 -46t42.5 -98q0 -31 -13 -63q-14 -34 -40.5 -67.5t-64 -64.5t-84.5 -59t-101 -50q-9 -4 -19 -4q-20 0 -31.5 15t-11.5 32q0 12 6.5 23.5t21.5 17.5q97 41 153.5 87.5t78.5 84.5
q6 11 10.5 23t4.5 24q0 8 -4 18.5t-16 19.5t-35 15t-60 6q-33 0 -47 15t-14 35q0 12 4 25t11 25l52 88q20 34 43 42t60 8h71q29 0 44.5 6.5t33.5 19.5q13 10 27 10q19 0 32.5 -14.5t13.5 -32.5z" />
    <glyph glyph-name="six" unicode="6" horiz-adv-x="393" 
d="M432 575q0 -11 -6 -21.5t-20 -17.5q-62 -29 -125 -70t-112 -95q22 7 48 7q28 0 52.5 -10t43 -28.5t29.5 -46t11 -63.5q0 -58 -21 -106t-54 -82t-73 -52.5t-79 -18.5q-28 0 -53 10.5t-44 32.5t-30 56t-11 82q0 89 35.5 161.5t90.5 130t122.5 101t131.5 73.5q12 5 20 5
q20 0 32 -15t12 -33zM263 230q0 35 -14.5 46.5t-31.5 11.5q-27 0 -44 -12.5t-30 -28t-25 -28t-29 -12.5l-6 1q-2 -14 -3.5 -28t-1.5 -28q0 -50 16.5 -71t39.5 -21q20 0 43 14t42 37.5t31.5 54t12.5 64.5z" />
    <glyph glyph-name="seven" unicode="7" horiz-adv-x="405" 
d="M416 335q0 -23 -25 -42q-55 -41 -106.5 -93t-99 -111t-90 -121.5t-78.5 -124.5q-7 -12 -17 -17.5t-21 -5.5q-18 0 -32.5 13t-14.5 32q0 13 7 24q60 102 136 205.5t166 189.5q-42 2 -74 4.5t-56 2.5h-14q-2 -21 -14.5 -31.5t-28.5 -10.5q-20 0 -38.5 15.5t-18.5 43.5
q0 24 11 38.5t27.5 22t37 10t38.5 2.5q32 0 81 -4.5t113 -4.5q15 0 30.5 1t30.5 1q23 0 36.5 -11.5t13.5 -27.5z" />
    <glyph glyph-name="eight" unicode="8" horiz-adv-x="405" 
d="M407 408q0 -35 -18.5 -69.5t-57.5 -60.5q-13 -8 -26.5 -15t-27.5 -13q17 -26 27 -55.5t10 -66.5q0 -40 -16.5 -72.5t-43.5 -56t-62 -36.5t-72 -13q-30 0 -57 9t-48 28t-33.5 48t-12.5 70q0 40 14.5 69.5t38 51t53.5 37.5t62 29q-17 24 -29.5 50.5t-12.5 53.5
q0 34 13 61.5t35 47t51.5 30t62.5 10.5q36 0 64 -11.5t47 -30.5t29 -43.5t10 -51.5zM317 406q0 21 -16 35t-45 14q-25 0 -47.5 -12.5t-22.5 -41.5q0 -18 12 -39q6 -10 12.5 -19t13.5 -18q13 5 29 11.5t30 16.5t24 23t10 30zM222 127q0 26 -8.5 47t-22.5 44q-26 -9 -50 -20
t-46 -27q-18 -14 -27 -29t-9 -37q0 -35 20.5 -50.5t46.5 -15.5q17 0 34 5.5t31 16.5t22.5 27.5t8.5 38.5z" />
    <glyph glyph-name="nine" unicode="9" horiz-adv-x="392" 
d="M357 238q0 -76 -37 -144t-98.5 -129t-141.5 -114.5t-167 -99.5q-12 -6 -22 -6q-19 0 -31.5 14.5t-12.5 32.5q0 11 5.5 21.5t18.5 17.5q26 14 59.5 32.5t69.5 42t73 50.5t70 58q-15 -3 -30 -3q-26 0 -49.5 8.5t-41.5 25t-29 42t-11 60.5q0 54 21 99t55 78t77 51.5t87 18.5
q59 0 97 -40t38 -116zM267 238q0 22 -4 35t-10.5 20t-14.5 9t-16 2q-26 0 -53 -12t-48.5 -33t-35 -49.5t-13.5 -62.5q0 -28 11.5 -37t29.5 -9q30 0 47 12t29.5 27t23 27t26.5 12q10 0 18 -4q10 29 10 63z" />
    <glyph glyph-name="colon" unicode=":" horiz-adv-x="240" 
d="M190 256q0 -7 -2.5 -14.5t-8.5 -14.5l-15 -18q-14 -17 -34 -17q-18 0 -32.5 13.5t-14.5 32.5q0 7 2.5 14.5t8.5 14.5l15 18q14 17 34 17q18 0 32.5 -13.5t14.5 -32.5zM144 32q0 -21 -21 -36l-19 -13q-14 -9 -26 -9q-19 0 -32 14.5t-13 32.5q0 21 21 36l19 13q13 9 26 9
q19 0 32 -14.5t13 -32.5z" />
    <glyph glyph-name="semicolon" unicode=";" horiz-adv-x="240" 
d="M204 257q0 -14 -10 -27l-13 -17q-15 -19 -35 -19q-18 0 -32.5 13.5t-14.5 32.5q0 14 10 27l13 17q15 19 35 19q18 0 32.5 -13.5t14.5 -32.5zM112 32q0 -32 -8.5 -59.5t-22.5 -51t-31.5 -43t-35.5 -34.5q-15 -12 -29 -12q-19 0 -32.5 14.5t-13.5 32.5q0 19 17 33
q29 25 47.5 55t18.5 65q0 23 14 34t31 11t31 -11t14 -34z" />
    <glyph glyph-name="less" unicode="&#x3c;" 
d="M454 354q0 -11 -5.5 -21t-18.5 -17q-26 -15 -58 -32t-66.5 -35t-70 -35.5t-67.5 -32.5q48 -20 96 -42.5t84 -40.5q14 -7 19.5 -17.5t5.5 -21.5q0 -18 -12.5 -32.5t-31.5 -14.5q-11 0 -21 6q-27 13 -61.5 29.5t-71 32.5t-71.5 31t-64 26q-18 7 -27 18.5t-9 23.5
q0 26 34 41q29 12 73.5 33t93.5 45.5t97 50t84 45.5q11 7 23 7q19 0 32 -14.5t13 -32.5z" />
    <glyph glyph-name="equal" unicode="=" 
d="M398 284q0 -17 -10.5 -30.5t-31.5 -13.5h-44q-33 0 -60.5 -2t-52.5 -5t-50 -7t-55 -8l-8 -1q-21 0 -32.5 14.5t-11.5 31.5q0 15 9 27.5t29 15.5q31 5 58 9.5t54 7.5t56 5t64 2h21.5t21.5 -1q22 -1 32.5 -14.5t10.5 -30.5zM361 89q0 -25 -15.5 -35t-29.5 -10q-16 1 -36 1
h-42q-86 0 -137 -3t-56 -3q-22 0 -33 14t-11 31t10.5 30t32.5 15q22 1 43 2t43.5 2t48.5 1.5t59 0.5h42.5t36.5 -1q22 -1 33 -14.5t11 -30.5z" />
    <glyph glyph-name="greater" unicode="&#x3e;" 
d="M421 221q0 -21 -21 -37q-36 -29 -79.5 -58.5t-88.5 -57t-88.5 -52.5t-80.5 -43q-12 -6 -21 -6q-19 0 -31.5 14.5t-12.5 32.5q0 11 5.5 21.5t19.5 17.5q28 14 60 31.5t65.5 37.5t67.5 42t66 44q-23 9 -47 18.5t-47 17.5t-43.5 14.5t-35.5 10.5q-18 5 -26 17t-8 26
q0 17 11.5 31.5t31.5 14.5h6.5t6.5 -1q25 -6 59.5 -17.5t70.5 -25.5t70.5 -28.5t59.5 -25.5q30 -14 30 -39z" />
    <glyph glyph-name="question" unicode="?" horiz-adv-x="439" 
d="M477 503q0 -42 -15 -71t-38 -52q-25 -24 -56.5 -42t-63.5 -35q-9 -5 -21 -11.5t-22.5 -15t-17.5 -18.5t-7 -22q0 -11 4 -18.5t8.5 -14.5t8.5 -14.5t4 -17.5q0 -20 -15 -32.5t-32 -12.5t-30 12.5t-21.5 29.5t-12.5 36t-4 32q0 40 18 67t44.5 46.5t58 34.5t58 31.5t44.5 37
t18 50.5q0 32 -20 48.5t-53 16.5q-39 0 -67.5 -22.5t-28.5 -64.5q0 -14 3 -20.5t6.5 -10.5t6.5 -8.5t3 -15.5q0 -18 -13.5 -32t-32.5 -14q-8 0 -16 4t-14 9q-19 17 -26 41.5t-7 46.5q0 45 17 78t44 55t60 33t65 11q29 0 58 -9.5t52.5 -28.5t38 -48t14.5 -69zM209 42
q0 -20 -15 -32.5t-32 -12.5q-11 0 -21.5 6.5t-18.5 16t-13.5 21t-5.5 21.5q0 20 15 32.5t32 12.5q10 0 21 -6.5t19 -16t13.5 -21t5.5 -21.5z" />
    <glyph glyph-name="at" unicode="@" horiz-adv-x="753" 
d="M679 249q0 -45 -19 -98.5t-51 -99.5t-73 -77t-85 -31q-22 0 -38.5 9t-27.5 23t-17.5 32.5t-9.5 36.5q-33 -29 -68.5 -47t-72.5 -18q-21 0 -39.5 9t-32 24t-21 35t-7.5 43q0 55 26.5 100.5t66.5 78.5t88 51.5t90 18.5q23 0 42.5 -5.5t34.5 -17.5q10 4 17 4q18 0 32.5 -13
t14.5 -32q0 -12 -8 -25l-27 -42q-26 -43 -37 -78t-11 -59q0 -18 1.5 -28t9.5 -10t30 17q17 13 35 35t33 48.5t24.5 56.5t9.5 59q0 42 -15.5 73.5t-42.5 53.5t-64 33t-81 11q-56 0 -113.5 -22.5t-104 -65t-75.5 -105t-29 -141.5q0 -46 14.5 -81t40 -59t60 -36.5t73.5 -12.5
q29 0 59.5 9.5t62.5 29.5q12 8 25 8q19 0 32 -14.5t13 -32.5q0 -22 -22 -37q-42 -27 -84.5 -40t-85.5 -13q-56 0 -106.5 18.5t-88.5 54t-60.5 87.5t-22.5 119q0 100 37.5 179t96.5 133.5t132.5 83t145.5 28.5q55 0 107.5 -15.5t93.5 -48t66.5 -81.5t25.5 -116zM408 242
q-5 8 -21 8q-8 0 -17.5 -2t-18.5 -4.5t-15.5 -5t-9.5 -3.5q-25 -11 -46.5 -26.5t-37.5 -34.5t-25.5 -40.5t-9.5 -43.5q0 -7 4 -14t11 -7q6 0 14 3q22 6 45 24t45.5 42t43.5 51.5t38 52.5z" />
    <glyph glyph-name="A" unicode="A" horiz-adv-x="672" 
d="M726 154q0 -18 -14 -32q-11 -11 -21.5 -22.5t-21.5 -22.5q-19 -21 -42.5 -45.5t-48.5 -46.5t-49.5 -36.5t-45.5 -14.5t-34.5 9t-21.5 23t-11.5 31t-3.5 34q0 19 3 43.5t8 51t10.5 53.5t11.5 51q-95 6 -176 6h-61q-35 -39 -64.5 -79t-52 -78.5t-35 -75.5t-12.5 -70
q0 -23 -14 -34t-31 -11t-31 11t-14 34q0 30 7 60t19 61q9 23 23 49t28 49q-8 7 -16.5 21.5t-8.5 37.5q0 30 14 50.5t36.5 33t51.5 19t58 9.5q37 39 72.5 73t66.5 61t68.5 57.5t73.5 56t66.5 42.5t48.5 17q29 0 43.5 -20.5t14.5 -46.5q0 -11 -5 -38t-13 -62.5t-18.5 -75.5
t-20.5 -76q17 -4 25.5 -16.5t8.5 -26.5q0 -17 -11 -31.5t-33 -14.5h-9q-3 0 -5 1q-6 -23 -12.5 -48t-11.5 -49.5t-9 -47t-4 -40.5q30 24 57.5 53t53.5 58q7 8 15 16.5t20 20.5q14 14 32 14t32 -14t14 -32zM521 516q-44 -30 -104 -79.5t-123 -110.5q40 -1 83.5 -2.5
t90.5 -4.5q14 54 28.5 104t24.5 93z" />
    <glyph glyph-name="B" unicode="B" horiz-adv-x="602" 
d="M509 163q0 -49 -17 -87.5t-45.5 -65t-66.5 -40.5t-80 -14q-36 0 -67.5 13.5t-53.5 27.5q-23 14 -23 37q0 18 13 32.5t32 14.5q11 0 24 -8q20 -12 39 -19.5t36 -7.5q30 0 52.5 9.5t37 25.5t22 37.5t7.5 44.5q0 25 -5 46.5t-18.5 37.5t-38 25t-63.5 9h-49q-11 0 -18 3
q-16 -59 -34.5 -115t-38.5 -100t-40.5 -71t-41.5 -27q-15 0 -24.5 6t-15 16t-7 22t-1.5 24q0 51 10 120t31.5 142t55 143t79.5 121q4 17 6.5 29.5l4.5 22.5q4 20 16.5 28.5t26.5 8.5q11 0 21 -4.5t17 -13.5q46 23 99 23q32 0 61.5 -10t52.5 -30t37 -50t14 -69
q0 -60 -29.5 -103t-82.5 -71q37 -31 51 -74.5t14 -88.5zM466 500q0 33 -20 51t-55 18q-31 0 -57.5 -12t-49.5 -34q-7 -31 -15.5 -70t-19.5 -83q60 0 101.5 12.5t67 31t37 41.5t11.5 45z" />
    <glyph glyph-name="C" unicode="C" horiz-adv-x="497" 
d="M551 154q0 -18 -14 -32l-16 -16q-93 -93 -176.5 -141t-174.5 -48q-45 0 -78.5 16.5t-55 44t-32 64t-10.5 75.5q0 76 21.5 144.5t56 126.5t78 104.5t87.5 79t85.5 50t70.5 17.5q53 0 86 -33.5t33 -93.5q0 -35 -15.5 -76.5t-41 -76.5t-58.5 -58.5t-67 -23.5q-25 0 -46 17
t-21 48q0 14 8 29.5t21 29t28.5 22t30.5 8.5q20 0 33 -16q15 20 26.5 45.5t11.5 51.5q0 25 -7.5 31t-21.5 6q-16 0 -44.5 -14t-63 -40t-70.5 -64t-65 -86t-47.5 -105.5t-18.5 -122.5q0 -57 23 -83.5t63 -26.5q32 0 64 8.5t66.5 28t73 50.5t83.5 76l16 16q14 14 32 14t32 -14
t14 -32z" />
    <glyph glyph-name="D" unicode="D" horiz-adv-x="735" 
d="M690 386q0 -47 -11.5 -98.5t-34 -101.5t-54.5 -95.5t-73.5 -80t-91 -55t-106.5 -20.5q-40 0 -80.5 11.5t-78.5 34.5q-10 7 -17 18q-11 -20 -29 -36.5t-45 -16.5q-22 0 -36 10t-22.5 25t-11.5 31.5t-3 29.5q0 64 17 138t50 146t82 135.5t113 106.5l15 44q5 16 16.5 23.5
t24.5 7.5q14 0 26 -7.5t18 -19.5q26 8 52.5 12t55.5 4q60 0 102.5 -20.5t69.5 -55t39.5 -79t12.5 -91.5zM600 386q0 72 -32.5 114t-101.5 42q-36 0 -69.5 -9.5t-64.5 -26.5q-20 -56 -41.5 -117t-43 -119.5t-42 -112t-36.5 -95.5q4 2 14 2q14 0 25 -7q28 -17 55.5 -24.5
t55.5 -7.5q58 0 109 33t89 85t60.5 116.5t22.5 126.5zM186 364q-38 -58 -63 -125t-33 -133q20 49 45.5 118.5t50.5 139.5z" />
    <glyph glyph-name="E" unicode="E" horiz-adv-x="479" 
d="M533 154q0 -18 -14 -32l-16 -16q-34 -34 -73 -71t-82.5 -68.5t-91.5 -52t-99 -20.5q-45 0 -80 14t-59.5 38.5t-37.5 57t-13 69.5q0 64 34 119.5t86 93.5q-13 21 -19 44.5t-6 47.5q0 52 23 99.5t62 83.5t91.5 57.5t111.5 21.5q23 0 44 -7t37.5 -20t26 -32t9.5 -44
q0 -29 -14.5 -55.5t-38.5 -46.5q-14 -12 -29 -12q-19 0 -32.5 14.5t-13.5 32.5q0 20 17 34q13 11 17 19.5t4 13.5q0 9 -10.5 11t-16.5 2q-43 0 -79.5 -15.5t-62.5 -40t-41 -55t-15 -61.5q0 -28 14 -48q23 8 46.5 14t47.5 6q33 0 52 -20t19 -45q0 -27 -24.5 -50t-79.5 -23
q-38 0 -70 13q-42 -26 -71 -66t-29 -86q0 -36 23.5 -62.5t76.5 -26.5q37 0 74.5 18t74 45.5t70 60t63.5 62.5l16 16q14 14 32 14t32 -14t14 -32z" />
    <glyph glyph-name="F" unicode="F" horiz-adv-x="594" 
d="M553 236q0 -17 -11 -30.5t-34 -13.5q-37 0 -71 -0.5t-54 -1.5q-21 -64 -41 -116.5t-44 -94t-55.5 -73.5t-74.5 -54q-12 -6 -22 -6q-19 0 -31.5 14.5t-12.5 32.5q0 11 5.5 21.5t18.5 17.5q28 15 49.5 35.5t39.5 50t34.5 69.5t35.5 93q-25 -5 -44 -10.5t-33 -12.5
q-11 -6 -21 -6q-20 0 -32 14.5t-12 32.5q0 11 5.5 21.5t19.5 17.5q28 14 64 23.5t84 14.5q10 32 23.5 72.5t27.5 82t27.5 78.5t22.5 61h-21q-75 0 -128 -11t-86.5 -31t-49 -47t-15.5 -60q0 -31 12 -65q3 -9 3 -17q0 -20 -14.5 -31.5t-31.5 -11.5q-13 0 -24.5 7t-16.5 23
q-20 58 -20 103q0 59 29 102.5t80 72t121 42.5t153 14q17 0 35 -1t37 -2q23 -1 36 -13t13 -30q0 -14 -8 -28q-12 -24 -26.5 -62t-29.5 -80.5t-29 -85t-24 -76.5q9 0 22 0.5t26.5 0.5h26.5h22q22 0 33 -14.5t11 -31.5z" />
    <glyph glyph-name="G" unicode="G" horiz-adv-x="601" 
d="M641 122l-5.5 -5.5l-6.5 -6.5t-11.5 -11t-20.5 -20q-18 -17 -39.5 -38t-33.5 -32q-38 -36 -79.5 -64t-86.5 -53q-14 -51 -31 -98.5t-40 -84t-55 -58.5t-75 -22q-24 0 -43.5 9.5t-34 25.5t-22 36.5t-7.5 42.5q0 34 14.5 60t43.5 49.5t72.5 46.5t100.5 52l20 76
q-37 -24 -77.5 -38t-85.5 -14q-33 0 -57.5 14t-41 38.5t-25 57t-8.5 68.5q0 93 38.5 175t101 144t141.5 98t159 36q57 0 92.5 -29.5t35.5 -78.5q0 -31 -14.5 -59t-40.5 -49q-12 -11 -28 -11q-19 0 -33 15t-14 33q0 19 17 33q13 11 18 21t5 17q0 6 -4.5 10t-10.5 5.5t-12.5 2
t-10.5 0.5q-62 0 -124.5 -29t-112.5 -79t-81.5 -116t-31.5 -139q0 -30 5 -47.5t12 -26.5t14 -11.5t11 -2.5q31 0 63 12t62 32.5t57.5 48.5t50.5 61q17 29 29.5 44t32.5 15q17 0 30.5 -12.5t15.5 -29.5q0 -20 -11 -34.5t-21 -30.5q-7 -12 -14.5 -31t-14.5 -40t-13.5 -42
t-11.5 -38q41 30 77 63t74 70l33 33q14 14 31 14q19 0 33 -14t14 -33q0 -17 -14 -31zM247 -169q-20 -11 -38.5 -21.5t-37.5 -22.5q-20 -13 -25.5 -24.5t-5.5 -19.5q0 -14 6.5 -19t10.5 -5q29 0 51 32.5t39 79.5z" />
    <glyph glyph-name="H" unicode="H" horiz-adv-x="699" 
d="M753 154q0 -18 -14 -32l-16 -16q-36 -36 -72 -71t-70.5 -62t-66 -44t-58.5 -17q-38 0 -58 24.5t-20 59.5q0 10 4.5 31.5t12 50.5t18.5 64t23 73q-60 -2 -125.5 -6.5t-115.5 -9.5q-23 -63 -47.5 -128.5t-48.5 -131.5q-6 -16 -17 -22.5t-24 -6.5q-17 0 -31.5 11.5
t-14.5 31.5q0 9 3 18q45 123 89 240t78 213q12 34 18 55.5t8 35.5q-15 -6 -34 -22t-36.5 -43t-31.5 -65t-18 -89q-2 -21 -15.5 -31t-29.5 -10q-17 0 -31 11t-14 33v5q6 69 28.5 125.5t55 96.5t70.5 62t74 22q41 0 56.5 -23.5t15.5 -55.5q0 -14 -1 -25.5t-4.5 -26.5t-10 -35
t-16.5 -50q-8 -24 -17 -49t-19 -52q56 5 119 8.5t117 4.5q15 46 31 91.5t30 86.5t25.5 75t19.5 55q5 16 17 23t25 7q17 0 31.5 -11.5t14.5 -31.5v-8t-2 -9q-49 -143 -97.5 -289t-93.5 -290q17 7 42 26.5t52 44t53 50t45 44.5l16 16q14 14 32 14t32 -14t14 -32z" />
    <glyph glyph-name="I" unicode="I" horiz-adv-x="381" 
d="M384 563q0 -5 -0.5 -9t-1.5 -9q-7 -45 -23 -106.5t-36.5 -126.5t-44.5 -128t-46 -110q-23 -49 -47.5 -85t-50 -61t-51.5 -41.5t-52 -26.5q-5 -2 -9 -3t-9 -1q-20 0 -31.5 15t-11.5 32q0 12 6.5 23.5t22.5 17.5t34.5 17t37.5 30t39 48.5t40 72.5t42 100.5t41.5 117.5
t34.5 117t23 99q-44 -2 -81 -23t-63.5 -56t-41 -81t-14.5 -98q0 -18 3 -37.5t8 -38t11 -35t11 -28.5t5 -20q0 -20 -15 -32.5t-33 -12.5q-11 0 -21.5 6.5t-17.5 20.5q-7 15 -14 35.5t-13 44t-10 48.5t-4 49q0 63 19.5 125.5t58 112t94 80t127.5 30.5q12 0 27 -3t27.5 -11
t21 -22t8.5 -37z" />
    <glyph glyph-name="J" unicode="J" horiz-adv-x="412" 
d="M466 154q0 -18 -14 -32l-16 -16q-41 -41 -94.5 -80t-110.5 -74q-23 -61 -51 -114.5t-59.5 -94t-67 -64t-74.5 -23.5q-23 0 -42 8.5t-33 22.5t-21.5 33t-7.5 40q0 56 43 107t142 96q23 11 47.5 23.5t49.5 26.5q21 56 38.5 116t30 118.5t19.5 112.5t7 98q0 22 -3 35t-9 20
t-14.5 9t-19.5 2q-16 0 -39.5 -13.5t-45.5 -45t-37.5 -82t-15.5 -124.5q0 -41 6 -74t16 -53q5 -12 5 -20q0 -20 -15.5 -32t-32.5 -12q-11 0 -21.5 6t-17.5 20q-15 32 -22.5 75t-7.5 90q0 80 19 145.5t50.5 112t72.5 72t86 25.5q36 0 61.5 -12t42 -33t24.5 -49.5t8 -61.5
q0 -27 -4.5 -67t-12.5 -88.5t-20.5 -103t-28.5 -110.5q54 39 96 81l16 16q14 14 32 14t32 -14t14 -32zM98 -119q-45 -21 -71.5 -39.5t-40 -34t-17.5 -28t-4 -19.5q0 -14 14 -14q18 0 36.5 16.5t35 39t30 45.5t19.5 35z" />
    <glyph glyph-name="K" unicode="K" horiz-adv-x="646" 
d="M700 154q0 -18 -14 -32l-16 -16q-20 -20 -50 -51.5t-65 -62.5t-71.5 -53t-67.5 -22q-33 0 -57.5 16t-42.5 42t-31.5 59.5t-24.5 68.5t-21 68.5t-21 60.5q-40 -76 -79 -148t-62 -134q-6 -16 -17 -23t-24 -7q-17 0 -31.5 11.5t-14.5 31.5q0 8 3 17q16 46 40 95t50.5 99
t53 99.5t48.5 96.5t36.5 90t16.5 80q-17 -11 -42 -37t-49 -63.5t-43.5 -85t-23.5 -101.5q-2 -21 -15.5 -31t-29.5 -10q-17 0 -31 11t-14 33v5q6 67 33.5 134t66.5 121t82.5 87.5t81.5 33.5t56 -26.5t18 -60.5q0 -44 -13.5 -92t-35.5 -99q46 23 91 53.5t86 64t75.5 69.5
t58.5 70q14 20 36 20q18 0 32.5 -13t14.5 -32q0 -14 -9 -27q-29 -41 -70 -83.5t-89 -81.5t-101 -72.5t-106 -58.5q4 -11 11.5 -34t17 -52t21 -60t23 -56.5t23 -42t22.5 -16.5q8 0 24 10.5t35.5 27t40.5 36t39 38t32 32.5l19 19l16 16q14 14 32 14t32 -14t14 -32z" />
    <glyph glyph-name="L" unicode="L" horiz-adv-x="662" 
d="M716 153q0 -17 -14 -31l-16 -16q-61 -61 -118.5 -92.5t-129.5 -31.5q-29 0 -57.5 5.5t-56 13.5t-55.5 17.5t-56 17.5q-35 -47 -77 -75.5t-92 -28.5q-43 0 -72 28.5t-29 68.5q0 32 15 54t38 35.5t51 19t55 5.5q18 0 36 -1.5t35 -5.5q19 34 38.5 76t36.5 86
q-35 -20 -65 -36.5t-44 -24.5q-12 -6 -22 -6q-19 0 -32 15t-13 33q0 25 25 38q60 32 111 61.5t93 56.5q25 62 48.5 109.5t47.5 80t50.5 49.5t59.5 17q35 0 57.5 -22t22.5 -57q0 -29 -17.5 -59.5t-47 -61t-67.5 -60t-78 -56.5q-25 -65 -53 -133.5t-62 -129.5q45 -14 88.5 -27
t87.5 -13q23 0 44.5 5t43.5 16.5t45.5 30.5t50.5 46l16 16q14 14 31 14q18 0 32.5 -14.5t14.5 -32.5zM102 53q-29 0 -49 -6.5t-20 -17.5q0 -1 2 -4t9 -3q36 0 69 31h-11z" />
    <glyph glyph-name="M" unicode="M" horiz-adv-x="907" 
d="M961 153q0 -17 -14 -31l-16 -16q-6 -6 -19 -20t-30 -31.5t-37.5 -36t-41.5 -33.5t-42.5 -25t-40.5 -10q-20 0 -33 10.5t-20.5 26.5t-10.5 34.5t-3 34.5q0 37 10 75t24.5 74.5t32 70.5t32 64.5t24.5 55.5t10 43q0 7 -5 7q-1 0 -2 -0.5t-3 -0.5q-20 -5 -45.5 -25.5
t-53.5 -50.5t-57.5 -66.5t-56 -72.5t-48.5 -68.5t-36 -54.5q-5 -7 -8.5 -13t-7.5 -12q-13 -22 -36 -22q-19 0 -33 13.5t-14 31.5q0 14 7 25q11 18 27.5 46t35 61t36.5 69t33 70t24 63.5t9 48.5q0 17 -10 17q-3 0 -11 -2q-27 -8 -62 -39t-73.5 -75.5t-76.5 -97t-71.5 -101
t-59.5 -88.5t-39 -61l-7 -11q-8 -12 -21.5 -22.5t-28.5 -10.5q-6 0 -15 2.5t-17.5 8.5t-14.5 16t-6 25q0 20 12.5 53.5t32 75t43.5 87.5t47.5 90.5t43 84t30.5 69.5v2q0 2 -1.5 2.5t-3.5 1.5q-26 0 -50.5 -10.5t-46.5 -27t-41 -37t-35 -41.5q-15 -19 -35 -19
q-18 0 -32.5 13.5t-14.5 32.5q0 14 10 27q20 27 46 54.5t57 49t68 35t80 13.5q17 0 33.5 -4t29.5 -13.5t21 -25t8 -37.5q0 -18 -9.5 -45.5t-26.5 -63.5q23 32 45.5 56.5t42.5 42.5q40 36 78.5 58t73.5 22q46 0 71.5 -30.5t25.5 -76.5q0 -13 -5 -35q14 14 26.5 25t24.5 19
q26 18 50 28.5t47 10.5q21 0 38 -8t29 -21.5t18 -31t6 -36.5q0 -27 -10 -56.5t-24.5 -61.5t-32 -65t-32 -66.5t-24.5 -67.5t-10 -66v-3q32 22 63 54.5t61 62.5l16 16q14 14 31 14q18 0 32.5 -14.5t14.5 -32.5z" />
    <glyph glyph-name="N" unicode="N" horiz-adv-x="667" 
d="M721 153q0 -17 -14 -31l-16 -16q-16 -16 -40.5 -39t-52 -44t-56 -36t-53.5 -15q-26 0 -44 11t-28.5 28.5t-15 38t-4.5 39.5q0 47 23.5 95.5t51.5 95t51.5 88.5t23.5 76q0 20 -19 20q-28 0 -64 -28.5t-75 -72.5t-78.5 -96.5t-74.5 -102t-62 -88.5t-41 -55q-10 -11 -25 -22
t-38 -11q-18 0 -28.5 7.5t-16.5 17.5t-7.5 20t-1.5 15q0 24 13 59.5t33 76.5t44.5 84.5t46.5 83.5t39 73t23 52q-15 -3 -34.5 -10t-40.5 -17.5t-40.5 -24t-33.5 -27.5t-31 -14q-18 0 -32.5 14.5t-14.5 32.5q0 17 14 31q20 20 48.5 39t59 34t61 24t54.5 9q36 0 59 -21t23 -58
q0 -18 -6 -39.5t-15.5 -43t-21 -42t-22.5 -38.5l18 23l18 22.5t35 40.5t46.5 48t54 46t58 34.5t56.5 13.5q47 0 78 -30.5t31 -79.5q0 -46 -23.5 -94.5t-51.5 -95t-51.5 -89t-23.5 -76.5q0 -25 7 -25t22 11q14 9 31 23t33 28t28.5 26t18.5 18l16 16q14 14 31 14
q18 0 32.5 -14.5t14.5 -32.5z" />
    <glyph glyph-name="O" unicode="O" horiz-adv-x="604" 
d="M564 380q0 -98 -35 -182t-90 -146t-121.5 -97.5t-129.5 -35.5q-84 0 -133.5 60t-49.5 171q0 58 15 123t43.5 124.5t68.5 107t91 70.5q12 5 20 5q11 0 19.5 -5t14.5 -13q23 19 52 29.5t63 10.5q37 0 68.5 -15.5t54.5 -44t36 -69.5t13 -93zM474 380q0 40 -8 65.5
t-20.5 40.5t-27 20.5t-26.5 5.5q-18 0 -39 -9.5t-39 -29.5t-29.5 -50t-11.5 -70q0 -41 17 -67q8 -14 8 -25q0 -19 -14.5 -32t-32.5 -13q-22 0 -37 22q-17 26 -24 55.5t-7 59.5q0 43 14 88q-22 -26 -41 -60.5t-32.5 -72.5t-21 -78.5t-7.5 -79.5q0 -43 8 -70.5t21.5 -43
t30 -21.5t33.5 -6q41 0 90.5 27t93 75.5t73 117t29.5 151.5z" />
    <glyph glyph-name="P" unicode="P" horiz-adv-x="510" 
d="M518 409q0 -52 -20 -102t-53 -89t-76 -63t-88 -24q-27 0 -45.5 6t-30 15.5t-16.5 21t-5 22.5q0 17 10.5 30.5t27.5 13.5q15 0 29 -10q13 -9 30 -9q22 0 47.5 15t47.5 40.5t37 60t15 72.5q0 46 -20 66.5t-71 20.5q-20 0 -41.5 -6t-43.5 -22q-32 -96 -71 -208.5t-81 -233.5
q-5 -14 -12 -31t-17 -32t-23.5 -25.5t-32.5 -10.5q-32 0 -43 21t-11 47q0 18 3 35.5t6 29.5q40 178 91.5 292t114.5 171q4 13 9.5 30t11 34.5t10 32t6.5 21.5q5 17 17 24t25 7q17 0 31.5 -11.5t14.5 -31.5q0 -2 -1.5 -9t-4 -15t-4.5 -15.5t-2 -8.5q12 2 24 3.5t24 1.5
q86 0 133.5 -46t47.5 -131z" />
    <glyph glyph-name="Q" unicode="Q" horiz-adv-x="580" 
d="M634 153q0 -17 -14 -31l-16 -16q-48 -48 -83.5 -80t-64 -51.5t-51.5 -28t-45 -8.5q-27 0 -47.5 10t-37.5 27q-55 -29 -115 -29q-43 0 -74 20.5t-50.5 52.5t-28.5 72.5t-9 80.5q0 50 12.5 106t38.5 112.5t66.5 110.5t96.5 101q12 11 28 11q8 0 16 -3q28 23 62 38.5
t69 15.5q44 0 73.5 -17.5t47.5 -45t26 -62.5t8 -70q0 -49 -13.5 -108t-38 -118.5t-60 -115t-80.5 -97.5q6 -2 10 -2q5 0 15 3t29.5 17t52 42.5t83.5 79.5l16 16q14 14 31 14q18 0 32.5 -14.5t14.5 -32.5zM452 469q0 60 -18 82.5t-47 22.5q-20 0 -35 -5t-26 -14t-19 -20.5
t-14 -23.5q-8 -14 -14 -28.5t-13.5 -26t-17 -18.5t-24.5 -7q-21 0 -36 15q-45 -60 -72.5 -130t-27.5 -144v-15q16 15 38 24t51 9q22 0 40 -7.5t32 -20t25.5 -28t21.5 -31.5q33 33 61.5 77t49.5 92.5t33 99.5t12 97zM222 51q-6 8 -10.5 16.5t-9.5 15.5t-12.5 11.5t-17.5 4.5
q-16 0 -26 -11.5t-10 -25.5q0 -13 7 -19.5t16 -6.5q16 0 32 4t31 11z" />
    <glyph glyph-name="R" unicode="R" horiz-adv-x="743" 
d="M797 154q0 -18 -14 -32l-16 -16q-47 -47 -80.5 -78t-59 -49t-45.5 -25.5t-41 -7.5q-32 0 -57 17.5t-46.5 44.5t-42 59.5t-43 62t-49 52t-59.5 30.5q-11 1 -20 7q-18 -47 -35.5 -92.5t-33.5 -83t-29.5 -65.5t-22.5 -40q-15 -20 -30 -26t-23 -6q-16 0 -27.5 7.5t-19 19.5
t-11 26t-3.5 27q0 56 9 124.5t28.5 139t50 137t74 118t101 83t130.5 31.5q36 0 70.5 -11t61.5 -31t43.5 -50t16.5 -67q0 -44 -17.5 -79.5t-46 -62.5t-65 -46.5t-75.5 -32.5q33 -30 59.5 -65t48 -66t37 -51.5t26.5 -20.5q9 0 23 8.5t30.5 22t33.5 29.5t32 31l26.5 26.5
l16.5 16.5l16 16q14 14 32 14t32 -14t14 -32zM484 460q0 11 -6 23.5t-19 22.5t-32 16.5t-45 6.5t-48 -6q-6 -16 -14 -39.5t-18.5 -52.5t-22.5 -62.5t-25 -67.5h5q29 0 67.5 11t73.5 31.5t59.5 50t24.5 66.5zM210 440q-12 -17 -27 -43.5t-24 -45.5q-14 -28 -24 -56.5
t-18 -56.5q-8 -26 -14.5 -55.5t-14.5 -67.5q12 37 21.5 65t19.5 53q11 27 21 55t21 56l9 22.5t10 25.5t10.5 25.5t9.5 22.5z" />
    <glyph glyph-name="S" unicode="S" horiz-adv-x="564" 
d="M618 154q0 -18 -14 -32l-16 -16q-47 -47 -100 -74.5t-119 -41.5q-19 -37 -49 -66t-66 -49.5t-75.5 -31t-76.5 -10.5q-23 0 -47.5 7t-44.5 20.5t-33 34t-13 46.5q0 42 23.5 66t58 36.5t72.5 16t68 3.5q32 1 60.5 2.5t54.5 4.5q1 5 1.5 11t0.5 12q0 37 -18 63.5t-44.5 47.5
t-57.5 40t-57.5 41t-44.5 50t-18 68q0 48 24.5 89t63.5 71.5t88 47.5t99 17q44 0 77 -13.5t55.5 -36t34 -52.5t11.5 -64q0 -32 -9.5 -64.5t-28.5 -61.5q-15 -22 -37 -22q-17 0 -32 12.5t-15 32.5q0 12 8 25q12 20 18 40t6 38q0 31 -19.5 53.5t-68.5 22.5q-40 0 -74 -13
t-58.5 -32.5t-38.5 -43.5t-14 -46q0 -21 18 -38t44.5 -35t57.5 -38.5t57.5 -48t44.5 -64.5t18 -86v-3q40 13 71.5 32.5t59.5 47.5l16 16q14 14 32 14t32 -14t14 -32zM242 -25q-13 -1 -26.5 -1.5t-27.5 -0.5q-2 0 -17 -0.5t-35 -2.5t-40.5 -6t-31.5 -10q-9 -5 -9 -11
q0 -7 15 -13.5t32 -6.5q38 0 74.5 14t65.5 38z" />
    <glyph glyph-name="T" unicode="T" horiz-adv-x="403" 
d="M641 578q0 -20 -13 -32.5t-33 -12.5q-57 1 -114 3.5t-117 2.5q-14 -38 -32 -98t-40 -127.5t-47.5 -136.5t-53.5 -124t-58.5 -89.5t-62.5 -34.5q-23 0 -34 14t-11 31q0 15 9 28t27 16q16 11 34 43.5t37 77.5t38 98.5t36.5 107.5t33.5 104.5t29 88.5q-41 -2 -80 -6.5
t-69.5 -16.5t-49 -32.5t-18.5 -53.5q0 -22 14.5 -43t28.5 -30q11 -8 16 -17.5t5 -19.5q0 -18 -13 -32.5t-32 -14.5q-14 0 -26 8q-13 8 -27.5 23t-27 34.5t-20.5 42.5t-8 49q0 49 18.5 83t49 56t70 34.5t82 18.5t84.5 7t78 1h18q61 0 119.5 -2.5t115.5 -3.5q23 0 33.5 -14
t10.5 -31z" />
    <glyph glyph-name="U" unicode="U" horiz-adv-x="682" 
d="M736 154q0 -18 -14 -32l-16 -16q-23 -23 -50.5 -49.5t-55.5 -49t-55.5 -37.5t-50.5 -15q-24 0 -39.5 10t-25 25t-13.5 34t-4 37q0 7 2 23.5t3 24.5q-25 -38 -52 -71.5t-55 -58.5t-56.5 -40t-56.5 -15q-36 0 -59 14t-36.5 35.5t-18.5 47.5t-5 51q0 56 13.5 113t36.5 123
q9 25 20 55t23 60l23 57.5l19 47.5l4 11q-41 -1 -79.5 -30.5t-62.5 -84.5q-6 -14 -16.5 -20.5t-22.5 -6.5q-17 0 -32.5 11.5t-15.5 31.5q0 8 5 20q16 36 39 67t52 53.5t63 35.5t72 13q37 0 63.5 -19.5t26.5 -59.5q0 -5 -5 -21t-13.5 -39t-18.5 -50.5t-20.5 -55t-20 -52.5
t-15.5 -43q-21 -63 -34.5 -116.5t-13.5 -100.5q0 -21 2.5 -32.5t6.5 -17.5t9.5 -7t10.5 -1q25 0 57 28t65.5 72.5t66.5 99.5t61.5 109t50.5 101.5t33 75.5q10 27 40 27q18 0 32 -12t14 -31q0 -9 -3 -19q-32 -88 -53.5 -153.5t-34.5 -113.5t-18.5 -81t-5.5 -56q0 -10 3 -10
q2 0 11 6q13 9 31.5 25t37 33t34 32t23.5 23l16 16q14 14 32 14t32 -14t14 -32z" />
    <glyph glyph-name="V" unicode="V" horiz-adv-x="473" 
d="M630 592q0 -17 -14 -31q-62 -62 -111 -133.5t-91.5 -147t-84 -152t-88.5 -149.5q-7 -11 -15 -22.5t-18 -21.5t-22 -16.5t-26 -6.5q-22 0 -37 16t-25 41t-16 55t-8.5 59t-3.5 52.5t-1 34.5q0 55 9 108q-8 -2 -14 -2q-10 0 -18 4q-39 16 -65 37t-41.5 44.5t-22.5 47.5
t-7 45q0 38 17 65.5t47 45t71.5 25.5t90.5 8q18 0 36 -3t32.5 -10.5t23.5 -22t9 -36.5q0 -5 -1.5 -12t-3.5 -14t-4 -13l-3 -9q-7 -20 -15 -45.5t-15.5 -51t-13.5 -48t-9 -36.5q-5 -29 -9 -60.5t-4 -66.5q0 -48 4.5 -81.5t8.5 -50.5q46 74 87.5 151.5t85.5 153.5t94 147.5
t113 134.5q14 14 31 14q18 0 32.5 -14.5t14.5 -32.5zM132 508q-46 0 -72.5 -6t-39.5 -15t-16.5 -18t-3.5 -15q0 -8 3 -19t11.5 -23t24 -25t41.5 -23q5 -2 8 -4.5t6 -4.5q20 77 46 153h-8z" />
    <glyph glyph-name="W" unicode="W" horiz-adv-x="880" 
d="M899 634q0 -42 -9.5 -109.5t-28 -145t-46.5 -156t-65.5 -142t-85 -103.5t-103.5 -40q-54 0 -86.5 35.5t-46.5 90.5q-51 -60 -103.5 -99t-94.5 -39q-28 0 -46.5 12.5t-29 32.5t-14.5 44.5t-4 47.5q0 31 6 65t15.5 68t21.5 67t24 62q20 47 42 100t35 91q3 7 3 11q0 7 -20 7
q-66 0 -110 -12.5t-71 -30.5t-38 -39.5t-11 -39.5q0 -21 12.5 -47t43.5 -52q17 -14 17 -33q0 -18 -14 -32.5t-32 -14.5q-14 0 -29 12q-42 35 -65 77.5t-23 89.5q0 48 23.5 87t65.5 67t101 43t130 15q22 0 42 -4.5t35 -15t24 -26.5t9 -40t-11 -59q-15 -45 -34.5 -88.5
t-42.5 -99.5q-23 -57 -41 -111t-18 -117q0 -9 0.5 -15t1.5 -11q3 -20 10 -20q5 0 19 6q15 7 33.5 23.5t39.5 39.5t43.5 51.5t43.5 58.5q2 28 7.5 64.5t14.5 75.5t21.5 77t29.5 67.5t37.5 48t46.5 18.5q28 0 44.5 -20t16.5 -46q0 -29 -10 -65.5t-27 -77t-40.5 -84
t-51.5 -85.5v-6q0 -44 6.5 -70.5t15.5 -40.5t18.5 -19t14.5 -5q37 0 69.5 37t60 95t49.5 128.5t37.5 138t23.5 123.5t8 84q0 23 14 34t31 11t31 -11t14 -34z" />
    <glyph glyph-name="X" unicode="X" horiz-adv-x="564" 
d="M646 605q0 -20 -18 -34q-63 -49 -123.5 -116t-119.5 -142l12 -163q1 -14 3.5 -28t5.5 -22q7 -20 16 -20t20 10q12 10 26.5 23.5t28 27.5t25.5 26.5t18 18.5q14 14 31 14q18 0 32.5 -14.5t14.5 -32.5q0 -17 -14 -31q-22 -22 -43.5 -44t-44.5 -43q-29 -26 -53.5 -38
t-44.5 -12q-26 0 -45.5 13.5t-33 34.5t-21 46.5t-9.5 50.5l-6 73q-54 -75 -102.5 -146.5t-90.5 -134.5q-14 -21 -36 -21q-18 0 -32.5 13t-14.5 32q0 12 9 26q56 83 120 179t136 190l-11 149q-2 26 -7.5 38t-21.5 12q-19 0 -55 -16q-24 -11 -49.5 -25t-49.5 -29.5t-46 -31.5
t-40 -29q-13 -10 -28 -10q-19 0 -32.5 15t-13.5 33q0 20 18 34q22 17 58 42t77.5 48.5t85.5 40t82 16.5q44 0 75 -29.5t37 -102.5l4 -52q48 57 97 107t100 90q13 10 28 10q19 0 32.5 -14t13.5 -32z" />
    <glyph glyph-name="Y" unicode="Y" horiz-adv-x="581" 
d="M635 154q0 -18 -14 -32l-16 -16q-25 -25 -51.5 -47.5t-52 -41.5t-48.5 -34.5t-41 -26.5q-20 -55 -44.5 -107t-52.5 -93t-59.5 -66t-66.5 -25q-38 0 -61 26.5t-23 63.5q0 33 20 66.5t52 66.5t73.5 65t85.5 63q11 35 21.5 71.5t20.5 74.5q-24 -35 -50 -66t-52 -54
t-52.5 -36t-52.5 -13q-34 0 -57.5 16t-38.5 42.5t-22 61t-7 71.5q0 49 12.5 100t31 98t38.5 87t35 66q-35 -17 -70 -46t-58 -58q-14 -18 -34 -18q-18 0 -32.5 13.5t-14.5 32.5q0 14 11 28q16 20 43 46t60 49.5t70 39.5t73 16q27 0 47 -16.5t20 -45.5q0 -16 -6.5 -30
t-14.5 -28q-11 -18 -31 -55t-40 -83.5t-35 -98t-15 -97.5q0 -36 5 -56.5t11.5 -30.5t12 -12t6.5 -2q23 0 53 29.5t62 75.5t64 101t59 106t46.5 91.5t27.5 56.5q13 27 40 27q11 0 19 -4q20 -8 26 -27q1 -4 1 -12q0 -10 -3 -17.5t-6 -15.5q-24 -65 -37 -133t-30 -135
q-5 -19 -14 -53t-20 -74q27 20 51 42t47 45q14 14 32 14t32 -14t14 -32zM278 -138q-35 -30 -52.5 -52t-24.5 -36q-6 -12 -6 -16q0 -2 2 -2t14 9q17 14 34 39t33 58z" />
    <glyph glyph-name="Z" unicode="Z" horiz-adv-x="596" 
d="M650 154q0 -18 -14 -32l-16 -16q-39 -39 -71.5 -66t-61 -43.5t-55.5 -24t-54 -7.5q-32 0 -62.5 8t-61 17.5t-61.5 17.5t-63 8q-18 0 -40 -5q-25 -16 -50 -28q-10 -5 -21 -5q-24 0 -35.5 16.5t-11.5 30.5q0 26 24 42.5t55 25.5q44 31 92 78t97 100.5t98 109.5t94 104
q-54 3 -106 10t-106 7q-4 0 -15 -0.5t-25 -1.5t-27.5 -3.5t-21.5 -6.5q-6 -3 -6 -8q0 -3 0.5 -7.5t2.5 -12.5q1 -4 1.5 -7t0.5 -6q0 -20 -13.5 -32t-30.5 -12q-19 0 -35 17.5t-16 59.5q0 37 18 59t45.5 33t60 14.5t61.5 3.5q64 0 126.5 -9t127.5 -9q43 0 61 3q3 1 10 1
q23 0 34 -14.5t11 -31.5q0 -23 -21 -38q-43 -37 -88 -86.5t-92 -102.5t-95 -107t-97 -100q24 -5 48 -12.5t46.5 -14.5t44 -11.5t42.5 -4.5q15 0 31 4.5t36.5 17t47.5 35t63 58.5l16 16q14 14 32 14t32 -14t14 -32z" />
    <glyph glyph-name="bracketleft" unicode="[" horiz-adv-x="433" 
d="M577 627q0 -17 -11 -31t-33 -14h-94h-39.5t-38.5 2q-23 -66 -52 -152.5t-60.5 -178.5t-62.5 -182.5t-57 -164.5q36 3 76 3q29 0 59.5 -1.5t60.5 -3.5q21 -2 31 -15t10 -29q0 -17 -11.5 -31.5t-33.5 -14.5h-4q-28 2 -56.5 3.5t-55.5 1.5q-46 0 -82.5 -3t-56.5 -9
q-10 -2 -14 -2q-20 0 -31.5 15t-11.5 32q0 10 4 19t14 16q18 53 40.5 118t46.5 134.5t49 141t47.5 138t42 124.5t34.5 102q3 8 7 15t12 12q10 6 23 6q4 0 5.5 -0.5t3.5 -0.5q24 -4 49.5 -4.5t51.5 -0.5h94q18 0 31 -13t13 -32z" />
    <glyph glyph-name="backslash" unicode="\" horiz-adv-x="400" 
d="M281 -150q0 -23 -14 -34t-31 -11t-30.5 11t-14.5 33q-1 37 -8 96t-17 129.5t-22.5 148t-24.5 153t-22.5 144.5t-16.5 121v6q0 21 14.5 32.5t31.5 11.5q15 0 28.5 -10t15.5 -30q6 -53 16.5 -122t22.5 -145.5t24.5 -155t22.5 -150t17 -130.5t8 -97v-1z" />
    <glyph glyph-name="bracketright" unicode="]" horiz-adv-x="433" 
d="M434 624q0 -8 -1 -12q-24 -107 -59 -211t-74.5 -206.5t-80 -204.5t-76.5 -205q-5 -17 -17 -23.5t-25 -6.5q-4 0 -7 0.5t-7 1.5q-26 7 -54.5 14t-57 11.5t-55 7.5t-47.5 3q-23 0 -34 14t-11 31t11 31t34 14q42 0 95 -8.5t103 -20.5q32 90 68 179.5t71 179.5t66.5 181.5
t55.5 184.5h-65q-16 0 -37.5 -0.5t-41 -0.5t-34 -0.5t-16.5 -0.5q-22 0 -33.5 14t-11.5 31t11 30.5t33 14.5q30 1 63 1.5t67 0.5q31 0 61 -0.5t59 -1.5q12 0 21 -4q11 -5 18.5 -15t7.5 -24z" />
    <glyph glyph-name="asciicircum" unicode="^" 
d="M412 218q0 -22 -14 -33t-31 -11q-16 0 -29.5 10t-15.5 31q-4 45 -11.5 104.5t-17.5 116.5q-47 -63 -95.5 -122.5t-93.5 -123.5q-14 -20 -36 -20q-18 0 -32.5 13t-14.5 32q0 13 9 27q29 42 61 82t63.5 80t62 80.5t57.5 83.5q5 14 17.5 21t26.5 7t26 -8.5t17 -26.5
q7 -33 15 -76.5t15 -90t12.5 -91.5t8.5 -80v-5z" />
    <glyph glyph-name="underscore" unicode="_" horiz-adv-x="500" 
d="M456 -234q0 -15 -9.5 -28.5t-29.5 -15.5l-31 -4q-50 -6 -99 -6q-77 0 -154 7.5t-154 7.5q-24 0 -47.5 -1t-46.5 -4q-21 -2 -27 -3t-13 -1q-21 0 -32 14t-11 31q0 16 10 29.5t30 15.5l33 4q23 3 47 4t48 1q77 0 153.5 -7.5t152.5 -7.5q48 0 98 6q17 2 26.5 3t11.5 1
q21 0 32.5 -14.5t11.5 -31.5z" />
    <glyph glyph-name="grave" unicode="`" horiz-adv-x="365" 
d="M342 376q0 -18 -14 -32t-32 -14t-32 14t-30 30.5t-31 32.5t-29.5 30.5l-25.5 25.5q-15 14 -15 32t14 32.5t32 14.5q17 0 31 -13l25.5 -25.5t30.5 -31t32 -33.5t30 -31t14 -32z" />
    <glyph glyph-name="a" unicode="a" horiz-adv-x="402" 
d="M456 154q0 -18 -14 -32l-40 -40q-15 -15 -33 -32.5t-37.5 -32t-39 -24t-37.5 -9.5q-32 0 -50.5 16.5t-22.5 45.5q-36 -39 -73 -65t-72 -26q-23 0 -40 9.5t-28 24.5t-16.5 35t-5.5 41q0 41 17 85.5t47 81t70 60.5t87 24t82 -33q3 4 5.5 8t6.5 7q12 11 28 11q18 0 32.5 -14
t14.5 -32q0 -13 -9 -26q-9 -14 -19 -30.5t-18.5 -33t-15.5 -31.5t-11 -27q-2 -5 -3 -11t-1 -11q0 -12 7 -12q5 0 10 4q18 14 36 33t34 36l31 32q14 14 32 14t32 -14t14 -32zM196 207q-5 8 -11.5 13.5t-16.5 5.5q-22 0 -45 -14.5t-42 -37.5t-31.5 -51.5t-12.5 -57.5
q0 -20 7 -20q5 0 17 9q16 13 36.5 33t40 42t35.5 43t23 35z" />
    <glyph glyph-name="b" unicode="b" horiz-adv-x="368" 
d="M422 153q0 -17 -14 -31t-25 -24t-23 -16.5t-27 -9.5t-36 -3q-15 0 -28 3q-13 -30 -31.5 -55.5t-40.5 -45t-46.5 -30.5t-49.5 -11q-32 0 -53.5 14t-35.5 35.5t-20 48.5t-6 54l1 11q-17 2 -29 15.5t-12 30.5t14 31l16 16q5 5 17 18t28 32q13 40 29.5 84t35.5 86t40 80
t43 67t45 46t45 17q28 0 43.5 -20t15.5 -46q0 -33 -22.5 -79.5t-55.5 -97.5t-71.5 -100.5t-71.5 -87.5q-10 -33 -15.5 -59.5t-5.5 -43.5q0 -4 0.5 -14.5t3 -21t7.5 -18.5t14 -8q7 0 19.5 7t25.5 19.5t25.5 31t20.5 41.5q-14 17 -21.5 41t-7.5 53q0 36 17.5 54.5t39.5 18.5
q26 0 49 -26t23 -81v-10t-1 -10l6 -1q17 0 26.5 8.5t20.5 19.5q14 14 31 14q18 0 32.5 -14.5t14.5 -32.5z" />
    <glyph glyph-name="c" unicode="c" horiz-adv-x="335" 
d="M389 153q0 -17 -14 -31l-16 -16q-34 -34 -64.5 -63.5t-61 -51t-63 -33.5t-69.5 -12t-63 13t-42.5 33.5t-24 46.5t-7.5 53q0 36 13 78t38.5 77.5t62.5 59.5t85 24q41 0 68.5 -26.5t27.5 -72.5q0 -20 -14 -35.5t-36 -15.5q-16 0 -26 6.5t-16 15.5t-8 18t-2 15v5
q-19 -2 -37.5 -15.5t-33 -34t-23.5 -46.5t-9 -53q0 -30 11.5 -43t35.5 -13q23 0 49.5 14t52.5 35t50 44t42 41l16 16q14 14 31 14q18 0 32.5 -14.5t14.5 -32.5z" />
    <glyph glyph-name="d" unicode="d" horiz-adv-x="433" 
d="M487 153q0 -17 -14 -31l-16 -16q-17 -17 -38 -36.5t-44.5 -36.5t-48.5 -28.5t-49 -11.5q-25 0 -42 9t-29 25q-34 -32 -68 -50.5t-68 -18.5q-31 0 -51.5 13t-33 33t-17.5 43.5t-5 43.5q0 43 14.5 85.5t39.5 76t58.5 54t72.5 20.5q24 0 46 -8q14 73 40 143t64 119
q16 20 39.5 39t54.5 19q20 0 34 -9t22.5 -22.5t12.5 -31t4 -33.5q0 -32 -15 -85t-41 -114.5t-61.5 -125t-76.5 -117.5q4 -18 12 -18q4 0 10 3t12 6.5t11 7.5t7 6q21 16 40.5 35t29.5 29l16 16q14 14 31 14q18 0 32.5 -14.5t14.5 -32.5zM375 532q0 3 -1 3t-11 -13
q-12 -16 -24 -43t-23 -60t-21 -70t-17 -72q18 35 33.5 70t28 66t21 57.5t12.5 45.5q2 6 2 10v6zM179 218q-6 8 -13 13.5t-18 5.5q-12 0 -28.5 -10t-31 -29t-25 -46t-10.5 -61q0 -3 0.5 -10t2 -14.5t5 -13t9.5 -5.5q24 0 51.5 20.5t55.5 55.5q-1 6 -1 12.5v12.5q0 33 3 69z
" />
    <glyph glyph-name="e" unicode="e" horiz-adv-x="322" 
d="M376 154q0 -18 -14 -32l-16 -16q-23 -23 -52.5 -48.5t-62 -47t-67.5 -35.5t-70 -14t-60 14t-41.5 36.5t-24.5 51.5t-8 60q0 52 19.5 94.5t48.5 73t63.5 47.5t64.5 17q45 0 71.5 -28.5t26.5 -68.5q0 -39 -18.5 -67.5t-48 -47.5t-65.5 -30t-70 -15q3 -18 12.5 -32.5
t29.5 -14.5q22 0 48.5 13t52.5 31.5t49 39t38 35.5l16 16q14 14 32 14t32 -14t14 -32zM164 258q0 7 -8 7q-27 0 -50.5 -22.5t-37.5 -51.5q17 3 34.5 9t31 14t22 19t8.5 25z" />
    <glyph glyph-name="f" unicode="f" horiz-adv-x="240" 
d="M321 566q0 -30 -15 -68.5t-39 -81t-54.5 -85.5t-61.5 -82l-54 -136q30 4 53.5 17.5t49.5 39.5l16 16q14 14 32 14t32 -14t14 -32t-14 -32l-16 -16q-35 -35 -69 -53.5t-76 -26.5q9 -21 13 -43t4 -45q0 -46 -15 -91t-40 -80t-56 -57t-62 -22q-20 0 -33.5 7.5t-21.5 20
t-12 28.5t-4 32q0 21 7.5 54.5t20 75t29.5 89.5t37 98q-17 2 -28.5 15t-11.5 30q0 18 14 32l16 16q15 15 39.5 43t51.5 61q27 68 51.5 124.5t41.5 95.5q23 51 48.5 86t57.5 35q19 0 37 -14t18 -51zM46 -64q0 20 -5 40q-8 -21 -18 -49.5t-19 -56.5t-15.5 -51t-6.5 -35
q13 10 24.5 27t20.5 38t14 43.5t5 43.5z" />
    <glyph glyph-name="g" unicode="g" horiz-adv-x="424" 
d="M478 154q0 -18 -14 -32l-16 -16q-51 -51 -104.5 -89t-113.5 -68q-18 -50 -40 -95t-49 -79t-61 -54.5t-76 -20.5q-18 0 -38 6.5t-36.5 19t-27.5 32t-11 45.5q0 48 28 81t69 55.5t86.5 39t81.5 31.5q2 7 4 13.5t4 13.5q-57 -44 -110 -44q-24 0 -42.5 9.5t-31 24.5t-19 33
t-6.5 36q0 51 24.5 96t62.5 78.5t83 52.5t86 19q34 0 64 -15q13 13 30 13q18 0 32.5 -13t14.5 -32q0 -11 -8 -24q-20 -32 -36.5 -84t-35.5 -112q29 20 56.5 43.5t55.5 51.5l16 16q14 14 32 14t32 -14t14 -32zM227 250q-5 2 -16 2q-26 0 -55.5 -13.5t-54 -35.5t-40.5 -50
t-16 -57q0 -8 3.5 -10.5t5.5 -2.5q19 0 42 15.5t46 40t45 54t40 57.5zM112 -103q-35 -14 -69.5 -30t-51.5 -37q-10 -13 -10 -22q0 -8 6 -13t17 -5q16 0 31 9t28.5 23.5t25.5 34t23 40.5z" />
    <glyph glyph-name="h" unicode="h" horiz-adv-x="498" 
d="M553 154q0 -18 -14 -32l-16 -16q-32 -32 -63.5 -58.5t-60.5 -45.5t-55 -29.5t-47 -10.5q-30 0 -49 19.5t-19 48.5q0 30 14.5 59t31.5 56t31.5 52.5t14.5 49.5q0 6 -7 6q-17 0 -40.5 -18t-49 -45.5t-51.5 -61t-48.5 -65.5t-39.5 -58.5t-24 -38.5q-16 -26 -41 -26
q-17 0 -30.5 12t-13.5 32q0 10 5 23q7 17 14.5 39.5t15.5 50.5q-10 -5 -19 -5q-18 0 -32 14t-14 32t14 32l16 16q48 48 92 101q20 66 43.5 130t50 115t56 82.5t62.5 31.5q27 0 43 -19t16 -45q0 -27 -15.5 -66t-42 -84t-61 -93.5t-72.5 -95.5l-2 -7q9 10 19 21.5t21 20.5
q30 28 63 46.5t65 18.5q42 0 69.5 -25.5t27.5 -70.5q0 -32 -11 -59t-26 -53q-7 -11 -12 -19t-15 -22q-6 -8 -12 -17t-6 -11l1 -1q5 0 21 12q57 42 108 93l16 16q14 14 32 14t32 -14t14 -32z" />
    <glyph glyph-name="i" unicode="i" horiz-adv-x="285" 
d="M254 459q0 -18 -14 -32l-27 -27q-14 -14 -32 -14t-32 14t-14 32t14 32l27 27q14 14 32 14t32 -14t14 -32zM339 154q0 -18 -14 -32l-16 -16q-33 -33 -60.5 -59t-52.5 -43.5t-49 -27t-50 -9.5q-42 0 -64.5 25t-22.5 63q0 17 8 46q-12 -9 -26 -9q-18 0 -32 14t-14 32t14 32
l16 16q30 30 58.5 62.5t46.5 53.5q9 11 21 18t23 7q21 0 36.5 -14t15.5 -34q0 -4 -1 -8t-3 -9q-3 -8 -13 -31.5t-21 -53t-21.5 -59t-14.5 -47.5q-1 -4 -1.5 -6.5t-0.5 -4.5q0 -4 4 -4q5 0 14 5q12 6 29 20t35 30t34.5 32t27.5 27l16 16q14 14 32 14t32 -14t14 -32z" />
    <glyph glyph-name="j" unicode="j" horiz-adv-x="265" 
d="M279 518q0 -18 -14 -32l-27 -27q-14 -14 -32 -14t-32 14t-14 32t14 32l27 27q14 14 32 14t32 -14t14 -32zM319 154q0 -18 -14 -32l-16 -16q-20 -20 -44 -43t-49.5 -46.5t-50 -46t-45.5 -40.5l-7 -23q-8 -24 -16 -47t-17.5 -47t-22 -50t-30.5 -57q-8 -11 -18.5 -22.5
t-24 -21t-29.5 -16t-35 -6.5q-38 0 -63.5 24t-25.5 65q0 80 109 176q25 22 51 43t52 44q8 28 15 55t12 48.5t8.5 34.5t3.5 15l-38 -39q-14 -14 -32 -14t-32 14t-14 32t14 32l16 16q14 14 32 33t37 39t37 39.5t31 34.5q10 11 20.5 16t20.5 5q16 0 27.5 -12t11.5 -32v-8.5
t-2 -9.5l-53 -208l103 103q14 14 32 14t32 -14t14 -32zM-23 -162q-16 -16 -38.5 -40.5t-32.5 -45.5q-6 -12 -6 -18q0 -5 4 -5q8 0 19.5 15t23 33.5t20 36.5t10.5 24z" />
    <glyph glyph-name="k" unicode="k" horiz-adv-x="506" 
d="M560 154q0 -18 -14 -32l-16 -16q-18 -18 -48.5 -45.5t-65.5 -53t-70.5 -43.5t-62.5 -18q-38 0 -60 25t-33 59l-20 64q-2 4 -2 8v8q0 12 6.5 22.5t20.5 16.5q8 4 22.5 9.5t30.5 13t31 16t24 18.5q11 12 11 22q0 13 -12 13q-4 0 -9 -1t-11 -3q-34 -10 -66 -44t-59 -76
t-47.5 -83.5t-30.5 -66.5q-7 -16 -18.5 -23t-23.5 -7q-17 0 -31 12t-14 32q0 8 3 19q10 29 19.5 58t18.5 58l-9 -10q-13 -14 -32 -14q-18 0 -32 14t-14 32t14 32l16 16q35 35 64 68.5t53 65.5q23 85 41 148t29 92t30.5 49.5t54.5 20.5q31 0 48 -20.5t17 -49.5
q0 -26 -11.5 -58.5t-30 -69t-43.5 -74.5t-52 -74l-2 -8q29 24 61.5 39t69.5 15q25 0 43.5 -9t30.5 -23.5t18 -33t6 -37.5q0 -30 -12 -52t-31.5 -39t-43.5 -30t-48 -23l8 -27q6 -18 14 -18q9 0 31.5 15t49.5 36t53.5 43.5t41.5 37.5l16 16q14 14 32 14t32 -14t14 -32z" />
    <glyph glyph-name="l" unicode="l" horiz-adv-x="277" 
d="M361 572q0 -42 -27 -94t-67 -105.5t-86.5 -104t-85.5 -90.5q-2 -9 -4.5 -22t-4.5 -26.5t-3 -25.5t-1 -18q0 -29 2 -40.5t8 -11.5t19.5 10.5t31 27t38 38t40.5 42.5q10 11 17 18.5t15 15.5q14 14 32 14t32 -14t14 -32t-14 -32l-16 -16q-18 -18 -42.5 -45.5t-52.5 -54
t-58 -45t-59 -18.5q-28 0 -46.5 12.5t-30 32t-16 44t-4.5 48.5v12q-18 0 -32 14t-14 32t14 32l16 16q8 8 19 18.5t23 23.5q11 44 26.5 93.5t35 97.5t42.5 92t49 77.5t54.5 53.5t59.5 20q41 0 58.5 -27t17.5 -63zM272 562q0 3 -2 3q-5 0 -21 -23q-21 -29 -43 -69.5t-46 -90.5
q33 40 60 79t41 71q5 13 8 20t3 10z" />
    <glyph glyph-name="m" unicode="m" horiz-adv-x="734" 
d="M788 154q0 -18 -14 -32l-16 -16q-29 -29 -55.5 -54t-51 -43t-47.5 -28.5t-46 -10.5t-38 8.5t-25 22t-14 30t-4 32.5q0 21 5 42t11.5 41t11.5 40.5t5 41.5q0 17 -10 17q-14 0 -31.5 -16t-35.5 -40.5t-36 -54t-32.5 -57.5t-25 -50t-14.5 -31q-11 -28 -38 -28
q-18 0 -33.5 11.5t-15.5 31.5v7.5t2 8.5q7 19 14 41t13 45t9.5 46t3.5 43q0 24 -7 28.5t-9 4.5q-13 0 -30 -17.5t-36.5 -44.5t-39 -59.5t-36.5 -62t-29 -53t-17 -31.5q-7 -13 -16.5 -18.5t-20.5 -5.5q-17 0 -32 13t-15 33q0 5 1 9.5t3 9.5q9 22 16 42q6 17 12 35.5t10 30.5
l-10 -10q-14 -14 -32 -14t-32 14t-14 32t14 32l16 16l28.5 28.5l19.5 19.5t13.5 13t9.5 9q10 9 23 14.5t27 5.5t26 -6.5t17 -23.5q29 35 60 57t64 22q39 0 64 -23t35 -56q31 38 66 63.5t71 25.5q48 0 74 -29.5t26 -77.5q0 -32 -10 -62t-17 -60q-2 -9 -4.5 -19.5t-2.5 -17.5
q0 -6 3 -6t10 4q5 3 11.5 8t12.5 10q13 10 26 21.5t25 23.5l22.5 22.5l17.5 17.5l16 16q14 14 32 14t32 -14t14 -32z" />
    <glyph glyph-name="n" unicode="n" horiz-adv-x="535" 
d="M589 153q0 -17 -14 -31l-16 -16q-35 -35 -67 -66.5t-62 -55.5t-57.5 -38t-51.5 -14q-30 0 -47.5 20t-17.5 49q0 27 10.5 55t22.5 53t22.5 44.5t10.5 28.5t-3.5 11.5t-8.5 2.5q-26 0 -57.5 -24.5t-62.5 -58.5t-58.5 -69t-45.5 -57q-13 -20 -36 -20q-18 0 -33 11.5
t-15 31.5q0 10 4 19q8 18 16.5 42.5t16.5 50.5l-15 -16q-13 -14 -31 -14t-32.5 14.5t-14.5 32.5q0 17 14 31l16 16q7 7 17.5 18t21.5 23.5t22.5 25.5t20.5 24q5 6 16.5 14t28.5 8q18 0 28 -7.5t15 -17.5t6.5 -19t1.5 -12q0 -9 -1 -21t-5 -26q14 16 26.5 27t24.5 20
q26 20 54 31.5t57 11.5q47 0 74.5 -29.5t27.5 -74.5q0 -19 -11.5 -47t-31.5 -66l-8 -14q-7 -13 -7 -15l1 -1q1 0 5 4t9 8.5t9.5 9t6.5 5.5q20 18 48 44t62 60l16 16q14 14 31 14q18 0 32.5 -14.5t14.5 -32.5z" />
    <glyph glyph-name="o" unicode="o" horiz-adv-x="456" 
d="M510 154q0 -18 -14 -32l-16 -16q-25 -25 -59 -37t-67 -12q-5 0 -9.5 0.5t-9.5 1.5q-11 -29 -27.5 -54.5t-39 -45t-50 -31t-59.5 -11.5q-58 0 -93 42t-35 112q0 12 1 24t3 23l-11 -12q-13 -14 -32 -14q-18 0 -32 14t-14 32t14 32l16 16q63 63 125 101t128 38
q23 0 38.5 -10t15.5 -34q0 -20 -13 -35l11 1q19 0 33 -9.5t22.5 -24.5t12.5 -32.5t4 -33.5q23 0 40 8.5t23 14.5l16 16q14 14 32 14t32 -14t14 -32zM222 178q0 15 4.5 29t14.5 24h-3q-4 0 -6 1q-2 0 -4 1q-10 0 -28 -10t-35.5 -30.5t-30.5 -50.5t-13 -71q0 -22 4 -34.5
t10 -19t12.5 -8.5t11.5 -2q11 0 25 5.5t27.5 17t25.5 29t19 41.5q-15 16 -24.5 35.5t-9.5 42.5z" />
    <glyph glyph-name="p" unicode="p" horiz-adv-x="516" 
d="M540 106q-69 -69 -139.5 -101t-145.5 -40q-20 -6 -41 -6q-32 0 -61 11.5t-49 40.5l-36 -96t-33.5 -88t-27.5 -69t-18 -39q-6 -12 -14.5 -24.5t-19.5 -23t-24 -17t-28 -6.5q-20 0 -32.5 9t-19 21.5t-8.5 25t-2 19.5q0 29 16 70t43 88.5t62 98.5t72 100q6 20 10.5 33
t6.5 20l-27 -27q-14 -14 -31 -14q-19 0 -33 14t-14 33q0 17 14 31l16 16q15 15 40.5 43.5t48.5 55.5q16 19 31.5 28t28.5 9q6 0 15.5 -2t18.5 -8t15.5 -16.5t6.5 -27.5q0 -3 -1 -8.5t-2 -11.5l32 33q23 21 51.5 39t61.5 18q47 0 74.5 -30.5t27.5 -72.5q0 -31 -8.5 -65
t-27.5 -71q22 14 44 32t43 39l16 16q14 14 31 14q19 0 33 -14t14 -33q0 -17 -14 -31zM335 235q0 13 -12 13q-13 0 -34.5 -18t-44.5 -42t-42.5 -47t-28.5 -33q-6 -6 -24 -29q15 -3 27 -14q8 -7 18 -11.5t20 -4.5q16 0 37 15.5t40 41.5t31.5 59.5t12.5 69.5z" />
    <glyph glyph-name="q" unicode="q" horiz-adv-x="445" 
d="M499 154q0 -18 -14 -32l-16 -16q-68 -68 -123.5 -105.5t-113.5 -51.5q-4 -35 -12.5 -84.5t-24.5 -95.5t-41 -78t-62 -32q-19 0 -32.5 7.5t-22.5 18.5t-13 25t-4 27q0 17 10.5 47.5t27.5 68.5t40 82t47 89q-21 -12 -41 -19t-37 -7q-27 0 -47.5 10t-33.5 25.5t-19.5 34.5
t-6.5 38q0 35 19 76.5t50.5 77t73.5 59.5t89 24q35 0 59.5 -17.5t41.5 -43.5q7 11 16.5 16.5t20.5 5.5q18 0 32.5 -13t14.5 -32q0 -12 -7 -23l-101 -177q54 29 136 111l16 16q14 14 32 14t32 -14t14 -32zM230 209q-4 3 -5 8q-8 21 -16.5 28.5t-16.5 7.5q-24 0 -49.5 -15.5
t-46 -38t-33.5 -48t-13 -45.5q0 -18 17 -18q12 0 31 10.5t41.5 28t46 39t44.5 43.5z" />
    <glyph glyph-name="r" unicode="r" horiz-adv-x="408" 
d="M462 153q0 -17 -14 -31l-16 -16q-20 -20 -50.5 -48t-65 -53.5t-70.5 -43.5t-67 -18q-34 0 -57 21.5t-23 59.5q0 23 11 46.5t26 47.5t30.5 47.5t23.5 46.5q4 9 4 15q0 5 -4.5 6.5t-15.5 3.5q-10 2 -15.5 3t-16.5 4q-24 -33 -50.5 -65t-51.5 -57l-16 -16q-14 -14 -31 -14
q-18 0 -32.5 14.5t-14.5 32.5q0 17 14 31l16 16q23 23 48.5 53.5t44.5 58.5q-10 10 -14.5 22.5t-4.5 26.5q0 38 23.5 56t50.5 18q23 0 41.5 -14t18.5 -40q0 -7 -2 -16t-7 -23q11 -3 21.5 -5.5t21.5 -6.5q26 -9 47 -26t21 -51q0 -38 -18.5 -73.5t-43.5 -76.5q-2 -3 -6.5 -10
t-9.5 -15t-8.5 -15t-3.5 -10q0 -2 2 -2q4 0 17 7q19 10 41.5 27t43.5 35t39 35.5t29 28.5l16 16q14 14 31 14q18 0 32.5 -14.5t14.5 -32.5z" />
    <glyph glyph-name="s" unicode="s" horiz-adv-x="360" 
d="M414 154q0 -12 -6.5 -21.5t-23.5 -26.5q-46 -46 -84.5 -77t-74.5 -49.5t-72.5 -26t-79.5 -7.5q-12 0 -27 4.5t-28 12.5t-22 19.5t-9 26.5q0 20 13.5 33.5t33.5 13.5q9 0 15.5 -3t11.5 -6t9.5 -6t9.5 -3q19 0 33.5 13.5t14.5 35.5q0 31 -9 51t-18 46q-19 -20 -38 -39
l-39 -39q-14 -14 -32 -14t-32 14t-14 32q0 16 10 27t20 21l44 44t46 47.5t39.5 43t25.5 29.5q15 20 37 20q18 0 31.5 -13t13.5 -32q0 -10 -5 -19.5t-11.5 -19.5t-11.5 -20t-5 -20q0 -18 5.5 -34.5t12.5 -33.5q8 -19 14 -41t6 -50v-6q31 21 60 48.5t58 56.5q14 14 32 14
t32 -14t14 -32z" />
    <glyph glyph-name="t" unicode="t" horiz-adv-x="257" 
d="M311 154q0 -18 -14 -32l-16 -16q-41 -41 -72.5 -68t-58 -44t-49.5 -24t-45 -7q-21 0 -40 8t-33.5 23t-23 37t-8.5 49q0 32 13 70.5t39 92.5q-17 2 -25.5 13.5t-8.5 27.5q0 17 11 31t34 14h32q19 35 40.5 72.5t39.5 69t30.5 52t13.5 21.5q7 13 17.5 19t21.5 6
q18 0 32.5 -13t14.5 -32q0 -10 -6 -22l-95 -173h46q23 0 34 -14t11 -31t-11 -31t-34 -14h-94l-35 -65q-18 -34 -24.5 -57t-6.5 -37q0 -20 6.5 -23.5t8.5 -3.5q6 0 16.5 3t29 14.5t46.5 35t69 64.5l16 16q14 14 32 14t32 -14t14 -32z" />
    <glyph glyph-name="u" unicode="u" horiz-adv-x="559" 
d="M613 154q0 -18 -14 -32l-16 -16q-66 -66 -117 -104.5t-92 -38.5q-20 0 -34.5 7.5t-23.5 20.5t-13.5 29t-4.5 34v10q-43 -44 -87 -75t-80 -31q-47 0 -74.5 29.5t-27.5 71.5q0 14 2.5 29.5t7.5 32.5l-15 -15q-14 -14 -32 -14t-32 14t-14 32t14 32l16 16q31 31 50.5 51
t32 33.5t21.5 23t19 20.5q6 7 15.5 12t18.5 5q7 0 16 -2t17.5 -8t14.5 -16t6 -25q0 -20 -10.5 -48.5t-23.5 -59.5t-23.5 -61t-10.5 -52q0 -6 2 -8.5t10 -2.5q11 0 32 14.5t45.5 38t50.5 52.5t49.5 58.5t40.5 55.5t24 43q11 29 41 29q17 0 32 -11.5t15 -31.5q0 -5 -1 -9.5
t-3 -9.5q-20 -51 -36.5 -95.5t-24.5 -79.5q-2 -9 -4 -20t-2 -16t3 -5q2 0 15 8q14 10 29.5 23.5t30.5 27.5t28.5 27.5l22.5 22.5l16 16q14 14 32 14t32 -14t14 -32z" />
    <glyph glyph-name="v" unicode="v" horiz-adv-x="467" 
d="M521 154q0 -18 -14 -32l-16 -16q-17 -17 -38 -27.5t-46 -10.5q-40 0 -68 25q-28 -36 -60.5 -67t-63.5 -54t-58 -36.5t-43 -13.5q-20 0 -33.5 8.5t-21.5 22t-11 30t-3 32.5q0 37 6.5 70.5t15.5 65.5l-43 -45q-14 -14 -32 -14t-32 14t-14 32t14 32l16 16q9 9 28.5 29
t42.5 41t46.5 36.5t40.5 15.5q15 0 25 -5.5t15.5 -14t8 -17.5t2.5 -15q0 -24 -8 -53t-17 -59.5t-17 -60t-8 -54.5q0 -4 2 -4q4 0 15 9q15 12 33.5 28.5t37.5 35t37 39.5t32 43q-8 34 -8 67q0 15 3.5 34t11.5 35t21.5 27t33.5 11q18 0 29.5 -8t18.5 -21t9.5 -28t2.5 -29
q0 -23 -7 -48t-18 -49q10 -13 18 -13t20 12l16 16q14 14 32 14t32 -14t14 -32z" />
    <glyph glyph-name="w" unicode="w" horiz-adv-x="622" 
d="M676 154q0 -18 -14 -32l-16 -16q-21 -21 -48 -33t-56 -12q-17 0 -35 5q-12 -29 -28 -55.5t-35.5 -46.5t-43.5 -32t-51 -12q-23 0 -41 8.5t-31.5 22.5t-22 32.5t-13.5 38.5q-60 -75 -122 -75q-24 0 -39.5 11.5t-24.5 28.5t-12.5 38t-3.5 40q0 14 1.5 29t3.5 32l-20 -20
q-14 -14 -32 -14t-32 14t-14 32t14 32l16 16q10 10 27 27.5t36 36.5t35.5 36.5t25.5 26.5l8 15q7 13 17 18.5t21 5.5q18 0 32.5 -13t14.5 -32q0 -9 -7 -23q-12 -21 -22 -49t-18 -57.5t-12.5 -59t-4.5 -53.5q0 -22 4 -22q3 0 8.5 3.5t10.5 8.5l9 9t5 6q20 25 48 72.5
t62 131.5q11 29 40 29q17 0 32 -11.5t15 -31.5q0 -9 -3 -18q-17 -43 -26 -84t-9 -85q0 -3 1 -13t3.5 -21.5t7 -20t12.5 -8.5q13 0 25.5 10.5t23 27.5t20 39.5t16.5 45.5q-12 28 -12 65q0 17 2.5 36.5t10 36.5t21.5 28t36 11q17 0 27.5 -7t16.5 -17t8.5 -20.5t2.5 -17.5
q0 -20 -3 -44.5t-10 -51.5q3 -1 8 -1q8 0 19 4.5t21 14.5l16 16q14 14 32 14t32 -14t14 -32z" />
    <glyph glyph-name="x" unicode="x" horiz-adv-x="484" 
d="M538 154q0 -18 -14 -32l-16 -16q-38 -38 -75.5 -73.5t-73 -62.5t-68 -43.5t-59.5 -16.5q-25 0 -41.5 9.5t-26 25t-14 35.5t-5.5 41q-23 -21 -44 -40.5t-39 -38.5q-15 -15 -32 -15q-18 0 -32 14t-14 32q0 17 14 31q32 32 71 69t82 73q2 26 3 45.5t1 37.5q-35 -29 -67 -60
t-64 -63q-14 -14 -32 -14t-32 14t-14 32t14 32l16 16q16 16 34.5 33.5t35.5 33t31 28t20 17.5q17 14 37 25.5t42 11.5q21 0 34.5 -9t21 -23.5t10.5 -32t3 -33.5v-14q25 20 48.5 37t45.5 32q13 9 26 9q19 0 32 -14.5t13 -32.5q0 -21 -21 -36q-35 -23 -73 -53t-78 -63
q-3 -35 -3 -70q0 -12 1.5 -22t4.5 -10t14 6q36 19 85.5 64.5t103.5 99.5l16 16q14 14 32 14t32 -14t14 -32z" />
    <glyph glyph-name="y" unicode="y" horiz-adv-x="500" 
d="M554 154q0 -18 -14 -32l-16 -16q-55 -55 -116.5 -98.5t-127.5 -81.5q-24 -53 -50.5 -100t-56 -83t-61 -57t-64.5 -21q-20 0 -37.5 7t-31.5 19.5t-22 30.5t-8 39q0 38 25 72t70 61q40 24 80.5 47t81.5 46q6 14 12 27.5t12 27.5q-29 -24 -58.5 -39t-60.5 -15q-45 0 -72 29
t-27 73v7q-9 -5 -20 -5q-18 0 -32 14t-14 32t14 32l16 16q30 30 51 53t36 42t25.5 35t21.5 33q13 23 37 23q18 0 33 -13t15 -32q0 -12 -8 -25q-45 -72 -65 -128t-20 -84q0 -12 9 -12q17 0 37.5 14t41.5 35.5t41 49t38 54t31.5 49.5t21.5 37q8 15 18 20.5t22 5.5
q17 0 31.5 -11.5t14.5 -31.5q0 -4 -2 -14q-10 -35 -27 -95t-44 -126q32 25 64 50.5t61 54.5l16 16q14 14 32 14t32 -14t14 -32zM133 -157q-10 -6 -21 -13l-22 -14q-17 -11 -27.5 -19.5t-15.5 -15t-6.5 -11t-1.5 -8.5q0 -7 9 -7q12 0 23.5 8t22 20.5t20.5 28.5t19 31z" />
    <glyph glyph-name="z" unicode="z" horiz-adv-x="400" 
d="M454 154q0 -18 -14 -32l-16 -16q-32 -32 -62.5 -55t-61.5 -43q-2 -45 -25.5 -95t-61 -92t-84 -69.5t-94.5 -27.5q-39 0 -58.5 23.5t-19.5 53.5q0 40 22 75t56.5 65t76 56t80.5 49q-12 5 -29 5q-14 0 -24.5 -2t-12.5 -4q-13 -10 -29 -10q-18 0 -30 13.5t-12 30.5
q0 14 6.5 25t16.5 17q72 42 104 70.5t42 44.5q2 2 4.5 7.5t2.5 8.5q0 4 -4 4q-3 0 -8.5 -1.5t-7.5 -2.5q-25 -8 -66 -37t-105 -93l-16 -16q-14 -14 -32 -14t-32 14t-14 32t14 32l16 16q44 44 81.5 75t69.5 50t59.5 27.5t52.5 8.5q23 0 39 -8.5t25.5 -22t13.5 -30t4 -31.5
q0 -37 -24 -70t-57 -62q9 -5 18 -12t14 -14q24 17 46.5 35.5t41.5 37.5l16 16q14 14 32 14t32 -14t14 -32zM190 -58q-24 -15 -47.5 -31t-46.5 -36q-20 -17 -31.5 -32.5t-15.5 -27.5q19 4 39 16t38.5 29t35 38.5t28.5 43.5z" />
    <glyph glyph-name="braceleft" unicode="{" horiz-adv-x="499" 
d="M544 643q0 -14 -8 -26t-26 -17q-55 -13 -81.5 -32.5t-38.5 -46t-16.5 -61t-14.5 -77.5q-17 -68 -57 -118.5t-100 -75.5q8 -13 13 -29t5 -36q0 -38 -13.5 -75.5t-30 -75t-30 -76t-13.5 -79.5q0 -35 11 -44.5t28 -9.5q7 2 13.5 3.5t11.5 1.5q23 0 33.5 -12.5t10.5 -27.5
q0 -20 -17 -37.5t-52 -17.5q-62 0 -95.5 40t-33.5 104q0 46 13.5 89.5t30 83t30 73.5t13.5 60q0 6 -2.5 12.5t-10 12.5t-22 11.5t-37.5 9.5q-37 6 -37 43q0 18 11.5 32t31.5 14q4 0 7 -0.5t7 -1.5q9 0 18.5 0.5t18.5 1.5q63 7 102.5 46t54.5 99q14 56 23 101t28.5 80
t57 60.5t107.5 42.5q3 1 6.5 1h6.5q20 0 31.5 -14.5t11.5 -31.5z" />
    <glyph glyph-name="bar" unicode="|" horiz-adv-x="322" 
d="M322 628v-8t-2 -8q-17 -51 -37.5 -117t-43.5 -138.5t-46.5 -148.5t-45.5 -148t-42 -136t-35 -113q-5 -17 -16.5 -24.5t-25.5 -7.5q-17 0 -31.5 11.5t-14.5 31.5q0 10 2 15q15 49 35 113t42 136.5t45.5 148.5t46.5 149t43.5 139t37.5 117q5 17 17 24t25 7q17 0 31.5 -11.5
t14.5 -31.5z" />
    <glyph glyph-name="braceright" unicode="}" horiz-adv-x="499" 
d="M466 569q0 -24 -12 -53.5t-30.5 -62.5t-39.5 -66.5t-39.5 -64.5t-30.5 -56.5t-12 -43.5q0 -8 4 -17t24 -15t27.5 -18t7.5 -25q0 -16 -13 -29t-37 -14q-21 -3 -37.5 -19t-29.5 -39.5t-23.5 -52t-19.5 -56t-16 -51.5t-13 -38q-10 -23 -24.5 -45.5t-35 -40.5t-47.5 -29
t-62 -11q-36 0 -70.5 15t-65.5 41q-17 14 -17 33q0 18 13.5 32.5t32.5 14.5q14 0 29 -12q23 -19 42.5 -26.5t35.5 -7.5q36 0 59 28t38 66.5t25 79t21 65.5q11 27 31 56.5t48 52.5q-17 27 -17 62q0 26 12 58t30.5 66t39.5 67.5t39.5 63.5t30.5 54t12 38q0 8 -4 13t-20 5
t-36 -8q-9 -3 -18 -3q-20 0 -31.5 14.5t-11.5 31.5q0 12 6.5 23.5t22.5 17.5q34 14 68 14q23 0 44 -7.5t36.5 -21t24.5 -34t9 -45.5z" />
    <glyph glyph-name="asciitilde" unicode="~" horiz-adv-x="414" 
d="M419 219q0 -22 -9 -43.5t-25 -38.5t-39.5 -27.5t-51.5 -10.5q-31 0 -54 10.5t-43 22.5t-40 22.5t-44 10.5q-15 0 -29.5 -7t-31.5 -24l-12 -12q-14 -14 -32 -14t-32 14t-14 32t14 32l12 12q23 23 54 40t71 17q36 0 62 -10.5t46.5 -22.5t37.5 -22.5t35 -10.5q13 0 23 8
t13 28t15.5 29t27.5 9q17 0 31.5 -11.5t14.5 -32.5z" />
    <glyph glyph-name="uni00A0" unicode="&#xa0;" horiz-adv-x="285" 
 />
    <glyph glyph-name="exclamdown" unicode="&#xa1;" horiz-adv-x="299" 
d="M-7 -255q0 8 5 20q12 27 29.5 79t36.5 112.5t36 121t26 104.5q4 19 16.5 27.5t26.5 8.5q17 0 31.5 -11t14.5 -32q0 -7 -1 -11q-10 -46 -27.5 -108.5t-37 -125.5t-38 -117.5t-31.5 -83.5q-7 -14 -17.5 -20.5t-21.5 -6.5q-18 0 -33 12t-15 31zM152 307v8t2 8l7 21
q5 17 17 24t25 7q17 0 31.5 -11.5t14.5 -31.5v-7.5t-2 -8.5l-7 -21q-6 -16 -17.5 -23.5t-24.5 -7.5q-18 0 -32 11.5t-14 31.5z" />
    <glyph glyph-name="cent" unicode="&#xa2;" horiz-adv-x="415" 
d="M397 231q0 -19 -14.5 -32t-32.5 -13q-22 0 -37 22q-15 23 -44 35q-22 -48 -40.5 -89t-35.5 -79q43 3 71.5 19.5t46.5 34.5q14 14 32 14t32 -14t14 -32t-14 -32t-33 -28.5t-43 -26t-54 -18.5t-66 -7h-12.5t-12.5 1q-14 -32 -25.5 -60.5t-21.5 -52.5q-6 -15 -17.5 -21.5
t-23.5 -6.5q-17 0 -32 11.5t-15 31.5q0 10 4 19q9 22 20 48t24 55q-41 21 -63 56t-22 80q0 49 22 86t56 61.5t75.5 36.5t79.5 12q15 32 29 60.5t26 51.5q7 14 17.5 19.5t21.5 5.5q18 0 32.5 -12.5t14.5 -31.5q0 -9 -6 -21q-10 -19 -20.5 -41.5t-22.5 -48.5q24 -11 45 -27.5
t37 -40.5q8 -14 8 -25zM172 247q-44 -11 -72 -38.5t-28 -62.5q0 -13 7 -27.5t24 -25.5q17 38 34.5 77t34.5 77z" />
    <glyph glyph-name="sterling" unicode="&#xa3;" horiz-adv-x="525" 
d="M482 377q0 -38 -22 -71t-66 -48q-5 -2 -9 -2h-8q-20 0 -31.5 14.5t-11.5 31.5q0 13 7 25t23 17t22 14.5t6 18.5q0 13 -9 22t-22 9q-6 0 -16.5 -4t-23.5 -18t-27 -40t-26 -69q-4 -13 -7.5 -27t-8.5 -30q16 0 42 -0.5t55 -0.5q23 0 34 -14t11 -31t-11 -31t-34 -14h-62.5
t-64.5 1q-11 -29 -24 -57t-30 -53q23 -7 46.5 -11.5t47.5 -4.5q23 0 47 8t53 32q15 12 29 12q19 0 32.5 -14.5t13.5 -32.5q0 -19 -17 -33q-41 -34 -80 -48t-78 -14q-42 0 -81.5 12t-79.5 22q-20 -14 -44 -22t-51 -8q-14 0 -30.5 3.5t-30 11.5t-22.5 20.5t-9 30.5
q0 21 11.5 34t28 20t36 9t34.5 2q14 0 26.5 -1.5t25.5 -3.5q14 17 26 39.5t23 49.5q-24 1 -46 1.5t-40 2.5q-21 2 -31.5 15.5t-10.5 29.5q0 17 11 31t33 14h4q23 -2 50.5 -3t59.5 -2q16 49 33 98.5t40.5 89t55.5 64t77 24.5q25 0 47 -10t38.5 -26.5t26 -38.5t9.5 -46z" />
    <glyph glyph-name="currency" unicode="&#xa4;" 
d="M519 405q0 -20 -19 -35q-15 -12 -33 -25.5l-36 -27t-35 -27t-31 -23.5q2 -7 2 -13.5v-13.5q0 -24 -7.5 -48.5t-22.5 -45.5q18 -23 37.5 -45t30.5 -33q14 -14 14 -32t-14 -32t-32 -14q-8 0 -16 3t-16 11q-13 13 -34 37t-41 50q-28 -10 -58 -10q-23 0 -41.5 6t-32.5 17
q-27 -19 -54.5 -40.5t-45.5 -38.5q-14 -13 -31 -13q-18 0 -32 14.5t-14 32.5t15 32q21 20 52.5 45t62.5 46q-3 15 -3 31q0 23 7 47t21 46q-17 23 -34 44.5t-27 32.5q-12 13 -12 30q0 18 14.5 32t32.5 14t33 -16q11 -12 28 -34t34 -45q24 9 53 9q26 0 47.5 -7.5t37.5 -20.5
q2 2 5 3.5t5 3.5q27 20 59 45t58 45q13 10 27 10q19 0 32.5 -14.5t13.5 -32.5zM277 240q0 20 -10 31.5t-33 11.5q-26 0 -43 -20.5t-17 -49.5q0 -23 9.5 -32.5t24.5 -9.5q33 0 51 21.5t18 47.5z" />
    <glyph glyph-name="yen" unicode="&#xa5;" horiz-adv-x="545" 
d="M572 516q0 -21 -19 -35q-99 -72 -178 -166q46 3 83 3q23 0 34 -14t11 -31t-11 -31t-34 -14q-30 0 -70.5 -2.5t-85.5 -6.5q-10 -14 -20 -29t-19 -30q40 4 78 6.5t70 4.5h4q22 0 33 -14t11 -31q0 -16 -10.5 -29.5t-31.5 -15.5q-44 -3 -95.5 -7t-105.5 -9q-17 -48 -39 -94
t-47 -89q-8 -14 -19.5 -20t-22.5 -6q-17 0 -30 12t-13 32q0 5 1 10.5t3 10.5q13 34 26.5 67t28.5 65q-27 -3 -51.5 -6.5t-45.5 -7.5q-3 -1 -10 -1q-21 0 -32 14.5t-11 31.5q0 14 9 26.5t28 16.5q32 6 72 11.5t85 10.5q4 14 8 27.5t7 27.5q-28 -4 -53 -7t-45 -7q-3 -1 -10 -1
q-21 0 -32 14.5t-11 31.5q0 15 8.5 27.5t28.5 15.5q26 5 60 9.5t71 9.5q2 18 3 36.5t1 38.5q0 4 -0.5 19t-3.5 30.5t-8.5 28t-15.5 12.5q-16 0 -33 -9.5t-29 -18.5q-14 -9 -27 -9q-19 0 -32 14.5t-13 32.5q0 22 20 36q25 17 53.5 30.5t60.5 13.5q59 0 88.5 -48t29.5 -133
v-19.5t-1 -19.5q99 128 226 221q13 10 27 10q19 0 32.5 -14.5t13.5 -32.5z" />
    <glyph glyph-name="brokenbar" unicode="&#xa6;" horiz-adv-x="322" 
d="M367 622q0 -10 -2 -15q-11 -37 -25 -79t-28.5 -83.5t-29 -80.5t-27.5 -70q-6 -15 -17.5 -21.5t-23.5 -6.5q-17 0 -32 11.5t-15 31.5q0 10 4 19q12 30 26.5 68t29 79t28 81.5t24.5 76.5q5 17 17 24.5t25 7.5q17 0 31.5 -11.5t14.5 -31.5zM183 95q0 -8 -5 -20
q-13 -28 -29.5 -68t-33.5 -82.5t-32 -83t-25 -69.5q-5 -17 -17 -23.5t-25 -6.5q-17 0 -31.5 11.5t-14.5 31.5v8t2 9q10 30 26 71.5t33 85t34.5 84.5t30.5 70q7 14 17.5 20t21.5 6q17 0 32.5 -12t15.5 -32z" />
    <glyph glyph-name="section" unicode="&#xa7;" horiz-adv-x="500" 
d="M496 552q0 -41 -13.5 -66t-41.5 -48q-7 -6 -14.5 -8.5t-14.5 -2.5q-18 0 -31 14t-13 32q0 19 17 35l3 3q10 8 14 19t4 22q0 20 -8.5 27.5t-17.5 7.5q-5 0 -14 -3.5t-17 -13t-14 -25.5t-6 -41q0 -24 3.5 -62.5t7.5 -78.5t7.5 -76t3.5 -54q0 -61 -16.5 -107.5t-41 -80.5
t-52.5 -57.5t-51 -39.5q1 -14 1.5 -22t0.5 -14q0 -85 -37 -133.5t-95 -48.5q-21 0 -41.5 8t-36.5 22t-26 34.5t-10 46.5q0 23 14 34t31 11t31 -11t14 -34q0 -8 6.5 -14.5t17.5 -6.5q2 0 9 2t14.5 11t13 27.5t5.5 51.5q0 30 -6 68.5t-12.5 79t-12.5 80t-6 71.5
q0 102 40.5 173.5t112.5 125.5q10 7 21 9q2 35 14 64t31 50t44 32.5t52 11.5q29 0 50.5 -11.5t36 -29.5t22 -40t7.5 -44zM261 233q0 12 -1.5 32.5t-4 45.5t-5 52t-5.5 53q-44 -39 -67 -88t-23 -117q0 -34 6 -76t14 -86q16 14 31.5 31.5t27.5 40t19.5 50t7.5 62.5z" />
    <glyph glyph-name="dieresis" unicode="&#xa8;" horiz-adv-x="365" 
d="M405 421q0 -18 -14 -32l-13 -13q-14 -14 -32 -14t-32 14t-14 32t14 32l13 13q14 14 32 14t32 -14t14 -32zM252 440q0 -14 -11 -28l-11 -14q-14 -18 -34 -18q-18 0 -32.5 13.5t-14.5 32.5q0 14 11 28l11 14q14 18 34 18q18 0 32.5 -13.5t14.5 -32.5z" />
    <glyph glyph-name="copyright" unicode="&#xa9;" horiz-adv-x="769" 
d="M708 289q0 -94 -28 -172t-76 -134t-111.5 -87t-133.5 -31q-83 0 -141.5 30.5t-96 80t-55 111.5t-17.5 126q0 88 31 173t89 147q1 8 4.5 16t11.5 15q48 42 102 61t105 19q64 0 121.5 -27.5t101 -75.5t68.5 -112.5t25 -139.5zM618 289q0 59 -19.5 108t-51 84t-72 54
t-83.5 19q-35 0 -69 -12t-63 -33q-2 -16 -14 -27q-49 -47 -78 -119t-29 -150q0 -54 13.5 -101t40.5 -82t68.5 -55t97.5 -20q47 0 93.5 22t83 64.5t59.5 104.5t23 143zM538 375q0 -38 -15.5 -54t-33.5 -16q-17 0 -31 11.5t-14 31.5v7.5t2 8.5q2 6 2 11q0 19 -7 25t-21 6
q-17 0 -41 -11.5t-46 -36t-37 -62.5t-15 -92q0 -31 6.5 -50.5t16 -30.5t20.5 -15t20 -4q22 0 51 18.5t51 63.5q7 14 18 20t22 6q18 0 32.5 -12t14.5 -32q0 -11 -5 -20q-30 -63 -79.5 -98.5t-104.5 -35.5q-34 0 -62 13.5t-48.5 38.5t-31.5 60t-11 78q0 68 21 122t54 92
t73.5 58t80.5 20q49 0 83.5 -31t34.5 -90z" />
    <glyph glyph-name="ordfeminine" unicode="&#xaa;" horiz-adv-x="360" 
d="M452 365q0 -14 -10 -27q-8 -11 -21.5 -22.5t-30 -22t-35 -17t-36.5 -6.5q-28 0 -45.5 14t-26.5 35q-26 -22 -51 -35.5t-47 -13.5q-45 0 -70.5 29t-25.5 73q0 33 15.5 71.5t44 72t69.5 55.5t92 22q20 0 35 -7t28 -19l8 11q15 23 38 23q18 0 32.5 -13t14.5 -32
q0 -13 -7 -24q-9 -16 -26 -40t-42 -56q-12 -19 -19.5 -36.5t-7.5 -33.5v-6q9 3 21.5 12t20.5 20q15 19 35 19q18 0 32.5 -13.5t14.5 -32.5zM283 492q0 11 -8 11q-28 0 -52 -13.5t-42 -33.5t-28 -42.5t-10 -41.5q0 -12 6 -12q12 3 28 16t34 31.5t36.5 40.5t35.5 44z" />
    <glyph glyph-name="guillemotleft" unicode="&#xab;" horiz-adv-x="590" 
d="M535 256q0 -11 -5.5 -20.5t-17.5 -17.5q-20 -12 -48 -27.5t-58 -32.5l25.5 -25.5l25.5 -25.5t21.5 -22t14.5 -16q14 -16 14 -31q0 -18 -14.5 -32t-32.5 -14q-16 0 -31 15q-9 9 -27.5 28t-39 39t-38 37.5l-23.5 23.5q-16 15 -16 34q0 24 25 38q40 23 83.5 47.5t72.5 41.5
q11 7 24 7q19 0 32 -14.5t13 -32.5zM337 287q0 -20 -17 -34q-15 -12 -47.5 -37t-66.5 -48q13 -11 26.5 -23.5t26 -24.5t22.5 -21.5t16 -15.5q15 -15 15 -31q0 -18 -14 -32.5t-32 -14.5q-15 0 -31 14q-9 9 -29.5 28t-42 38t-39.5 35t-22 19q-19 16 -19 36q0 25 28 39
q14 7 35.5 21.5t43.5 31t41.5 32t30.5 24.5q7 6 14.5 8.5t14.5 2.5q19 0 32.5 -14.5t13.5 -32.5z" />
    <glyph glyph-name="logicalnot" unicode="&#xac;" 
d="M490 283q0 -13 -8 -26q-13 -27 -25 -64t-20 -70q-5 -18 -17 -26t-26 -8q-17 0 -31.5 11.5t-14.5 31.5v6.5t1 6.5q5 22 13 46l16 48q-44 0 -90 -1t-89.5 -3.5t-81.5 -5t-66 -5.5h-6q-21 0 -32.5 14.5t-11.5 31.5q0 16 10 29t30 15q29 3 68 5.5t83.5 5t92 3.5t93.5 1h34
t34 -1q22 -1 33 -14.5t11 -30.5z" />
    <glyph glyph-name="uni00AD" unicode="&#xad;" horiz-adv-x="399" 
d="M329 153q0 -14 -8.5 -26.5t-28.5 -16.5q-24 -5 -55.5 -9.5t-63 -8t-60 -6.5t-46.5 -4q-22 0 -35 12t-13 33q0 17 10 30t32 15q18 1 45 3.5t57 6.5l60 8t53 8q3 1 10 1q21 0 32 -14.5t11 -31.5z" />
    <glyph glyph-name="registered" unicode="&#xae;" horiz-adv-x="827" 
d="M766 224q0 -95 -33 -167t-86.5 -120.5t-121 -73t-136.5 -24.5q-64 0 -125 21t-109 63.5t-77 106.5t-29 149q0 97 36 177.5t92.5 138.5t125.5 89.5t135 31.5q30 0 59 -7.5t55 -22.5q9 6 21 6q9 0 23 -7q42 -23 73.5 -65.5t53 -93.5t32.5 -104.5t11 -97.5zM676 224
q0 35 -8 73.5t-21.5 75t-32 67t-39.5 50.5q-12 -7 -22 -7q-17 0 -31 13q-33 30 -84 30q-47 0 -99.5 -24.5t-97 -69.5t-73.5 -109.5t-29 -143.5q0 -63 21 -110t55.5 -78t79.5 -46.5t94 -15.5q53 0 104.5 18.5t92 55t65.5 92t25 129.5zM584 332q0 -47 -28.5 -91.5t-84.5 -68.5
q22 -32 40 -66t28 -57q5 -12 5 -20q0 -20 -15.5 -31.5t-32.5 -11.5q-12 0 -22.5 6.5t-16.5 20.5q-8 19 -20.5 42t-26 44.5t-26.5 38.5t-23 25q-25 18 -25 41q-15 -29 -29 -58.5t-26 -59.5q-6 -15 -17.5 -21.5t-23.5 -6.5q-17 0 -32 11.5t-15 31.5q0 10 4 19
q23 56 51.5 108.5t54.5 107.5q-14 5 -23.5 17.5t-9.5 27.5q0 19 18 34q34 27 71.5 40t73.5 13q38 0 66.5 -11.5t47 -30t28 -43t9.5 -51.5zM495 331q0 20 -15 33.5t-47 13.5h-8t-8 -1q-14 -37 -30.5 -73t-34.5 -71q13 10 34 11q25 1 45 9.5t34.5 21t22 27.5t7.5 29z" />
    <glyph glyph-name="macron" unicode="&#xaf;" horiz-adv-x="365" 
d="M452 431q0 -17 -11 -31t-34 -14h-274q-23 0 -34 14t-11 31t11 31t34 14h274q23 0 34 -14t11 -31z" />
    <glyph glyph-name="degree" unicode="&#xb0;" horiz-adv-x="234" 
d="M333 465q0 -39 -13 -68.5t-34 -49.5t-48 -30.5t-55 -10.5q-25 0 -48.5 8.5t-42 25.5t-30 42t-11.5 58q0 37 14.5 66.5t37 49.5t50.5 30.5t55 10.5q24 0 47 -8.5t40 -25t27.5 -41t10.5 -57.5zM243 465q0 26 -10.5 34t-24.5 8q-25 0 -46 -18t-21 -49q0 -23 12 -33.5
t30 -10.5q21 0 40.5 16t19.5 53z" />
    <glyph glyph-name="plusminus" unicode="&#xb1;" 
d="M448 258q0 -17 -11 -31t-34 -14h-145q-11 -25 -21.5 -51t-23.5 -57q-6 -15 -17.5 -21.5t-23.5 -6.5q-17 0 -32 11.5t-15 31.5q0 10 4 19q8 20 15.5 38.5t15.5 35.5h-108q-23 0 -34 14t-11 31t11 31t34 14h148q11 23 21 47t23 50q7 14 17.5 20t21.5 6q18 0 33 -12t15 -32
q0 -8 -5 -20l-28 -59h105q23 0 34 -14t11 -31zM392 1q0 -17 -11.5 -31.5t-32.5 -14.5h-7q-26 4 -59.5 5.5t-70.5 1.5q-60 0 -124 -4t-124 -12h-7q-21 0 -32.5 14.5t-11.5 31.5q0 15 9.5 28.5t29.5 15.5q63 8 130 12t130 4q41 0 77 -1.5t65 -5.5q20 -2 29.5 -15.5t9.5 -28.5z
" />
    <glyph glyph-name="uni00B2" unicode="&#xb2;" horiz-adv-x="333" 
d="M412 285q0 -17 -11 -31t-34 -14q-29 0 -57.5 6t-57 13.5t-57.5 13.5t-59 6q-15 0 -34.5 -5.5t-52.5 -21.5q-14 -6 -26 -6q-19 0 -31 13t-12 30q0 23 22 40q7 6 23.5 15.5t39 23t48.5 30t52 35.5q11 8 30.5 23t38 33t32.5 36.5t14 34.5q0 23 -19 23q-11 0 -25 -6.5
t-27.5 -16t-24 -19t-13.5 -15.5q-14 -23 -37 -23q-18 0 -32.5 13t-14.5 32q0 11 8 24q13 21 33 39t43.5 31t49 20.5t49.5 7.5q41 0 70.5 -25.5t29.5 -84.5q0 -31 -15 -60t-38 -54.5t-49.5 -47.5t-49.5 -38q35 -7 74.5 -18.5t74.5 -11.5q23 0 34 -14t11 -31z" />
    <glyph glyph-name="uni00B3" unicode="&#xb3;" horiz-adv-x="333" 
d="M402 558q0 -63 -57 -109q25 -17 38.5 -42t13.5 -56q0 -40 -19 -68.5t-48 -46.5t-62.5 -26.5t-62.5 -8.5q-19 0 -39.5 3.5t-39.5 11.5t-36 20.5t-29 31.5q-9 13 -9 26q0 19 14.5 32t32.5 13q21 0 36 -21q8 -11 25.5 -19t44.5 -8q25 0 44 6t32 15t19.5 19.5t6.5 19.5
q0 4 -2.5 10.5t-10 13t-23 11.5t-40.5 5q-17 0 -24.5 -1.5t-18.5 -1.5q-21 0 -32 14.5t-11 31.5q0 15 8.5 27.5t28.5 15.5q21 3 42 9q27 8 44.5 18.5t27 21t13 19t3.5 13.5q0 4 -5.5 12.5t-31.5 8.5q-20 0 -40.5 -8.5t-31.5 -19.5q-15 -16 -32 -16q-18 0 -32.5 14t-14.5 32
q0 16 13 30q26 28 64 43t74 15q27 0 50 -8t40 -22t27 -35t10 -46z" />
    <glyph glyph-name="acute" unicode="&#xb4;" horiz-adv-x="365" 
d="M461 511q0 -17 -15 -32q-10 -10 -26.5 -23.5t-35.5 -29.5l-38 -32t-35 -30q-14 -13 -30 -13q-18 0 -32 14.5t-14 32.5q0 17 16 32q16 14 35 30t37.5 31t34.5 28.5t26 23.5q16 14 31 14q18 0 32 -14t14 -32z" />
    <glyph glyph-name="mu" unicode="&#xb5;" horiz-adv-x="516" 
d="M506 46q0 -21 -17.5 -43.5t-60.5 -35.5q-11 -4 -27 -4q-32 0 -52.5 19.5t-29.5 47.5q-14 -20 -30 -39t-35.5 -34t-42 -24t-48.5 -9q-27 0 -49 12t-36 32q-41 -66 -86.5 -133t-96.5 -138q-14 -20 -36 -20q-18 0 -32.5 13t-14.5 32q0 15 9 27q53 74 100 142.5t87.5 135.5
t74 133t60.5 135q6 17 17.5 24t24.5 7q17 0 31.5 -12t14.5 -32q0 -10 -4 -19q-21 -55 -35.5 -94.5t-23.5 -67.5t-13 -46t-4 -29q0 -12 12 -12q19 0 40 18t41 46.5t38.5 62.5t34 66.5t26 59t15.5 39.5q6 17 17.5 24.5t24.5 7.5q17 0 31.5 -12t14.5 -32q0 -9 -3 -18
q-7 -20 -14.5 -44t-14 -48t-10.5 -46.5t-4 -38.5q0 -17 2 -28t4 -16q8 4 15 9.5t13 11.5q9 8 17.5 11.5t16.5 3.5q17 0 27.5 -13t10.5 -32z" />
    <glyph glyph-name="paragraph" unicode="&#xb6;" horiz-adv-x="628" 
d="M582 542q0 -17 -11 -31t-33 -14h-4q-11 1 -22.5 1.5t-23.5 1.5q-14 -61 -33 -128.5t-40.5 -137t-44 -138.5t-43 -132t-38.5 -118t-31 -97q-5 -17 -17 -24.5t-25 -7.5q-17 0 -31.5 11.5t-14.5 31.5q0 10 2 15q19 61 48 149t61.5 187.5t63 202t52.5 192.5q-13 1 -21.5 1.5
t-14.5 0.5q-23 -90 -54 -184.5t-63.5 -188t-64 -183t-54.5 -170.5q-5 -17 -16.5 -25t-25.5 -8q-17 0 -31.5 11.5t-14.5 31.5q0 4 2 14q23 81 54.5 171t64.5 184q-13 -15 -32 -15q-13 0 -24 7q-57 34 -83 81.5t-26 98.5q0 49 23 96.5t65.5 85t104.5 61t140 23.5q21 0 48 -1.5
t55.5 -3t57 -4t53.5 -3.5q22 -2 32 -15.5t10 -29.5zM268 505q-49 -6 -83 -22.5t-55.5 -38t-31 -47.5t-9.5 -52q0 -36 16 -66.5t43 -47.5q11 -7 16 -16t6 -18q27 78 52.5 155.5t45.5 152.5z" />
    <glyph glyph-name="periodcentered" unicode="&#xb7;" horiz-adv-x="240" 
d="M177 165q0 -14 -12 -29l-13 -15q-14 -17 -33 -17q-18 0 -32.5 13.5t-14.5 32.5q0 14 12 29l13 15q14 17 33 17q18 0 32.5 -13.5t14.5 -32.5z" />
    <glyph glyph-name="cedilla" unicode="&#xb8;" horiz-adv-x="365" 
d="M173 -117q0 -29 -11 -48t-27.5 -30t-36 -15t-36.5 -4q-20 0 -32 3q-18 5 -26 17t-8 26q0 17 11.5 31.5t31.5 14.5q9 0 14.5 -1.5t16.5 -1.5q13 0 13 4q0 2 -1 4t-5 4t-12.5 3.5t-23.5 3.5q-19 2 -33.5 14t-14.5 32q0 11 4.5 20t18.5 20q15 14 33 28t30 22q11 7 24 7
q19 0 32 -14.5t13 -32.5q0 -9 -4 -18t-13 -16q18 -12 30 -29.5t12 -43.5z" />
    <glyph glyph-name="uni00B9" unicode="&#xb9;" horiz-adv-x="333" 
d="M438 655q0 -11 -4.5 -19t-10.5 -16q-26 -36 -58.5 -83.5t-65 -96t-60.5 -92t-46 -72.5q-14 -22 -37 -22q-18 0 -32.5 13t-14.5 32q0 12 8 25q17 28 43.5 69t57.5 88q-8 -2 -14.5 -4t-12.5 -4q-4 -1 -12 -1q-20 0 -31.5 14.5t-11.5 31.5q0 14 8 26.5t27 16.5q17 4 41 13.5
t49 24t49 33.5t41 42l4 6q14 20 36 20q18 0 32.5 -13t14.5 -32z" />
    <glyph glyph-name="ordmasculine" unicode="&#xba;" horiz-adv-x="296" 
d="M367 490q0 -45 -16.5 -85t-43.5 -70t-60.5 -47.5t-67.5 -17.5q-52 0 -80 37t-28 95q0 49 15.5 87.5t41 65t57.5 40.5t64 14q23 0 44 -7.5t37.5 -22.5t26.5 -37.5t10 -51.5zM277 490q0 17 -7 23t-21 6q-12 0 -27.5 -6.5t-29 -20.5t-22.5 -36t-9 -54v-1q0 -5 0.5 -11.5
t2 -13.5t5 -11.5t10.5 -4.5q12 0 28.5 9t32 26t26.5 41t11 54z" />
    <glyph glyph-name="guillemotright" unicode="&#xbb;" horiz-adv-x="643" 
d="M547 170q0 -24 -27 -39q-53 -29 -99.5 -67.5t-93.5 -75.5q-14 -11 -28 -11q-19 0 -32.5 14.5t-13.5 32.5q0 20 18 34q37 29 73 59t74 57q-30 21 -62 42t-58 40q-20 14 -20 36q0 18 13 32.5t32 14.5q13 0 27 -9q19 -14 42.5 -30t47.5 -32t46.5 -32t39.5 -29q21 -17 21 -37
zM341 184q0 -24 -30 -39q-50 -24 -94 -55.5t-90 -62.5q-14 -9 -26 -9q-19 0 -32 14.5t-13 32.5q0 21 21 36q33 23 65 45.5t66 43.5q-29 22 -53.5 43t-36.5 31q-16 15 -16 33t13.5 32.5t32.5 14.5q15 0 30 -12q8 -7 24 -20.5t35 -29.5t40 -32t39 -28q25 -17 25 -38z" />
    <glyph glyph-name="onequarter" unicode="&#xbc;" horiz-adv-x="586" 
d="M354 641q0 -12 -6 -21l-12 -18q-16 -25 -34 -61t-36 -75t-34 -78t-26 -70q-5 -16 -16.5 -23t-24.5 -7q-18 0 -33 12t-15 32q0 7 3 16q11 33 27.5 73t36.5 82q-9 -3 -18 -5t-19 -4q-4 -1 -11 -1q-20 0 -31.5 14.5t-11.5 31.5q0 14 8.5 26.5t27.5 16.5q24 5 43.5 12
t36.5 17t32 24t32 34q13 14 25 17q3 1 9 1q17 0 31.5 -13t15.5 -31v-2zM632 602q-40 -43 -89 -98t-103 -115.5t-109 -122.5t-105.5 -118.5t-93.5 -103t-73 -76.5q-14 -14 -31 -14q-19 0 -33 14t-14 33q0 17 14 31q30 29 73 75.5t93 103t105 118t108.5 122t102.5 116t89 97.5
q14 15 33 15q18 0 32 -13.5t14 -32.5q0 -17 -13 -31zM610 339q0 -1 -9 -26.5t-22.5 -65t-30 -87.5t-31.5 -94h22q34 0 48 3q4 1 7 1.5t6 0.5q20 0 31.5 -15t11.5 -32q0 -14 -8 -26t-26 -17q-16 -5 -32.5 -6.5t-34.5 -1.5q-27 0 -54 3q-15 -49 -17 -66q-2 -21 -15 -30.5
t-29 -9.5q-17 0 -31.5 11t-14.5 33v6q1 10 5 26.5t11 38.5q-17 2 -34.5 3t-34.5 1q-19 0 -37 -1.5t-35 -6.5q-9 -3 -18 -3q-20 0 -32.5 12t-12.5 28q0 22 23 41q30 24 72.5 65.5t87.5 88.5t86.5 93t70.5 79q19 20 41 20q17 0 28.5 -12t11.5 -32q0 -11 -4 -22zM455 165
q-23 -23 -45 -46t-44 -44q10 -1 25 -1t33 -2z" />
    <glyph glyph-name="onehalf" unicode="&#xbd;" horiz-adv-x="586" 
d="M404 633q0 -12 -5.5 -21t-13.5 -17q-29 -34 -57 -73t-52.5 -77.5t-44 -74t-32.5 -62.5q-7 -14 -17.5 -20t-21.5 -6q-18 0 -33 12t-15 32q0 8 5 20q14 31 37 70t50 81q-9 -3 -20 -6t-21 -3q-20 0 -31.5 14.5t-11.5 31.5q0 14 8.5 26.5t27.5 16.5q21 4 45 13.5t47 21.5
t43.5 26t35.5 27q7 6 14 10t16 4q18 0 32.5 -13.5t14.5 -32.5zM668 634q0 -18 -16 -33q-38 -34 -85 -81.5t-99 -103.5t-106.5 -117t-106.5 -120t-98.5 -114t-82.5 -99q-14 -17 -34 -17q-18 0 -32.5 13.5t-14.5 32.5q0 7 2.5 14.5t8.5 14.5q36 44 83 99t99 115.5t107.5 122
t109 118.5t102 106t87.5 84q13 12 30 12q18 0 32 -14.5t14 -32.5zM624 -65q0 -18 -12 -32.5t-32 -14.5q-11 0 -21 6q-39 19 -75 26.5t-71 7.5q-32 0 -64 -5t-65 -14q-9 -3 -17 -3q-21 0 -33 12.5t-12 29.5q0 11 6.5 23t21.5 20q10 5 34 20t54 34.5t63 42.5t60 45t44.5 42
t17.5 33q0 7 -5.5 13.5t-20.5 6.5q-14 0 -39 -13.5t-52 -56.5q-15 -22 -37 -22q-18 0 -32.5 13t-14.5 32q0 12 8 25q35 56 78.5 84t88.5 28q23 0 44 -8t37 -22.5t25.5 -35t9.5 -44.5q0 -31 -14 -57t-36.5 -49t-51 -44t-58.5 -42q35 -3 71.5 -13t74.5 -29q14 -7 19.5 -17.5
t5.5 -21.5z" />
    <glyph glyph-name="threequarters" unicode="&#xbe;" horiz-adv-x="586" 
d="M387 586q0 -30 -16.5 -55.5t-44.5 -45.5q14 -16 21 -36.5t7 -42.5q0 -29 -12 -58.5t-34.5 -53.5t-55 -39t-74.5 -15t-80.5 19.5t-61.5 65.5q-6 12 -6 22q0 19 15 31.5t33 12.5q25 0 38 -24q20 -37 62 -37q18 0 34 7t28 18t18.5 23.5t6.5 24.5q0 14 -10 23t-33 9
q-11 0 -22.5 -1.5t-22.5 -3.5h-7q-21 0 -32 14t-11 31q0 15 9.5 28.5t29.5 16.5l15 2q35 6 57.5 16t35.5 20t18 18t5 10q0 10 -5 13t-16 3q-23 0 -50.5 -10.5t-41.5 -23.5t-31 -13q-18 0 -31.5 14t-13.5 32t16 33q13 12 31 22.5t38 18.5t41.5 12.5t41.5 4.5q19 0 39 -5.5
t36 -18t26 -33t10 -49.5zM714 558q-36 -41 -86.5 -95.5t-109 -115.5t-121 -125t-121.5 -123.5t-111.5 -112t-90.5 -89.5q-14 -14 -31 -14q-19 0 -33 14t-14 33q0 17 14 31q38 37 90 89l111 111t121 122t120 123.5t108.5 114.5t85.5 95q8 9 16 12.5t17 3.5q18 0 32.5 -13.5
t14.5 -31.5q0 -16 -12 -29zM641 271q-10 -34 -23 -75q-11 -35 -28 -83t-37 -105q43 -2 83 -9q20 -3 28.5 -15.5t8.5 -26.5q0 -17 -11.5 -32t-32.5 -15q-6 0 -9 1q-25 5 -49.5 6.5t-50.5 1.5v-1l-18 -46t-19 -47q-6 -15 -17.5 -21.5t-23.5 -6.5q-18 0 -32.5 12t-14.5 31
q0 10 4 19l12 28t11 28q-34 -2 -67 -4t-66 -2h-16q-23 1 -36 11.5t-13 26.5q0 18 16 37q29 33 70 76.5t86 90t90 90.5t82 77q19 16 38 16q17 0 28 -11t11 -30q0 -11 -4 -22zM501 129q-32 -32 -62.5 -64t-58.5 -62l77 4q11 30 22 60.5t22 61.5z" />
    <glyph glyph-name="questiondown" unicode="&#xbf;" horiz-adv-x="439" 
d="M-27 -142q0 37 12.5 65t35 51t54.5 43t71 41q9 5 20.5 11.5t22 15t18 18.5t7.5 22q0 8 -1 12t-3 8q-6 12 -13.5 21t-7.5 24q0 20 15 32.5t32 12.5t30 -12.5t21.5 -29.5t12.5 -36t4 -32q0 -40 -18 -67t-44.5 -46.5t-58 -34.5t-58 -31.5t-44.5 -37t-18 -50.5
q0 -32 20 -48.5t53 -16.5q19 0 36.5 6t30.5 17t21 27t8 37q0 14 -3 20.5t-6.5 10.5t-6.5 8.5t-3 15.5q0 18 13.5 32t32.5 14q8 0 16 -4t14 -9q19 -17 26 -41.5t7 -46.5q0 -45 -17 -78t-44 -55t-60 -33t-65 -11q-29 0 -58 9.5t-52.5 28.5t-38 48t-14.5 69zM241 319
q0 20 15 32.5t32 12.5q20 0 30 -12.5t20 -26.5q9 -14 9 -26q0 -20 -15 -32.5t-32 -12.5q-20 0 -30 12.5t-20 26.5q-9 12 -9 26z" />
    <glyph glyph-name="Agrave" unicode="&#xc0;" horiz-adv-x="672" 
d="M726 154q0 -18 -14 -32q-11 -11 -21.5 -22.5t-21.5 -22.5q-19 -21 -42.5 -45.5t-48.5 -46.5t-49.5 -36.5t-45.5 -14.5t-34.5 9t-21.5 23t-11.5 31t-3.5 34q0 19 3 43.5t8 51t10.5 53.5t11.5 51q-95 6 -176 6h-61q-35 -39 -64.5 -79t-52 -78.5t-35 -75.5t-12.5 -70
q0 -23 -14 -34t-31 -11t-31 11t-14 34q0 30 7 60t19 61q9 23 23 49t28 49q-8 7 -16.5 21.5t-8.5 37.5q0 30 14 50.5t36.5 33t51.5 19t58 9.5q37 39 72.5 73t66.5 61t68.5 57.5t73.5 56t66.5 42.5t48.5 17q29 0 43.5 -20.5t14.5 -46.5q0 -11 -5 -38t-13 -62.5t-18.5 -75.5
t-20.5 -76q17 -4 25.5 -16.5t8.5 -26.5q0 -17 -11 -31.5t-33 -14.5h-9q-3 0 -5 1q-6 -23 -12.5 -48t-11.5 -49.5t-9 -47t-4 -40.5q30 24 57.5 53t53.5 58q7 8 15 16.5t20 20.5q14 14 32 14t32 -14t14 -32zM521 516q-44 -30 -104 -79.5t-123 -110.5q40 -1 83.5 -2.5
t90.5 -4.5q14 54 28.5 104t24.5 93zM679 685q0 -18 -14 -32t-32 -14t-32 14t-30 30.5t-31 32.5t-29.5 30.5l-25.5 25.5q-15 14 -15 32t14 32.5t32 14.5q17 0 31 -13l25.5 -25.5t30.5 -31t32 -33.5t30 -31t14 -32z" />
    <glyph glyph-name="Aacute" unicode="&#xc1;" horiz-adv-x="672" 
d="M726 154q0 -18 -14 -32q-11 -11 -21.5 -22.5t-21.5 -22.5q-19 -21 -42.5 -45.5t-48.5 -46.5t-49.5 -36.5t-45.5 -14.5t-34.5 9t-21.5 23t-11.5 31t-3.5 34q0 19 3 43.5t8 51t10.5 53.5t11.5 51q-95 6 -176 6h-61q-35 -39 -64.5 -79t-52 -78.5t-35 -75.5t-12.5 -70
q0 -23 -14 -34t-31 -11t-31 11t-14 34q0 30 7 60t19 61q9 23 23 49t28 49q-8 7 -16.5 21.5t-8.5 37.5q0 30 14 50.5t36.5 33t51.5 19t58 9.5q37 39 72.5 73t66.5 61t68.5 57.5t73.5 56t66.5 42.5t48.5 17q29 0 43.5 -20.5t14.5 -46.5q0 -11 -5 -38t-13 -62.5t-18.5 -75.5
t-20.5 -76q17 -4 25.5 -16.5t8.5 -26.5q0 -17 -11 -31.5t-33 -14.5h-9q-3 0 -5 1q-6 -23 -12.5 -48t-11.5 -49.5t-9 -47t-4 -40.5q30 24 57.5 53t53.5 58q7 8 15 16.5t20 20.5q14 14 32 14t32 -14t14 -32zM521 516q-44 -30 -104 -79.5t-123 -110.5q40 -1 83.5 -2.5
t90.5 -4.5q14 54 28.5 104t24.5 93zM813 792q0 -17 -15 -32q-10 -10 -26.5 -23.5t-35.5 -29.5l-38 -32t-35 -30q-14 -13 -30 -13q-18 0 -32 14.5t-14 32.5q0 17 16 32q16 14 35 30t37.5 31t34.5 28.5t26 23.5q16 14 31 14q18 0 32 -14t14 -32z" />
    <glyph glyph-name="Acircumflex" unicode="&#xc2;" horiz-adv-x="672" 
d="M726 154q0 -18 -14 -32q-11 -11 -21.5 -22.5t-21.5 -22.5q-19 -21 -42.5 -45.5t-48.5 -46.5t-49.5 -36.5t-45.5 -14.5t-34.5 9t-21.5 23t-11.5 31t-3.5 34q0 19 3 43.5t8 51t10.5 53.5t11.5 51q-95 6 -176 6h-61q-35 -39 -64.5 -79t-52 -78.5t-35 -75.5t-12.5 -70
q0 -23 -14 -34t-31 -11t-31 11t-14 34q0 30 7 60t19 61q9 23 23 49t28 49q-8 7 -16.5 21.5t-8.5 37.5q0 30 14 50.5t36.5 33t51.5 19t58 9.5q37 39 72.5 73t66.5 61t68.5 57.5t73.5 56t66.5 42.5t48.5 17q29 0 43.5 -20.5t14.5 -46.5q0 -11 -5 -38t-13 -62.5t-18.5 -75.5
t-20.5 -76q17 -4 25.5 -16.5t8.5 -26.5q0 -17 -11 -31.5t-33 -14.5h-9q-3 0 -5 1q-6 -23 -12.5 -48t-11.5 -49.5t-9 -47t-4 -40.5q30 24 57.5 53t53.5 58q7 8 15 16.5t20 20.5q14 14 32 14t32 -14t14 -32zM521 516q-44 -30 -104 -79.5t-123 -110.5q40 -1 83.5 -2.5
t90.5 -4.5q14 54 28.5 104t24.5 93zM730 667q0 -19 -14.5 -31.5t-32.5 -12.5q-11 0 -21.5 5.5t-17.5 19.5q-8 17 -20.5 37.5t-25.5 40.5q-25 -25 -51.5 -48t-43.5 -37q-13 -10 -27 -10q-19 0 -32.5 14.5t-13.5 32.5q0 20 19 35q11 9 27 22.5t33 29t33 31.5t27 29
q15 17 34 17t34 -17q10 -12 22 -29t24 -36t22.5 -38t18.5 -34q6 -11 6 -21z" />
    <glyph glyph-name="Atilde" unicode="&#xc3;" horiz-adv-x="672" 
d="M726 154q0 -18 -14 -32q-11 -11 -21.5 -22.5t-21.5 -22.5q-19 -21 -42.5 -45.5t-48.5 -46.5t-49.5 -36.5t-45.5 -14.5t-34.5 9t-21.5 23t-11.5 31t-3.5 34q0 19 3 43.5t8 51t10.5 53.5t11.5 51q-95 6 -176 6h-61q-35 -39 -64.5 -79t-52 -78.5t-35 -75.5t-12.5 -70
q0 -23 -14 -34t-31 -11t-31 11t-14 34q0 30 7 60t19 61q9 23 23 49t28 49q-8 7 -16.5 21.5t-8.5 37.5q0 30 14 50.5t36.5 33t51.5 19t58 9.5q37 39 72.5 73t66.5 61t68.5 57.5t73.5 56t66.5 42.5t48.5 17q29 0 43.5 -20.5t14.5 -46.5q0 -11 -5 -38t-13 -62.5t-18.5 -75.5
t-20.5 -76q17 -4 25.5 -16.5t8.5 -26.5q0 -17 -11 -31.5t-33 -14.5h-9q-3 0 -5 1q-6 -23 -12.5 -48t-11.5 -49.5t-9 -47t-4 -40.5q30 24 57.5 53t53.5 58q7 8 15 16.5t20 20.5q14 14 32 14t32 -14t14 -32zM521 516q-44 -30 -104 -79.5t-123 -110.5q40 -1 83.5 -2.5
t90.5 -4.5q14 54 28.5 104t24.5 93zM796 768v-8t-2 -9q-6 -18 -16 -36.5t-24.5 -33.5t-33.5 -24t-43 -9q-27 0 -49 10.5t-39.5 23.5t-29.5 23.5t-19 10.5q-6 -4 -10.5 -16t-6.5 -18q-5 -17 -16.5 -24.5t-25.5 -7.5q-17 0 -31.5 11.5t-14.5 31.5q0 10 2 15q5 18 13.5 35.5
t21 31.5t29 22.5t38.5 8.5q25 0 45 -10.5t36.5 -23.5t30 -23.5t26.5 -10.5q3 0 11.5 6t19.5 37q5 17 17 23.5t25 6.5q17 0 31.5 -11.5t14.5 -31.5z" />
    <glyph glyph-name="Adieresis" unicode="&#xc4;" horiz-adv-x="672" 
d="M726 154q0 -18 -14 -32q-11 -11 -21.5 -22.5t-21.5 -22.5q-19 -21 -42.5 -45.5t-48.5 -46.5t-49.5 -36.5t-45.5 -14.5t-34.5 9t-21.5 23t-11.5 31t-3.5 34q0 19 3 43.5t8 51t10.5 53.5t11.5 51q-95 6 -176 6h-61q-35 -39 -64.5 -79t-52 -78.5t-35 -75.5t-12.5 -70
q0 -23 -14 -34t-31 -11t-31 11t-14 34q0 30 7 60t19 61q9 23 23 49t28 49q-8 7 -16.5 21.5t-8.5 37.5q0 30 14 50.5t36.5 33t51.5 19t58 9.5q37 39 72.5 73t66.5 61t68.5 57.5t73.5 56t66.5 42.5t48.5 17q29 0 43.5 -20.5t14.5 -46.5q0 -11 -5 -38t-13 -62.5t-18.5 -75.5
t-20.5 -76q17 -4 25.5 -16.5t8.5 -26.5q0 -17 -11 -31.5t-33 -14.5h-9q-3 0 -5 1q-6 -23 -12.5 -48t-11.5 -49.5t-9 -47t-4 -40.5q30 24 57.5 53t53.5 58q7 8 15 16.5t20 20.5q14 14 32 14t32 -14t14 -32zM521 516q-44 -30 -104 -79.5t-123 -110.5q40 -1 83.5 -2.5
t90.5 -4.5q14 54 28.5 104t24.5 93zM721 686q0 -18 -14 -32l-13 -13q-14 -14 -32 -14t-32 14t-14 32t14 32l13 13q14 14 32 14t32 -14t14 -32zM568 705q0 -14 -11 -28l-11 -14q-14 -18 -34 -18q-18 0 -32.5 13.5t-14.5 32.5q0 14 11 28l11 14q14 18 34 18q18 0 32.5 -13.5
t14.5 -32.5z" />
    <glyph glyph-name="Aring" unicode="&#xc5;" horiz-adv-x="672" 
d="M704 721q0 -52 -27 -83.5t-65 -39.5q8 -16 8 -35q0 -11 -5 -38t-13 -62.5t-18.5 -75.5t-20.5 -76q17 -4 25.5 -16.5t8.5 -26.5q0 -17 -11 -31.5t-33 -14.5h-9q-3 0 -5 1q-6 -23 -12.5 -48t-11.5 -49.5t-9 -47t-4 -40.5q30 24 57.5 53t53.5 58q7 8 15 16.5t20 20.5
q14 14 32 14t32 -14t14 -32t-14 -32q-11 -11 -21.5 -22.5t-21.5 -22.5q-19 -21 -42.5 -45.5t-48.5 -46.5t-49.5 -36.5t-45.5 -14.5t-34.5 9t-21.5 23t-11.5 31t-3.5 34q0 19 3 43.5t8 51t10.5 53.5t11.5 51q-95 6 -176 6h-61q-35 -39 -64.5 -79t-52 -78.5t-35 -75.5
t-12.5 -70q0 -23 -14 -34t-31 -11t-31 11t-14 34q0 30 7 60t19 61q9 23 23 49t28 49q-8 7 -16.5 21.5t-8.5 37.5q0 30 14 50.5t36.5 33t51.5 19t58 9.5q37 39 72.5 73t66.5 61q24 22 53 46t58 46t57 40t50 29q-18 14 -29 36t-11 51t11.5 51t29 36.5t39 22t41.5 7.5
q18 0 36 -6t32.5 -18.5t23 -31.5t8.5 -45zM521 516q-44 -30 -104 -79.5t-123 -110.5q40 -1 83.5 -2.5t90.5 -4.5q14 54 28.5 104t24.5 93zM614 721q0 8 -1.5 9.5t-8.5 1.5q-14 0 -22.5 -8t-8.5 -19t4.5 -15t11.5 -4t16 6.5t9 28.5z" />
    <glyph glyph-name="AE" unicode="&#xc6;" horiz-adv-x="859" 
d="M913 154q0 -18 -14 -32l-16 -16q-34 -34 -73 -71t-82.5 -68.5t-91.5 -52t-99 -20.5q-45 0 -80 14t-59.5 38.5t-37.5 57t-13 69.5q0 42 17 79.5t50 68.5h-39t-52.5 -0.5t-59.5 -1t-60 -1.5q-66 -78 -112 -159t-65 -156q-5 -18 -17 -26t-26 -8q-17 0 -31.5 11.5t-14.5 31.5
q0 8 1 13q13 51 38 105t59 109q-11 8 -19.5 22.5t-8.5 34.5q0 32 13.5 53t35 33t49.5 17.5t57 7.5q55 62 118 117t130 98.5t136 73t135 40.5q12 2 24.5 3t24.5 1q23 0 44 -7t37.5 -20t26 -32t9.5 -44q0 -29 -14.5 -56t-38.5 -47q-7 -6 -14.5 -8.5t-14.5 -2.5
q-19 0 -32.5 14.5t-13.5 32.5q0 20 17 34q13 11 17 19.5t4 13.5q0 9 -10.5 11t-16.5 2q-43 0 -79 -14.5t-62.5 -39.5t-41 -57t-14.5 -67q0 -15 2.5 -30t8.5 -30q31 0 55.5 -0.5t50.5 -2.5q23 -2 35 -15t12 -30q0 -16 -12 -29.5t-35 -15.5q-62 -5 -103 -21t-65.5 -37.5
t-34.5 -45t-10 -42.5q0 -36 23.5 -62.5t76.5 -26.5q34 0 68.5 15t69.5 40.5t70.5 59t73.5 71.5l16 16q14 14 32 14t32 -14t14 -32zM451 442q-42 -29 -83 -61.5t-79 -70.5q32 1 74 1.5t86 0.5q-5 16 -6.5 31t-1.5 30q0 38 10 69z" />
    <glyph glyph-name="Ccedilla" unicode="&#xc7;" horiz-adv-x="497" 
d="M239 -172q0 -29 -11 -48t-27.5 -30t-36 -15t-36.5 -4q-26 0 -46 10t-20 36q0 17 11.5 31.5t31.5 14.5q9 0 16.5 -1.5t14.5 -1.5q13 0 13 5t-8 8t-34 6q-19 2 -33.5 14t-14.5 32q0 11 4.5 20t18.5 20l9 9q-50 23 -73.5 73.5t-23.5 109.5q0 76 21.5 144.5t56 126.5
t78 104.5t87.5 79t85.5 50t70.5 17.5q53 0 86 -33.5t33 -93.5q0 -35 -15.5 -76.5t-41 -76.5t-58.5 -58.5t-67 -23.5q-25 0 -46 17t-21 48q0 14 8 29.5t21 29t28.5 22t30.5 8.5q20 0 33 -16q15 20 26.5 45.5t11.5 51.5q0 25 -7.5 31t-21.5 6q-16 0 -44.5 -14t-63 -40
t-70.5 -64t-65 -86t-47.5 -105.5t-18.5 -122.5q0 -57 23 -83.5t63 -26.5q32 0 64 8.5t66.5 28t73 50.5t83.5 76l16 16q14 14 32 14t32 -14t14 -32t-14 -32l-16 -16q-83 -82 -157 -129t-153 -57q-3 -11 -14 -19q18 -12 30 -29.5t12 -43.5z" />
    <glyph glyph-name="Egrave" unicode="&#xc8;" horiz-adv-x="479" 
d="M533 154q0 -18 -14 -32l-16 -16q-34 -34 -73 -71t-82.5 -68.5t-91.5 -52t-99 -20.5q-45 0 -80 14t-59.5 38.5t-37.5 57t-13 69.5q0 64 34 119.5t86 93.5q-13 21 -19 44.5t-6 47.5q0 52 23 99.5t62 83.5t91.5 57.5t111.5 21.5q23 0 44 -7t37.5 -20t26 -32t9.5 -44
q0 -29 -14.5 -55.5t-38.5 -46.5q-14 -12 -29 -12q-19 0 -32.5 14.5t-13.5 32.5q0 20 17 34q13 11 17 19.5t4 13.5q0 9 -10.5 11t-16.5 2q-43 0 -79.5 -15.5t-62.5 -40t-41 -55t-15 -61.5q0 -28 14 -48q23 8 46.5 14t47.5 6q33 0 52 -20t19 -45q0 -27 -24.5 -50t-79.5 -23
q-38 0 -70 13q-42 -26 -71 -66t-29 -86q0 -36 23.5 -62.5t76.5 -26.5q37 0 74.5 18t74 45.5t70 60t63.5 62.5l16 16q14 14 32 14t32 -14t14 -32zM524 697q0 -18 -14 -32t-32 -14t-32 14t-30 30.5t-31 32.5t-29.5 30.5l-25.5 25.5q-15 14 -15 32t14 32.5t32 14.5q17 0 31 -13
l25.5 -25.5t30.5 -31t32 -33.5t30 -31t14 -32z" />
    <glyph glyph-name="Eacute" unicode="&#xc9;" horiz-adv-x="479" 
d="M533 154q0 -18 -14 -32l-16 -16q-34 -34 -73 -71t-82.5 -68.5t-91.5 -52t-99 -20.5q-45 0 -80 14t-59.5 38.5t-37.5 57t-13 69.5q0 64 34 119.5t86 93.5q-13 21 -19 44.5t-6 47.5q0 52 23 99.5t62 83.5t91.5 57.5t111.5 21.5q23 0 44 -7t37.5 -20t26 -32t9.5 -44
q0 -29 -14.5 -55.5t-38.5 -46.5q-14 -12 -29 -12q-19 0 -32.5 14.5t-13.5 32.5q0 20 17 34q13 11 17 19.5t4 13.5q0 9 -10.5 11t-16.5 2q-43 0 -79.5 -15.5t-62.5 -40t-41 -55t-15 -61.5q0 -28 14 -48q23 8 46.5 14t47.5 6q33 0 52 -20t19 -45q0 -27 -24.5 -50t-79.5 -23
q-38 0 -70 13q-42 -26 -71 -66t-29 -86q0 -36 23.5 -62.5t76.5 -26.5q37 0 74.5 18t74 45.5t70 60t63.5 62.5l16 16q14 14 32 14t32 -14t14 -32zM538 815q0 -17 -15 -32q-10 -10 -26.5 -23.5t-35.5 -29.5l-38 -32t-35 -30q-14 -13 -30 -13q-18 0 -32 14.5t-14 32.5
q0 17 16 32q16 14 35 30t37.5 31t34.5 28.5t26 23.5q16 14 31 14q18 0 32 -14t14 -32z" />
    <glyph glyph-name="Ecircumflex" unicode="&#xca;" horiz-adv-x="479" 
d="M533 154q0 -18 -14 -32l-16 -16q-34 -34 -73 -71t-82.5 -68.5t-91.5 -52t-99 -20.5q-45 0 -80 14t-59.5 38.5t-37.5 57t-13 69.5q0 64 34 119.5t86 93.5q-13 21 -19 44.5t-6 47.5q0 52 23 99.5t62 83.5t91.5 57.5t111.5 21.5q23 0 44 -7t37.5 -20t26 -32t9.5 -44
q0 -29 -14.5 -55.5t-38.5 -46.5q-14 -12 -29 -12q-19 0 -32.5 14.5t-13.5 32.5q0 20 17 34q13 11 17 19.5t4 13.5q0 9 -10.5 11t-16.5 2q-43 0 -79.5 -15.5t-62.5 -40t-41 -55t-15 -61.5q0 -28 14 -48q23 8 46.5 14t47.5 6q33 0 52 -20t19 -45q0 -27 -24.5 -50t-79.5 -23
q-38 0 -70 13q-42 -26 -71 -66t-29 -86q0 -36 23.5 -62.5t76.5 -26.5q37 0 74.5 18t74 45.5t70 60t63.5 62.5l16 16q14 14 32 14t32 -14t14 -32zM513 716q0 -19 -14.5 -31.5t-32.5 -12.5q-11 0 -21.5 5.5t-17.5 19.5q-8 17 -20.5 37.5t-25.5 40.5q-25 -25 -51.5 -48
t-43.5 -37q-13 -10 -27 -10q-19 0 -32.5 14.5t-13.5 32.5q0 20 19 35q11 9 27 22.5t33 29t33 31.5t27 29q15 17 34 17t34 -17q10 -12 22 -29t24 -36t22.5 -38t18.5 -34q6 -11 6 -21z" />
    <glyph glyph-name="Edieresis" unicode="&#xcb;" horiz-adv-x="479" 
d="M533 154q0 -18 -14 -32l-16 -16q-34 -34 -73 -71t-82.5 -68.5t-91.5 -52t-99 -20.5q-45 0 -80 14t-59.5 38.5t-37.5 57t-13 69.5q0 64 34 119.5t86 93.5q-13 21 -19 44.5t-6 47.5q0 52 23 99.5t62 83.5t91.5 57.5t111.5 21.5q23 0 44 -7t37.5 -20t26 -32t9.5 -44
q0 -29 -14.5 -55.5t-38.5 -46.5q-14 -12 -29 -12q-19 0 -32.5 14.5t-13.5 32.5q0 20 17 34q13 11 17 19.5t4 13.5q0 9 -10.5 11t-16.5 2q-43 0 -79.5 -15.5t-62.5 -40t-41 -55t-15 -61.5q0 -28 14 -48q23 8 46.5 14t47.5 6q33 0 52 -20t19 -45q0 -27 -24.5 -50t-79.5 -23
q-38 0 -70 13q-42 -26 -71 -66t-29 -86q0 -36 23.5 -62.5t76.5 -26.5q37 0 74.5 18t74 45.5t70 60t63.5 62.5l16 16q14 14 32 14t32 -14t14 -32zM526 735q0 -18 -14 -32l-13 -13q-14 -14 -32 -14t-32 14t-14 32t14 32l13 13q14 14 32 14t32 -14t14 -32zM373 754
q0 -14 -11 -28l-11 -14q-14 -18 -34 -18q-18 0 -32.5 13.5t-14.5 32.5q0 14 11 28l11 14q14 18 34 18q18 0 32.5 -13.5t14.5 -32.5z" />
    <glyph glyph-name="Igrave" unicode="&#xcc;" horiz-adv-x="319" 
d="M325 563q0 -5 -0.5 -9t-1.5 -9q-7 -45 -23 -106.5t-36.5 -126.5t-44.5 -128t-46 -110q-23 -49 -47.5 -85t-50 -61t-51.5 -41.5t-52 -26.5q-5 -2 -9 -3t-9 -1q-20 0 -31.5 15t-11.5 32q0 12 6.5 23.5t22.5 17.5t34.5 17t37.5 30t39 48.5t40 72.5t42 100.5t41.5 117.5
t34.5 117t23 99q-44 -2 -81 -23t-63.5 -56t-41 -81t-14.5 -98q0 -18 3 -37.5t8 -38t11 -35t11 -28.5t5 -20q0 -20 -15 -32.5t-33 -12.5q-11 0 -21.5 6.5t-17.5 20.5q-7 15 -14 35.5t-13 44t-10 48.5t-4 49q0 63 19.5 125.5t58 112t94 80t127.5 30.5q12 0 27 -3t27.5 -11
t21 -22t8.5 -37zM432 707q0 -18 -14 -32t-32 -14t-32 14t-30 30.5t-31 32.5t-29.5 30.5l-25.5 25.5q-15 14 -15 32t14 32.5t32 14.5q17 0 31 -13l25.5 -25.5t30.5 -31t32 -33.5t30 -31t14 -32z" />
    <glyph glyph-name="Iacute" unicode="&#xcd;" horiz-adv-x="319" 
d="M325 563q0 -5 -0.5 -9t-1.5 -9q-7 -45 -23 -106.5t-36.5 -126.5t-44.5 -128t-46 -110q-23 -49 -47.5 -85t-50 -61t-51.5 -41.5t-52 -26.5q-5 -2 -9 -3t-9 -1q-20 0 -31.5 15t-11.5 32q0 12 6.5 23.5t22.5 17.5t34.5 17t37.5 30t39 48.5t40 72.5t42 100.5t41.5 117.5
t34.5 117t23 99q-44 -2 -81 -23t-63.5 -56t-41 -81t-14.5 -98q0 -18 3 -37.5t8 -38t11 -35t11 -28.5t5 -20q0 -20 -15 -32.5t-33 -12.5q-11 0 -21.5 6.5t-17.5 20.5q-7 15 -14 35.5t-13 44t-10 48.5t-4 49q0 63 19.5 125.5t58 112t94 80t127.5 30.5q12 0 27 -3t27.5 -11
t21 -22t8.5 -37zM483 827q0 -17 -15 -32q-10 -10 -26.5 -23.5t-35.5 -29.5l-38 -32t-35 -30q-14 -13 -30 -13q-18 0 -32 14.5t-14 32.5q0 17 16 32q16 14 35 30t37.5 31t34.5 28.5t26 23.5q16 14 31 14q18 0 32 -14t14 -32z" />
    <glyph glyph-name="Icircumflex" unicode="&#xce;" horiz-adv-x="319" 
d="M384 563q0 -5 -0.5 -9t-1.5 -9q-7 -45 -23 -106.5t-36.5 -126.5t-44.5 -128t-46 -110q-23 -49 -47.5 -85t-50 -61t-51.5 -41.5t-52 -26.5q-5 -2 -9 -3t-9 -1q-20 0 -31.5 15t-11.5 32q0 12 6.5 23.5t22.5 17.5t34.5 17t37.5 30t39 48.5t40 72.5t42 100.5t41.5 117.5
t34.5 117t23 99q-44 -2 -81 -23t-63.5 -56t-41 -81t-14.5 -98q0 -18 3 -37.5t8 -38t11 -35t11 -28.5t5 -20q0 -20 -15 -32.5t-33 -12.5q-11 0 -21.5 6.5t-17.5 20.5q-7 15 -14 35.5t-13 44t-10 48.5t-4 49q0 63 19.5 125.5t58 112t94 80t127.5 30.5q12 0 27 -3t27.5 -11
t21 -22t8.5 -37zM468 714q0 -19 -14.5 -31.5t-32.5 -12.5q-11 0 -21.5 5.5t-17.5 19.5q-8 17 -20.5 38t-25.5 40q-25 -24 -51.5 -47.5t-43.5 -37.5q-13 -10 -27 -10q-19 0 -32.5 14.5t-13.5 32.5q0 20 19 35q11 9 27 22.5t33 29.5t33 31.5t27 28.5q15 17 34 17t34 -17
q10 -12 22 -29t24 -36t22.5 -38t18.5 -34q6 -11 6 -21z" />
    <glyph glyph-name="Idieresis" unicode="&#xcf;" horiz-adv-x="319" 
d="M325 563q0 -5 -0.5 -9t-1.5 -9q-7 -45 -23 -106.5t-36.5 -126.5t-44.5 -128t-46 -110q-23 -49 -47.5 -85t-50 -61t-51.5 -41.5t-52 -26.5q-5 -2 -9 -3t-9 -1q-20 0 -31.5 15t-11.5 32q0 12 6.5 23.5t22.5 17.5t34.5 17t37.5 30t39 48.5t40 72.5t42 100.5t41.5 117.5
t34.5 117t23 99q-44 -2 -81 -23t-63.5 -56t-41 -81t-14.5 -98q0 -18 3 -37.5t8 -38t11 -35t11 -28.5t5 -20q0 -20 -15 -32.5t-33 -12.5q-11 0 -21.5 6.5t-17.5 20.5q-7 15 -14 35.5t-13 44t-10 48.5t-4 49q0 63 19.5 125.5t58 112t94 80t127.5 30.5q12 0 27 -3t27.5 -11
t21 -22t8.5 -37zM449 746q0 -18 -14 -32l-13 -13q-14 -14 -32 -14t-32 14t-14 32t14 32l13 13q14 14 32 14t32 -14t14 -32zM296 765q0 -14 -11 -28l-11 -14q-14 -18 -34 -18q-18 0 -32.5 13.5t-14.5 32.5q0 14 11 28l11 14q14 18 34 18q18 0 32.5 -13.5t14.5 -32.5z" />
    <glyph glyph-name="Eth" unicode="&#xd0;" horiz-adv-x="749" 
d="M690 386q0 -47 -11.5 -98.5t-34 -101.5t-54.5 -95.5t-73.5 -80t-91 -55t-106.5 -20.5q-40 0 -80.5 11.5t-78.5 34.5q-14 9 -18 20q-11 -16 -25 -24t-28 -8q-21 0 -37 18.5t-16 54.5q0 51 9 108.5t27 116.5h-17q-23 0 -34 14t-11 31t11 31t34 14l51 1q25 55 59 104
t76.5 86t94.5 58.5t113 21.5q57 0 102 -19t76 -52t47 -77t16 -94zM600 386q0 67 -38.5 109.5t-112.5 42.5q-36 0 -67.5 -10.5t-59.5 -30.5l-47 -138l146 2q23 0 34 -14t11 -31t-11 -31t-34 -14l-177 -2q-24 -69 -42 -118.5t-33 -88.5q6 3 14 3q12 0 25 -8q28 -17 55.5 -24.5
t55.5 -7.5q58 0 109 33t89 85t60.5 116.5t22.5 126.5z" />
    <glyph glyph-name="Ntilde" unicode="&#xd1;" horiz-adv-x="667" 
d="M721 153q0 -17 -14 -31l-16 -16q-16 -16 -40.5 -39t-52 -44t-56 -36t-53.5 -15q-26 0 -44 11t-28.5 28.5t-15 38t-4.5 39.5q0 47 23.5 95.5t51.5 95t51.5 88.5t23.5 76q0 20 -19 20q-28 0 -64 -28.5t-75 -72.5t-78.5 -96.5t-74.5 -102t-62 -88.5t-41 -55q-10 -11 -25 -22
t-38 -11q-18 0 -28.5 7.5t-16.5 17.5t-7.5 20t-1.5 15q0 24 13 59.5t33 76.5t44.5 84.5t46.5 83.5t39 73t23 52q-15 -3 -34.5 -10t-40.5 -17.5t-40.5 -24t-33.5 -27.5t-31 -14q-18 0 -32.5 14.5t-14.5 32.5q0 17 14 31q20 20 48.5 39t59 34t61 24t54.5 9q36 0 59 -21t23 -58
q0 -18 -6 -39.5t-15.5 -43t-21 -42t-22.5 -38.5l18 23l18 22.5t35 40.5t46.5 48t54 46t58 34.5t56.5 13.5q47 0 78 -30.5t31 -79.5q0 -46 -23.5 -94.5t-51.5 -95t-51.5 -89t-23.5 -76.5q0 -25 7 -25t22 11q14 9 31 23t33 28t28.5 26t18.5 18l16 16q14 14 31 14
q18 0 32.5 -14.5t14.5 -32.5zM651 736v-8t-2 -9q-6 -18 -16 -36.5t-24.5 -33.5t-33.5 -24t-43 -9q-27 0 -49 10.5t-39.5 23.5t-29.5 23.5t-19 10.5q-6 -4 -10.5 -16t-6.5 -18q-5 -17 -16.5 -24.5t-25.5 -7.5q-17 0 -31.5 11.5t-14.5 31.5q0 10 2 15q5 18 13.5 35.5t21 31.5
t29 22.5t38.5 8.5q25 0 45 -10.5t36.5 -23.5t30 -23.5t26.5 -10.5q3 0 11.5 6t19.5 37q5 17 17 23.5t25 6.5q17 0 31.5 -11.5t14.5 -31.5z" />
    <glyph glyph-name="Ograve" unicode="&#xd2;" horiz-adv-x="604" 
d="M564 350q0 -98 -35 -182t-90 -146t-121.5 -97.5t-129.5 -35.5q-84 0 -133.5 60t-49.5 171q0 58 15 123t43.5 124t68.5 107t91 71q12 5 20 5q11 0 19.5 -5t14.5 -13q23 19 52 29.5t63 10.5q37 0 68.5 -15.5t54.5 -44t36 -69.5t13 -93zM474 350q0 40 -8 65.5t-20.5 40.5
t-27 20.5t-26.5 5.5q-18 0 -39 -9.5t-39 -29.5t-29.5 -50t-11.5 -70q0 -41 17 -67q8 -14 8 -25q0 -19 -14.5 -32t-32.5 -13q-11 0 -20.5 5.5t-16.5 16.5q-17 26 -24 55.5t-7 59.5q0 43 14 88q-22 -26 -41 -60.5t-32.5 -72.5t-21 -78.5t-7.5 -79.5q0 -43 8 -70.5t21.5 -43
t30 -21.5t33.5 -6q40 0 90 26.5t93.5 75.5t73 117.5t29.5 151.5zM516 626q0 -18 -13.5 -32t-32.5 -14q-8 0 -16 3t-16 11q-14 14 -29.5 30.5l-31 33t-30 31t-25.5 24.5q-15 15 -15 32q0 18 14 32.5t32 14.5q8 0 16 -3t15 -10q12 -11 26.5 -25.5t30 -31t31.5 -33t30 -31.5
q14 -14 14 -32z" />
    <glyph glyph-name="Oacute" unicode="&#xd3;" horiz-adv-x="604" 
d="M564 354q0 -98 -35 -182t-90 -146t-121.5 -97.5t-129.5 -35.5q-84 0 -133.5 60t-49.5 171q0 57 15 122t43.5 124.5t68.5 107.5t91 71q12 5 20 5q11 0 19.5 -5t14.5 -13q23 18 52 29t63 11q37 0 68.5 -15.5t54.5 -44t36 -69.5t13 -93zM474 354q0 40 -8 65.5t-20.5 40.5
t-27 20.5t-26.5 5.5q-18 0 -39 -9.5t-39 -29.5t-29.5 -50t-11.5 -70q0 -42 17 -67q8 -14 8 -25q0 -19 -14.5 -32t-32.5 -13q-23 0 -37 22q-17 26 -24 55t-7 60q0 43 14 88q-22 -26 -41 -60.5t-32.5 -72.5t-21 -78.5t-7.5 -79.5q0 -43 8 -70.5t21.5 -43t30 -21.5t33.5 -6
q40 0 90 26.5t93.5 75.5t73 117.5t29.5 151.5zM631 761q0 -17 -15 -32q-10 -10 -26.5 -23.5t-35.5 -29.5l-38 -32t-35 -30q-14 -13 -30 -13q-18 0 -32 14.5t-14 32.5q0 17 16 32q16 14 35 29.5t37.5 31t34.5 29t26 23.5q16 14 31 14q18 0 32 -14t14 -32z" />
    <glyph glyph-name="Ocircumflex" unicode="&#xd4;" horiz-adv-x="604" 
d="M564 354q0 -98 -35 -182t-90 -146t-121.5 -97.5t-129.5 -35.5q-84 0 -133.5 60.5t-49.5 170.5q0 58 15 123t43.5 124.5t68.5 107t91 70.5q12 5 20 5q21 0 34 -18q23 19 52 29.5t63 10.5q37 0 68.5 -15.5t54.5 -44t36 -69.5t13 -93zM474 354q0 40 -8 65.5t-20.5 40.5
t-27 20.5t-26.5 5.5q-18 0 -39 -9.5t-39 -29.5t-29.5 -50t-11.5 -70q0 -41 17 -67q8 -13 8 -25q0 -19 -15 -32t-32 -13q-11 0 -20.5 5.5t-16.5 16.5q-17 26 -24 55.5t-7 59.5q0 23 3 45t11 43q-22 -26 -41 -60.5t-32.5 -72.5t-21 -78.5t-7.5 -79.5q0 -43 8 -70.5t21.5 -43
t30 -21.5t33.5 -6q40 0 90 27t93.5 75.5t73 117t29.5 151.5zM551 627q0 -20 -15 -32t-32 -12q-11 0 -21.5 5.5t-17.5 19.5q-8 17 -20.5 37.5t-25.5 40.5q-25 -25 -51.5 -48t-43.5 -37q-13 -10 -27 -10q-19 0 -32.5 14.5t-13.5 32.5q0 20 19 35q11 9 27 22.5t33 29t33 31.5
t27 29q14 17 34 17q19 0 34 -17q10 -12 22 -29.5t24 -36t22.5 -37.5t18.5 -34q6 -12 6 -21z" />
    <glyph glyph-name="Otilde" unicode="&#xd5;" horiz-adv-x="604" 
d="M562 352q0 -98 -35 -182t-90 -146t-121.5 -97.5t-129.5 -35.5q-84 0 -133.5 60.5t-49.5 170.5q0 58 15 123t43.5 124.5t68.5 107t91 70.5q12 5 20 5q21 0 34 -18q23 19 52 29.5t63 10.5q37 0 68.5 -15t54.5 -43.5t36 -70t13 -93.5zM472 352q0 40 -8 65.5t-20.5 40.5
t-27 20.5t-26.5 5.5q-18 0 -39 -9.5t-39 -29.5t-29.5 -50t-11.5 -70q0 -41 17 -67q8 -13 8 -25q0 -19 -14.5 -32t-32.5 -13q-22 0 -37 22q-17 26 -24 55.5t-7 59.5q0 44 14 88q-22 -26 -41 -60t-32.5 -72.5t-21 -79t-7.5 -79.5q0 -43 8 -70.5t21.5 -43t30 -21.5t33.5 -6
q41 0 90.5 27t93 75.5t73 117t29.5 151.5zM678 748v-8t-2 -9q-6 -18 -16 -36.5t-24 -33.5t-33.5 -24t-43.5 -9q-26 0 -48 10.5t-39.5 23.5t-30 23.5t-19.5 10.5q-5 -4 -10 -16t-7 -18q-5 -17 -16.5 -24.5t-25.5 -7.5q-17 0 -31.5 11.5t-14.5 31.5q0 5 2 15q6 18 14.5 35.5
t20.5 31.5t28.5 22.5t38.5 8.5q25 0 45 -10.5t36.5 -23.5t30 -23.5t26.5 -10.5q3 0 11.5 6t19.5 37q6 16 17.5 23t24.5 7q18 0 32 -11.5t14 -31.5z" />
    <glyph glyph-name="Odieresis" unicode="&#xd6;" horiz-adv-x="604" 
d="M562 331q0 -98 -35 -182t-90 -146t-121.5 -97.5t-129.5 -35.5q-84 0 -133.5 60t-49.5 171q0 58 15 123t43.5 124.5t68.5 107t91 70.5q12 5 20 5q11 0 19.5 -5t14.5 -13q23 19 52 29.5t63 10.5q37 0 68.5 -15.5t54.5 -44t36 -69.5t13 -93zM472 331q0 40 -8 65.5
t-20.5 40.5t-27 20.5t-26.5 5.5q-18 0 -39 -9.5t-39 -29.5t-29.5 -50t-11.5 -70q0 -41 17 -67q8 -14 8 -25q0 -19 -14.5 -32t-32.5 -13q-22 0 -37 22q-17 26 -24 55.5t-7 59.5q0 43 14 88q-22 -26 -41 -60.5t-32.5 -72.5t-21 -78.5t-7.5 -79.5q0 -43 8 -70.5t21.5 -43
t30 -21.5t33.5 -6q41 0 90.5 26.5t93 75.5t73 117.5t29.5 151.5zM561 636q0 -8 -3 -16t-11 -16l-13 -13q-14 -14 -32 -14t-32 14t-14 32t14 32l13 13q8 8 16 11t16 3q19 0 32.5 -13.5t13.5 -32.5zM408 655q0 -14 -11 -28l-11 -14q-15 -18 -34 -18q-18 0 -32.5 14t-14.5 32
q0 14 11 28l11 14q14 18 34 18q18 0 32.5 -13.5t14.5 -32.5z" />
    <glyph glyph-name="multiply" unicode="&#xd7;" horiz-adv-x="471" 
d="M457 328q0 -19 -17 -33q-39 -34 -80 -64t-84 -59q21 -28 43.5 -55.5t45.5 -53.5q13 -14 13 -30q0 -18 -14.5 -32t-32.5 -14q-17 0 -32 16q-26 28 -50 57.5t-47 60.5q-36 -25 -71 -50.5t-69 -53.5q-7 -6 -14.5 -8.5t-14.5 -2.5q-19 0 -32.5 14.5t-13.5 32.5q0 20 17 34
l9 7t23 17t31 22.5t33 24t29.5 21t19.5 14.5q-21 29 -42.5 57.5t-43.5 57.5q-10 13 -10 28q0 19 14.5 32.5t32.5 13.5q9 0 18 -4t17 -14q23 -29 44.5 -59.5t43.5 -60.5q42 29 81.5 58t77.5 61q15 12 29 12q19 0 32.5 -14.5t13.5 -32.5z" />
    <glyph glyph-name="Oslash" unicode="&#xd8;" horiz-adv-x="631" 
d="M610 617q0 -13 -10 -26q-18 -26 -39 -54q39 -53 39 -136q0 -69 -17.5 -131.5t-47.5 -116.5t-69.5 -97.5t-84.5 -74.5t-92 -47.5t-92 -16.5q-65 0 -112 35q-11 -13 -23.5 -26.5t-28.5 -30.5q-15 -15 -32 -15q-18 0 -32.5 14t-14.5 32q0 17 13 31q14 14 28.5 31t31.5 35
q-27 55 -27 138q0 103 38 186.5t97 142t129.5 90.5t136.5 32q49 0 90 -18q10 14 19.5 26t17.5 23q14 20 35 20q18 0 32.5 -13.5t14.5 -32.5zM434 518q-8 2 -16 3t-17 1q-47 0 -101.5 -24.5t-101 -71t-77.5 -113.5t-31 -152q0 -17 1 -32.5t4 -28.5q41 48 85 101t88 107
t86 107.5t80 102.5zM510 401q0 33 -9 57q-40 -52 -84.5 -108t-90.5 -113t-92 -112.5t-89 -104.5q23 -13 52 -13q46 0 100.5 28.5t101.5 80.5t79 124.5t32 160.5z" />
    <glyph glyph-name="Ugrave" unicode="&#xd9;" horiz-adv-x="682" 
d="M736 154q0 -18 -14 -32l-16 -16q-23 -23 -50.5 -49.5t-55.5 -49t-55.5 -37.5t-50.5 -15q-24 0 -39.5 10t-25 25t-13.5 34t-4 37q0 7 2 23.5t3 24.5q-25 -38 -52 -71.5t-55 -58.5t-56.5 -40t-56.5 -15q-36 0 -59 14t-36.5 35.5t-18.5 47.5t-5 51q0 56 13.5 113t36.5 123
q9 25 20 55t23 60l23 57.5l19 47.5l4 11q-41 -1 -79.5 -30.5t-62.5 -84.5q-6 -14 -16.5 -20.5t-22.5 -6.5q-17 0 -32.5 11.5t-15.5 31.5q0 8 5 20q16 36 39 67t52 53.5t63 35.5t72 13q37 0 63.5 -19.5t26.5 -59.5q0 -5 -5 -21t-13.5 -39t-18.5 -50.5t-20.5 -55t-20 -52.5
t-15.5 -43q-21 -63 -34.5 -116.5t-13.5 -100.5q0 -21 2.5 -32.5t6.5 -17.5t9.5 -7t10.5 -1q25 0 57 28t65.5 72.5t66.5 99.5t61.5 109t50.5 101.5t33 75.5q10 27 40 27q18 0 32 -12t14 -31q0 -9 -3 -19q-32 -88 -53.5 -153.5t-34.5 -113.5t-18.5 -81t-5.5 -56q0 -10 3 -10
q2 0 11 6q13 9 31.5 25t37 33t34 32t23.5 23l16 16q14 14 32 14t32 -14t14 -32zM576 625q0 -18 -14 -32t-32 -14t-32 14t-30 30.5t-31 32.5t-29.5 30.5l-25.5 25.5q-15 14 -15 32t14 32.5t32 14.5q17 0 31 -13l25.5 -25.5t30.5 -31t32 -33.5t30 -31t14 -32z" />
    <glyph glyph-name="Uacute" unicode="&#xda;" horiz-adv-x="682" 
d="M736 154q0 -18 -14 -32l-16 -16q-23 -23 -50.5 -49.5t-55.5 -49t-55.5 -37.5t-50.5 -15q-24 0 -39.5 10t-25 25t-13.5 34t-4 37q0 7 2 23.5t3 24.5q-25 -38 -52 -71.5t-55 -58.5t-56.5 -40t-56.5 -15q-36 0 -59 14t-36.5 35.5t-18.5 47.5t-5 51q0 56 13.5 113t36.5 123
q9 25 20 55t23 60l23 57.5l19 47.5l4 11q-41 -1 -79.5 -30.5t-62.5 -84.5q-6 -14 -16.5 -20.5t-22.5 -6.5q-17 0 -32.5 11.5t-15.5 31.5q0 8 5 20q16 36 39 67t52 53.5t63 35.5t72 13q37 0 63.5 -19.5t26.5 -59.5q0 -5 -5 -21t-13.5 -39t-18.5 -50.5t-20.5 -55t-20 -52.5
t-15.5 -43q-21 -63 -34.5 -116.5t-13.5 -100.5q0 -21 2.5 -32.5t6.5 -17.5t9.5 -7t10.5 -1q25 0 57 28t65.5 72.5t66.5 99.5t61.5 109t50.5 101.5t33 75.5q10 27 40 27q18 0 32 -12t14 -31q0 -9 -3 -19q-32 -88 -53.5 -153.5t-34.5 -113.5t-18.5 -81t-5.5 -56q0 -10 3 -10
q2 0 11 6q13 9 31.5 25t37 33t34 32t23.5 23l16 16q14 14 32 14t32 -14t14 -32zM636 716q0 -17 -15 -32q-10 -10 -26.5 -23.5t-35.5 -29.5l-38 -32t-35 -30q-14 -13 -30 -13q-18 0 -32 14.5t-14 32.5q0 17 16 32q16 14 35 30t37.5 31t34.5 28.5t26 23.5q16 14 31 14
q18 0 32 -14t14 -32z" />
    <glyph glyph-name="Ucircumflex" unicode="&#xdb;" horiz-adv-x="682" 
d="M736 154q0 -18 -14 -32l-16 -16q-23 -23 -50.5 -49.5t-55.5 -49t-55.5 -37.5t-50.5 -15q-24 0 -39.5 10t-25 25t-13.5 34t-4 37q0 7 2 23.5t3 24.5q-25 -38 -52 -71.5t-55 -58.5t-56.5 -40t-56.5 -15q-36 0 -59 14t-36.5 35.5t-18.5 47.5t-5 51q0 56 13.5 113t36.5 123
q9 25 20 55t23 60l23 57.5l19 47.5l4 11q-41 -1 -79.5 -30.5t-62.5 -84.5q-6 -14 -16.5 -20.5t-22.5 -6.5q-17 0 -32.5 11.5t-15.5 31.5q0 8 5 20q16 36 39 67t52 53.5t63 35.5t72 13q37 0 63.5 -19.5t26.5 -59.5q0 -5 -5 -21t-13.5 -39t-18.5 -50.5t-20.5 -55t-20 -52.5
t-15.5 -43q-21 -63 -34.5 -116.5t-13.5 -100.5q0 -21 2.5 -32.5t6.5 -17.5t9.5 -7t10.5 -1q25 0 57 28t65.5 72.5t66.5 99.5t61.5 109t50.5 101.5t33 75.5q10 27 40 27q18 0 32 -12t14 -31q0 -9 -3 -19q-32 -88 -53.5 -153.5t-34.5 -113.5t-18.5 -81t-5.5 -56q0 -10 3 -10
q2 0 11 6q13 9 31.5 25t37 33t34 32t23.5 23l16 16q14 14 32 14t32 -14t14 -32zM647 624q0 -19 -14.5 -31.5t-32.5 -12.5q-11 0 -21.5 5.5t-17.5 19.5q-8 17 -20.5 37.5t-25.5 40.5q-25 -25 -51.5 -48t-43.5 -37q-13 -10 -27 -10q-19 0 -32.5 14.5t-13.5 32.5q0 20 19 35
q11 9 27 22.5t33 29t33 31.5t27 29q15 17 34 17t34 -17q10 -12 22 -29t24 -36t22.5 -38t18.5 -34q6 -11 6 -21z" />
    <glyph glyph-name="Udieresis" unicode="&#xdc;" horiz-adv-x="682" 
d="M736 154q0 -18 -14 -32l-16 -16q-23 -23 -50.5 -49.5t-55.5 -49t-55.5 -37.5t-50.5 -15q-24 0 -39.5 10t-25 25t-13.5 34t-4 37q0 7 2 23.5t3 24.5q-25 -38 -52 -71.5t-55 -58.5t-56.5 -40t-56.5 -15q-36 0 -59 14t-36.5 35.5t-18.5 47.5t-5 51q0 56 13.5 113t36.5 123
q9 25 20 55t23 60l23 57.5l19 47.5l4 11q-41 -1 -79.5 -30.5t-62.5 -84.5q-6 -14 -16.5 -20.5t-22.5 -6.5q-17 0 -32.5 11.5t-15.5 31.5q0 8 5 20q16 36 39 67t52 53.5t63 35.5t72 13q37 0 63.5 -19.5t26.5 -59.5q0 -5 -5 -21t-13.5 -39t-18.5 -50.5t-20.5 -55t-20 -52.5
t-15.5 -43q-21 -63 -34.5 -116.5t-13.5 -100.5q0 -21 2.5 -32.5t6.5 -17.5t9.5 -7t10.5 -1q25 0 57 28t65.5 72.5t66.5 99.5t61.5 109t50.5 101.5t33 75.5q10 27 40 27q18 0 32 -12t14 -31q0 -9 -3 -19q-32 -88 -53.5 -153.5t-34.5 -113.5t-18.5 -81t-5.5 -56q0 -10 3 -10
q2 0 11 6q13 9 31.5 25t37 33t34 32t23.5 23l16 16q14 14 32 14t32 -14t14 -32zM589 633q0 -18 -14 -32l-13 -13q-14 -14 -32 -14t-32 14t-14 32t14 32l13 13q14 14 32 14t32 -14t14 -32zM436 652q0 -14 -11 -28l-11 -14q-14 -18 -34 -18q-18 0 -32.5 13.5t-14.5 32.5
q0 14 11 28l11 14q14 18 34 18q18 0 32.5 -13.5t14.5 -32.5z" />
    <glyph glyph-name="Yacute" unicode="&#xdd;" horiz-adv-x="581" 
d="M635 154q0 -18 -14 -32l-16 -16q-25 -25 -51.5 -47.5t-52 -41.5t-48.5 -34.5t-41 -26.5q-20 -55 -44.5 -107t-52.5 -93t-59.5 -66t-66.5 -25q-38 0 -61 26.5t-23 63.5q0 33 20 66.5t52 66.5t73.5 65t85.5 63q11 35 21.5 71.5t20.5 74.5q-24 -35 -50 -66t-52 -54
t-52.5 -36t-52.5 -13q-34 0 -57.5 16t-38.5 42.5t-22 61t-7 71.5q0 49 12.5 100t31 98t38.5 87t35 66q-35 -17 -70 -46t-58 -58q-14 -18 -34 -18q-18 0 -32.5 13.5t-14.5 32.5q0 14 11 28q16 20 43 46t60 49.5t70 39.5t73 16q27 0 47 -16.5t20 -45.5q0 -16 -6.5 -30
t-14.5 -28q-11 -18 -31 -55t-40 -83.5t-35 -98t-15 -97.5q0 -36 5 -56.5t11.5 -30.5t12 -12t6.5 -2q23 0 53 29.5t62 75.5t64 101t59 106t46.5 91.5t27.5 56.5q13 27 40 27q11 0 19 -4q20 -8 26 -27q1 -4 1 -12q0 -10 -3 -17.5t-6 -15.5q-24 -65 -37 -133t-30 -135
q-5 -19 -14 -53t-20 -74q27 20 51 42t47 45q14 14 32 14t32 -14t14 -32zM278 -138q-35 -30 -52.5 -52t-24.5 -36q-6 -12 -6 -16q0 -2 2 -2t14 9q17 14 34 39t33 58zM569 743q0 -17 -15 -32q-10 -10 -26.5 -23.5t-35.5 -29.5l-38 -32t-35 -30q-14 -13 -30 -13q-18 0 -32 14.5
t-14 32.5q0 17 16 32q16 14 35 30t37.5 31t34.5 28.5t26 23.5q16 14 31 14q18 0 32 -14t14 -32z" />
    <glyph glyph-name="Thorn" unicode="&#xde;" horiz-adv-x="524" 
d="M509 261q0 -45 -22.5 -86.5t-57 -73t-76.5 -50t-81 -18.5q-28 0 -47 6.5t-31 16t-17.5 22t-5.5 24.5q0 19 11 33.5t28 14.5t34 -17q5 -5 11 -7.5t17 -2.5q23 0 49 12.5t47.5 32.5t36 44.5t14.5 48.5q0 26 -13 46.5t-35.5 35.5t-52.5 23.5t-63 10.5q-27 -76 -58 -158.5
t-64 -154.5t-65 -125.5t-60 -70.5q-15 -9 -30 -9q-19 0 -31 12.5t-12 29.5q0 21 19 39q16 14 34.5 43t35 71.5t27.5 99t11 125.5q0 34 5.5 64t20 54t38.5 41t62 24q10 27 19.5 54t17.5 50.5t14 42t10 28.5q6 16 17 23t24 7q17 0 31.5 -11.5t14.5 -31.5q0 -8 -3 -17
q-11 -31 -22.5 -65.5t-25.5 -77.5q36 -5 75.5 -18t72.5 -37t54.5 -60.5t21.5 -87.5z" />
    <glyph glyph-name="germandbls" unicode="&#xdf;" horiz-adv-x="443" 
d="M529 530q0 -34 -12 -60.5t-31 -47.5t-43 -36.5t-48.5 -28.5t-47 -23t-38.5 -20q-13 -8 -19 -14t-6 -14q0 -9 9 -28q14 -32 28.5 -63t23.5 -68q16 9 30.5 19.5t27.5 23.5l16 16q14 14 32 14t32 -14t14 -32t-14 -32l-16 -16q-26 -26 -54.5 -45t-57.5 -33q-4 -36 -20 -68
t-41.5 -56t-58.5 -38.5t-72 -14.5q-20 0 -37.5 7.5t-30.5 20t-20.5 29.5t-7.5 37q0 33 17 55t44.5 37.5t62.5 27.5t72 26q-5 34 -17 60.5t-24 48.5t-21 43t-9 45q0 33 18.5 56.5t45.5 41.5t59.5 32.5t59.5 30.5t45.5 35t18.5 46q0 23 -18 40.5t-42 17.5q-36 0 -71 -27.5
t-68 -74t-64 -107.5t-59 -128t-52.5 -135t-44 -129t-34.5 -110t-23 -78q-5 -17 -16.5 -24.5t-25.5 -7.5q-17 0 -31.5 11.5t-14.5 31.5q0 5 2 15l30 102.5t42 133.5q22 67 49 138.5t58 140t67.5 130t76.5 108t85 73.5t94 27q30 0 57 -11.5t47.5 -31.5t33 -47t12.5 -58z
M248 -11q-30 -9 -52 -16t-33 -18q-3 -3 -5 -7q-1 -2 -1 -3q0 -4 6 -4q27 0 49 13.5t36 34.5z" />
    <glyph glyph-name="agrave" unicode="&#xe0;" horiz-adv-x="402" 
d="M456 154q0 -18 -14 -32l-40 -40q-15 -15 -33 -32.5t-37.5 -32t-39 -24t-37.5 -9.5q-32 0 -48.5 19t-22.5 45q-36 -39 -74 -66t-73 -27q-23 0 -40 9.5t-28 24.5t-16.5 35t-5.5 41q0 41 17 85.5t47 81t70 60.5t87 24t82 -33q3 4 5.5 8t6.5 7q11 11 28 11q18 0 32.5 -14
t14.5 -32q0 -13 -9 -26l-20 -28q-19 -27 -28 -56.5t-9 -55.5v-6q0 -5 2 -5l8 6q18 14 34 29.5t32 32.5l31 32q14 14 32 14t32 -14t14 -32zM196 207q-5 8 -11.5 13.5t-16.5 5.5q-22 0 -45 -14.5t-42 -37.5t-31.5 -51.5t-12.5 -57.5q0 -20 7 -20q5 0 17 9q16 13 37 36t41.5 47
t36 44t20.5 26zM342 376q0 -18 -14 -32t-32 -14t-32 14t-30 30.5t-31 32.5t-29.5 30.5l-25.5 25.5q-15 14 -15 32t14 32.5t32 14.5q17 0 31 -13l25.5 -25.5t30.5 -31t32 -33.5t30 -31t14 -32z" />
    <glyph glyph-name="aacute" unicode="&#xe1;" horiz-adv-x="402" 
d="M456 154q0 -18 -14 -32l-40 -40q-15 -15 -33 -32.5t-37.5 -32t-39 -24t-37.5 -9.5q-32 0 -50.5 16.5t-22.5 45.5q-36 -39 -73 -65t-72 -26q-23 0 -40 9.5t-28 24.5t-16.5 35t-5.5 41q0 41 17 85.5t47 81t70 60.5t87 24t82 -33q3 4 5.5 8t6.5 7q12 11 28 11q18 0 32.5 -14
t14.5 -32q0 -13 -9 -26q-9 -14 -19 -30.5t-18.5 -33t-15.5 -31.5t-11 -27q-2 -5 -3 -11t-1 -11q0 -12 7 -12q5 0 10 4q18 14 36 33t34 36l31 32q14 14 32 14t32 -14t14 -32zM196 207q-5 8 -11.5 13.5t-16.5 5.5q-22 0 -45 -14.5t-42 -37.5t-31.5 -51.5t-12.5 -57.5
q0 -20 7 -20q5 0 17 9q16 13 36.5 33t40 42t35.5 43t23 35zM436 488q0 -17 -15 -32q-10 -10 -26.5 -23.5t-35.5 -29.5l-38 -32t-35 -30q-14 -13 -30 -13q-18 0 -32 14.5t-14 32.5q0 17 16 32q16 14 35 30t37.5 31t34.5 28.5t26 23.5q16 14 31 14q18 0 32 -14t14 -32z" />
    <glyph glyph-name="acircumflex" unicode="&#xe2;" horiz-adv-x="402" 
d="M456 154q0 -18 -14 -32l-40 -40q-15 -15 -33 -32.5t-37.5 -32t-39 -24t-37.5 -9.5q-32 0 -48.5 19t-22.5 45q-36 -39 -74 -66t-73 -27q-23 0 -40 9.5t-28 24.5t-16.5 35t-5.5 41q0 41 17 85.5t47 81t70 60.5t87 24t82 -33q3 4 5.5 8t6.5 7q11 11 28 11q18 0 32.5 -14
t14.5 -32q0 -13 -9 -26l-20 -28q-19 -27 -28 -56.5t-9 -55.5v-6q0 -5 2 -5l8 6q18 14 34 29.5t32 32.5l31 32q14 14 32 14t32 -14t14 -32zM196 207q-5 8 -11.5 13.5t-16.5 5.5q-22 0 -45 -14.5t-42 -37.5t-31.5 -51.5t-12.5 -57.5q0 -20 7 -20q5 0 17 9q16 13 37 36t41.5 47
t36 44t20.5 26zM387 383q0 -19 -14.5 -31.5t-32.5 -12.5q-11 0 -21.5 5.5t-17.5 19.5q-8 17 -20.5 37.5t-25.5 40.5q-25 -25 -51.5 -48t-43.5 -37q-13 -10 -27 -10q-19 0 -32.5 14.5t-13.5 32.5q0 20 19 35q11 9 27 22.5t33 29t33 31.5t27 29q15 17 34 17t34 -17
q10 -12 22 -29t24 -36t22.5 -38t18.5 -34q6 -11 6 -21z" />
    <glyph glyph-name="atilde" unicode="&#xe3;" horiz-adv-x="402" 
d="M456 154q0 -18 -14 -32l-40 -40q-15 -15 -33 -32.5t-37.5 -32t-39 -24t-37.5 -9.5q-32 0 -48.5 19t-22.5 45q-36 -39 -74 -66t-73 -27q-23 0 -40 9.5t-28 24.5t-16.5 35t-5.5 41q0 41 17 85.5t47 81t70 60.5t87 24t82 -33q3 4 5.5 8t6.5 7q11 11 28 11q18 0 32.5 -14
t14.5 -32q0 -13 -9 -26l-20 -28q-19 -27 -28 -56.5t-9 -55.5v-6q0 -5 2 -5l8 6q18 14 34 29.5t32 32.5l31 32q14 14 32 14t32 -14t14 -32zM196 207q-5 8 -11.5 13.5t-16.5 5.5q-22 0 -45 -14.5t-42 -37.5t-31.5 -51.5t-12.5 -57.5q0 -20 7 -20q5 0 17 9q16 13 37 36t41.5 47
t36 44t20.5 26zM453 460v-8t-2 -9q-6 -18 -16 -36.5t-24.5 -33.5t-33.5 -24t-43 -9q-27 0 -49 10.5t-39.5 23.5t-29.5 23.5t-19 10.5q-6 -4 -10.5 -16t-6.5 -18q-5 -17 -16.5 -24.5t-25.5 -7.5q-17 0 -31.5 11.5t-14.5 31.5q0 10 2 15q5 18 13.5 35.5t21 31.5t29 22.5
t38.5 8.5q25 0 45 -10.5t36.5 -23.5t30 -23.5t26.5 -10.5q3 0 11.5 6t19.5 37q5 17 17 23.5t25 6.5q17 0 31.5 -11.5t14.5 -31.5z" />
    <glyph glyph-name="adieresis" unicode="&#xe4;" horiz-adv-x="402" 
d="M456 154q0 -18 -14 -32l-40 -40q-15 -15 -33 -32.5t-37.5 -32t-39 -24t-37.5 -9.5q-32 0 -48.5 19t-22.5 45q-36 -39 -74 -66t-73 -27q-23 0 -40 9.5t-28 24.5t-16.5 35t-5.5 41q0 41 17 85.5t47 81t70 60.5t87 24t82 -33q3 4 5.5 8t6.5 7q11 11 28 11q18 0 32.5 -14
t14.5 -32q0 -13 -9 -26l-20 -28q-19 -27 -28 -56.5t-9 -55.5v-6q0 -5 2 -5l8 6q18 14 34 29.5t32 32.5l31 32q14 14 32 14t32 -14t14 -32zM196 207q-5 8 -11.5 13.5t-16.5 5.5q-22 0 -45 -14.5t-42 -37.5t-31.5 -51.5t-12.5 -57.5q0 -20 7 -20q5 0 17 9q16 13 37 36t41.5 47
t36 44t20.5 26zM405 421q0 -18 -14 -32l-13 -13q-14 -14 -32 -14t-32 14t-14 32t14 32l13 13q14 14 32 14t32 -14t14 -32zM252 440q0 -14 -11 -28l-11 -14q-14 -18 -34 -18q-18 0 -32.5 13.5t-14.5 32.5q0 14 11 28l11 14q14 18 34 18q18 0 32.5 -13.5t14.5 -32.5z" />
    <glyph glyph-name="aring" unicode="&#xe5;" horiz-adv-x="402" 
d="M456 154q0 -18 -14 -32l-40 -40q-15 -15 -33 -32.5t-37.5 -32t-39 -24t-37.5 -9.5q-32 0 -48.5 19t-22.5 45q-36 -39 -74 -66t-73 -27q-23 0 -40 9.5t-28 24.5t-16.5 35t-5.5 41q0 41 17 85.5t47 81t70 60.5t87 24t82 -33q3 4 5.5 8t6.5 7q11 11 28 11q18 0 32.5 -14
t14.5 -32q0 -13 -9 -26l-20 -28q-19 -27 -28 -56.5t-9 -55.5v-6q0 -5 2 -5l8 6q18 14 34 29.5t32 32.5l31 32q14 14 32 14t32 -14t14 -32zM196 207q-5 8 -11.5 13.5t-16.5 5.5q-22 0 -45 -14.5t-42 -37.5t-31.5 -51.5t-12.5 -57.5q0 -20 7 -20q5 0 17 9q16 13 37 36t41.5 47
t36 44t20.5 26zM354 459q0 -30 -9.5 -53t-25.5 -39t-37 -24.5t-43 -8.5q-20 0 -39 7.5t-34 21.5t-24 34t-9 46q0 29 11.5 51t29 36.5t39 22t41.5 7.5q18 0 36 -6t32.5 -18.5t23 -31.5t8.5 -45zM264 459q0 8 -1.5 9.5t-8.5 1.5q-14 0 -22.5 -8t-8.5 -19t4.5 -15t11.5 -4
t16 6.5t9 28.5z" />
    <glyph glyph-name="ae" unicode="&#xe6;" horiz-adv-x="517" 
d="M571 154q0 -18 -14 -32l-16 -16q-23 -23 -50 -48.5t-56.5 -47t-62.5 -35.5t-68 -14q-48 0 -79.5 25.5t-45.5 69.5q-32 -38 -67 -63t-69 -25q-25 0 -43 10.5t-30 27.5t-17.5 38.5t-5.5 44.5q0 50 15.5 93t45 75t71 50t94.5 18h14q14 0 32 -1t37 -4q21 20 47.5 32.5
t57.5 12.5q42 0 72 -27t30 -73q0 -36 -17 -67.5t-44 -57t-60.5 -45.5t-66.5 -32q10 -12 29 -12t41 11t44.5 28t45 38.5t42.5 41.5l16 16q14 14 32 14t32 -14t14 -32zM373 265q0 3 -3 6.5t-9 3.5q-17 0 -32 -11t-27 -28t-21 -37.5t-14 -40.5q19 9 38 21t34 25.5t24.5 29
t9.5 31.5zM189 214q3 4 3 8q0 13 -19 13q-63 0 -99.5 -39t-36.5 -107q0 -31 9 -31q7 0 26 17q13 11 29.5 29t33.5 38t31.5 39t22.5 33z" />
    <glyph glyph-name="ccedilla" unicode="&#xe7;" horiz-adv-x="335" 
d="M169 -142q0 -29 -11 -48t-27.5 -30t-36 -15t-36.5 -4q-26 0 -46 10t-20 36q0 17 11.5 31.5t31.5 14.5q9 0 14.5 -1.5t13.5 -1.5q5 0 10.5 1t5.5 3q0 4 -6 8.5t-36 6.5q-19 2 -33.5 14t-14.5 32q0 11 4.5 20t18.5 20l12 11q-32 20 -46 54.5t-14 71.5q0 36 13 78t38.5 77.5
t62.5 59.5t85 24q41 0 68.5 -26.5t27.5 -72.5q0 -20 -14 -35.5t-36 -15.5q-16 0 -26 6.5t-16 15.5t-8 18t-2 15v5q-19 -2 -37.5 -15.5t-33 -34t-23.5 -46.5t-9 -53q0 -30 11.5 -43t35.5 -13q23 0 49.5 14t52.5 35t50 44t42 41l16 16q14 14 31 14q18 0 32.5 -14.5t14.5 -32.5
q0 -17 -14 -31l-16 -16q-29 -29 -55.5 -55t-53 -46.5t-53 -34.5t-56.5 -20q-3 -9 -14 -19q18 -12 30 -29.5t12 -43.5z" />
    <glyph glyph-name="egrave" unicode="&#xe8;" horiz-adv-x="322" 
d="M376 154q0 -18 -14 -32l-16 -16q-23 -23 -52.5 -48.5t-62 -47t-67.5 -35.5t-70 -14t-60 14t-41.5 36.5t-24.5 51.5t-8 60q0 52 19.5 94.5t48.5 73t63.5 47.5t64.5 17q45 0 71.5 -28.5t26.5 -68.5q0 -39 -18.5 -67.5t-48 -47.5t-65.5 -30t-70 -15q3 -18 12.5 -32.5
t29.5 -14.5q22 0 48.5 13t52.5 31.5t49 39t38 35.5l16 16q14 14 32 14t32 -14t14 -32zM164 258q0 7 -8 7q-27 0 -50.5 -22.5t-37.5 -51.5q17 3 34.5 9t31 14t22 19t8.5 25zM297 423q0 -18 -14 -32t-32 -14q-8 0 -16 3t-16 11q-14 14 -30 30.5t-31 33t-29.5 31t-25.5 24.5
q-15 14 -15 32q0 19 14 33t32 14q17 0 31 -13l25.5 -25.5t30.5 -31l32 -33t30 -31.5q14 -14 14 -32z" />
    <glyph glyph-name="eacute" unicode="&#xe9;" horiz-adv-x="322" 
d="M376 154q0 -18 -14 -32l-16 -16q-23 -23 -52.5 -48.5t-62 -47t-67.5 -35.5t-70 -14t-60 14t-41.5 36.5t-24.5 51.5t-8 60q0 52 19.5 94.5t48.5 73t63.5 47.5t64.5 17q45 0 71.5 -28.5t26.5 -68.5q0 -39 -18.5 -67.5t-48 -47.5t-65.5 -30t-70 -15q3 -18 12.5 -32.5
t29.5 -14.5q22 0 48.5 13t52.5 31.5t49 39t38 35.5l16 16q14 14 32 14t32 -14t14 -32zM164 258q0 7 -8 7q-27 0 -50.5 -22.5t-37.5 -51.5q17 3 34.5 9t31 14t22 19t8.5 25zM347 551q0 -17 -15 -32q-10 -10 -26.5 -23.5t-35.5 -29t-38 -31.5t-35 -31q-16 -13 -30 -13
q-18 0 -32 14.5t-14 32.5q0 17 16 32q16 14 35 30t37.5 31.5t34.5 29t26 22.5q14 14 31 14q18 0 32 -13.5t14 -32.5z" />
    <glyph glyph-name="ecircumflex" unicode="&#xea;" horiz-adv-x="322" 
d="M376 154q0 -18 -14 -32l-16 -16q-23 -23 -52.5 -48.5t-62 -47t-67.5 -35.5t-70 -14t-60 14t-41.5 36.5t-24.5 51.5t-8 60q0 52 19.5 94.5t48.5 73t63.5 47.5t64.5 17q45 0 71.5 -28.5t26.5 -68.5q0 -39 -18.5 -67.5t-48 -47.5t-65.5 -30t-70 -15q3 -18 12.5 -32.5
t29.5 -14.5q22 0 48.5 13t52.5 31.5t49 39t38 35.5l16 16q14 14 32 14t32 -14t14 -32zM164 258q0 7 -8 7q-27 0 -50.5 -22.5t-37.5 -51.5q17 3 34.5 9t31 14t22 19t8.5 25zM317 411q0 -20 -14.5 -32t-32.5 -12q-11 0 -21.5 5.5t-17.5 19.5q-8 17 -20.5 37.5t-25.5 40.5
q-25 -25 -51 -48.5t-44 -36.5q-13 -10 -27 -10q-18 0 -32 14.5t-14 32.5q0 20 19 35q11 8 27 21.5t33 29.5t33 32t27 29q15 17 34 17q20 0 34 -17q10 -12 22 -29.5t24 -36t22.5 -37.5t18.5 -34q6 -12 6 -21z" />
    <glyph glyph-name="edieresis" unicode="&#xeb;" horiz-adv-x="322" 
d="M376 154q0 -18 -14 -32l-16 -16q-23 -23 -52.5 -48.5t-62 -47t-67.5 -35.5t-70 -14t-60 14t-41.5 36.5t-24.5 51.5t-8 60q0 52 19.5 94.5t48.5 73t63.5 47.5t64.5 17q45 0 71.5 -28.5t26.5 -68.5q0 -39 -18.5 -67.5t-48 -47.5t-65.5 -30t-70 -15q3 -18 12.5 -32.5
t29.5 -14.5q22 0 48.5 13t52.5 31.5t49 39t38 35.5l16 16q14 14 32 14t32 -14t14 -32zM164 258q0 7 -8 7q-27 0 -50.5 -22.5t-37.5 -51.5q17 3 34.5 9t31 14t22 19t8.5 25zM341 471q0 -8 -3 -16t-11 -16l-13 -13q-16 -14 -32 -14q-18 0 -32 14t-14 32q0 19 14 32l13 13
q8 8 16 11t16 3q18 0 32 -13.5t14 -32.5zM188 490q0 -12 -11 -28l-11 -14q-15 -18 -34 -18q-18 0 -32.5 14t-14.5 32q0 14 11 28l11 14q14 18 34 18q18 0 32.5 -13.5t14.5 -32.5z" />
    <glyph glyph-name="igrave" unicode="&#xec;" horiz-adv-x="285" 
d="M339 154q0 -18 -14 -32l-16 -16q-29 -29 -55.5 -54t-52 -44t-51.5 -30t-53 -11q-42 0 -64.5 25t-22.5 63q0 17 8 46q-12 -9 -26 -9q-18 0 -32 14t-14 32t14 32l16 16q35 35 66.5 71.5t48.5 55.5q3 4 16 10t18 6q21 0 36.5 -15t15.5 -35q0 -7 -4 -17q-4 -9 -16 -38.5
t-24.5 -64t-22.5 -64.5t-10 -40q12 0 32.5 14.5t42.5 34t41.5 38.5t28.5 28l16 16q14 14 32 14t32 -14t14 -32zM257 371q0 -18 -14 -32t-32 -14q-19 0 -32 14q-14 14 -30 30.5t-31.5 32.5t-29.5 30.5t-25 25.5q-15 14 -15 32t13.5 32.5t32.5 14.5q17 0 31 -13l25.5 -25.5
t30 -31t31.5 -33.5t31 -31q14 -16 14 -32z" />
    <glyph glyph-name="iacute" unicode="&#xed;" horiz-adv-x="285" 
d="M339 154q0 -18 -14 -32l-16 -16q-23 -23 -49 -47.5t-53.5 -45t-55.5 -33.5t-54 -13q-42 0 -64.5 25t-22.5 63q0 17 8 46q-12 -9 -26 -9q-18 0 -32 14t-14 32t14 32l16 16q35 35 66.5 71.5t48.5 55.5q3 4 16 10t18 6q21 0 36.5 -15t15.5 -35q0 -7 -4 -17q-4 -9 -16 -38.5
t-24.5 -64t-22.5 -64.5t-10 -40q12 0 32.5 14.5t42.5 34t41.5 38.5t28.5 28l16 16q14 14 32 14t32 -14t14 -32zM371 516q0 -17 -15 -32q-10 -10 -26.5 -23.5t-35.5 -29.5l-38 -32t-35 -30q-14 -13 -30 -13q-18 0 -32 14.5t-14 32.5q0 17 16 32q16 14 35 29.5t37.5 31
t34.5 29t26 23.5q16 14 31 14q18 0 32 -14t14 -32z" />
    <glyph glyph-name="icircumflex" unicode="&#xee;" horiz-adv-x="285" 
d="M339 154q0 -18 -14 -32l-16 -16q-26 -26 -52 -50.5t-52.5 -44.5t-53.5 -32t-54 -12q-42 0 -64.5 25t-22.5 63q0 17 8 46q-12 -9 -26 -9q-18 0 -32 14t-14 32t14 32l16 16q35 35 66.5 71.5t48.5 55.5q3 4 16 10t18 6q21 0 36.5 -15t15.5 -35q0 -7 -4 -17q-4 -9 -16 -38.5
t-24.5 -64t-22.5 -64.5t-10 -40q12 0 32.5 14.5t42.5 34t41.5 38.5t28.5 28l16 16q14 14 32 14t32 -14t14 -32zM320 386q0 -20 -15 -32t-32 -12q-11 0 -21.5 5.5t-17.5 19.5q-8 17 -20.5 37.5t-25.5 40.5q-25 -25 -51.5 -48t-43.5 -37q-13 -10 -27 -10q-19 0 -32.5 14.5
t-13.5 32.5q0 20 19 35q11 8 27 21.5t33 29.5t33 32t27 29q14 17 34 17q19 0 34 -17q10 -12 22 -29.5t24 -36t22.5 -37.5t18.5 -34q6 -12 6 -21z" />
    <glyph glyph-name="idieresis" unicode="&#xef;" horiz-adv-x="285" 
d="M339 154q0 -18 -14 -32l-16 -16q-27 -27 -53.5 -52.5t-53 -44.5t-52.5 -30.5t-53 -11.5q-42 0 -64.5 25t-22.5 63q0 17 8 46q-12 -9 -26 -9q-18 0 -32 14t-14 32t14 32l16 16q35 35 66.5 71.5t48.5 55.5q3 4 16 10t18 6q21 0 36.5 -15t15.5 -35q0 -7 -4 -17
q-4 -9 -16 -38.5t-24.5 -64t-22.5 -64.5t-10 -40q12 0 32.5 14.5t42.5 34t41.5 38.5t28.5 28l16 16q14 14 32 14t32 -14t14 -32zM329 416q0 -8 -3 -16t-11 -16l-13 -13q-13 -14 -32 -14q-18 0 -32 14t-14 32q0 16 14 32l13 13q8 8 16 11t16 3q19 0 32.5 -13.5t13.5 -32.5z
M176 445q0 -14 -11 -28l-11 -14q-15 -18 -34 -18q-18 0 -32.5 14t-14.5 32q0 14 11 28l11 14q14 18 34 18q18 0 32.5 -13.5t14.5 -32.5z" />
    <glyph glyph-name="eth" unicode="&#xf0;" horiz-adv-x="381" 
d="M401 496q0 -13 -7 -25t-24 -17q-14 -5 -30.5 -10.5t-35.5 -13.5q17 -32 27.5 -70.5t10.5 -85.5q0 -73 -30.5 -132t-73.5 -100.5t-89.5 -64t-79.5 -22.5q-29 0 -50 9.5t-35.5 25.5t-21.5 37.5t-7 44.5q0 57 26.5 102t68 77.5t93 52.5t102.5 27q-7 31 -24 62
q-17 -8 -34 -16.5t-32 -16.5q-14 -7 -23 -7q-19 0 -32 14.5t-13 32.5q0 11 5.5 21t18.5 17q24 13 51 27q-30 24 -63 38q-14 6 -20.5 16.5t-6.5 22.5q0 17 11.5 32.5t31.5 15.5q8 0 20 -5q20 -8 51.5 -27.5t63.5 -52.5q26 11 50 20t42 15q4 2 8 2h8q20 0 31.5 -14.5
t11.5 -31.5zM247 240q-34 -6 -70 -19.5t-65 -34.5t-48 -49.5t-19 -64.5q0 -16 5.5 -21.5t18.5 -5.5q29 0 58 19t53 48t41.5 63.5t25.5 64.5z" />
    <glyph glyph-name="ntilde" unicode="&#xf1;" horiz-adv-x="538" 
d="M589 153q0 -17 -14 -31l-16 -16q-30 -30 -62 -61t-63.5 -56t-60 -41t-52.5 -16q-30 0 -47.5 20t-17.5 49q0 27 10.5 55t22.5 53t22.5 44.5t10.5 28.5q0 11 -2 12.5t-10 1.5q-26 0 -57.5 -24.5t-62.5 -58.5t-58.5 -69t-45.5 -57q-13 -20 -36 -20q-18 0 -33 11.5t-15 31.5
q0 10 4 19q8 18 16.5 42.5t16.5 50.5l-15 -16q-14 -14 -31 -14q-18 0 -32.5 14.5t-14.5 32.5q0 17 14 31l16 16q7 7 17.5 18t21.5 23.5t22.5 25.5t20.5 24q5 6 16.5 14t28.5 8q18 0 28 -7.5t15 -17.5t6.5 -19t1.5 -12q0 -9 -1 -21t-5 -26q14 16 26.5 27t24.5 20
q26 20 54 31.5t57 11.5q47 0 74.5 -29.5t27.5 -74.5q0 -25 -13.5 -54.5t-29.5 -58.5q-4 -8 -9.5 -17.5t-5.5 -11.5l1 -1q1 0 5 4t9 8.5t9.5 9t6.5 5.5q20 18 48 44t62 60l16 16q14 14 31 14q18 0 32.5 -14.5t14.5 -32.5zM453 460v-8t-2 -9q-6 -18 -16 -36.5t-24.5 -33.5
t-33.5 -24t-43 -9q-27 0 -49 10.5t-39.5 23.5t-29.5 23.5t-19 10.5q-6 -4 -10.5 -16t-6.5 -18q-5 -17 -16.5 -24.5t-25.5 -7.5q-17 0 -31.5 11.5t-14.5 31.5q0 10 2 15q5 18 13.5 35.5t21 31.5t29 22.5t38.5 8.5q25 0 45 -10.5t36.5 -23.5t30 -23.5t26.5 -10.5q3 0 11.5 6
t19.5 37q5 17 17 23.5t25 6.5q17 0 31.5 -11.5t14.5 -31.5z" />
    <glyph glyph-name="ograve" unicode="&#xf2;" horiz-adv-x="456" 
d="M510 154q0 -18 -14 -32l-16 -16q-29 -29 -64 -45.5t-70 -16.5q-22 0 -40 6q-12 -26 -28.5 -49.5t-38 -41.5t-49.5 -28.5t-62 -10.5q-32 0 -53.5 11.5t-35.5 30t-20 41.5t-6 46q0 24 6 53q-13 -10 -27 -10q-18 0 -32 14t-14 32t14 32l16 16q58 58 117.5 99t118.5 49
q5 1 11.5 1.5t14.5 0.5q11 0 20.5 -1.5t17.5 -6.5q10 -6 15 -16.5t5 -21.5l-1 -8q24 -13 33.5 -41.5t9.5 -55.5q0 -11 -1.5 -23t-3.5 -26q6 -3 13 -3q14 0 32 8.5t38 28.5l16 16q14 14 32 14t32 -14t14 -32zM234 109q-16 27 -21.5 55t-5.5 46q0 13 3 28q-20 -10 -39 -30
t-34 -46t-24.5 -55.5t-9.5 -57.5q0 -26 7.5 -32.5t17.5 -6.5q36 0 64 29t42 70zM392 396q0 -18 -14 -32t-32 -14t-32 14t-30 30.5t-31 32.5t-29.5 30.5l-25.5 25.5q-15 14 -15 32t14 32.5t32 14.5q17 0 31 -13l25.5 -25.5t30.5 -31t32 -33.5t30 -31t14 -32z" />
    <glyph glyph-name="oacute" unicode="&#xf3;" horiz-adv-x="456" 
d="M510 154q0 -18 -14 -32l-16 -16q-29 -29 -64 -45.5t-70 -16.5q-22 0 -40 6q-12 -26 -28.5 -49.5t-38 -41.5t-49.5 -28.5t-62 -10.5q-32 0 -53.5 11.5t-35.5 30t-20 41.5t-6 46q0 24 6 53q-13 -10 -27 -10q-18 0 -32 14t-14 32t14 32l16 16q58 58 117.5 99t118.5 49
q5 1 11.5 1.5t14.5 0.5q11 0 20.5 -1.5t17.5 -6.5q10 -6 15 -16.5t5 -21.5l-1 -8q24 -13 33.5 -41.5t9.5 -55.5q0 -11 -1.5 -23t-3.5 -26q6 -3 13 -3q14 0 32 8.5t38 28.5l16 16q14 14 32 14t32 -14t14 -32zM234 109q-16 27 -21.5 55t-5.5 46q0 13 3 28q-20 -10 -39 -30
t-34 -46t-24.5 -55.5t-9.5 -57.5q0 -26 7.5 -32.5t17.5 -6.5q36 0 64 29t42 70zM461 511q0 -17 -15 -32q-10 -10 -26.5 -23.5t-35.5 -29.5l-38 -32t-35 -30q-14 -13 -30 -13q-18 0 -32 14.5t-14 32.5q0 17 16 32q16 14 35 30t37.5 31t34.5 28.5t26 23.5q16 14 31 14
q18 0 32 -14t14 -32z" />
    <glyph glyph-name="ocircumflex" unicode="&#xf4;" horiz-adv-x="456" 
d="M510 154q0 -18 -14 -32l-16 -16q-29 -29 -64 -45.5t-70 -16.5q-22 0 -40 6q-12 -26 -28.5 -49.5t-38 -41.5t-49.5 -28.5t-62 -10.5q-32 0 -53.5 11.5t-35.5 30t-20 41.5t-6 46q0 24 6 53q-13 -10 -27 -10q-18 0 -32 14t-14 32t14 32l16 16q58 58 117.5 99t118.5 49
q5 1 11.5 1.5t14.5 0.5q11 0 20.5 -1.5t17.5 -6.5q10 -6 15 -16.5t5 -21.5l-1 -8q24 -13 33.5 -41.5t9.5 -55.5q0 -11 -1.5 -23t-3.5 -26q6 -3 13 -3q14 0 32 8.5t38 28.5l16 16q14 14 32 14t32 -14t14 -32zM234 109q-16 27 -21.5 55t-5.5 46q0 13 3 28q-20 -10 -39 -30
t-34 -46t-24.5 -55.5t-9.5 -57.5q0 -26 7.5 -32.5t17.5 -6.5q36 0 64 29t42 70zM397 393q0 -19 -14.5 -31.5t-32.5 -12.5q-11 0 -21.5 5.5t-17.5 19.5q-8 17 -20.5 37.5t-25.5 40.5q-25 -25 -51.5 -48t-43.5 -37q-13 -10 -27 -10q-19 0 -32.5 14.5t-13.5 32.5q0 20 19 35
q11 9 27 22.5t33 29t33 31.5t27 29q15 17 34 17t34 -17q10 -12 22 -29t24 -36t22.5 -38t18.5 -34q6 -11 6 -21z" />
    <glyph glyph-name="otilde" unicode="&#xf5;" horiz-adv-x="456" 
d="M510 154q0 -18 -14 -32l-16 -16q-29 -29 -64 -45.5t-70 -16.5q-22 0 -40 6q-12 -26 -28.5 -49.5t-38 -41.5t-49.5 -28.5t-62 -10.5q-32 0 -53.5 11.5t-35.5 30t-20 41.5t-6 46q0 24 6 53q-13 -10 -27 -10q-18 0 -32 14t-14 32t14 32l16 16q58 58 117.5 99t118.5 49
q5 1 11.5 1.5t14.5 0.5q11 0 20.5 -1.5t17.5 -6.5q10 -6 15 -16.5t5 -21.5l-1 -8q24 -13 33.5 -41.5t9.5 -55.5q0 -11 -1.5 -23t-3.5 -26q6 -3 13 -3q14 0 32 8.5t38 28.5l16 16q14 14 32 14t32 -14t14 -32zM234 109q-16 27 -21.5 55t-5.5 46q0 13 3 28q-20 -10 -39 -30
t-34 -46t-24.5 -55.5t-9.5 -57.5q0 -26 7.5 -32.5t17.5 -6.5q36 0 64 29t42 70zM473 480v-8t-2 -9q-6 -18 -16 -36.5t-24.5 -33.5t-33.5 -24t-43 -9q-27 0 -49 10.5t-39.5 23.5t-29.5 23.5t-19 10.5q-6 -4 -10.5 -16t-6.5 -18q-5 -17 -16.5 -24.5t-25.5 -7.5
q-17 0 -31.5 11.5t-14.5 31.5q0 10 2 15q5 18 13.5 35.5t21 31.5t29 22.5t38.5 8.5q25 0 45 -10.5t36.5 -23.5t30 -23.5t26.5 -10.5q3 0 11.5 6t19.5 37q5 17 17 23.5t25 6.5q17 0 31.5 -11.5t14.5 -31.5z" />
    <glyph glyph-name="odieresis" unicode="&#xf6;" horiz-adv-x="456" 
d="M510 154q0 -18 -14 -32l-16 -16q-29 -29 -64 -45.5t-70 -16.5q-22 0 -40 6q-12 -26 -28.5 -49.5t-38 -41.5t-49.5 -28.5t-62 -10.5q-32 0 -53.5 11.5t-35.5 30t-20 41.5t-6 46q0 24 6 53q-13 -10 -27 -10q-18 0 -32 14t-14 32t14 32l16 16q58 58 117.5 99t118.5 49
q5 1 11.5 1.5t14.5 0.5q11 0 20.5 -1.5t17.5 -6.5q10 -6 15 -16.5t5 -21.5l-1 -8q24 -13 33.5 -41.5t9.5 -55.5q0 -11 -1.5 -23t-3.5 -26q6 -3 13 -3q14 0 32 8.5t38 28.5l16 16q14 14 32 14t32 -14t14 -32zM234 109q-16 27 -21.5 55t-5.5 46q0 13 3 28q-20 -10 -39 -30
t-34 -46t-24.5 -55.5t-9.5 -57.5q0 -26 7.5 -32.5t17.5 -6.5q36 0 64 29t42 70zM405 421q0 -18 -14 -32l-13 -13q-14 -14 -32 -14t-32 14t-14 32t14 32l13 13q14 14 32 14t32 -14t14 -32zM252 440q0 -14 -11 -28l-11 -14q-14 -18 -34 -18q-18 0 -32.5 13.5t-14.5 32.5
q0 14 11 28l11 14q14 18 34 18q18 0 32.5 -13.5t14.5 -32.5z" />
    <glyph glyph-name="divide" unicode="&#xf7;" 
d="M309 349q0 -10 -6 -22l-7 -13q-7 -13 -17.5 -19t-21.5 -6q-18 0 -32.5 13t-14.5 32q0 10 6 22l7 13q7 13 17.5 19t21.5 6q18 0 32.5 -13t14.5 -32zM427 211q0 -17 -11.5 -31t-33.5 -14q-39 0 -80.5 1.5t-71.5 1.5q-51 0 -97 -1.5t-81 -7.5l-9 -1q-21 0 -32 14.5t-11 31.5
q0 15 9 27.5t29 15.5q38 6 89.5 8.5t102.5 2.5q54 0 97 -1t56 -2q22 -1 33 -14.5t11 -30.5zM229 96q0 -8 -5 -20l-6 -14q-6 -14 -16.5 -20.5t-22.5 -6.5q-17 0 -32.5 11.5t-15.5 31.5q0 8 5 20l6 14q6 14 16.5 20.5t22.5 6.5q17 0 32.5 -11.5t15.5 -31.5z" />
    <glyph glyph-name="oslash" unicode="&#xf8;" horiz-adv-x="456" 
d="M510 154q0 -18 -14 -32l-16 -16q-26 -26 -52 -41t-55 -15q-27 0 -50 15q-14 -25 -33 -47t-43.5 -38.5t-55 -26.5t-67.5 -10h-9t-8 1q-13 -20 -24.5 -39.5t-21.5 -36.5q-7 -12 -17 -18t-21 -6q-18 0 -32.5 13t-14.5 32q0 12 7 23q10 17 21 36.5t24 39.5q-15 20 -22 45
t-7 50v10l-7 -1q-18 0 -32 14t-14 32t14 32l16 16q56 56 113.5 97.5t120.5 49.5q6 1 13 1.5t15 0.5h14t12 -2q16 22 30.5 40.5t27.5 34.5q15 18 34 18q18 0 32.5 -13.5t14.5 -32.5q0 -16 -11 -28q-12 -15 -25.5 -33t-29.5 -39q11 -20 15.5 -42.5t4.5 -43.5q0 -8 -0.5 -15
t-1.5 -15q7 -14 14 -21h1q3 0 15 4t31 23l16 16q14 14 32 14t32 -14t14 -32zM267 182q-24 -35 -49 -70.5t-48 -70.5q44 17 69 57t28 84zM192 233q-24 -10 -43 -26.5t-32.5 -37t-20.5 -43t-7 -43.5v-1q25 38 51 76t52 75z" />
    <glyph glyph-name="ugrave" unicode="&#xf9;" horiz-adv-x="559" 
d="M613 154q0 -18 -14 -32l-16 -16q-24 -24 -52 -49t-56 -46t-54.5 -34.5t-46.5 -13.5t-34.5 7.5t-23.5 20.5t-13.5 29t-4.5 34v10q-43 -44 -87 -75t-80 -31q-47 0 -74.5 29.5t-27.5 71.5q0 14 2.5 29.5t7.5 32.5l-15 -15q-14 -14 -32 -14t-32 14t-14 32t14 32l16 16
q31 31 50.5 51t32 33.5t21.5 23t19 20.5q6 7 15.5 12t18.5 5q7 0 16 -2t17.5 -8t14.5 -16t6 -25q0 -20 -10.5 -48.5t-23.5 -59.5t-23.5 -61t-10.5 -52q0 -6 2 -8.5t10 -2.5q11 0 32 14.5t45.5 38t50.5 52.5t49.5 58.5t40.5 55.5t24 43q11 29 41 29q17 0 32 -11.5t15 -31.5
q0 -5 -1 -9.5t-3 -9.5q-23 -60 -41.5 -111.5t-24.5 -86.5q-2 -10 -2 -13q0 -5 3 -5t16 8q14 10 29.5 23.5t30.5 27.5t28.5 27.5l22.5 22.5l16 16q14 14 32 14t32 -14t14 -32zM423 420q0 -18 -14 -32t-32 -14t-32 14t-30 30.5t-31 32.5t-29.5 30.5l-25.5 25.5q-15 14 -15 32
t14 32.5t32 14.5q17 0 31 -13l25.5 -25.5t30.5 -31t32 -33.5t30 -31t14 -32z" />
    <glyph glyph-name="uacute" unicode="&#xfa;" horiz-adv-x="559" 
d="M613 154q0 -18 -14 -32l-16 -16q-25 -25 -51.5 -50.5t-53.5 -46t-53.5 -33.5t-50.5 -13q-20 0 -34.5 7.5t-23.5 20.5t-13.5 29t-4.5 34v10q-43 -44 -87 -75t-80 -31q-47 0 -74.5 29.5t-27.5 71.5q0 14 2.5 29.5t7.5 32.5l-15 -15q-14 -14 -32 -14t-32 14t-14 32t14 32
l16 16q31 31 50.5 51t32 33.5t21.5 23t19 20.5q6 7 15.5 12t18.5 5q7 0 16 -2t17.5 -8t14.5 -16t6 -25q0 -20 -10.5 -48.5t-23.5 -59.5t-23.5 -61t-10.5 -52q0 -6 2 -8.5t10 -2.5q11 0 32 14.5t45.5 38t50.5 52.5t49.5 58.5t40.5 55.5t24 43q11 29 41 29q17 0 32 -11.5
t15 -31.5q0 -5 -1 -9.5t-3 -9.5q-23 -60 -41.5 -111.5t-24.5 -86.5q-2 -10 -2 -13q0 -5 3 -5t16 8q14 10 29.5 23.5t30.5 27.5t28.5 27.5l22.5 22.5l16 16q14 14 32 14t32 -14t14 -32zM461 511q0 -17 -15 -32q-10 -10 -26.5 -23.5t-35.5 -29.5l-38 -32t-35 -30
q-14 -13 -30 -13q-18 0 -32 14.5t-14 32.5q0 17 16 32q16 14 35 30t37.5 31t34.5 28.5t26 23.5q16 14 31 14q18 0 32 -14t14 -32z" />
    <glyph glyph-name="ucircumflex" unicode="&#xfb;" horiz-adv-x="559" 
d="M613 154q0 -18 -14 -32l-16 -16q-26 -26 -54 -51.5t-55.5 -45.5t-53 -33t-46.5 -13q-20 0 -34.5 7.5t-23.5 20.5t-13.5 29t-4.5 34v10q-43 -44 -87 -75t-80 -31q-47 0 -74.5 29.5t-27.5 71.5q0 14 2.5 29.5t7.5 32.5l-15 -15q-14 -14 -32 -14t-32 14t-14 32t14 32l16 16
q31 31 50.5 51t32 33.5t21.5 23t19 20.5q6 7 15.5 12t18.5 5q7 0 16 -2t17.5 -8t14.5 -16t6 -25q0 -20 -10.5 -48.5t-23.5 -59.5t-23.5 -61t-10.5 -52q0 -6 2 -8.5t10 -2.5q11 0 32 14.5t45.5 38t50.5 52.5t49.5 58.5t40.5 55.5t24 43q11 29 41 29q17 0 32 -11.5t15 -31.5
q0 -5 -1 -9.5t-3 -9.5q-23 -60 -41.5 -111.5t-24.5 -86.5q-2 -10 -2 -13q0 -5 3 -5t16 8q14 10 29.5 23.5t30.5 27.5t28.5 27.5l22.5 22.5l16 16q14 14 32 14t32 -14t14 -32zM492 418q0 -20 -14.5 -32t-32.5 -12q-11 0 -21.5 5.5t-17.5 19.5q-8 17 -20.5 37.5t-25.5 40.5
q-25 -25 -51 -48t-44 -37q-13 -10 -27 -10q-19 0 -32.5 14.5t-13.5 32.5q0 20 19 35q11 9 27 22.5t33 29t33 31.5t27 29q15 17 34 17q20 0 34 -17q10 -12 22 -29.5t24 -36t22.5 -37.5t18.5 -34q6 -12 6 -21z" />
    <glyph glyph-name="udieresis" unicode="&#xfc;" horiz-adv-x="559" 
d="M613 154q0 -18 -14 -32l-16 -16q-21 -21 -51.5 -46t-61 -46.5t-57 -36t-39.5 -14.5q-20 0 -34.5 7.5t-23.5 20.5t-13.5 29t-4.5 34v10q-43 -44 -87 -75t-80 -31q-47 0 -74.5 29.5t-27.5 71.5q0 14 2.5 29.5t7.5 32.5l-15 -15q-14 -14 -32 -14t-32 14t-14 32t14 32l16 16
q31 31 50.5 51t32 33.5t21.5 23t19 20.5q6 7 15.5 12t18.5 5q7 0 16 -2t17.5 -8t14.5 -16t6 -25q0 -20 -10.5 -48.5t-23.5 -59.5t-23.5 -61t-10.5 -52q0 -6 2 -8.5t10 -2.5q11 0 32 14.5t45.5 38t50.5 52.5t49.5 58.5t40.5 55.5t24 43q11 29 41 29q17 0 32 -11.5t15 -31.5
q0 -5 -1 -9.5t-3 -9.5q-23 -60 -41.5 -111.5t-24.5 -86.5q-2 -10 -2 -13q0 -5 3 -5t16 8q14 10 29.5 23.5t30.5 27.5t28.5 27.5l22.5 22.5l16 16q14 14 32 14t32 -14t14 -32zM465 441q0 -18 -14 -32l-13 -13q-14 -14 -32 -14t-32 14t-14 32t14 32l13 13q14 14 32 14t32 -14
t14 -32zM312 460q0 -14 -11 -28l-11 -14q-14 -18 -34 -18q-18 0 -32.5 13.5t-14.5 32.5q0 14 11 28l11 14q14 18 34 18q18 0 32.5 -13.5t14.5 -32.5z" />
    <glyph glyph-name="yacute" unicode="&#xfd;" horiz-adv-x="505" 
d="M554 154q0 -18 -14 -32l-16 -16q-55 -55 -116.5 -98.5t-127.5 -81.5q-24 -53 -50.5 -100t-56 -83t-61 -57t-64.5 -21q-20 0 -37.5 7t-31.5 19.5t-22 30.5t-8 39q0 38 25 72t70 61q40 24 80.5 47t81.5 46q6 14 12 27.5t12 27.5q-29 -24 -58.5 -39t-60.5 -15q-45 0 -72 29
t-27 73v7q-9 -5 -20 -5q-18 0 -32 14t-14 32t14 32l16 16q30 30 51 53t36 42t25.5 35t21.5 33q13 23 37 23q18 0 33 -13t15 -32q0 -12 -8 -25q-45 -72 -65 -128t-20 -84q0 -12 9 -12q17 0 37.5 14t41.5 35.5t41 49t38 54t31.5 49.5t21.5 37q8 15 18 20.5t22 5.5
q17 0 31.5 -11.5t14.5 -31.5q0 -4 -2 -14q-10 -35 -27 -95t-44 -126q32 25 64 50.5t61 54.5l16 16q14 14 32 14t32 -14t14 -32zM133 -157q-10 -6 -21 -13l-22 -14q-17 -11 -27.5 -19.5t-15.5 -15t-6.5 -11t-1.5 -8.5q0 -7 9 -7q12 0 23.5 8t22 20.5t20.5 28.5t19 31z
M461 511q0 -17 -15 -32q-10 -10 -26.5 -23.5t-35.5 -29.5l-38 -32t-35 -30q-14 -13 -30 -13q-18 0 -32 14.5t-14 32.5q0 17 16 32q16 14 35 30t37.5 31t34.5 28.5t26 23.5q16 14 31 14q18 0 32 -14t14 -32z" />
    <glyph glyph-name="thorn" unicode="&#xfe;" horiz-adv-x="516" 
d="M540 106q-54 -54 -96 -84.5t-76 -45t-61 -18t-52 -3.5q-23 0 -40 3t-33 8t-31 13t-33 18q-8 5 -15 13l-21 -29q-15 -50 -36 -107t-45 -105.5t-51.5 -80.5t-56.5 -32q-18 0 -29 7.5t-17 17.5t-8.5 20.5t-2.5 16.5q0 18 12.5 49.5t34 72t51 87t64.5 94.5q6 20 11.5 41
t11.5 42q-12 -11 -28 -11q-18 0 -32.5 14t-14.5 32q0 17 14 31l16 16q53 53 95 106q19 69 38 131.5t39 109.5t41.5 74.5t45.5 27.5q20 0 31.5 -10t17 -24.5t7 -31.5t1.5 -31q0 -45 -34.5 -120.5t-101.5 -162.5q-4 -15 -7 -28.5t-7 -27.5q28 30 56 55.5t54 44t49 29t42 10.5
q26 0 45.5 -11t32.5 -28t19.5 -37t6.5 -38q0 -26 -4 -50t-12 -47q11 11 22.5 21.5t22.5 21.5l16 16q14 14 31 14q19 0 33 -14t14 -33q0 -17 -14 -31zM357 224q0 14 -6.5 19t-7.5 5q-15 0 -35.5 -13t-45 -36t-52 -54t-55.5 -66q11 -5 26.5 -15t26.5 -12q5 -1 14 -1
q22 0 46 11.5t44 33t32.5 54t12.5 74.5z" />
    <glyph glyph-name="ydieresis" unicode="&#xff;" horiz-adv-x="500" 
d="M554 154q0 -18 -14 -32l-16 -16q-55 -55 -116.5 -98.5t-127.5 -81.5q-24 -53 -50.5 -100t-56 -83t-61 -57t-64.5 -21q-20 0 -37.5 7t-31.5 19.5t-22 30.5t-8 39q0 38 25 72t70 61q40 24 80.5 47t81.5 46q6 14 12 27.5t12 27.5q-29 -24 -58.5 -39t-60.5 -15q-45 0 -72 29
t-27 73v7q-9 -5 -20 -5q-18 0 -32 14t-14 32t14 32l16 16q30 30 51 53t36 42t25.5 35t21.5 33q13 23 37 23q18 0 33 -13t15 -32q0 -12 -8 -25q-45 -72 -65 -128t-20 -84q0 -12 9 -12q17 0 37.5 14t41.5 35.5t41 49t38 54t31.5 49.5t21.5 37q8 15 18 20.5t22 5.5
q17 0 31.5 -11.5t14.5 -31.5q0 -4 -2 -14q-10 -35 -27 -95t-44 -126q32 25 64 50.5t61 54.5l16 16q14 14 32 14t32 -14t14 -32zM133 -157q-10 -6 -21 -13l-22 -14q-17 -11 -27.5 -19.5t-15.5 -15t-6.5 -11t-1.5 -8.5q0 -7 9 -7q12 0 23.5 8t22 20.5t20.5 28.5t19 31z
M415 441q0 -18 -14 -32l-13 -13q-14 -14 -32 -14t-32 14t-14 32t14 32l13 13q14 14 32 14t32 -14t14 -32zM262 460q0 -14 -11 -28l-11 -14q-14 -18 -34 -18q-18 0 -32.5 13.5t-14.5 32.5q0 14 11 28l11 14q14 18 34 18q18 0 32.5 -13.5t14.5 -32.5z" />
    <glyph glyph-name="OE" unicode="&#x152;" horiz-adv-x="893" 
d="M947 154q0 -16 -10 -27t-20 -21q-50 -50 -92.5 -86t-82 -59t-78.5 -34.5t-82 -11.5q-66 0 -114.5 25.5t-71.5 70.5q-45 -45 -98.5 -72t-116.5 -27q-52 0 -87.5 21t-57.5 54.5t-31.5 75.5t-9.5 84q0 55 15 121.5t45 128t74 111t102 70.5q29 23 65.5 36.5t78.5 13.5
q51 0 94 -23.5t69 -71.5q36 41 91 67t124 26q23 0 48.5 -5.5t47 -19t35.5 -36t14 -55.5q0 -14 -6 -29.5t-16 -29.5t-23 -23t-27 -9q-20 0 -32.5 15t-12.5 32q0 11 4 18.5t9.5 12.5t9.5 8t4 5q0 3 -1.5 7.5t-7 8.5t-16.5 7t-30 3q-45 0 -79.5 -15t-58 -37.5t-36 -49.5
t-12.5 -51q0 -21 11 -39.5t40 -28.5q14 2 29 3t31 1q8 0 20 -0.5t25 -2.5q28 -4 38.5 -14t10.5 -31q0 -19 -10.5 -29t-30.5 -17q-15 -5 -31 -6.5t-26 -1.5q-32 0 -59 6q-47 -10 -75.5 -32.5t-44 -45.5t-20.5 -42t-5 -22q0 -12 5.5 -25.5t18.5 -25t34.5 -18.5t53.5 -7
q40 0 74 12t67 35.5t68 57t78 76.5q14 14 32 14t32 -14t14 -32zM478 409q0 37 -9 61.5t-23.5 39.5t-33 21.5t-37.5 6.5q-26 0 -51 -10t-45 -28t-32.5 -44.5t-12.5 -59.5q0 -23 -13 -34t-30 -11q-14 0 -25.5 6.5t-17.5 19.5q-31 -55 -47 -117t-16 -113q0 -75 25.5 -110
t70.5 -35q38 0 74.5 18t69.5 48.5t61 71t48.5 85.5t32 92.5t11.5 91.5z" />
    <glyph glyph-name="oe" unicode="&#x153;" horiz-adv-x="552" 
d="M606 154q0 -18 -14 -32l-16 -16q-65 -65 -127.5 -99.5t-116.5 -34.5q-38 0 -64 14t-42 37q-28 -31 -65.5 -51t-82.5 -20q-31 0 -53 10.5t-36.5 28.5t-21.5 42t-7 51q0 41 15 84.5t43 79t68 58.5t90 23q33 0 56 -10t37 -26q25 28 57 45t70 17q52 0 76.5 -27t24.5 -63
q0 -29 -16 -61q-20 -38 -63 -74.5t-106 -62.5q10 -5 20 -5q27 0 73 23.5t107 84.5l16 16q14 14 32 14t32 -14t14 -32zM405 258q0 7 -9 7q-17 0 -32.5 -9.5t-28.5 -24.5t-22.5 -34t-15.5 -38q32 16 61 37.5t43 49.5q4 7 4 12zM212 201q0 23 -11 30.5t-25 7.5q-29 0 -52.5 -16
t-40 -39.5t-25.5 -50t-9 -48.5q0 -19 7 -31t22 -12q19 0 37.5 9t35 24t30 35.5t21.5 44.5q10 27 10 46z" />
    <glyph glyph-name="Scaron" unicode="&#x160;" horiz-adv-x="564" 
d="M618 154q0 -18 -14 -32l-16 -16q-47 -47 -100 -74.5t-119 -41.5q-19 -37 -49 -66t-66 -49.5t-75.5 -31t-76.5 -10.5q-23 0 -47.5 7t-44.5 20.5t-33 34t-13 46.5q0 42 23.5 66t58 36.5t72.5 16t68 3.5q32 1 60.5 2.5t54.5 4.5q1 5 1.5 11t0.5 12q0 37 -18 63.5t-44.5 47.5
t-57.5 40t-57.5 41t-44.5 50t-18 68q0 48 24.5 89t63.5 71.5t88 47.5t99 17q44 0 77 -13.5t55.5 -36t34 -52.5t11.5 -64q0 -32 -9.5 -64.5t-28.5 -61.5q-15 -22 -37 -22q-17 0 -32 12.5t-15 32.5q0 12 8 25q12 20 18 40t6 38q0 31 -19.5 53.5t-68.5 22.5q-40 0 -74 -13
t-58.5 -32.5t-38.5 -43.5t-14 -46q0 -21 18 -38t44.5 -35t57.5 -38.5t57.5 -48t44.5 -64.5t18 -86v-3q40 13 71.5 32.5t59.5 47.5l16 16q14 14 32 14t32 -14t14 -32zM242 -25q-13 -1 -26.5 -1.5t-27.5 -0.5q-2 0 -17 -0.5t-35 -2.5t-40.5 -6t-31.5 -10q-9 -5 -9 -11
q0 -7 15 -13.5t32 -6.5q38 0 74.5 14t65.5 38zM562 807q0 -11 -5.5 -21.5t-19.5 -17.5q-32 -16 -53 -29t-35 -24.5t-23.5 -23t-17.5 -24.5q-18 -27 -41 -27q-13 0 -24 9.5t-16 29.5q-3 13 -10.5 28t-15.5 29t-17 26.5t-15 21.5q-10 13 -10 26q0 19 14.5 32.5t32.5 13.5
q21 0 35 -20q6 -8 18 -24.5t23 -36.5q20 18 47 35.5t68 37.5q10 6 21 6q19 0 31.5 -14.5t12.5 -32.5z" />
    <glyph glyph-name="scaron" unicode="&#x161;" horiz-adv-x="360" 
d="M414 154q0 -12 -6.5 -21.5t-23.5 -26.5q-46 -46 -84.5 -77t-74.5 -49.5t-72.5 -26t-79.5 -7.5q-12 0 -27 4.5t-28 12.5t-22 19.5t-9 26.5q0 20 13.5 33.5t33.5 13.5q9 0 15.5 -3t11.5 -6t9.5 -6t9.5 -3q19 0 33.5 13.5t14.5 35.5q0 31 -9 51t-18 46q-19 -20 -38 -39
l-39 -39q-14 -14 -32 -14t-32 14t-14 32q0 16 10 27t20 21l44 44t46 47.5t39.5 43t25.5 29.5q15 20 37 20q18 0 31.5 -13t13.5 -32q0 -10 -5 -19.5t-11.5 -19.5t-11.5 -20t-5 -20q0 -18 5.5 -34.5t12.5 -33.5q8 -19 14 -41t6 -50v-6q31 21 60 48.5t58 56.5q14 14 32 14
t32 -14t14 -32zM378 561q0 -11 -5.5 -21.5t-19.5 -17.5q-32 -16 -53 -29t-35 -24.5t-23.5 -23t-17.5 -24.5q-18 -27 -41 -27q-13 0 -24 9.5t-16 29.5q-3 13 -10.5 28t-15.5 29t-17 26.5t-15 21.5q-10 13 -10 26q0 19 14.5 32.5t32.5 13.5q21 0 35 -20q6 -8 18 -24.5
t23 -36.5q20 18 47 35.5t68 37.5q10 6 21 6q19 0 31.5 -14.5t12.5 -32.5z" />
    <glyph glyph-name="Ydieresis" unicode="&#x178;" horiz-adv-x="581" 
d="M635 154q0 -18 -14 -32l-16 -16q-25 -25 -51.5 -47.5t-52 -41.5t-48.5 -34.5t-41 -26.5q-20 -55 -44.5 -107t-52.5 -93t-59.5 -66t-66.5 -25q-38 0 -61 26.5t-23 63.5q0 33 20 66.5t52 66.5t73.5 65t85.5 63q11 35 21.5 71.5t20.5 74.5q-24 -35 -50 -66t-52 -54
t-52.5 -36t-52.5 -13q-34 0 -57.5 16t-38.5 42.5t-22 61t-7 71.5q0 49 12.5 100t31 98t38.5 87t35 66q-35 -17 -70 -46t-58 -58q-14 -18 -34 -18q-18 0 -32.5 13.5t-14.5 32.5q0 14 11 28q16 20 43 46t60 49.5t70 39.5t73 16q27 0 47 -16.5t20 -45.5q0 -16 -6.5 -30
t-14.5 -28q-11 -18 -31 -55t-40 -83.5t-35 -98t-15 -97.5q0 -36 5 -56.5t11.5 -30.5t12 -12t6.5 -2q23 0 53 29.5t62 75.5t64 101t59 106t46.5 91.5t27.5 56.5q13 27 40 27q11 0 19 -4q20 -8 26 -27q1 -4 1 -12q0 -10 -3 -17.5t-6 -15.5q-24 -65 -37 -133t-30 -135
q-5 -19 -14 -53t-20 -74q27 20 51 42t47 45q14 14 32 14t32 -14t14 -32zM278 -138q-35 -30 -52.5 -52t-24.5 -36q-6 -12 -6 -16q0 -2 2 -2t14 9q17 14 34 39t33 58zM541 657q0 -18 -14 -32l-13 -13q-14 -14 -32 -14t-32 14t-14 32t14 32l13 13q14 14 32 14t32 -14t14 -32z
M388 676q0 -14 -11 -28l-11 -14q-14 -18 -34 -18q-18 0 -32.5 13.5t-14.5 32.5q0 14 11 28l11 14q14 18 34 18q18 0 32.5 -13.5t14.5 -32.5z" />
    <glyph glyph-name="Zcaron" unicode="&#x17d;" horiz-adv-x="596" 
d="M650 154q0 -18 -14 -32l-16 -16q-39 -39 -71.5 -66t-61 -43.5t-55.5 -24t-54 -7.5q-32 0 -62.5 8t-61 17.5t-61.5 17.5t-63 8q-18 0 -40 -5q-25 -16 -50 -28q-10 -5 -21 -5q-24 0 -35.5 16.5t-11.5 30.5q0 26 24 42.5t55 25.5q44 31 92 78t97 100.5t98 109.5t94 104
q-54 3 -106 10t-106 7q-4 0 -15 -0.5t-25 -1.5t-27.5 -3.5t-21.5 -6.5q-6 -3 -6 -8q0 -3 0.5 -7.5t2.5 -12.5q1 -4 1.5 -7t0.5 -6q0 -20 -13.5 -32t-30.5 -12q-19 0 -35 17.5t-16 59.5q0 37 18 59t45.5 33t60 14.5t61.5 3.5q64 0 126.5 -9t127.5 -9q43 0 61 3q3 1 10 1
q23 0 34 -14.5t11 -31.5q0 -23 -21 -38q-43 -37 -88 -86.5t-92 -102.5t-95 -107t-97 -100q24 -5 48 -12.5t46.5 -14.5t44 -11.5t42.5 -4.5q15 0 31 4.5t36.5 17t47.5 35t63 58.5l16 16q14 14 32 14t32 -14t14 -32zM511 779q0 -11 -5.5 -21.5t-19.5 -17.5q-32 -16 -53 -29
t-35 -24.5t-23.5 -23t-17.5 -24.5q-18 -27 -41 -27q-13 0 -24 9.5t-16 29.5q-3 13 -10.5 28t-15.5 29t-17 26.5t-15 21.5q-10 13 -10 26q0 19 14.5 32.5t32.5 13.5q21 0 35 -20q6 -8 18 -24.5t23 -36.5q20 18 47 35.5t68 37.5q10 6 21 6q19 0 31.5 -14.5t12.5 -32.5z" />
    <glyph glyph-name="zcaron" unicode="&#x17e;" horiz-adv-x="379" 
d="M454 154q0 -18 -14 -32l-16 -16q-32 -32 -62.5 -55t-61.5 -43q-2 -45 -25.5 -95t-61 -92t-84 -69.5t-94.5 -27.5q-39 0 -58.5 23.5t-19.5 53.5q0 40 22 75t56.5 65t76 56t80.5 49q-12 5 -29 5q-14 0 -24.5 -2t-12.5 -4q-13 -10 -29 -10q-18 0 -30 13.5t-12 30.5
q0 14 6.5 25t16.5 17q72 42 104 70.5t42 44.5q2 2 4.5 7.5t2.5 8.5q0 4 -4 4q-3 0 -8.5 -1.5t-7.5 -2.5q-25 -8 -66 -37t-105 -93l-16 -16q-14 -14 -32 -14t-32 14t-14 32t14 32l16 16q44 44 81.5 75t69.5 50t59.5 27.5t52.5 8.5q23 0 39 -8.5t25.5 -22t13.5 -30t4 -31.5
q0 -37 -24 -70t-57 -62q9 -5 18 -12t14 -14q24 17 46.5 35.5t41.5 37.5l16 16q14 14 32 14t32 -14t14 -32zM190 -58q-24 -15 -47.5 -31t-46.5 -36q-20 -17 -31.5 -32.5t-15.5 -27.5q19 4 39 16t38.5 29t35 38.5t28.5 43.5zM450 521q0 -11 -5.5 -21.5t-19.5 -17.5
q-32 -16 -53 -29t-35 -24.5t-23.5 -23t-17.5 -24.5q-18 -27 -41 -27q-13 0 -24 9.5t-16 29.5q-3 13 -10.5 28t-15.5 29t-17 26.5t-15 21.5q-10 13 -10 26q0 19 14.5 32.5t32.5 13.5q21 0 35 -20q6 -8 18 -24.5t23 -36.5q20 18 47 35.5t68 37.5q10 6 21 6q19 0 31.5 -14.5
t12.5 -32.5z" />
    <glyph glyph-name="florin" unicode="&#x192;" 
d="M520 498q0 -19 -14.5 -31.5t-32.5 -12.5q-11 0 -21.5 5.5t-17.5 19.5q-4 8 -8.5 10.5t-5.5 3.5q-14 0 -28.5 -15t-29 -41t-29.5 -62.5t-31 -78.5q26 2 47 3.5t35 1.5q23 0 34 -14t11 -31t-11 -31t-34 -14q-18 0 -48 -2.5t-67 -5.5q-29 -82 -61 -167t-68 -154.5
t-76.5 -113.5t-86.5 -44q-33 0 -54 23t-21 55q0 16 6 32.5t16.5 30.5t25 23t32.5 9t29.5 -11.5t13.5 -27.5q26 47 43.5 87.5t32.5 80t30.5 81t36.5 90.5h-43q-23 0 -34 14t-11 31t11 31t34 14q20 0 40 0.5t40 1.5q17 41 32 79t29 70q13 30 28.5 56.5t34.5 46t42 31t50 11.5
q30 0 54.5 -17.5t38.5 -46.5q6 -12 6 -21z" />
    <glyph glyph-name="circumflex" unicode="&#x2c6;" horiz-adv-x="365" 
d="M377 363q0 -19 -14.5 -31.5t-32.5 -12.5q-11 0 -21.5 5.5t-17.5 19.5q-8 17 -20.5 37.5t-25.5 40.5q-25 -25 -51.5 -48t-43.5 -37q-13 -10 -27 -10q-19 0 -32.5 14.5t-13.5 32.5q0 20 19 35q11 9 27 22.5t33 29t33 31.5t27 29q15 17 34 17t34 -17q10 -12 22 -29t24 -36
t22.5 -38t18.5 -34q6 -11 6 -21z" />
    <glyph glyph-name="caron" unicode="&#x2c7;" horiz-adv-x="365" 
d="M358 531q0 -11 -5.5 -21.5t-19.5 -17.5q-32 -16 -53 -29t-35 -24.5t-23.5 -23t-17.5 -24.5q-18 -27 -41 -27q-13 0 -24 9.5t-16 29.5q-3 13 -10.5 28t-15.5 29t-17 26.5t-15 21.5q-10 13 -10 26q0 19 14.5 32.5t32.5 13.5q21 0 35 -20q6 -8 18 -24.5t23 -36.5
q20 18 47 35.5t68 37.5q10 6 21 6q19 0 31.5 -14.5t12.5 -32.5z" />
    <glyph glyph-name="tilde" unicode="&#x2dc;" horiz-adv-x="365" 
d="M453 460v-8t-2 -9q-6 -18 -16 -36.5t-24.5 -33.5t-33.5 -24t-43 -9q-27 0 -49 10.5t-39.5 23.5t-29.5 23.5t-19 10.5q-6 -4 -10.5 -16t-6.5 -18q-5 -17 -16.5 -24.5t-25.5 -7.5q-17 0 -31.5 11.5t-14.5 31.5q0 10 2 15q5 18 13.5 35.5t21 31.5t29 22.5t38.5 8.5
q25 0 45 -10.5t36.5 -23.5t30 -23.5t26.5 -10.5q3 0 11.5 6t19.5 37q5 17 17 23.5t25 6.5q17 0 31.5 -11.5t14.5 -31.5z" />
    <glyph glyph-name="endash" unicode="&#x2013;" horiz-adv-x="576" 
d="M478 150q0 -17 -11 -31t-33 -14h-4q-30 2 -66 3t-73 1q-33 0 -64.5 -0.5t-58.5 -2t-48.5 -3.5t-33.5 -4q-4 -1 -10 -1q-20 0 -31.5 14.5t-11.5 31.5q0 14 9 26.5t28 16.5q16 3 40 5t53.5 3.5t62 2.5t65.5 1q39 0 76 -1t69 -3q21 -2 31.5 -15.5t10.5 -29.5z" />
    <glyph glyph-name="emdash" unicode="&#x2014;" horiz-adv-x="1006" 
d="M938 149q0 -17 -11 -30.5t-33 -14.5q-31 -1 -66 -1.5t-73 -0.5q-57 0 -119 1t-125 1.5t-125 1.5t-119 1q-20 0 -44 -0.5t-46.5 -1t-41.5 -1t-28 -0.5q-22 0 -33 14t-11 31t10.5 30.5t32.5 14.5q34 2 75 2.5t86 0.5q57 0 119 -1t125 -1.5t125 -1.5t119 -1q35 0 69 1t69 1
q22 0 33.5 -14t11.5 -31z" />
    <glyph glyph-name="quoteleft" unicode="&#x2018;" horiz-adv-x="286" 
d="M310 644q0 -13 -7 -25t-24 -17q-16 -5 -31.5 -17t-28 -28t-20 -35t-7.5 -38v-6.5t1 -7.5q9 3 16 3q19 0 28.5 -12.5t9.5 -29.5q0 -20 -16 -39.5t-50 -19.5q-22 0 -37 10.5t-24.5 27t-13.5 36.5t-4 38q0 36 12.5 69t33.5 60t47.5 46.5t55.5 28.5q4 2 8 2h8
q20 0 31.5 -14.5t11.5 -31.5z" />
    <glyph glyph-name="quoteright" unicode="&#x2019;" horiz-adv-x="240" 
d="M250 530q0 -27 -9.5 -53t-25 -49.5t-35 -43.5t-39.5 -34q-13 -10 -27 -10q-19 0 -32.5 14.5t-13.5 32.5q0 21 19 35q32 24 52.5 55t20.5 53q0 14 -5 31h-4q-23 0 -33.5 13.5t-10.5 30.5q0 20 15 38.5t43 18.5q22 0 38.5 -14t26.5 -34.5t15 -43.5t5 -40z" />
    <glyph glyph-name="quotesinglbase" unicode="&#x201a;" horiz-adv-x="286" 
d="M164 23q0 -35 -14 -66t-34 -56.5t-41 -44.5t-34 -29t-27 -10q-19 0 -32 14.5t-13 32.5q0 21 20 35q13 10 28 24.5t28 31t21 34t8 34.5q0 11 -1 19t-2 14q-19 4 -27.5 16t-8.5 27q0 20 14.5 38t39.5 18q24 0 38.5 -14.5t22.5 -35t11 -43t3 -39.5z" />
    <glyph glyph-name="quotedblleft" unicode="&#x201c;" horiz-adv-x="361" 
d="M359 598q0 -20 -19 -35q-31 -23 -50 -42.5t-30 -35t-15.5 -27t-4.5 -17.5q5 2 9.5 3t8.5 1q19 0 29 -14t10 -31q0 -20 -15 -37.5t-48 -17.5q-19 0 -34.5 8t-26.5 21t-17 30t-6 35q0 45 32.5 94t103.5 102q13 10 27 10q19 0 32.5 -14.5t13.5 -32.5zM213 628q0 -22 -22 -37
q-14 -9 -34.5 -22.5t-40 -29.5t-34.5 -34t-19 -36q20 -2 30 -14t10 -28q0 -19 -14.5 -35t-44.5 -16q-18 0 -31.5 7t-22.5 19t-13.5 27.5t-4.5 31.5v1q0 35 17 65t42.5 55.5t55.5 46.5t56 38q13 8 25 8q19 0 32 -14.5t13 -32.5z" />
    <glyph glyph-name="quotedblright" unicode="&#x201d;" 
d="M481 524q0 -32 -11.5 -60t-28 -51.5t-35.5 -41.5t-34 -30q-12 -11 -28 -11q-19 0 -32.5 14.5t-13.5 32.5q0 19 18 34q31 25 53 54t22 59q0 8 -1 13.5t-2 10.5q-14 -9 -25 -9q-18 0 -31 14t-13 33q0 13 8 27t25 25t38 11q24 0 41.5 -12t28.5 -30t16 -40t5 -43zM294 535
q0 -63 -35.5 -112.5t-94.5 -81.5q-12 -6 -23 -6q-19 0 -32 14.5t-13 32.5q0 11 5.5 21.5t18.5 17.5q44 24 64 53.5t20 60.5q0 5 -0.5 9.5t-1.5 9.5q-14 -13 -31 -13t-29.5 14t-12.5 35q0 13 6 27t20 28q9 8 21 14t27 6q24 0 41 -13t28 -32.5t16.5 -42.5t5.5 -42z" />
    <glyph glyph-name="quotedblbase" unicode="&#x201e;" horiz-adv-x="521" 
d="M348 33q0 -22 -6.5 -47t-18.5 -49t-28.5 -46t-35.5 -39q-15 -12 -29 -12q-19 0 -32.5 14.5t-13.5 32.5q0 19 17 33q13 11 23.5 26t18 30.5t11.5 30t4 26.5t-3 23q-9 -3 -16 -3q-6 0 -10.5 2t-9.5 4q1 -5 1 -10.5v-10.5q0 -29 -10.5 -55t-28.5 -48.5t-41.5 -42
t-48.5 -34.5q-11 -7 -24 -7q-19 0 -32 14.5t-13 32.5q0 11 5.5 21t17.5 17q45 27 65 54.5t20 47.5q0 9 -1 17t-3 14q-8 -3 -17 -3q-17 0 -31 11t-14 34q0 27 20 45.5t46 18.5q27 0 44.5 -16.5t28.5 -39.5q5 15 19.5 26t38.5 11t40.5 -12t27 -30t15 -40t4.5 -41z" />
    <glyph glyph-name="dagger" unicode="&#x2020;" horiz-adv-x="544" 
d="M525 342q0 -17 -11 -31t-34 -14q-6 0 -26.5 0.5t-47.5 1t-56 1.5t-52 2q-11 -34 -23.5 -69.5t-24.5 -70.5q-21 -63 -42 -124.5t-38.5 -113t-30.5 -90.5t-17 -57q-5 -18 -17 -26t-26 -8q-17 0 -32 11.5t-15 31.5q0 3 0.5 6t1.5 7q5 18 18 58t31 93t39 115.5t43 126.5
q10 29 19.5 57t18.5 55h-33q-51 0 -77 -1.5t-34 -1.5q-22 0 -33 14t-11 31q0 16 10.5 29.5t31.5 15.5q55 3 122 3h54q21 63 35 107t16 60q3 20 15.5 29t27.5 9q17 0 31.5 -11t14.5 -32l-1 -9q-3 -18 -15 -58.5t-30 -96.5q42 -2 81 -3t73 -2q22 -1 33 -14.5t11 -30.5z" />
    <glyph glyph-name="daggerdbl" unicode="&#x2021;" horiz-adv-x="500" 
d="M545 392q0 -17 -11 -31t-33 -14h-5q-35 0 -72 3t-75 3h-38q-21 -62 -43.5 -127t-45.5 -130h25q38 0 72 -1.5t61 -4.5q20 -2 30 -15t10 -29q0 -17 -11.5 -31.5t-32.5 -14.5h-6q-25 3 -56.5 4.5t-66.5 1.5q-14 0 -28.5 -0.5t-28.5 -0.5q-19 -56 -35.5 -106t-27.5 -92
q-5 -17 -16.5 -25t-25.5 -8q-17 0 -31.5 11.5t-14.5 31.5q0 4 2 14q10 37 23.5 79.5t29.5 90.5q-44 -2 -83.5 -5.5t-70.5 -7.5h-6q-21 0 -32.5 14.5t-11.5 31.5q0 15 10 28.5t30 15.5q38 5 89 9t107 6q22 63 45 128t44 128q-82 -5 -141 -14l-9 -1q-21 0 -32 14.5t-11 31.5
q0 15 9 27.5t29 15.5q37 6 84 11t101 7q15 48 27 89.5t20 76.5q4 19 16.5 27t26.5 8q17 0 31.5 -11.5t14.5 -31.5q0 -8 -1 -12q-7 -30 -17 -66t-23 -78h13q80 0 151 -6q21 -2 31 -15.5t10 -29.5z" />
    <glyph glyph-name="bullet" unicode="&#x2022;" horiz-adv-x="349" 
d="M257 145q-3 -9 -12.5 -20t-23 -21.5t-28.5 -17.5t-28 -7q-18 0 -31.5 7.5t-22.5 19t-14 26.5t-5 30t4 26q3 9 12.5 20t22.5 21.5t28 17.5t29 7q17 0 30.5 -7.5t23 -20t14.5 -27.5t5 -30q0 -13 -4 -24z" />
    <glyph glyph-name="ellipsis" unicode="&#x2026;" horiz-adv-x="1000" 
d="M862 13q0 -19 -14.5 -32t-32.5 -13q-22 0 -36 21l-14 21q-9 13 -9 26q0 19 14.5 32t32.5 13q22 0 36 -21l14 -21q9 -14 9 -26zM521 32q0 -19 -14.5 -32.5t-32.5 -13.5q-20 0 -35 19l-10 13q-10 13 -10 27q0 19 14.5 32.5t32.5 13.5q20 0 35 -19l10 -13q10 -13 10 -27z
M183 36q0 -14 -9 -27l-10 -14q-14 -20 -36 -20q-18 0 -32.5 13t-14.5 32q0 13 9 27l10 14q14 20 36 20q18 0 32.5 -13t14.5 -32z" />
    <glyph glyph-name="perthousand" unicode="&#x2030;" horiz-adv-x="958" 
d="M987 122q0 -50 -16 -89.5t-41.5 -66.5t-58.5 -41.5t-66 -14.5q-25 0 -48 8.5t-40.5 25t-28 40.5t-10.5 55q0 45 17.5 86t45 71.5t62.5 48.5t70 18q54 0 84 -39t30 -102zM700 559q0 -22 -17 -40.5t-43 -32.5l-92 -105q-22 -25 -54 -61t-68 -77.5t-73.5 -86t-70 -85.5
t-57 -76.5t-35.5 -58.5q-7 -14 -17.5 -20t-21.5 -6q-18 0 -33 12t-15 32q0 8 5 20q9 20 31.5 52.5t52.5 71.5t66.5 83.5t74 89t75 87.5t69.5 79q-10 -2 -18 -2h-14q-34 0 -65 7v-10q0 -43 -13.5 -79t-36.5 -62t-52.5 -40.5t-61.5 -14.5q-57 0 -92 43t-35 114q0 28 8 58.5
t26 57t46.5 45.5t68.5 25h7q12 0 20 -4q6 7 15 10.5t18 3.5q21 0 36 -19q19 -23 47 -34t64 -11q37 0 73 9.5t63 23.5q20 20 39 34t33 14q20 0 33.5 -13.5t13.5 -33.5zM678 149q0 -43 -17.5 -81t-45.5 -66.5t-62.5 -45t-67.5 -16.5q-30 0 -51.5 11.5t-35.5 30.5t-20.5 43.5
t-6.5 51.5q0 72 40.5 124.5t104.5 75.5q11 11 30 11h7q31 -5 54.5 -18t39.5 -31.5t23.5 -41.5t7.5 -48zM897 122q0 5 -0.5 13.5t-3 17t-7 14.5t-13.5 6q-14 0 -32 -10t-34 -27.5t-27.5 -42t-11.5 -54.5q0 -21 10 -30t27 -9q13 0 29 6.5t30 21t23.5 38t9.5 56.5zM290 436
q0 16 -5 32.5t-12 30.5q-10 -9 -23 -10q-35 -5 -53 -31.5t-18 -64.5q0 -23 4 -36.5t10 -20t12.5 -8.5t10.5 -2q9 0 21.5 6t24.5 19t20 34t8 51zM588 149q0 20 -8.5 30.5t-23.5 15.5q-42 -11 -68.5 -42t-26.5 -76q0 -6 0.5 -14t3 -15.5t7 -12.5t13.5 -5q14 0 32 9.5
t33.5 25.5t26.5 37.5t11 46.5z" />
    <glyph glyph-name="guilsinglleft" unicode="&#x2039;" horiz-adv-x="430" 
d="M319 275q0 -22 -20 -36q-23 -16 -46.5 -31.5t-46.5 -29.5q18 -17 36 -35l35 -35q14 -14 14 -32t-14 -32t-32 -14t-32 14q-28 28 -55 55.5t-58 51.5q-21 16 -21 37q0 24 29 38q28 14 64.5 37t74.5 50q13 9 27 9q19 0 32 -14.5t13 -32.5z" />
    <glyph glyph-name="guilsinglright" unicode="&#x203a;" horiz-adv-x="435" 
d="M336 161q0 -25 -26 -39q-9 -4 -33 -16.5t-51.5 -27t-51 -28.5t-30.5 -20q-13 -12 -30 -12q-18 0 -32 14.5t-14 32.5t16 33q12 11 29 21.5t35.5 20t36.5 18.5t33 17q-20 22 -40 40t-31 26q-21 14 -21 36q0 18 13 32.5t32 14.5q12 0 26 -9q12 -8 28.5 -22.5t34 -31.5
t34.5 -35.5t31 -35.5q11 -14 11 -29z" />
    <glyph glyph-name="Euro" unicode="&#x20ac;" horiz-adv-x="600" 
d="M562 309q0 -23 -14 -34t-31 -11t-31 11t-14 34q0 28 -10.5 37t-30.5 9q-42 0 -79 -17t-66 -45h15h39.5t33.5 -1q22 -1 32.5 -14.5t10.5 -30.5t-11 -31t-33 -14q-10 0 -32 0.5t-40 0.5h-41.5t-39.5 -1q-7 -15 -13 -32h12h63.5t55.5 -1q22 -1 33 -14.5t11 -30.5t-11.5 -31
t-33.5 -14h-18.5t-30.5 0.5t-35.5 0.5h-33.5h-22q5 -29 24 -48t55 -19q46 0 85 19.5t56 52.5q7 13 17.5 18.5t21.5 5.5q18 0 32.5 -12.5t14.5 -31.5q0 -10 -6 -22q-16 -31 -41 -53.5t-55 -37.5t-62 -22t-63 -7q-41 0 -71.5 12t-51.5 33t-32 49.5t-14 61.5q-7 -1 -13 -1h-14
q-23 0 -34 14t-11 31t11 30.5t33 14.5l36 1q3 12 8 28l-18 -1q-22 0 -33 14t-11 31q0 16 10 29.5t31 15.5q15 2 31.5 2.5t33.5 1.5q21 33 48.5 61t61 49t72 33t82.5 12q57 0 94 -35t37 -101z" />
    <glyph glyph-name="trademark" unicode="&#x2122;" horiz-adv-x="713" 
d="M743 622q0 -8 -5 -18q-6 -23 -11.5 -54.5t-9 -65t-6 -65t-2.5 -54.5t-14 -34t-31 -11t-31 11t-14 34q0 25 2 58t7 68q-46 -61 -78 -152q-5 -16 -17 -23t-25 -7q-17 0 -31.5 11.5t-14.5 31.5q0 7 1 11q2 18 4.5 45.5t3.5 46.5q-21 -36 -41 -67t-33 -50q-14 -20 -36 -20
q-18 0 -32.5 13t-14.5 32q0 13 9 27q12 17 30 45.5t36.5 60.5t35.5 64t27 56q3 17 16.5 26.5t29.5 9.5q13 0 24 -7t17 -23q13 -36 18 -76q26 35 54 62.5t59 50.5q13 10 27 10q19 0 32.5 -14.5t13.5 -32.5zM419 602q0 -17 -11 -31.5t-32 -14.5q-7 0 -10 1q-10 2 -33.5 3
t-54.5 2q-6 -21 -15.5 -51t-20 -61.5t-22 -60.5t-21.5 -50q-7 -14 -17.5 -19.5t-21.5 -5.5q-18 0 -32.5 12t-14.5 32q0 10 6 21q8 16 16.5 38.5t17.5 47t17 50t14 46.5q-11 -1 -19.5 -1t-13.5 -2q-6 -16 -17 -23t-24 -7q-17 0 -31.5 11.5t-14.5 31.5q0 8 3 17q8 22 22 34.5
t31.5 19.5t38 9t40.5 2t46.5 -0.5t52.5 -1t48.5 -2t35.5 -4.5q20 -4 28.5 -16.5t8.5 -26.5z" />
    </font>
</defs>
</svg>
